<?xml version="1.0" encoding="utf-8"?>
<!-- Generator: Adobe Illustrator 16.0.0, SVG Export Plug-In . SVG Version: 6.00 Build 0)  -->
<!DOCTYPE svg PUBLIC "-//W3C//DTD SVG 1.1//EN" "http://www.w3.org/Graphics/SVG/1.1/DTD/svg11.dtd">
<svg version="1.1" id="Ebene_1" xmlns="http://www.w3.org/2000/svg" xmlns:xlink="http://www.w3.org/1999/xlink" x="0px" y="0px"
	 width="479.54px" height="480.13px" viewBox="0 0 479.54 480.13" enable-background="new 0 0 479.54 480.13" xml:space="preserve">
<path fill="#3586C7" d="M168.7,98.863c48.46-57.158,125.65-79.35,188.033-37.855c62.382,41.458,79.323,125.645,37.866,188.039
	c-21.724,32.654-55.153,52.854-91.053,58.742v0.014c-103.489,19.744-122.354,21.097-154.572,53.455
	c-15.437,15.492-30.479,39.146-37.18,62.801c-4.492,15.788-5.968,35.434-5.587,46.362c0.264,7.354-3.744,9.554-7.432,8.435
	c-3.737-1.192-5.183-4.315-9.528-44.433c-5.624-52.312-6.418-138.35,7.518-185.101C114.127,182.939,137.086,136.176,168.7,98.863"/>
</svg>
