<?xml version="1.0" standalone="no"?>
<!DOCTYPE svg PUBLIC "-//W3C//DTD SVG 1.1//EN" "http://www.w3.org/Graphics/SVG/1.1/DTD/svg11.dtd" >
<svg xmlns="http://www.w3.org/2000/svg" xmlns:xlink="http://www.w3.org/1999/xlink" version="1.1">
<metadata>
Created by FontForge 20170731 at Tue Mar  1 15:35:17 2022
 By Aleksey,,,
Copyright (c) 2014 by Ryoichi Tsunekawa. All rights reserved.
</metadata>
<defs>
<font id="Pero-Bold" horiz-adv-x="724" >
  <font-face 
    font-family="Pero"
    font-weight="700"
    font-stretch="normal"
    units-per-em="2048"
    panose-1="2 15 7 6 2 2 3 3 3 4"
    ascent="1536"
    descent="-512"
    x-height="1032"
    cap-height="1364"
    bbox="-281 -418 2265 1870"
    underline-thickness="116"
    underline-position="-282"
    unicode-range="U+0020-FB04"
  />
<missing-glyph horiz-adv-x="1228" 
d="M1143 0h-1049v1352h1049v-1352zM991 1268h-745l372 -516zM563 676l-377 520v-1040zM674 676l377 -520v1040zM991 84l-373 516l-372 -516h745z" />
    <glyph glyph-name="ff" unicode="ff" horiz-adv-x="1363" 
d="M1141 1243q-63 0 -97 -41t-34 -119v-51h258q49 0 77.5 -26t28.5 -72t-28.5 -72t-77.5 -26h-258v-727q0 -57 -29.5 -89t-83.5 -32q-53 0 -83 32t-30 89v727h-381v-727q0 -57 -30 -89t-84 -32q-52 0 -81.5 32t-29.5 89v727h-65q-48 0 -76.5 26.5t-28.5 71.5t28.5 71.5
t76.5 26.5h65v8q0 179 102 282t281 103q189 0 297 -94q92 115 281 115q156 0 247 -82q33 -30 33 -76q0 -51 -29.5 -80.5t-76.5 -29.5q-38 0 -74 28q-46 37 -98 37zM784 1032v88q-26 53 -76.5 81t-117.5 28q-90 0 -138.5 -48.5t-48.5 -136.5v-12h381z" />
    <glyph glyph-name="fi" unicode="fi" horiz-adv-x="1136" 
d="M403 1032h494q53 0 83 -32t30 -89v-802q0 -57 -30 -89t-83 -32t-83 32t-30 89v727h-381v-727q0 -57 -30 -89t-84 -32q-52 0 -81.5 32t-29.5 89v727h-65q-48 0 -76.5 26.5t-28.5 71.5t28.5 71.5t76.5 26.5h65v19q0 189 104 292t296 103q197 0 303 -92q37 -29 37 -80
t-28.5 -81t-72.5 -30q-42 0 -76 27q-71 53 -161 53q-177 0 -177 -194v-17z" />
    <glyph glyph-name="fl" unicode="fl" horiz-adv-x="1138" 
d="M946 1333q66 -57 66 -159v-1065q0 -57 -29.5 -89t-83.5 -32t-83.5 32t-29.5 89v1065q-63 75 -184 75q-99 0 -149 -53.5t-50 -155.5v-8h177q49 0 77.5 -26t28.5 -72t-28.5 -72t-77.5 -26h-177v-727q0 -57 -30 -89t-84 -32q-52 0 -81.5 32t-29.5 89v727h-65
q-48 0 -76.5 26.5t-28.5 71.5t28.5 71.5t76.5 26.5h65v4q0 199 108 304.5t312 105.5q213 0 348 -113z" />
    <glyph glyph-name="ffi" unicode="ffi" horiz-adv-x="1724" 
d="M989 1032h494q53 0 82.5 -32t29.5 -89v-802q0 -57 -29.5 -89t-82.5 -32t-83 32t-30 89v727h-381v-727q0 -57 -30.5 -89t-84.5 -32q-52 0 -81 32t-29 89v727h-361v-727q0 -57 -30 -89t-84 -32q-52 0 -81.5 32t-29.5 89v727h-65q-48 0 -76.5 26.5t-28.5 71.5t28.5 71.5
t76.5 26.5h65v8q0 179 102 282t281 103q190 0 295 -94q106 115 307 115q197 0 303 -92q37 -29 37 -80t-28 -81t-72 -30q-42 0 -76 27q-71 53 -162 53q-176 0 -176 -194v-17zM764 1032v25q0 47 6 88q-60 84 -180 84q-90 0 -138.5 -48.5t-48.5 -136.5v-12h361z" />
    <glyph glyph-name="ffl" unicode="ffl" horiz-adv-x="1726" 
d="M1532 1333q65 -56 65 -159v-1065q0 -57 -29 -89t-83 -32t-83.5 32t-29.5 89v1065q-63 75 -184 75q-99 0 -149 -53.5t-50 -155.5v-8h176q50 0 78.5 -26t28.5 -72t-28.5 -72t-78.5 -26h-176v-727q0 -57 -30.5 -89t-84.5 -32q-52 0 -81 32t-29 89v727h-361v-727
q0 -57 -30 -89t-84 -32q-52 0 -81.5 32t-29.5 89v727h-65q-48 0 -76.5 26.5t-28.5 71.5t28.5 71.5t76.5 26.5h65v8q0 179 102 282t281 103q192 0 299 -96q108 117 324 117q213 0 348 -113zM764 1032v4q0 66 8 107q-61 86 -182 86q-90 0 -138.5 -48.5t-48.5 -136.5v-12h361z
" />
    <glyph glyph-name="f_b" unicode="fb" horiz-adv-x="1777" 
d="M786 1174q-63 75 -184 75q-99 0 -149 -53.5t-50 -155.5v-8h177q49 0 77.5 -26t28.5 -72t-28.5 -72t-77.5 -26h-177v-727q0 -57 -30 -89t-84 -32q-52 0 -81.5 32t-29.5 89v727h-65q-48 0 -76.5 26.5t-28.5 71.5t28.5 71.5t76.5 26.5h65v4q0 199 108 304.5t312 105.5
q213 0 348 -113q66 -57 66 -159v-222h4q94 105 258 105q187 0 296 -118.5t109 -320.5v-188q0 -214 -118 -334.5t-328 -120.5q-209 0 -328 120.5t-119 334.5v744zM1454 438v170q0 117 -57.5 181.5t-163.5 64.5q-104 0 -162.5 -64.5t-58.5 -181.5v-170q0 -126 57 -193t164 -67
t164 67t57 193z" />
    <glyph glyph-name="f_f_b" unicode="ffb" horiz-adv-x="2363" 
d="M764 1032v4q0 66 8 107q-61 86 -182 86q-90 0 -138.5 -48.5t-48.5 -136.5v-12h361zM1372 430v744q-63 75 -184 75q-99 0 -149 -53.5t-50 -155.5v-8h176q50 0 78.5 -26t28.5 -72t-28.5 -72t-78.5 -26h-176v-727q0 -57 -30.5 -89t-84.5 -32q-52 0 -81 32t-29 89v727h-361
v-727q0 -57 -30 -89t-84 -32q-52 0 -81.5 32t-29.5 89v727h-65q-48 0 -76.5 26.5t-28.5 71.5t28.5 71.5t76.5 26.5h65v8q0 179 102 282t281 103q192 0 299 -96q108 117 324 117q213 0 348 -113q65 -56 65 -159v-222h5q94 105 258 105q187 0 296 -118.5t109 -320.5v-188
q0 -214 -118 -334.5t-328 -120.5q-209 0 -328 120.5t-119 334.5zM2040 438v170q0 117 -57.5 181.5t-163.5 64.5q-105 0 -163.5 -64.5t-58.5 -181.5v-170q0 -126 57.5 -193t164.5 -67t164 67t57 193z" />
    <glyph glyph-name="f_h" unicode="fh" horiz-adv-x="1773" 
d="M786 1174q-63 75 -184 75q-99 0 -149 -53.5t-50 -155.5v-8h177q49 0 77.5 -26t28.5 -72t-28.5 -72t-77.5 -26h-177v-727q0 -57 -30 -89t-84 -32q-52 0 -81.5 32t-29.5 89v727h-65q-48 0 -76.5 26.5t-28.5 71.5t28.5 71.5t76.5 26.5h65v4q0 199 108 304.5t312 105.5
q213 0 348 -113q66 -57 66 -159v-218h4q93 101 256 101q183 0 286 -116t103 -320v-512q0 -57 -29.5 -89t-83.5 -32t-83 32t-29 89v501q0 118 -54.5 181t-156.5 63t-157.5 -63t-55.5 -181v-501q0 -57 -29.5 -89t-81.5 -32q-54 0 -84.5 32t-30.5 89v1065z" />
    <glyph glyph-name="f_f_h" unicode="ffh" horiz-adv-x="2359" 
d="M764 1032v4q0 66 8 107q-61 86 -182 86q-90 0 -138.5 -48.5t-48.5 -136.5v-12h361zM1372 109v1065q-63 75 -184 75q-99 0 -149 -53.5t-50 -155.5v-8h176q50 0 78.5 -26t28.5 -72t-28.5 -72t-78.5 -26h-176v-727q0 -57 -30.5 -89t-84.5 -32q-52 0 -81 32t-29 89v727h-361
v-727q0 -57 -30 -89t-84 -32q-52 0 -81.5 32t-29.5 89v727h-65q-48 0 -76.5 26.5t-28.5 71.5t28.5 71.5t76.5 26.5h65v8q0 179 102 282t281 103q192 0 299 -96q108 117 324 117q213 0 348 -113q65 -56 65 -159v-218h5q93 101 256 101q183 0 286 -116t103 -320v-512
q0 -57 -29.5 -89t-83.5 -32t-83.5 32t-29.5 89v501q0 118 -54.5 181t-156.5 63t-157.5 -63t-55.5 -181v-501q0 -57 -29 -89t-81 -32q-54 0 -84.5 32t-30.5 89z" />
    <glyph glyph-name="f_j" unicode="fj" horiz-adv-x="1138" 
d="M1012 911v-979q0 -143 -73.5 -222t-199.5 -79q-134 0 -202 62q-35 31 -35 80q0 47 28 75.5t74 28.5q35 0 62 -20q34 -23 63 -23q26 0 41.5 21.5t15.5 58.5v922h-383v-727q0 -57 -30 -89t-84 -32q-52 0 -81.5 32t-29.5 89v727h-65q-48 0 -76.5 26.5t-28.5 71.5t28.5 71.5
t76.5 26.5h65v19q0 189 104 292t296 103q187 0 303 -92q37 -29 37 -80t-28.5 -81t-72.5 -30q-42 0 -76 27q-67 53 -161 53q-177 0 -177 -194v-17h496q53 0 83 -32t30 -89z" />
    <glyph glyph-name="f_f_j" unicode="ffj" horiz-adv-x="1726" 
d="M764 1032v25q0 47 6 88q-60 84 -180 84q-90 0 -138.5 -48.5t-48.5 -136.5v-12h361zM1597 911v-979q0 -143 -73 -222t-199 -79q-135 0 -203 62q-35 32 -35 80q0 47 28.5 75.5t74.5 28.5q34 0 61 -20q35 -23 64 -23q26 0 41.5 21.5t15.5 58.5v922h-383v-727
q0 -57 -30.5 -89t-84.5 -32q-52 0 -81 32t-29 89v727h-361v-727q0 -57 -30 -89t-84 -32q-52 0 -81.5 32t-29.5 89v727h-65q-48 0 -76.5 26.5t-28.5 71.5t28.5 71.5t76.5 26.5h65v8q0 179 102 282t281 103q190 0 295 -94q106 115 307 115q187 0 303 -92q37 -29 37 -80
t-28 -81t-72 -30q-42 0 -76 27q-67 53 -162 53q-176 0 -176 -194v-17h496q53 0 82.5 -32t29.5 -89z" />
    <glyph glyph-name="f_k" unicode="fk" horiz-adv-x="1654" 
d="M786 1174q-63 75 -184 75q-99 0 -149 -53.5t-50 -155.5v-8h177q49 0 77.5 -26t28.5 -72t-28.5 -72t-77.5 -26h-177v-727q0 -57 -30 -89t-84 -32q-52 0 -81.5 32t-29.5 89v727h-65q-48 0 -76.5 26.5t-28.5 71.5t28.5 71.5t76.5 26.5h65v4q0 199 108 304.5t312 105.5
q213 0 348 -113q66 -57 66 -159v-547l393 385q32 32 80 32q49 0 79.5 -30t30.5 -80q0 -51 -32 -80l-361 -330l375 -338q39 -31 39 -86q0 -50 -30.5 -81t-76.5 -31q-47 0 -90 37l-407 391v-307q0 -57 -29.5 -89t-81.5 -32q-54 0 -84.5 32t-30.5 89v1065z" />
    <glyph glyph-name="f_f_k" unicode="ffk" horiz-adv-x="2240" 
d="M764 1032v4q0 66 8 107q-61 86 -182 86q-90 0 -138.5 -48.5t-48.5 -136.5v-12h361zM1372 109v1065q-63 75 -184 75q-99 0 -149 -53.5t-50 -155.5v-8h176q50 0 78.5 -26t28.5 -72t-28.5 -72t-78.5 -26h-176v-727q0 -57 -30.5 -89t-84.5 -32q-52 0 -81 32t-29 89v727h-361
v-727q0 -57 -30 -89t-84 -32q-52 0 -81.5 32t-29.5 89v727h-65q-48 0 -76.5 26.5t-28.5 71.5t28.5 71.5t76.5 26.5h65v8q0 179 102 282t281 103q192 0 299 -96q108 117 324 117q213 0 348 -113q65 -56 65 -159v-547l394 385q32 32 80 32q49 0 79.5 -30t30.5 -80t-33 -80
l-360 -330l375 -338q39 -31 39 -86q0 -50 -30.5 -81t-76.5 -31q-47 0 -90 37l-408 391v-307q0 -57 -29 -89t-81 -32q-54 0 -84.5 32t-30.5 89z" />
    <glyph glyph-name="f_t" unicode="ft" horiz-adv-x="1415" 
d="M776 1032v131q-59 86 -188 86q-88 0 -136.5 -48t-48.5 -136v-33h373zM776 293v543h-373v-727q0 -57 -30 -89t-84 -32q-52 0 -81.5 32t-29.5 89v727h-65q-48 0 -76.5 26.5t-28.5 71.5t28.5 71.5t76.5 26.5h65v12q0 191 104.5 296.5t297.5 105.5q137 0 237 -42.5
t148 -117.5q36 -52 36 -135v-119h261q48 0 76 -26.5t28 -71.5t-28 -71.5t-76 -26.5h-261v-543q0 -55 26.5 -85t76.5 -30q32 0 55.5 14.5t48.5 45.5q27 34 78 34q47 0 75 -28.5t28 -75.5q0 -30 -15 -57q-34 -63 -107.5 -99.5t-170.5 -36.5q-154 0 -237 81.5t-83 236.5z" />
    <glyph glyph-name="f_f_t" unicode="fft" horiz-adv-x="2021" 
d="M1892 272q47 0 75 -28.5t28 -75.5q0 -30 -15 -57q-34 -63 -107.5 -99.5t-170.5 -36.5q-154 0 -237 81.5t-83 236.5v543h-372v-727q0 -57 -30.5 -89t-84.5 -32q-52 0 -81.5 32t-29.5 89v727h-381v-727q0 -57 -30 -89t-84 -32q-52 0 -81.5 32t-29.5 89v727h-65
q-48 0 -76.5 26.5t-28.5 71.5t28.5 71.5t76.5 26.5h65v8q0 179 102 282t281 103q203 0 309 -106q105 127 316 127q137 0 237 -42.5t148 -117.5q37 -53 37 -135v-119h260q48 0 76 -26.5t28 -71.5t-28 -71.5t-76 -26.5h-260v-543q0 -56 26.5 -85.5t75.5 -29.5q57 0 105 60
q27 34 77 34zM784 1032v19q0 25 4 65q-26 54 -77.5 83.5t-120.5 29.5q-90 0 -138.5 -48.5t-48.5 -136.5v-12h381zM1382 1032v131q-59 86 -188 86q-88 0 -136 -48t-48 -136v-33h372z" />
    <glyph glyph-name=".notdef" horiz-adv-x="1228" 
d="M1143 0h-1049v1352h1049v-1352zM991 1268h-745l372 -516zM563 676l-377 520v-1040zM674 676l377 -520v1040zM991 84l-373 516l-372 -516h745z" />
    <glyph glyph-name=".null" horiz-adv-x="0" 
 />
    <glyph glyph-name="nonmarkingreturn" horiz-adv-x="682" 
 />
    <glyph glyph-name="space" unicode=" " horiz-adv-x="466" 
 />
    <glyph glyph-name="exclam" unicode="!" horiz-adv-x="522" 
d="M154 492l-23 735q0 63 35 100t96 37q60 0 95.5 -37t35.5 -100l-24 -735q-2 -55 -29.5 -85t-77.5 -30q-51 0 -78.5 30.5t-29.5 84.5zM262 264q59 0 98 -39.5t39 -99.5q0 -59 -39.5 -98t-97.5 -39q-60 0 -99.5 39t-39.5 98q0 60 39.5 99.5t99.5 39.5z" />
    <glyph glyph-name="quotedbl" unicode="&#x22;" horiz-adv-x="847" 
d="M350 1247l-24 -407q-3 -41 -29 -68t-64 -27q-40 0 -66 27t-28 68l-20 407q0 51 31.5 84t82.5 33q50 0 83.5 -33t33.5 -84zM731 1247l-24 -407q-3 -41 -29 -68t-64 -27q-40 0 -66 27t-28 68l-20 407q0 51 31.5 84t82.5 33q50 0 83.5 -33t33.5 -84z" />
    <glyph glyph-name="numbersign" unicode="#" horiz-adv-x="1161" 
d="M442 553h244l27 244h-244zM242 381h-101q-44 0 -69 23t-25 63q0 41 25 63.5t69 22.5h119l27 244h-101q-44 0 -69 23t-25 63q0 41 25 63.5t69 22.5h119l33 309q4 42 27.5 64t60.5 22q44 0 69 -22.5t25 -61.5q0 -17 -2 -35l-31 -276h246l33 309q4 42 27.5 64t60.5 22
q44 0 69 -22.5t25 -61.5q0 -17 -2 -35l-31 -276h107q43 0 67.5 -22.5t24.5 -63.5q0 -40 -24.5 -63t-67.5 -23h-125l-25 -244h105q43 0 67.5 -22.5t24.5 -63.5q0 -40 -24.5 -63t-67.5 -23h-125l-33 -307q-4 -42 -27.5 -64t-60.5 -22q-44 0 -69 22.5t-25 61.5q0 16 2 34
l31 275h-246l-33 -307q-4 -42 -27.5 -64t-60.5 -22q-44 0 -69 22.5t-25 61.5q0 16 2 34z" />
    <glyph glyph-name="dollar" unicode="$" horiz-adv-x="1161" 
d="M1044 408q0 -149 -95.5 -251.5t-256.5 -125.5v-82q0 -54 -29 -84.5t-81 -30.5q-51 0 -80 30.5t-29 84.5v84q-243 34 -344 192q-20 33 -20 68q0 53 32 86t84 33q56 0 88 -43q53 -68 122.5 -99.5t170.5 -31.5q90 0 144.5 46.5t54.5 123.5q0 76 -57 114t-209 56
q-222 26 -316 113t-94 259q0 149 91 246.5t253 122.5v63q0 54 29 84.5t80 30.5q52 0 81 -30.5t29 -84.5v-63q186 -27 293 -158q23 -29 23 -69q0 -53 -30.5 -85t-82.5 -32q-54 0 -90 39q-90 100 -238 100q-92 0 -145 -44.5t-53 -119.5q0 -69 55 -103.5t197 -47.5
q228 -22 325.5 -114t97.5 -277z" />
    <glyph glyph-name="percent" unicode="%" horiz-adv-x="1298" 
d="M248 115l665 1208q24 43 70 43q35 0 58.5 -22.5t23.5 -57.5q0 -24 -14 -49l-668 -1208q-24 -43 -70 -43q-35 0 -58.5 22.5t-23.5 57.5q0 18 17 49zM59 1053v43q0 132 73 206t204 74q130 0 202 -74t72 -206v-43q0 -131 -72 -205t-202 -74t-203.5 74t-73.5 205zM444 1061
v29q0 69 -26.5 102t-81.5 33q-57 0 -84 -33t-27 -102v-29q0 -71 26.5 -103t84.5 -32q56 0 82 32t26 103zM686 254v43q0 132 73.5 206.5t203.5 74.5t202 -74.5t72 -206.5v-43q0 -131 -72 -205t-202 -74t-203.5 74t-73.5 205zM1071 262v29q0 69 -26.5 102t-81.5 33
q-57 0 -84 -33t-27 -102v-29q0 -71 26.5 -103t84.5 -32q56 0 82 32t26 103z" />
    <glyph glyph-name="ampersand" unicode="&#x26;" horiz-adv-x="1226" 
d="M1038 322l136 -129q38 -33 38 -87t-30.5 -86t-81.5 -32q-52 0 -84 32l-107 105q-153 -150 -387 -150q-210 0 -332 103.5t-122 281.5q0 245 235 365q-139 158 -139 307q0 163 99.5 253.5t279.5 90.5q172 0 266 -83.5t94 -235.5q0 -114 -65 -199.5t-201 -148.5l223 -215h2
q14 49 17 112q6 117 110 117q52 0 80.5 -30.5t28.5 -86.5q0 -141 -60 -284zM539 1180q-71 0 -111.5 -38t-40.5 -104q0 -43 25 -87t82 -103q99 41 144.5 89.5t45.5 113.5q0 60 -39 94.5t-106 34.5zM522 178q147 0 234 96l-310 306q-153 -79 -153 -213q0 -86 62.5 -137.5
t166.5 -51.5z" />
    <glyph glyph-name="quotesingle" unicode="'" horiz-adv-x="466" 
d="M350 1247l-24 -407q-3 -41 -29 -68t-64 -27q-40 0 -66 27t-28 68l-20 407q0 51 31.5 84t82.5 33q50 0 83.5 -33t33.5 -84z" />
    <glyph glyph-name="parenleft" unicode="(" horiz-adv-x="718" 
d="M129 584q0 220 83.5 411t242.5 336q37 33 77 33q44 0 75.5 -31.5t31.5 -75.5q0 -38 -33 -75q-121 -132 -178 -274.5t-57 -323.5t57 -323.5t178 -274.5q33 -37 33 -76q0 -44 -31.5 -75.5t-75.5 -31.5q-40 0 -77 33q-159 145 -242.5 336t-83.5 412z" />
    <glyph glyph-name="parenright" unicode=")" horiz-adv-x="718" 
d="M590 584q0 -221 -83.5 -412t-242.5 -336q-37 -33 -78 -33q-44 0 -75 31.5t-31 75.5q0 39 33 76q121 132 178 274.5t57 323.5t-57 323.5t-178 274.5q-33 37 -33 75q0 44 31 75.5t75 31.5q41 0 78 -33q159 -145 242.5 -336t83.5 -411z" />
    <glyph glyph-name="asterisk" unicode="*" horiz-adv-x="956" 
d="M479 1434q43 0 68.5 -27.5t25.5 -73.5q0 -14 -2 -30l-24 -234l231 102q26 11 51 11q43 0 67 -30.5t24 -68.5q0 -74 -84 -92l-248 -51l166 -186q34 -39 34 -78q0 -38 -27 -65t-67 -27q-55 0 -82 49l-133 227l-133 -227q-27 -49 -82 -49q-40 0 -67 27t-27 65t35 78l166 186
l-248 51q-84 18 -84 92q0 38 23.5 68.5t66.5 30.5q25 0 51 -11l232 -102l-25 234q-2 16 -2 30q0 46 25.5 73.5t68.5 27.5z" />
    <glyph glyph-name="plus" unicode="+" horiz-adv-x="1161" 
d="M684 717h322q46 0 76 -29t30 -74t-30 -73.5t-76 -28.5h-322v-322q0 -47 -28 -76.5t-74 -29.5t-74.5 29.5t-28.5 76.5v322h-321q-47 0 -77 28t-30 74t30 74.5t77 28.5h321v321q0 47 28.5 77t74.5 30t74 -30t28 -77v-321z" />
    <glyph glyph-name="comma" unicode="," horiz-adv-x="516" 
d="M383 141q0 -35 -18 -67l-164 -281q-30 -51 -84 -51q-41 0 -66.5 26t-25.5 66q0 17 6 35l114 313q31 82 115 82q55 0 89 -35t34 -88z" />
    <glyph glyph-name="hyphen" unicode="-" horiz-adv-x="688" 
d="M168 672h350q56 0 88.5 -30t32.5 -83t-32.5 -83t-88.5 -30h-350q-56 0 -87.5 29.5t-31.5 83.5t31.5 83.5t87.5 29.5z" />
    <glyph glyph-name="period" unicode="." horiz-adv-x="516" 
d="M258 -12q-60 0 -98.5 39t-38.5 98q0 60 38.5 99.5t98.5 39.5t99.5 -39.5t39.5 -99.5q0 -59 -39.5 -98t-99.5 -39z" />
    <glyph glyph-name="slash" unicode="/" horiz-adv-x="729" 
d="M668 1231l-426 -1176q-24 -67 -88 -67q-43 0 -71 26t-28 64q0 22 8 43l426 1175q24 68 89 68q42 0 70 -26t28 -64q0 -22 -8 -43z" />
    <glyph glyph-name="zero" unicode="0" horiz-adv-x="1161" 
d="M102 459v434q0 229 126.5 356t353.5 127q226 0 352.5 -127.5t126.5 -355.5v-434q0 -229 -126.5 -356.5t-352.5 -127.5q-227 0 -353.5 127.5t-126.5 356.5zM821 467v418q0 135 -61.5 206.5t-177.5 71.5t-178 -71.5t-62 -206.5v-418q0 -135 62 -207t178 -72t177.5 72
t61.5 207z" />
    <glyph glyph-name="one" unicode="1" horiz-adv-x="1161" 
d="M784 213h197q49 0 79 -29.5t30 -77.5q0 -47 -30 -76.5t-79 -29.5h-655q-51 0 -81 29t-30 77t30 77.5t81 29.5h219v926h-221q-51 0 -81 29t-30 77t30 77.5t81 29.5h338q56 0 89 -33t33 -88v-1018z" />
    <glyph glyph-name="two" unicode="2" horiz-adv-x="1161" 
d="M375 213h549q49 0 79.5 -30t30.5 -77t-30.5 -76.5t-79.5 -29.5h-666q-56 0 -89.5 33t-33.5 88v37q0 222 93.5 351.5t320.5 207.5q146 50 203 107t57 147q0 92 -52.5 142t-148.5 50q-138 0 -239 -143q-30 -47 -95 -47q-53 0 -84.5 30t-31.5 82q0 37 22 74
q66 104 176 160.5t248 56.5q213 0 329 -105.5t116 -299.5q0 -174 -84.5 -277t-288.5 -170q-168 -55 -234.5 -125t-66.5 -186z" />
    <glyph glyph-name="three" unicode="3" horiz-adv-x="1161" 
d="M872 715v-4q183 -89 183 -324q0 -192 -127 -302t-350 -110q-156 0 -274 62.5t-171 171.5q-14 31 -14 59q0 51 32.5 83t84.5 32q64 0 92 -49q84 -146 256 -146q109 0 170 54.5t61 152.5q0 95 -58 144t-169 49h-109q-50 0 -79 29t-29 81q0 46 29.5 74.5t78.5 28.5h80
q109 0 167 45.5t58 134.5t-52 135.5t-150 46.5q-143 0 -232 -135q-13 -22 -38.5 -34.5t-53.5 -12.5q-52 0 -84.5 32t-32.5 83q0 34 21 69q63 101 171.5 156t246.5 55q211 0 327.5 -99.5t116.5 -279.5q0 -195 -152 -282z" />
    <glyph glyph-name="four" unicode="4" horiz-adv-x="1161" 
d="M950 500h68q49 0 78.5 -29t29.5 -76q0 -48 -29.5 -78t-78.5 -30h-68v-172q0 -60 -32 -93.5t-89 -33.5q-56 0 -87 33.5t-31 93.5v172h-516q-61 0 -96.5 31t-35.5 81q0 49 37 101l580 796q51 68 127 68q67 0 105 -40.5t38 -111.5v-712zM711 993h-4l-351 -493h355v493z" />
    <glyph glyph-name="five" unicode="5" horiz-adv-x="1161" 
d="M604 889q211 0 334 -122t123 -333t-129.5 -335t-353.5 -124q-153 0 -268 59.5t-169 166.5q-16 29 -16 61q0 52 32.5 84.5t84.5 32.5q65 0 100 -62q70 -129 236 -129q115 0 179 65t64 181q0 114 -63.5 178t-177.5 64q-123 0 -236 -88q-35 -25 -76 -25q-52 0 -84 30.5
t-32 82.5v10l30 545q3 56 35.5 88.5t87.5 32.5h586q50 0 80 -28.5t30 -74.5q0 -52 -29.5 -81t-80.5 -29h-488l-18 -299h4q104 49 215 49z" />
    <glyph glyph-name="six" unicode="6" horiz-adv-x="1161" 
d="M629 877q211 0 329.5 -119.5t118.5 -331.5q0 -209 -128.5 -330t-352.5 -121q-226 0 -353.5 128t-127.5 356v422q0 237 127.5 366t361.5 129q132 0 235 -43t162 -121q31 -45 31 -79q0 -53 -29.5 -84t-80.5 -31q-57 0 -101 51q-79 94 -213 94q-254 0 -254 -291v-86h4
q109 91 271 91zM596 188q115 0 178.5 62.5t63.5 175.5q0 111 -63.5 174.5t-178.5 63.5q-110 0 -176 -63.5t-66 -170.5q0 -115 64.5 -178.5t177.5 -63.5z" />
    <glyph glyph-name="seven" unicode="7" horiz-adv-x="1161" 
d="M1098 1225q0 -39 -25 -88l-608 -1090q-32 -59 -107 -59q-55 0 -86.5 32t-31.5 86q0 41 16 70l549 963h-617q-51 0 -80.5 29t-29.5 77t30 77.5t80 29.5h777q61 0 97 -34t36 -93z" />
    <glyph glyph-name="eight" unicode="8" horiz-adv-x="1161" 
d="M887 711v-4q98 -47 149 -131t51 -197q0 -191 -133 -297.5t-372 -106.5q-241 0 -374.5 106.5t-133.5 297.5q0 113 51 197t149 131v4q-168 91 -168 286q0 180 125.5 279.5t350.5 99.5q224 0 348.5 -99.5t124.5 -279.5q0 -195 -168 -286zM582 1163q-112 0 -174 -48t-62 -134
t61 -133t175 -47q112 0 172.5 47t60.5 133t-61.5 134t-171.5 48zM582 188q126 0 196 54.5t70 152.5q0 93 -69.5 143t-196.5 50q-131 0 -200 -49.5t-69 -143.5q0 -98 70 -152.5t199 -54.5z" />
    <glyph glyph-name="nine" unicode="9" horiz-adv-x="1161" 
d="M567 1376q226 0 354 -127.5t128 -355.5v-422q0 -237 -128 -366.5t-362 -129.5q-132 0 -235 43t-162 121q-31 45 -31 80q0 53 30 84t81 31q56 0 100 -51q79 -95 213 -95q254 0 254 291v86h-4q-107 -90 -270 -90q-211 0 -330 119.5t-119 331.5q0 209 128.5 329.5
t352.5 120.5zM567 688q110 0 176 63.5t66 170.5q0 115 -64.5 178t-177.5 63q-115 0 -178 -62t-63 -175q0 -111 63 -174.5t178 -63.5z" />
    <glyph glyph-name="colon" unicode=":" horiz-adv-x="516" 
d="M258 -12q-60 0 -98.5 39t-38.5 98q0 60 38.5 99.5t98.5 39.5t99.5 -39.5t39.5 -99.5q0 -59 -39.5 -98t-99.5 -39zM258 743q-60 0 -98.5 39.5t-38.5 98.5q0 60 38.5 99.5t98.5 39.5t99.5 -39.5t39.5 -99.5q0 -59 -39.5 -98.5t-99.5 -39.5z" />
    <glyph glyph-name="semicolon" unicode=";" horiz-adv-x="516" 
d="M383 141q0 -35 -18 -67l-164 -281q-30 -51 -84 -51q-41 0 -66.5 26t-25.5 66q0 17 6 35l114 313q31 82 115 82q55 0 89 -35t34 -88zM258 743q-60 0 -98.5 39.5t-38.5 98.5q0 60 38.5 99.5t98.5 39.5t99.5 -39.5t39.5 -99.5q0 -59 -39.5 -98.5t-99.5 -39.5z" />
    <glyph glyph-name="less" unicode="&#x3c;" horiz-adv-x="1161" 
d="M102 614q0 79 78 117l725 363q28 14 53 14q45 0 74 -33.5t29 -81.5q0 -60 -66 -90l-596 -289l596 -288q66 -30 66 -90q0 -48 -29 -81.5t-74 -33.5q-25 0 -53 14l-725 363q-78 38 -78 116z" />
    <glyph glyph-name="equal" unicode="=" horiz-adv-x="1161" 
d="M969 745h-774q-47 0 -77 28.5t-30 74.5t30 74t77 28h774q46 0 76 -28.5t30 -73.5t-30 -74t-76 -29zM195 483h774q46 0 76 -28.5t30 -73.5t-30 -73.5t-76 -28.5h-774q-47 0 -77 28t-30 74t30 74t77 28z" />
    <glyph glyph-name="greater" unicode="&#x3e;" horiz-adv-x="1161" 
d="M1059 612q0 -78 -78 -116l-725 -363q-28 -14 -53 -14q-45 0 -74 33t-29 81q0 61 66 91l596 288l-596 289q-66 30 -66 90q0 48 29 81.5t74 33.5q25 0 53 -14l725 -363q78 -38 78 -117z" />
    <glyph glyph-name="question" unicode="?" horiz-adv-x="991" 
d="M502 1376q197 0 314.5 -98.5t117.5 -263.5q0 -125 -53 -204.5t-183 -141.5q-85 -41 -118 -79t-33 -93v-4q0 -54 -29 -84.5t-80 -30.5t-79.5 30.5t-28.5 84.5v36q0 110 49.5 181.5t167.5 128.5q83 40 115 78t32 92q0 72 -51.5 113.5t-140.5 41.5q-74 0 -139.5 -36.5
t-106.5 -100.5q-32 -53 -98 -53q-52 0 -84.5 32.5t-32.5 84.5q0 32 16 61q63 106 180.5 165.5t264.5 59.5zM438 264q60 0 98.5 -39.5t38.5 -99.5q0 -59 -38.5 -98t-98.5 -39t-98.5 39t-38.5 98q0 60 38.5 99.5t98.5 39.5z" />
    <glyph glyph-name="at" unicode="@" horiz-adv-x="1536" 
d="M768 1329q314 0 486.5 -169t172.5 -478v-285q0 -45 -24 -70.5t-66 -25.5t-66 25.5t-24 70.5v277q0 235 -124.5 361t-354.5 126t-354.5 -126t-124.5 -361v-236q0 -235 124.5 -361t354.5 -126q213 0 346 115q26 22 60 22q38 0 65 -26.5t27 -63.5q0 -43 -39 -76
q-172 -139 -459 -139q-315 0 -488.5 169t-173.5 478v252q0 309 173.5 478t488.5 169zM432 397v11q0 110 74 168.5t213 58.5h205q0 81 -44 127.5t-118 46.5q-90 0 -146 -70q-29 -37 -71 -37q-38 0 -64 27t-26 66q0 27 16 53q37 57 114 93t177 36q161 0 253.5 -94t92.5 -260
v-134q0 -165 -91.5 -259.5t-250.5 -94.5q-156 0 -245 69t-89 193zM760 303q164 0 164 184h-207q-101 0 -101 -81v-5q0 -47 37.5 -72.5t106.5 -25.5z" />
    <glyph glyph-name="A" unicode="A" horiz-adv-x="1302" 
d="M791 1262l440 -1100q8 -21 8 -49q0 -57 -33.5 -91t-89.5 -34q-90 0 -119 82l-79 219h-537l-84 -223q-12 -36 -42.5 -57t-72.5 -21q-53 0 -86 32t-33 86q0 25 11 54l440 1102q42 102 137 102q98 0 140 -102zM653 1004h-4l-188 -500h377z" />
    <glyph glyph-name="B" unicode="B" horiz-adv-x="1286" 
d="M997 702v-4q102 -41 149.5 -121t47.5 -206q0 -193 -107 -282t-339 -89h-451q-62 0 -96.5 34t-34.5 97v1090q0 63 34.5 97t96.5 34h408q232 0 339 -85t107 -272q0 -213 -154 -293zM416 797h264q115 0 170 42.5t55 131.5q0 84 -50.5 123t-158.5 39h-280v-336zM416 219h307
q114 0 166.5 42t52.5 134q0 97 -56 142t-179 45h-291v-363z" />
    <glyph glyph-name="C" unicode="C" horiz-adv-x="1241" 
d="M1157 354q0 -20 -6 -41q-46 -161 -173 -249.5t-319 -88.5q-250 0 -392 146t-142 403v303q0 257 142 403t392 146q186 0 312.5 -83t169.5 -230q4 -20 4 -35q0 -52 -34 -85.5t-87 -33.5q-79 0 -109 68q-81 180 -262 180q-133 0 -205.5 -89t-72.5 -251v-282
q0 -162 72.5 -251t205.5 -89q98 0 166.5 51.5t104.5 146.5q29 80 112 80q54 0 87.5 -32.5t33.5 -86.5z" />
    <glyph glyph-name="D" unicode="D" horiz-adv-x="1331" 
d="M297 1352h342q269 0 417 -145.5t148 -403.5v-254q0 -258 -148 -403.5t-417 -145.5h-342q-62 0 -96.5 34t-34.5 97v1090q0 60 35 95.5t96 35.5zM954 557v238q0 163 -80.5 250.5t-234.5 87.5h-223v-914h223q154 0 234.5 87.5t80.5 250.5z" />
    <glyph glyph-name="E" unicode="E" horiz-adv-x="1179" 
d="M416 219h573q54 0 84.5 -29t30.5 -81q0 -51 -30.5 -80t-84.5 -29h-692q-62 0 -96.5 34t-34.5 97v1090q0 63 34.5 97t96.5 34h692q54 0 84.5 -29t30.5 -80q0 -52 -30.5 -81t-84.5 -29h-573v-340h481q54 0 84.5 -29t30.5 -80t-30.5 -80t-84.5 -29h-481v-356z" />
    <glyph glyph-name="F" unicode="F" horiz-adv-x="1116" 
d="M416 776h465q54 0 84 -29t30 -81q0 -51 -30 -80t-84 -29h-465v-438q0 -61 -33 -96t-92 -35t-92 35t-33 96v1102q0 63 34.5 97t96.5 34h676q54 0 84 -29t30 -80q0 -52 -30 -81t-84 -29h-557v-357z" />
    <glyph glyph-name="G" unicode="G" horiz-adv-x="1308" 
d="M768 731h301q61 0 96 -35.5t35 -95.5v-76q0 -257 -142 -403t-394 -146t-395.5 146t-143.5 403v303q0 256 145.5 402.5t399.5 146.5q185 0 312.5 -75.5t174.5 -204.5q8 -19 8 -43q0 -54 -33.5 -87.5t-84.5 -33.5q-78 0 -111 67q-76 158 -266 158q-140 0 -217.5 -89
t-77.5 -251v-285q0 -161 78 -249t221 -88q137 0 210.5 82t76.5 235h-193q-55 0 -86 29t-31 80q0 52 30.5 81t86.5 29z" />
    <glyph glyph-name="H" unicode="H" horiz-adv-x="1384" 
d="M1096 1364q58 0 90.5 -34.5t32.5 -96.5v-1114q0 -62 -32.5 -96.5t-90.5 -34.5q-60 0 -93.5 34.5t-33.5 96.5v459h-553v-459q0 -61 -33 -96t-92 -35t-92 35t-33 96v1114q0 61 33 96t92 35t92 -35t33 -96v-436h553v436q0 62 33.5 96.5t93.5 34.5z" />
    <glyph glyph-name="I" unicode="I" horiz-adv-x="581" 
d="M291 1364q59 0 92 -35t33 -96v-1114q0 -61 -33 -96t-92 -35t-92 35t-33 96v1114q0 61 33 96t92 35z" />
    <glyph glyph-name="J" unicode="J" horiz-adv-x="1144" 
d="M891 1364q59 0 92 -35t33 -96v-791q0 -223 -128.5 -345t-361.5 -122q-205 0 -327.5 92t-151.5 267q-2 14 -2 31q0 53 32.5 85.5t86.5 32.5q49 0 79 -26t38 -70q30 -192 241 -192q118 0 181 66.5t63 189.5v782q0 61 33 96t92 35z" />
    <glyph glyph-name="K" unicode="K" horiz-adv-x="1239" 
d="M631 686l520 -487q35 -30 35 -86q0 -57 -34 -91t-91 -34q-54 0 -94 43l-551 555v-467q0 -61 -33 -96t-92 -35t-92 35t-33 96v1114q0 61 33 96t92 35t92 -35t33 -96v-447l538 537q41 41 93 41q53 0 85.5 -32.5t32.5 -86.5q0 -51 -39 -90z" />
    <glyph glyph-name="L" unicode="L" horiz-adv-x="1097" 
d="M416 219h545q54 0 84 -29t30 -81q0 -51 -30 -80t-84 -29h-664q-62 0 -96.5 34t-34.5 97v1102q0 61 33 96t92 35t92 -35t33 -96v-1014z" />
    <glyph glyph-name="M" unicode="M" horiz-adv-x="1683" 
d="M1380 1364q65 0 101.5 -40t36.5 -110v-1095q0 -60 -33.5 -95.5t-91.5 -35.5q-59 0 -92 35t-33 96v715h-4l-297 -555q-47 -86 -125 -86t-125 83l-307 562h-4v-723q0 -60 -31.5 -93.5t-87.5 -33.5q-57 0 -89 33.5t-32 93.5v1104q0 67 37 106t100 39q84 0 133 -90l406 -760
l403 760q47 90 135 90z" />
    <glyph glyph-name="N" unicode="N" horiz-adv-x="1353" 
d="M1069 1364q56 0 87.5 -33.5t31.5 -93.5v-1106q0 -68 -35 -105.5t-98 -37.5q-87 0 -142 86l-503 827h-4v-786q0 -60 -31.5 -93.5t-87.5 -33.5q-57 0 -89 33.5t-32 93.5v1106q0 67 36 105t99 38q85 0 137 -84l506 -829h4v786q0 60 32 93.5t89 33.5z" />
    <glyph glyph-name="O" unicode="O" horiz-adv-x="1341" 
d="M672 1376q255 0 400 -146t145 -403v-303q0 -257 -145 -403t-400 -146t-401 146.5t-146 402.5v303q0 256 146 402.5t401 146.5zM672 1157q-141 0 -219 -88.5t-78 -249.5v-287q0 -161 78 -249t219 -88q140 0 217.5 88t77.5 249v287q0 161 -77.5 249.5t-217.5 88.5z" />
    <glyph glyph-name="P" unicode="P" horiz-adv-x="1239" 
d="M297 1352h416q226 0 342 -108t116 -320q0 -211 -116 -318.5t-342 -107.5h-297v-379q0 -61 -33 -96t-92 -35t-92 35t-33 96v1102q0 63 34.5 97t96.5 34zM416 717h272q234 0 234 207q0 209 -234 209h-272v-416z" />
    <glyph glyph-name="Q" unicode="Q" horiz-adv-x="1341" 
d="M1436 -111q0 -35 -25 -71q-128 -166 -364 -166q-178 0 -295.5 86.5t-151.5 241.5q-223 20 -349 163.5t-126 380.5v303q0 256 146 402.5t401 146.5t400 -146t145 -403v-303q0 -206 -95.5 -343t-269.5 -183q45 -137 195 -137q114 0 186 92q37 47 90 47q51 0 82 -30.5
t31 -80.5zM375 819v-287q0 -161 78 -249t219 -88q140 0 217.5 88t77.5 249v287q0 161 -77.5 249.5t-217.5 88.5q-141 0 -219 -88.5t-78 -249.5z" />
    <glyph glyph-name="R" unicode="R" horiz-adv-x="1265" 
d="M909 543l246 -363q21 -30 21 -67q0 -56 -33.5 -90.5t-85.5 -34.5q-72 0 -115 63l-295 461h-231v-393q0 -61 -33 -96t-92 -35t-92 35t-33 96v1102q0 61 34.5 96t94.5 35h399q227 0 344 -106.5t117 -313.5q0 -302 -246 -389zM416 731h256q233 0 233 201t-233 201h-256v-402
z" />
    <glyph glyph-name="S" unicode="S" horiz-adv-x="1173" 
d="M356 971q0 -81 62 -120t223 -52q248 -22 353.5 -117.5t105.5 -296.5q0 -185 -134 -297.5t-354 -112.5q-366 0 -508 236q-20 33 -20 76q0 50 32.5 83t84.5 33q63 0 102 -59q45 -72 126 -110.5t181 -38.5q109 0 175.5 52.5t66.5 139.5q0 89 -65 131t-234 57
q-243 23 -345 116t-102 282q0 183 133 293t353 110q151 0 264.5 -51t179.5 -149q21 -30 21 -70q0 -52 -33 -84.5t-86 -32.5q-55 0 -88 41q-106 127 -270 127q-101 0 -162.5 -50.5t-61.5 -135.5z" />
    <glyph glyph-name="T" unicode="T" horiz-adv-x="1097" 
d="M137 1352h821q55 0 86 -29t31 -80q0 -52 -30.5 -81t-86.5 -29h-284v-1014q0 -61 -33 -96t-92 -35t-92 35t-33 96v1014h-287q-54 0 -84 29t-30 81q0 51 30 80t84 29z" />
    <glyph glyph-name="U" unicode="U" horiz-adv-x="1271" 
d="M1141 1239v-756q0 -245 -130 -376.5t-374 -131.5q-245 0 -375.5 131.5t-130.5 376.5v750q0 61 33 96t92 35t92 -35t33 -96v-741q0 -297 258 -297q262 0 262 297v747q0 59 32 92t89 33q56 0 87.5 -33.5t31.5 -91.5z" />
    <glyph glyph-name="V" unicode="V" horiz-adv-x="1236" 
d="M1051 1364q54 0 88.5 -32.5t34.5 -86.5q0 -26 -11 -55l-409 -1102q-38 -100 -133 -100q-98 0 -136 100l-407 1088q-15 47 -15 67q0 54 34 87.5t91 33.5q87 0 117 -84l318 -903h4l315 913q26 74 109 74z" />
    <glyph glyph-name="W" unicode="W" horiz-adv-x="1933" 
d="M1749 1364q54 0 86.5 -32.5t32.5 -86.5q0 -23 -6 -41l-375 -1120q-33 -96 -127 -96q-96 0 -129 96l-262 784h-4l-260 -784q-33 -96 -130 -96q-93 0 -126 96l-375 1104q-8 24 -8 51q0 57 34 91t90 34q90 0 117 -82l273 -852h4l266 842q13 44 46.5 68t76.5 24q42 0 75 -25
t46 -67l270 -842h4l268 854q11 36 40.5 58t72.5 22z" />
    <glyph glyph-name="X" unicode="X" horiz-adv-x="1226" 
d="M766 698l360 -512q23 -33 23 -73q0 -57 -33.5 -91t-89.5 -34q-66 0 -100 53l-316 463l-315 -465q-33 -51 -94 -51q-55 0 -89 32.5t-34 85.5q0 41 20 70l363 508l-340 481q-23 33 -23 74q0 57 33.5 91t89.5 34q67 0 101 -53l296 -434l293 436q33 51 95 51q54 0 88 -32.5
t34 -86.5q0 -40 -20 -69z" />
    <glyph glyph-name="Y" unicode="Y" horiz-adv-x="1181" 
d="M715 567v-448q0 -61 -33 -96t-92 -35t-92 35t-33 96v440l-410 604q-22 31 -22 76q0 57 34.5 91t90.5 34q66 0 98 -53l338 -523l340 525q31 51 96 51q54 0 86.5 -31.5t32.5 -85.5q0 -37 -25 -78z" />
    <glyph glyph-name="Z" unicode="Z" horiz-adv-x="1150" 
d="M389 219h567q56 0 86.5 -29t30.5 -81q0 -51 -31 -80t-86 -29h-766q-57 0 -90.5 30.5t-33.5 84.5q0 50 26 90l637 928h-508q-54 0 -84.5 29t-30.5 81q0 51 30.5 80t84.5 29h717q59 0 92 -29.5t33 -83.5q0 -49 -29 -94z" />
    <glyph glyph-name="bracketleft" unicode="[" horiz-adv-x="718" 
d="M389 14h162q49 0 77.5 -26t28.5 -72t-28.5 -73t-77.5 -27h-268q-57 0 -88 31.5t-31 89.5v1294q0 58 31 89.5t88 31.5h268q49 0 77.5 -27.5t28.5 -73.5t-28.5 -72t-77.5 -26h-162v-1139z" />
    <glyph glyph-name="backslash" unicode="\" horiz-adv-x="729" 
d="M489 55l-426 1176q-8 21 -8 43q0 38 28 64t71 26q64 0 88 -68l426 -1175q8 -21 8 -43q0 -38 -28 -64t-70 -26q-65 0 -89 67z" />
    <glyph glyph-name="bracketright" unicode="]" horiz-adv-x="718" 
d="M330 1153h-162q-50 0 -78.5 26t-28.5 72t29 73.5t78 27.5h268q57 0 88 -31.5t31 -89.5v-1294q0 -58 -31 -89.5t-88 -31.5h-268q-49 0 -78 27t-29 73t28.5 72t78.5 26h162v1139z" />
    <glyph glyph-name="asciicircum" unicode="^" horiz-adv-x="1161" 
d="M582 1106l-279 -465q-38 -61 -90 -61q-48 0 -80.5 27.5t-32.5 72.5q0 37 19 68l338 548q50 80 125 80t125 -80l337 -548q19 -31 19 -68q0 -45 -32.5 -72.5t-80.5 -27.5q-52 0 -90 61z" />
    <glyph glyph-name="underscore" unicode="_" horiz-adv-x="983" 
d="M983 -109v-116h-983v116h983z" />
    <glyph glyph-name="grave" unicode="`" horiz-adv-x="983" 
d="M231 1403q0 41 29 69.5t70 28.5q43 0 80 -37l155 -157q25 -25 25 -64q0 -36 -25 -61t-61 -25q-32 0 -60 21l-170 139q-43 34 -43 86z" />
    <glyph glyph-name="a" unicode="a" horiz-adv-x="1042" 
d="M504 1057q206 0 324 -120.5t118 -332.5v-174q0 -214 -118 -334.5t-328 -120.5q-194 0 -306 89.5t-112 244.5v10q0 146 92 221.5t272 75.5h275q0 112 -59 175t-162 63q-120 0 -189 -102q-32 -47 -92 -47q-47 0 -78.5 32t-31.5 78q0 33 16 59q114 183 379 183zM498 178
q108 0 165.5 64t57.5 186h-277q-66 0 -101.5 -28t-35.5 -81v-4q0 -65 50 -101t141 -36z" />
    <glyph glyph-name="b" unicode="b" horiz-adv-x="1103" 
d="M600 1057q187 0 296.5 -119t109.5 -320v-188q0 -214 -118 -334.5t-329 -120.5q-209 0 -327.5 120.5t-118.5 334.5v883q0 57 29 89t83 32t83.5 -32t29.5 -89v-361h4q94 105 258 105zM780 438v170q0 117 -57.5 181.5t-163.5 64.5q-104 0 -162.5 -64.5t-58.5 -181.5v-170
q0 -126 57 -193t164 -67t164 67t57 193z" />
    <glyph glyph-name="c" unicode="c" horiz-adv-x="976" 
d="M913 227q0 -31 -14 -59q-49 -93 -145 -143t-224 -50q-203 0 -317.5 120.5t-114.5 334.5v174q0 212 116.5 332.5t320.5 120.5q231 0 348 -160q22 -31 22 -70q0 -50 -29.5 -80t-78.5 -30q-59 0 -90 47q-63 90 -172 90q-101 0 -156 -67.5t-55 -192.5v-156q0 -124 54 -192
t152 -68q117 0 183 107q31 51 92 51q49 0 78.5 -30.5t29.5 -78.5z" />
    <glyph glyph-name="d" unicode="d" horiz-adv-x="1103" 
d="M879 1434q54 0 83 -32t29 -89v-883q0 -214 -118.5 -334.5t-327.5 -120.5q-211 0 -329 120.5t-118 334.5v188q0 201 109.5 320t296.5 119q164 0 258 -105h4v361q0 57 29.5 89t83.5 32zM766 438v170q0 117 -58.5 181.5t-162.5 64.5q-106 0 -163.5 -64.5t-57.5 -181.5v-170
q0 -126 57 -193t164 -67t164 67t57 193z" />
    <glyph glyph-name="e" unicode="e" horiz-adv-x="1048" 
d="M535 1057q203 0 317.5 -120.5t114.5 -332.5v-57q0 -53 -29 -83t-80 -30h-534q0 -124 57 -190t162 -66q120 0 190 103q32 47 90 47q51 0 81 -30t30 -81q0 -33 -21 -65q-117 -177 -370 -177q-209 0 -327 120.5t-118 334.5v174q0 212 116.5 332.5t320.5 120.5zM535 854
q-96 0 -153.5 -61.5t-57.5 -169.5h421q0 108 -57 169.5t-153 61.5z" />
    <glyph glyph-name="f" unicode="f" horiz-adv-x="757" 
d="M535 1243q-63 0 -97.5 -41t-34.5 -119v-51h259q49 0 77.5 -26t28.5 -72t-28.5 -72t-77.5 -26h-259v-727q0 -57 -29 -89t-83 -32q-53 0 -83 32t-30 89v727h-65q-48 0 -76.5 26.5t-28.5 71.5t28.5 71.5t76.5 26.5h65v53q0 171 91.5 266t262.5 95q157 0 248 -82
q33 -30 33 -76q0 -51 -29.5 -80.5t-76.5 -29.5q-38 0 -74 28q-46 37 -98 37z" />
    <glyph glyph-name="g" unicode="g" horiz-adv-x="1103" 
d="M545 1057q209 0 327.5 -120.5t118.5 -332.5v-522q0 -211 -122 -331t-337 -120q-129 0 -226.5 44t-151.5 126q-23 38 -23 70q0 49 30 80t77 31q58 0 98 -54q69 -94 196 -94q113 0 173.5 66t60.5 192v41h-4q-93 -104 -258 -104q-187 0 -296.5 118.5t-109.5 319.5v137
q0 213 118.5 333t328.5 120zM545 231q104 0 162.5 64.5t58.5 179.5v119q0 126 -57 193t-164 67t-164 -67t-57 -193v-119q0 -116 58 -180t163 -64z" />
    <glyph glyph-name="h" unicode="h" horiz-adv-x="1114" 
d="M612 1057q183 0 286 -116t103 -320v-512q0 -57 -29 -89t-83 -32t-83.5 32t-29.5 89v501q0 118 -54.5 181t-156.5 63t-157.5 -63t-55.5 -181v-501q0 -57 -29 -89t-81 -32q-54 0 -84.5 32t-30.5 89v1204q0 57 30.5 89t84.5 32q52 0 81 -32t29 -89v-357h4q93 101 256 101z
" />
    <glyph glyph-name="i" unicode="i" horiz-adv-x="479" 
d="M240 1468q58 0 93.5 -33t35.5 -87v-43q0 -54 -35 -86.5t-94 -32.5t-94 32.5t-35 86.5v43q0 54 35.5 87t93.5 33zM240 1044q54 0 83 -31t29 -87v-817q0 -57 -29 -89t-83 -32t-83.5 32t-29.5 89v817q0 56 29.5 87t83.5 31z" />
    <glyph glyph-name="j" unicode="j" horiz-adv-x="479" 
d="M242 1468q58 0 92.5 -33t34.5 -87v-43q0 -54 -34.5 -86.5t-92.5 -32.5q-59 0 -94 32.5t-35 86.5v43q0 54 35.5 87t93.5 33zM240 1044q54 0 83 -31t29 -87v-994q0 -143 -73 -222t-199 -79q-135 0 -203 62q-35 31 -35 80q0 47 28.5 75.5t74.5 28.5q34 0 61 -20
q34 -23 64 -23q26 0 41.5 21.5t15.5 58.5v1012q0 56 29.5 87t83.5 31z" />
    <glyph glyph-name="k" unicode="k" horiz-adv-x="995" 
d="M543 524l375 -338q38 -30 38 -86q0 -50 -30 -81t-76 -31q-47 0 -90 37l-408 391v-307q0 -57 -29 -89t-81 -32q-54 0 -84.5 32t-30.5 89v1204q0 57 30.5 89t84.5 32q52 0 81 -32t29 -89v-686l393 385q32 32 80 32q50 0 80.5 -30.5t30.5 -79.5q0 -50 -33 -80z" />
    <glyph glyph-name="l" unicode="l" horiz-adv-x="481" 
d="M242 1434q52 0 81 -32t29 -89v-1204q0 -57 -29 -89t-81 -32q-54 0 -84.5 32t-30.5 89v1204q0 57 30.5 89t84.5 32z" />
    <glyph glyph-name="m" unicode="m" horiz-adv-x="1650" 
d="M1143 1057q187 0 291 -110t104 -308v-530q0 -57 -29.5 -89t-83.5 -32t-83 32t-29 89v514q0 114 -48 172.5t-139 58.5q-92 0 -140 -58.5t-48 -172.5v-514q0 -57 -29.5 -89t-83.5 -32t-83 32t-29 89v514q0 114 -48 172.5t-139 58.5q-92 0 -140 -58.5t-48 -172.5v-514
q0 -57 -29.5 -89t-83.5 -32t-83 32t-29 89v530q0 198 104.5 308t292.5 110q215 0 313 -137h4q47 66 128.5 101.5t187.5 35.5z" />
    <glyph glyph-name="n" unicode="n" horiz-adv-x="1097" 
d="M549 1057q204 0 320 -118.5t116 -324.5v-505q0 -57 -29.5 -89t-83.5 -32t-83 32t-29 89v495q0 121 -54.5 185.5t-156.5 64.5t-156.5 -64.5t-54.5 -185.5v-495q0 -57 -29.5 -89t-83.5 -32t-83 32t-29 89v505q0 206 116 324.5t320 118.5z" />
    <glyph glyph-name="o" unicode="o" horiz-adv-x="1089" 
d="M545 1057q209 0 327.5 -120.5t118.5 -332.5v-174q0 -214 -118.5 -334.5t-327.5 -120.5q-211 0 -329 120.5t-118 334.5v174q0 213 118.5 333t328.5 120zM545 854q-107 0 -164 -67t-57 -193v-156q0 -126 57 -193t164 -67t164 67t57 193v156q0 126 -57 193t-164 67z" />
    <glyph glyph-name="p" unicode="p" horiz-adv-x="1103" 
d="M559 1057q210 0 328.5 -120t118.5 -333v-188q0 -203 -109.5 -322t-296.5 -119q-164 0 -258 105h-4v-316q0 -57 -29.5 -88.5t-83.5 -31.5t-83 31.5t-29 88.5v840q0 212 118.5 332.5t327.5 120.5zM780 424v170q0 126 -57 193t-164 67t-164 -67t-57 -193v-170
q0 -117 58.5 -181.5t162.5 -64.5q106 0 163.5 64.5t57.5 181.5z" />
    <glyph glyph-name="q" unicode="q" horiz-adv-x="1103" 
d="M545 1057q209 0 327.5 -120.5t118.5 -332.5v-840q0 -57 -29 -88.5t-83 -31.5t-83.5 31.5t-29.5 88.5v316h-4q-94 -105 -258 -105q-187 0 -296.5 119t-109.5 322v188q0 213 118.5 333t328.5 120zM545 178q104 0 162.5 64.5t58.5 181.5v170q0 126 -57 193t-164 67t-164 -67
t-57 -193v-170q0 -117 57.5 -181.5t163.5 -64.5z" />
    <glyph glyph-name="r" unicode="r" horiz-adv-x="847" 
d="M817 866q10 -23 10 -53q0 -46 -28.5 -75t-77.5 -29q-63 0 -94 55q-52 90 -142 90q-70 0 -108.5 -46t-38.5 -132v-567q0 -57 -29.5 -89t-83.5 -32t-83 32t-29 89v571q0 180 98.5 278.5t275.5 98.5q116 0 204 -50.5t126 -140.5z" />
    <glyph glyph-name="s" unicode="s" horiz-adv-x="966" 
d="M899 301q0 -152 -111.5 -239t-306.5 -87q-128 0 -231.5 42t-157.5 114q-26 37 -26 74q0 50 29.5 80t78.5 30q46 0 80 -34q57 -57 111.5 -81t126.5 -24q89 0 138.5 33.5t49.5 93.5q0 54 -46.5 79.5t-168.5 31.5q-203 10 -292 86.5t-89 232.5q0 151 110.5 237.5t301.5 86.5
q110 0 200 -35.5t142 -99.5q26 -33 26 -72q0 -51 -29.5 -81t-80.5 -30q-46 0 -86 43q-65 74 -187 74q-85 0 -130.5 -32.5t-45.5 -92.5q0 -55 46.5 -79.5t168.5 -30.5q202 -10 290.5 -86.5t88.5 -233.5z" />
    <glyph glyph-name="t" unicode="t" horiz-adv-x="815" 
d="M788 168q0 -32 -14 -57q-34 -63 -107.5 -99.5t-170.5 -36.5q-154 0 -237 81.5t-83 236.5v543h-63q-48 0 -76.5 26.5t-28.5 71.5t28.5 71.5t76.5 26.5h63v182q0 57 30.5 88t84.5 31q53 0 81.5 -31t28.5 -88v-182h261q49 0 77.5 -26t28.5 -72t-28.5 -72t-77.5 -26h-261
v-543q0 -55 26.5 -85t76.5 -30q32 0 55.5 14.5t48.5 45.5q27 34 78 34q47 0 74.5 -28.5t27.5 -75.5z" />
    <glyph glyph-name="u" unicode="u" horiz-adv-x="1097" 
d="M872 1044q54 0 83.5 -31t29.5 -87v-506q0 -207 -116 -326t-320 -119t-320 119t-116 326v506q0 56 29 87t83 31t83.5 -31t29.5 -87v-498q0 -121 54.5 -185.5t156.5 -64.5t156.5 64.5t54.5 185.5v498q0 56 29 87t83 31z" />
    <glyph glyph-name="v" unicode="v" horiz-adv-x="1030" 
d="M879 1044q51 0 80.5 -29t29.5 -83q0 -21 -8 -45l-342 -811q-37 -88 -125 -88q-86 0 -123 88l-340 803q-10 27 -10 49q0 54 30 85t81 31q80 0 108 -69l256 -668h4l258 668q26 69 101 69z" />
    <glyph glyph-name="w" unicode="w" horiz-adv-x="1591" 
d="M1434 1044q53 0 83.5 -28t30.5 -82q0 -23 -10 -53l-301 -811q-12 -36 -43.5 -59t-71.5 -23t-72 23t-44 59l-209 567h-4l-209 -567q-12 -36 -43.5 -59t-71.5 -23q-41 0 -73 23t-44 59l-303 817q-6 14 -6 43q0 53 31.5 83.5t85.5 30.5q79 0 100 -67l209 -627h4l223 621
q25 73 105 73q79 0 104 -73l221 -623h4l207 629q23 67 97 67z" />
    <glyph glyph-name="x" unicode="x" horiz-adv-x="1015" 
d="M657 532l281 -358q23 -33 23 -65q0 -54 -32 -87.5t-83 -33.5q-62 0 -94 47l-246 342l-252 -348q-27 -41 -86 -41q-50 0 -81.5 32t-31.5 84q0 37 21 64l280 358l-258 332q-22 31 -22 66q0 54 31.5 87t82.5 33q63 0 95 -47l223 -313l231 320q27 40 86 40q50 0 81.5 -32
t31.5 -84q0 -38 -20 -64z" />
    <glyph glyph-name="y" unicode="y" horiz-adv-x="1030" 
d="M881 1044q51 0 79.5 -28t28.5 -80q0 -28 -8 -49l-528 -1184q-27 -59 -101 -59q-52 0 -82 30.5t-30 85.5q0 33 16 62l137 270l-342 785q-10 23 -10 49q0 55 30 86.5t81 31.5q80 0 108 -69l254 -608h4l264 616q25 61 99 61z" />
    <glyph glyph-name="z" unicode="z" horiz-adv-x="948" 
d="M352 197h445q49 0 76.5 -26.5t27.5 -72.5t-27.5 -72t-76.5 -26h-643q-53 0 -82 27.5t-29 76.5q0 47 31 89l497 643h-383q-49 0 -76.5 26t-27.5 72t27.5 72t76.5 26h584q52 0 80.5 -27t28.5 -73q0 -51 -29 -88z" />
    <glyph glyph-name="braceleft" unicode="{" horiz-adv-x="718" 
d="M551 -2h10q44 0 70 -24.5t26 -65.5q0 -43 -26 -67.5t-70 -24.5h-65q-148 0 -217.5 70.5t-69.5 219.5v300q0 86 -80 86h-12q-44 0 -70.5 24.5t-26.5 67.5t26.5 67.5t70.5 24.5h12q80 0 80 86v299q0 149 69.5 220t217.5 71h65q44 0 70 -24.5t26 -67.5q0 -41 -26 -66
t-70 -25h-10q-63 0 -89 -27t-26 -93v-226q0 -103 -34.5 -160.5t-108.5 -76.5v-4q74 -19 108.5 -76.5t34.5 -161.5v-225q0 -66 26 -93.5t89 -27.5z" />
    <glyph glyph-name="bar" unicode="|" horiz-adv-x="491" 
d="M246 1434q38 0 62 -25t24 -63v-1614q0 -38 -24 -63t-62 -25t-62 25t-24 63v1614q0 38 24 63t62 25z" />
    <glyph glyph-name="braceright" unicode="}" horiz-adv-x="718" 
d="M168 1169h-10q-44 0 -70.5 25t-26.5 66q0 43 26.5 67.5t70.5 24.5h65q148 0 217.5 -71t69.5 -220v-299q0 -86 80 -86h12q44 0 70 -24.5t26 -67.5t-26 -67.5t-70 -24.5h-12q-80 0 -80 -86v-300q0 -149 -69.5 -219.5t-217.5 -70.5h-65q-44 0 -70.5 24.5t-26.5 67.5
q0 41 26.5 65.5t70.5 24.5h10q63 0 89 27.5t26 93.5v225q0 104 34.5 161.5t108.5 76.5v4q-74 19 -108.5 76.5t-34.5 160.5v226q0 66 -26 93t-89 27z" />
    <glyph glyph-name="asciitilde" unicode="~" horiz-adv-x="1161" 
d="M768 647q74 0 133 84q30 41 84 41q46 0 75.5 -28.5t29.5 -75.5q0 -36 -25 -72q-122 -156 -301 -156q-59 0 -112.5 19.5t-123.5 66.5q-48 32 -75 44t-58 12q-40 0 -70.5 -19t-62.5 -65q-30 -41 -84 -41q-46 0 -75 28.5t-29 75.5q0 38 24 72q121 155 301 155
q58 0 110 -18.5t126 -67.5q46 -31 74.5 -43t58.5 -12z" />
    <glyph glyph-name="uni00A0" unicode="&#xa0;" horiz-adv-x="466" 
 />
    <glyph glyph-name="exclamdown" unicode="&#xa1;" horiz-adv-x="522" 
d="M369 553l22 -735q0 -63 -35 -100t-96 -37q-60 0 -95.5 37t-35.5 100l25 735q2 55 29 85t77 30q51 0 79 -30.5t30 -84.5zM260 780q-59 0 -98 40t-39 100q0 58 39.5 97.5t97.5 39.5q60 0 99.5 -39t39.5 -98q0 -60 -39.5 -100t-99.5 -40z" />
    <glyph glyph-name="cent" unicode="&#xa2;" horiz-adv-x="1161" 
d="M997 211q-87 -146 -258 -176v-86q0 -54 -28 -84.5t-80 -30.5q-51 0 -80 30.5t-29 84.5v86q-153 32 -237 147.5t-84 296.5v174q0 179 84 294t237 147v67q0 54 29 84.5t80 30.5q52 0 80 -30.5t28 -84.5v-65q164 -32 250 -154q21 -32 21 -65q0 -50 -30 -80.5t-79 -30.5
q-59 0 -90 45q-65 92 -172 92q-103 0 -158 -67.5t-55 -192.5v-156q0 -124 54.5 -192t154.5 -68q117 0 180 107q31 51 94 51q49 0 79 -29.5t30 -76.5q0 -33 -21 -68z" />
    <glyph glyph-name="sterling" unicode="&#xa3;" horiz-adv-x="1161" 
d="M428 213h512q50 0 79.5 -29.5t29.5 -81.5q0 -46 -30 -74t-79 -28h-666q-58 0 -92.5 32.5t-34.5 88.5q0 58 48 98q69 56 102 120t37 153h-115q-45 0 -72.5 26t-27.5 68q0 46 27 73t73 27h74q-48 101 -64 158.5t-16 132.5q0 184 118.5 291.5t321.5 107.5q148 0 251 -61.5
t149 -177.5q8 -20 8 -43q0 -52 -32 -82.5t-85 -30.5q-66 0 -100 59q-73 123 -199 123q-90 0 -141 -54.5t-51 -150.5q0 -85 47 -196q23 -61 26 -76h301q46 0 73.5 -27t27.5 -73q0 -42 -28 -68t-73 -26h-280q-4 -90 -33 -156t-86 -119v-4z" />
    <glyph glyph-name="currency" unicode="&#xa4;" horiz-adv-x="1161" 
d="M393 664q0 -86 52.5 -141.5t134.5 -55.5t134 55.5t52 141.5t-52 141t-134 55t-134.5 -55t-52.5 -141zM967 664q0 -105 -49 -195l100 -98q35 -32 35 -78q0 -41 -29 -69.5t-70 -28.5q-43 0 -77 34l-99 99q-90 -49 -198 -49q-109 0 -199 49l-98 -99q-34 -34 -78 -34
q-41 0 -70 28.5t-29 69.5q0 47 35 78l101 98q-49 90 -49 195q0 104 49 194l-101 98q-35 31 -35 78q0 41 29 70t70 29q43 0 78 -35l98 -99q92 50 199 50q106 0 198 -50l99 99q35 35 77 35q41 0 70 -29t29 -70q0 -47 -35 -78l-100 -98q49 -90 49 -194z" />
    <glyph glyph-name="yen" unicode="&#xa5;" horiz-adv-x="1161" 
d="M725 692h197q39 0 62.5 -22t23.5 -58q0 -40 -23 -62t-63 -22h-222v-114h222q40 0 63 -21.5t23 -56.5q0 -41 -23 -63.5t-63 -22.5h-222v-135q0 -60 -31 -93.5t-87 -33.5q-57 0 -89 33.5t-32 93.5v135h-221q-40 0 -63 22.5t-23 63.5q0 35 23 56.5t63 21.5h221v114h-221
q-40 0 -63 22t-23 62q0 36 23.5 58t62.5 22h188l-332 482q-22 32 -22 71q0 54 33.5 86.5t87.5 32.5q66 0 98 -53l291 -459l293 461q33 51 96 51q51 0 82.5 -32t31.5 -83q0 -34 -20 -67z" />
    <glyph glyph-name="brokenbar" unicode="&#xa6;" horiz-adv-x="491" 
d="M246 1434q38 0 62 -25t24 -63v-609q0 -40 -24 -65t-62 -25t-62 25t-24 65v609q0 38 24 63t62 25zM246 430q38 0 62 -25t24 -65v-608q0 -38 -24 -63t-62 -25t-62 25t-24 63v608q0 40 24 65t62 25z" />
    <glyph glyph-name="section" unicode="&#xa7;" horiz-adv-x="1159" 
d="M885 274v-4q145 -79 145 -272q0 -170 -118.5 -268.5t-323.5 -98.5q-153 0 -265.5 44.5t-172.5 129.5q-29 42 -29 78q0 50 29 80.5t79 30.5q53 0 86 -41q97 -123 277 -123q101 0 160 42t59 116q0 62 -55.5 93.5t-204.5 53.5q-240 35 -342.5 124t-102.5 255q0 196 164 295
v4q-141 79 -141 266q0 167 117 267t315 100q131 0 235.5 -42.5t164.5 -119.5q22 -25 22 -67q0 -50 -30 -79.5t-81 -29.5q-48 0 -86 41q-88 98 -225 98q-98 0 -155.5 -43t-57.5 -117q0 -61 56 -93t202 -52q242 -32 344.5 -120t102.5 -259q0 -187 -168 -289zM627 344
q96 13 151.5 68.5t55.5 132.5q0 68 -43 108t-140 62q-43 9 -116 20q-98 -10 -153.5 -65t-55.5 -135q0 -83 63 -124t238 -67z" />
    <glyph glyph-name="dieresis" unicode="&#xa8;" horiz-adv-x="983" 
d="M303 1456q55 0 88 -31t33 -84v-28q0 -53 -33 -84t-88 -31q-57 0 -90 31t-33 84v28q0 53 33 84t90 31zM680 1456q57 0 90 -31t33 -84v-28q0 -53 -33 -84t-90 -31q-55 0 -88 31t-33 84v28q0 53 33 84t88 31z" />
    <glyph glyph-name="copyright" unicode="&#xa9;" horiz-adv-x="1540" 
d="M770 1376q147 0 276.5 -54t222.5 -147t147 -222.5t54 -276.5q0 -196 -91.5 -356.5t-252 -252.5t-356.5 -92t-356.5 92t-252 252.5t-91.5 356.5q0 147 54 276.5t147 222.5t222.5 147t276.5 54zM770 125q230 0 382.5 155.5t152.5 395.5t-152.5 395.5t-382.5 155.5
t-382 -155.5t-152 -395.5t152 -395.5t382 -155.5zM956 578q35 0 57.5 -21t22.5 -55q0 -19 -6 -37q-25 -77 -92 -120.5t-168 -43.5q-137 0 -215 78.5t-78 216.5v162q0 136 78.5 214.5t214.5 78.5q96 0 162 -42t92 -108q6 -15 6 -31q0 -34 -23.5 -55.5t-58.5 -21.5
q-47 0 -71 47q-33 61 -113 61q-121 0 -121 -151v-148q0 -151 121 -151q89 0 121 77q21 50 71 50z" />
    <glyph glyph-name="ordfeminine" unicode="&#xaa;" horiz-adv-x="825" 
d="M389 1376q170 0 266.5 -97t96.5 -269v-144q0 -170 -96 -266t-269 -96q-155 0 -245.5 72.5t-90.5 195.5v10q0 242 299 242h201q0 82 -43.5 127t-118.5 45q-78 0 -133 -68q-37 -45 -84 -45q-40 0 -69 29.5t-29 73.5q0 29 14 51q40 66 119 102.5t182 36.5zM387 684
q76 0 120 45t44 127h-203q-96 0 -96 -78q0 -44 36.5 -69t98.5 -25z" />
    <glyph glyph-name="guillemotleft" unicode="&#xab;" horiz-adv-x="1124" 
d="M274 516l277 -272q37 -37 37 -78q0 -44 -28.5 -72t-72.5 -28q-41 0 -77 36l-332 330q-37 37 -37 84q0 49 37 86l332 330q35 35 77 35q44 0 72.5 -28.5t28.5 -72.5q0 -41 -37 -78zM750 516l276 -272q37 -37 37 -78q0 -44 -28 -72t-72 -28q-42 0 -78 36l-332 330
q-37 37 -37 84q0 49 37 86l332 330q35 35 78 35q44 0 72 -28.5t28 -72.5q0 -41 -37 -78z" />
    <glyph glyph-name="logicalnot" unicode="&#xac;" horiz-adv-x="1161" 
d="M178 823h809q46 0 75.5 -28.5t29.5 -73.5v-404q0 -47 -28.5 -76.5t-74.5 -29.5t-74 29.5t-28 76.5v301h-709q-47 0 -76.5 28.5t-29.5 74.5t29.5 74t76.5 28z" />
    <glyph glyph-name="uni00AD" unicode="&#xad;" horiz-adv-x="688" 
d="M168 672h350q56 0 88.5 -30t32.5 -83t-32.5 -83t-88.5 -30h-350q-56 0 -87.5 29.5t-31.5 83.5t31.5 83.5t87.5 29.5z" />
    <glyph glyph-name="registered" unicode="&#xae;" horiz-adv-x="1540" 
d="M770 1376q147 0 276.5 -54t222.5 -147t147 -222.5t54 -276.5q0 -196 -91.5 -356.5t-252 -252.5t-356.5 -92t-356.5 92t-252 252.5t-91.5 356.5q0 147 54 276.5t147 222.5t222.5 147t276.5 54zM770 125q230 0 382.5 155.5t152.5 395.5t-152.5 395.5t-382.5 155.5
t-382 -155.5t-152 -395.5t152 -395.5t382 -155.5zM920 588l114 -142q23 -31 23 -59q0 -36 -22 -59t-56 -23q-46 0 -72 37l-157 225h-76v-176q0 -40 -22 -63t-62 -23q-38 0 -60 23t-22 63v557q0 41 22.5 63.5t63.5 22.5h199q125 0 189.5 -57.5t64.5 -171.5q0 -167 -127 -217z
M674 713h102q105 0 105 86t-105 86h-102v-172z" />
    <glyph glyph-name="macron" unicode="&#xaf;" horiz-adv-x="983" 
d="M293 1419h399q47 0 74 -25t27 -69q0 -43 -27 -67.5t-74 -24.5h-399q-47 0 -73.5 24.5t-26.5 67.5q0 44 26.5 69t73.5 25z" />
    <glyph glyph-name="degree" unicode="&#xb0;" horiz-adv-x="692" 
d="M348 797q-126 0 -208.5 82.5t-82.5 207.5q0 123 82.5 206t208.5 83q123 0 205 -83t82 -206q0 -124 -82 -207t-205 -83zM348 954q55 0 89 36.5t34 96.5t-34 97t-89 37q-57 0 -92 -37t-35 -97t35 -96.5t92 -36.5z" />
    <glyph glyph-name="plusminus" unicode="&#xb1;" horiz-adv-x="1161" 
d="M479 625h-301q-47 0 -76.5 28t-29.5 74t29.5 74t76.5 28h301v250q0 47 28.5 77t74.5 30t74 -30t28 -77v-250h301q46 0 76.5 -28.5t30.5 -73.5t-30.5 -73.5t-76.5 -28.5h-301v-250q0 -47 -28 -77t-74 -30t-74.5 30t-28.5 77v250zM178 205h807q46 0 76.5 -29.5t30.5 -73.5
q0 -45 -30.5 -73.5t-76.5 -28.5h-807q-47 0 -76.5 28t-29.5 74q0 45 29.5 74t76.5 29z" />
    <glyph glyph-name="twosuperior" unicode="&#xb2;" 
d="M254 932h309q34 0 54 -20.5t20 -55.5q0 -34 -20 -54t-54 -20h-387q-38 0 -61 23t-23 61v17q0 138 56 220t190 128q82 29 114.5 62t32.5 85q0 105 -106 105q-76 0 -127 -76q-24 -35 -66 -35q-35 0 -57.5 22.5t-22.5 57.5q0 22 13 45q37 64 105 99.5t155 35.5
q129 0 198.5 -65.5t69.5 -188.5q0 -105 -50.5 -168t-170.5 -104q-98 -33 -135 -71.5t-37 -102.5z" />
    <glyph glyph-name="threesuperior" unicode="&#xb3;" 
d="M526 1225v-4q123 -51 123 -195q0 -123 -76.5 -190.5t-214.5 -67.5q-93 0 -163.5 37t-102.5 102q-10 20 -10 45q0 35 22 56.5t56 21.5q42 0 65 -37q47 -75 140 -75q59 0 90.5 29t31.5 83q0 52 -32.5 80.5t-92.5 28.5h-59q-34 0 -54 19.5t-20 53.5q0 32 20 52t54 20h41
q125 0 125 100q0 48 -27.5 73.5t-79.5 25.5q-71 0 -124 -74q-23 -33 -66 -33q-35 0 -56.5 23t-21.5 59q0 24 12 45q37 60 104 94.5t148 34.5q131 0 202 -61.5t71 -173.5q0 -123 -105 -172z" />
    <glyph glyph-name="acute" unicode="&#xb4;" horiz-adv-x="983" 
d="M752 1403q0 -52 -43 -86l-170 -139q-28 -21 -60 -21q-36 0 -61 25t-25 61q0 39 25 64l155 157q37 37 80 37q41 0 70 -28.5t29 -69.5z" />
    <glyph glyph-name="uni00B5" unicode="&#xb5;" horiz-adv-x="1114" 
d="M889 1044q54 0 83 -31t29 -87v-514q0 -204 -103 -320.5t-286 -116.5q-164 0 -256 103h-4v-314q0 -57 -29.5 -88.5t-82.5 -31.5q-54 0 -83.5 31.5t-29.5 88.5v1162q0 56 29.5 87t83.5 31q53 0 82.5 -31.5t29.5 -86.5v-502q0 -120 55 -183t158 -63q102 0 156.5 63t54.5 181
v504q0 56 29.5 87t83.5 31z" />
    <glyph glyph-name="paragraph" unicode="&#xb6;" horiz-adv-x="1228" 
d="M1081 1303v-1549q0 -52 -27 -81t-75 -29q-51 0 -79 29t-28 81v1475h-204v-1475q0 -52 -27.5 -81t-75.5 -29q-50 0 -78 29t-28 81v752q-402 47 -402 455q0 234 129 347t385 113h392q57 0 87.5 -30.5t30.5 -87.5z" />
    <glyph glyph-name="periodcentered" unicode="&#xb7;" horiz-adv-x="516" 
d="M258 539q-60 0 -98.5 39t-38.5 98q0 60 38.5 99.5t98.5 39.5t99.5 -39.5t39.5 -99.5q0 -59 -39.5 -98t-99.5 -39z" />
    <glyph glyph-name="cedilla" unicode="&#xb8;" horiz-adv-x="983" 
d="M535 -74q77 0 119 -38t42 -105q0 -70 -54.5 -111t-152.5 -41q-65 0 -105 11.5t-75 40.5q-24 21 -24 51q0 25 16 43t43 18q20 0 33 -8q52 -33 100 -33q58 0 58 39q0 37 -56 37q-19 0 -40 -3t-31 -3q-25 0 -39.5 13.5t-14.5 35.5q0 20 13 39l65 104h115l-60 -94l2 -2
q24 6 46 6z" />
    <glyph glyph-name="onesuperior" unicode="&#xb9;" 
d="M498 932h104q34 0 54 -20.5t20 -55.5q0 -34 -20 -54t-54 -20h-385q-34 0 -54 20t-20 54t20 55t54 21h119v536h-119q-34 0 -54 21t-20 57q0 34 20 53t54 19h199q37 0 59.5 -23t22.5 -61v-602z" />
    <glyph glyph-name="ordmasculine" unicode="&#xba;" horiz-adv-x="870" 
d="M434 1376q170 0 266.5 -97t96.5 -269v-144q0 -169 -96.5 -265.5t-266.5 -96.5q-169 0 -264.5 96.5t-95.5 265.5v144q0 172 95.5 269t264.5 97zM434 1196q-78 0 -119 -48.5t-41 -143.5v-127q0 -94 41 -143.5t119 -49.5q79 0 120.5 49.5t41.5 143.5v127q0 192 -162 192z
" />
    <glyph glyph-name="guillemotright" unicode="&#xbb;" horiz-adv-x="1124" 
d="M850 516l-277 272q-36 36 -36 78q0 44 28 72.5t72 28.5q41 0 78 -37l332 -330q36 -36 36 -84q0 -50 -36 -86l-332 -330q-34 -34 -78 -34t-72 28t-28 72q0 42 36 78zM375 516l-277 272q-37 37 -37 78q0 44 28.5 72.5t72.5 28.5q41 0 78 -37l331 -330q37 -37 37 -84
q0 -49 -37 -86l-331 -330q-34 -34 -78 -34t-72.5 28t-28.5 72q0 41 37 78z" />
    <glyph glyph-name="onequarter" unicode="&#xbc;" horiz-adv-x="1720" 
d="M549 115l668 1208q24 43 69 43q36 0 59 -20.5t23 -55.5q0 -26 -14 -53l-668 -1208q-24 -43 -70 -43q-36 0 -58.5 20t-22.5 55q0 27 14 54zM1587 330h31q34 0 54 -20.5t20 -55.5q0 -34 -20 -54t-54 -20h-31v-102q0 -40 -22 -63t-60 -23q-37 0 -58.5 23t-21.5 63v102h-292
q-40 0 -62 21t-22 61q0 35 20 64l322 458q42 60 104 60q41 0 66.5 -24t25.5 -64v-426zM1425 596h-4l-180 -266h184v266zM498 666h104q34 0 54 -20.5t20 -55.5q0 -34 -20 -54t-54 -20h-385q-34 0 -54 20t-20 54t20 55t54 21h119v536h-119q-34 0 -54 21t-20 57q0 34 20 53
t54 19h199q37 0 59.5 -23t22.5 -61v-602z" />
    <glyph glyph-name="onehalf" unicode="&#xbd;" horiz-adv-x="1720" 
d="M483 115l668 1208q24 43 70 43q36 0 59 -20.5t23 -55.5q0 -24 -15 -53l-667 -1208q-24 -43 -70 -43q-36 0 -59 20t-23 55q0 27 14 54zM1249 150h310q34 0 53.5 -20.5t19.5 -55.5q0 -34 -19.5 -54t-53.5 -20h-388q-38 0 -61 23t-23 61v16q0 138 56 220.5t190 128.5
q82 29 115 62t33 85q0 104 -107 104q-76 0 -127 -75q-25 -35 -65 -35q-35 0 -57.5 22.5t-22.5 57.5q0 24 12 45q37 64 105 99.5t155 35.5q129 0 198.5 -65.5t69.5 -188.5q0 -105 -50.5 -168t-170.5 -104q-98 -33 -135 -71.5t-37 -102.5zM498 666h104q34 0 54 -20.5t20 -55.5
q0 -34 -20 -54t-54 -20h-385q-34 0 -54 20t-20 54t20 55t54 21h119v536h-119q-34 0 -54 21t-20 57q0 34 20 53t54 19h199q37 0 59.5 -23t22.5 -61v-602z" />
    <glyph glyph-name="threequarters" unicode="&#xbe;" horiz-adv-x="1720" 
d="M537 115l667 1208q24 43 70 43q36 0 59 -20.5t23 -55.5q0 -24 -15 -53l-667 -1208q-24 -43 -70 -43q-36 0 -59 20t-23 55q0 25 15 54zM1587 330h31q34 0 54 -20.5t20 -55.5q0 -34 -20 -54t-54 -20h-31v-102q0 -40 -22 -63t-60 -23q-37 0 -58.5 23t-21.5 63v102h-292
q-40 0 -62 21t-22 61q0 35 20 64l322 458q42 60 104 60q41 0 66.5 -24t25.5 -64v-426zM1425 596h-4l-180 -266h184v266zM526 958v-4q123 -51 123 -194q0 -123 -76.5 -190.5t-214.5 -67.5q-93 0 -163.5 37t-102.5 102q-10 20 -10 45q0 35 22 56.5t56 21.5q42 0 65 -37
q48 -76 140 -76q58 0 90 29.5t32 83.5q0 52 -32.5 80t-92.5 28h-59q-34 0 -54 20t-20 54q0 32 20 52t54 20h41q125 0 125 100q0 48 -27.5 73.5t-79.5 25.5q-71 0 -124 -74q-23 -33 -66 -33q-35 0 -56.5 23t-21.5 59q0 24 12 45q37 60 104 94.5t148 34.5q130 0 201.5 -61.5
t71.5 -174.5q0 -122 -105 -172z" />
    <glyph glyph-name="questiondown" unicode="&#xbf;" horiz-adv-x="991" 
d="M489 -332q-197 0 -314.5 98.5t-117.5 264.5q0 125 53 204.5t183 141.5q85 41 118 79t33 93v4q0 54 29 84.5t80 30.5t80 -30.5t29 -84.5v-37q0 -109 -50 -180.5t-168 -128.5q-83 -40 -115 -78t-32 -92q0 -72 51.5 -114t140.5 -42q74 0 139.5 36.5t106.5 100.5q33 54 99 54
q52 0 84 -32t32 -85q0 -32 -16 -61q-63 -106 -180.5 -166t-264.5 -60zM553 780q-60 0 -98.5 40t-38.5 100q0 59 38.5 98t98.5 39t98.5 -39t38.5 -98q0 -60 -38.5 -100t-98.5 -40z" />
    <glyph glyph-name="Agrave" unicode="&#xc0;" horiz-adv-x="1302" 
d="M791 1262l440 -1100q8 -21 8 -49q0 -57 -33.5 -91t-89.5 -34q-90 0 -119 82l-79 219h-537l-84 -223q-12 -36 -42.5 -57t-72.5 -21q-53 0 -86 32t-33 86q0 25 11 54l440 1102q42 102 137 102q98 0 140 -102zM653 1004h-4l-188 -500h377zM387 1702q0 41 28.5 69.5
t69.5 28.5q43 0 80 -37l156 -157q24 -24 24 -64q0 -36 -25 -61t-61 -25q-31 0 -59 21l-170 139q-43 34 -43 86z" />
    <glyph glyph-name="Aacute" unicode="&#xc1;" horiz-adv-x="1302" 
d="M791 1262l440 -1100q8 -21 8 -49q0 -57 -33.5 -91t-89.5 -34q-90 0 -119 82l-79 219h-537l-84 -223q-12 -36 -42.5 -57t-72.5 -21q-53 0 -86 32t-33 86q0 25 11 54l440 1102q42 102 137 102q98 0 140 -102zM653 1004h-4l-188 -500h377zM911 1702q0 -52 -43 -86l-170 -139
q-28 -21 -59 -21q-36 0 -61 25t-25 61q0 39 25 64l155 157q37 37 80 37q41 0 69.5 -28.5t28.5 -69.5z" />
    <glyph glyph-name="Acircumflex" unicode="&#xc2;" horiz-adv-x="1302" 
d="M791 1262l440 -1100q8 -21 8 -49q0 -57 -33.5 -91t-89.5 -34q-90 0 -119 82l-79 219h-537l-84 -223q-12 -36 -42.5 -57t-72.5 -21q-53 0 -86 32t-33 86q0 25 11 54l440 1102q42 102 137 102q98 0 140 -102zM653 1004h-4l-188 -500h377zM651 1800q56 0 94 -35l175 -149
q34 -27 34 -72q0 -37 -24.5 -62.5t-61.5 -25.5q-31 0 -63 25l-154 121l-153 -121q-32 -25 -64 -25q-37 0 -61.5 25.5t-24.5 62.5q0 45 35 72l174 149q38 35 94 35z" />
    <glyph glyph-name="Atilde" unicode="&#xc3;" horiz-adv-x="1302" 
d="M791 1262l440 -1100q8 -21 8 -49q0 -57 -33.5 -91t-89.5 -34q-90 0 -119 82l-79 219h-537l-84 -223q-12 -36 -42.5 -57t-72.5 -21q-53 0 -86 32t-33 86q0 25 11 54l440 1102q42 102 137 102q98 0 140 -102zM653 1004h-4l-188 -500h377zM762 1479q-80 0 -152 69
q-38 35 -59 35q-22 0 -36.5 -14.5t-31.5 -52.5q-8 -19 -26.5 -31t-42.5 -12q-39 0 -62.5 22.5t-23.5 58.5q0 13 4 33q23 88 78.5 137.5t130.5 49.5q78 0 151 -70q38 -35 60 -35q21 0 35 14.5t32 53.5q8 19 27 31t43 12q39 0 62.5 -23t23.5 -59q0 -13 -4 -33
q-23 -88 -78.5 -137t-130.5 -49z" />
    <glyph glyph-name="Adieresis" unicode="&#xc4;" horiz-adv-x="1302" 
d="M791 1262l440 -1100q8 -21 8 -49q0 -57 -33.5 -91t-89.5 -34q-90 0 -119 82l-79 219h-537l-84 -223q-12 -36 -42.5 -57t-72.5 -21q-53 0 -86 32t-33 86q0 25 11 54l440 1102q42 102 137 102q98 0 140 -102zM653 1004h-4l-188 -500h377zM463 1755q55 0 88 -31t33 -84v-28
q0 -53 -33 -84t-88 -31q-57 0 -90 31t-33 84v28q0 53 33 84t90 31zM840 1755q57 0 90 -31t33 -84v-28q0 -53 -33 -84t-90 -31q-55 0 -88 31t-33 84v28q0 53 33 84t88 31z" />
    <glyph glyph-name="Aring" unicode="&#xc5;" horiz-adv-x="1302" 
d="M791 1262l440 -1100q8 -21 8 -49q0 -57 -33.5 -91t-89.5 -34q-90 0 -119 82l-79 219h-537l-84 -223q-12 -36 -42.5 -57t-72.5 -21q-53 0 -86 32t-33 86q0 25 11 54l440 1102q42 102 137 102q98 0 140 -102zM653 1004h-4l-188 -500h377zM651 1423q-89 0 -149 60t-60 149
t60 149t149 60t149 -60t60 -149t-60 -149t-149 -60zM651 1544q37 0 59.5 24t22.5 64q0 38 -22.5 62t-59.5 24t-59.5 -24t-22.5 -62q0 -40 22.5 -64t59.5 -24z" />
    <glyph glyph-name="AE" unicode="&#xc6;" horiz-adv-x="1966" 
d="M1202 219h574q54 0 84 -29t30 -81q0 -51 -30 -80t-84 -29h-693q-62 0 -96.5 34t-34.5 97v158h-524l-180 -254q-33 -47 -101 -47q-53 0 -85.5 33.5t-32.5 87.5q0 45 26 81l789 1088q52 74 135 74h797q54 0 84 -29t30 -80q0 -52 -30 -81t-84 -29h-574v-340h481
q54 0 84.5 -29t30.5 -80t-30.5 -80t-84.5 -29h-481v-356zM952 1036h-4l-368 -532h372v532z" />
    <glyph glyph-name="Ccedilla" unicode="&#xc7;" horiz-adv-x="1241" 
d="M1036 473q54 0 87.5 -32.5t33.5 -86.5q0 -20 -6 -41q-45 -156 -164 -244t-301 -94l-35 -53l2 -2q24 6 45 6q77 0 119.5 -38t42.5 -105q0 -70 -54.5 -111t-152.5 -41q-65 0 -105 11.5t-75 40.5q-24 21 -24 51q0 25 16 43t43 18q20 0 33 -8q52 -33 100 -33q57 0 57 39
q0 37 -55 37q-19 0 -40.5 -3t-31.5 -3q-24 0 -38.5 13.5t-14.5 35.5q0 21 12 39l43 68q-213 26 -330.5 168.5t-117.5 375.5v303q0 257 142 403t392 146q186 0 312.5 -83t169.5 -230q4 -20 4 -35q0 -52 -34 -85.5t-87 -33.5q-79 0 -109 68q-81 180 -262 180
q-133 0 -205.5 -89t-72.5 -251v-282q0 -162 72.5 -251t205.5 -89q98 0 166.5 51.5t104.5 146.5q29 80 112 80z" />
    <glyph glyph-name="Egrave" unicode="&#xc8;" horiz-adv-x="1179" 
d="M416 219h573q54 0 84.5 -29t30.5 -81q0 -51 -30.5 -80t-84.5 -29h-692q-62 0 -96.5 34t-34.5 97v1090q0 63 34.5 97t96.5 34h692q54 0 84.5 -29t30.5 -80q0 -52 -30.5 -81t-84.5 -29h-573v-340h481q54 0 84.5 -29t30.5 -80t-30.5 -80t-84.5 -29h-481v-356zM373 1702
q0 41 28.5 69.5t69.5 28.5q43 0 80 -37l156 -157q24 -24 24 -64q0 -36 -25 -61t-61 -25q-31 0 -59 21l-170 139q-43 34 -43 86z" />
    <glyph glyph-name="Eacute" unicode="&#xc9;" horiz-adv-x="1179" 
d="M416 219h573q54 0 84.5 -29t30.5 -81q0 -51 -30.5 -80t-84.5 -29h-692q-62 0 -96.5 34t-34.5 97v1090q0 63 34.5 97t96.5 34h692q54 0 84.5 -29t30.5 -80q0 -52 -30.5 -81t-84.5 -29h-573v-340h481q54 0 84.5 -29t30.5 -80t-30.5 -80t-84.5 -29h-481v-356zM897 1702
q0 -52 -43 -86l-170 -139q-28 -21 -59 -21q-36 0 -61 25t-25 61q0 40 24 64l156 157q37 37 80 37q41 0 69.5 -28.5t28.5 -69.5z" />
    <glyph glyph-name="Ecircumflex" unicode="&#xca;" horiz-adv-x="1179" 
d="M416 219h573q54 0 84.5 -29t30.5 -81q0 -51 -30.5 -80t-84.5 -29h-692q-62 0 -96.5 34t-34.5 97v1090q0 63 34.5 97t96.5 34h692q54 0 84.5 -29t30.5 -80q0 -52 -30.5 -81t-84.5 -29h-573v-340h481q54 0 84.5 -29t30.5 -80t-30.5 -80t-84.5 -29h-481v-356zM637 1800
q56 0 94 -35l174 -149q35 -27 35 -72q0 -37 -24.5 -62.5t-61.5 -25.5q-31 0 -63 25l-154 121l-154 -121q-32 -25 -63 -25q-37 0 -61.5 25.5t-24.5 62.5q0 45 35 72l174 149q38 35 94 35z" />
    <glyph glyph-name="Edieresis" unicode="&#xcb;" horiz-adv-x="1179" 
d="M416 219h573q54 0 84.5 -29t30.5 -81q0 -51 -30.5 -80t-84.5 -29h-692q-62 0 -96.5 34t-34.5 97v1090q0 63 34.5 97t96.5 34h692q54 0 84.5 -29t30.5 -80q0 -52 -30.5 -81t-84.5 -29h-573v-340h481q54 0 84.5 -29t30.5 -80t-30.5 -80t-84.5 -29h-481v-356zM449 1755
q55 0 87.5 -31t32.5 -84v-28q0 -53 -32.5 -84t-87.5 -31q-57 0 -90 31t-33 84v28q0 53 33 84t90 31zM825 1755q57 0 90 -31t33 -84v-28q0 -53 -33 -84t-90 -31q-55 0 -87.5 31t-32.5 84v28q0 53 32.5 84t87.5 31z" />
    <glyph glyph-name="Igrave" unicode="&#xcc;" horiz-adv-x="581" 
d="M291 1364q59 0 92 -35t33 -96v-1114q0 -61 -33 -96t-92 -35t-92 35t-33 96v1114q0 61 33 96t92 35zM27 1702q0 41 28.5 69.5t69.5 28.5q43 0 80 -37l155 -157q25 -25 25 -64q0 -36 -25 -61t-61 -25q-31 0 -59 21l-170 139q-43 34 -43 86z" />
    <glyph glyph-name="Iacute" unicode="&#xcd;" horiz-adv-x="581" 
d="M291 1364q59 0 92 -35t33 -96v-1114q0 -61 -33 -96t-92 -35t-92 35t-33 96v1114q0 61 33 96t92 35zM551 1702q0 -52 -43 -86l-170 -139q-28 -21 -59 -21q-36 0 -61 25t-25 61q0 40 24 64l156 157q37 37 80 37q41 0 69.5 -28.5t28.5 -69.5z" />
    <glyph glyph-name="Icircumflex" unicode="&#xce;" horiz-adv-x="581" 
d="M291 1364q59 0 92 -35t33 -96v-1114q0 -61 -33 -96t-92 -35t-92 35t-33 96v1114q0 61 33 96t92 35zM291 1800q56 0 94 -35l174 -149q35 -27 35 -72q0 -37 -24.5 -62.5t-61.5 -25.5q-32 0 -64 25l-153 121l-154 -121q-32 -25 -63 -25q-37 0 -61.5 25.5t-24.5 62.5
q0 45 35 72l174 149q38 35 94 35z" />
    <glyph glyph-name="Idieresis" unicode="&#xcf;" horiz-adv-x="581" 
d="M291 1364q59 0 92 -35t33 -96v-1114q0 -61 -33 -96t-92 -35t-92 35t-33 96v1114q0 61 33 96t92 35zM102 1755q55 0 88 -31t33 -84v-28q0 -53 -33 -84t-88 -31q-57 0 -89.5 31t-32.5 84v28q0 53 32.5 84t89.5 31zM479 1755q57 0 90 -31t33 -84v-28q0 -53 -33 -84t-90 -31
q-55 0 -88 31t-33 84v28q0 53 33 84t88 31z" />
    <glyph glyph-name="Eth" unicode="&#xd0;" horiz-adv-x="1345" 
d="M311 1352h342q269 0 417.5 -145.5t148.5 -403.5v-254q0 -258 -148.5 -403.5t-417.5 -145.5h-342q-62 0 -96.5 34t-34.5 97v447h-47q-54 0 -84.5 28.5t-30.5 79.5t30.5 80t84.5 29h47v426q0 60 35 95.5t96 35.5zM969 557v238q0 162 -81 250t-235 88h-223v-338h211
q54 0 85.5 -29t31.5 -80t-31.5 -79.5t-85.5 -28.5h-211v-359h223q154 0 235 88t81 250z" />
    <glyph glyph-name="Ntilde" unicode="&#xd1;" horiz-adv-x="1353" 
d="M1069 1364q56 0 87.5 -33.5t31.5 -93.5v-1106q0 -68 -35 -105.5t-98 -37.5q-87 0 -142 86l-503 827h-4v-786q0 -60 -31.5 -93.5t-87.5 -33.5q-57 0 -89 33.5t-32 93.5v1106q0 67 36 105t99 38q85 0 137 -84l506 -829h4v786q0 60 32 93.5t89 33.5zM788 1479q-79 0 -151 69
q-38 35 -59 35q-22 0 -36.5 -14.5t-31.5 -52.5q-8 -19 -27 -31t-43 -12q-39 0 -62.5 22.5t-23.5 58.5q0 13 4 33q23 88 78.5 137.5t130.5 49.5q79 0 152 -70q38 -35 59 -35q22 0 36.5 14.5t31.5 53.5q8 19 26.5 31t42.5 12q39 0 62.5 -23t23.5 -59q0 -13 -4 -33
q-23 -88 -78.5 -137t-130.5 -49z" />
    <glyph glyph-name="Ograve" unicode="&#xd2;" horiz-adv-x="1341" 
d="M672 1376q255 0 400 -146t145 -403v-303q0 -257 -145 -403t-400 -146t-401 146.5t-146 402.5v303q0 256 146 402.5t401 146.5zM672 1157q-141 0 -219 -88.5t-78 -249.5v-287q0 -161 78 -249t219 -88q140 0 217.5 88t77.5 249v287q0 161 -77.5 249.5t-217.5 88.5z
M408 1702q0 41 28.5 69.5t69.5 28.5q43 0 80 -37l155 -157q25 -25 25 -64q0 -36 -25 -61t-61 -25q-31 0 -59 21l-170 139q-43 34 -43 86z" />
    <glyph glyph-name="Oacute" unicode="&#xd3;" horiz-adv-x="1341" 
d="M672 1376q255 0 400 -146t145 -403v-303q0 -257 -145 -403t-400 -146t-401 146.5t-146 402.5v303q0 256 146 402.5t401 146.5zM672 1157q-141 0 -219 -88.5t-78 -249.5v-287q0 -161 78 -249t219 -88q140 0 217.5 88t77.5 249v287q0 161 -77.5 249.5t-217.5 88.5z
M932 1702q0 -52 -43 -86l-170 -139q-28 -21 -60 -21q-36 0 -61 25t-25 61q0 39 25 64l156 157q37 37 80 37q41 0 69.5 -28.5t28.5 -69.5z" />
    <glyph glyph-name="Ocircumflex" unicode="&#xd4;" horiz-adv-x="1341" 
d="M672 1376q255 0 400 -146t145 -403v-303q0 -257 -145 -403t-400 -146t-401 146.5t-146 402.5v303q0 256 146 402.5t401 146.5zM672 1157q-141 0 -219 -88.5t-78 -249.5v-287q0 -161 78 -249t219 -88q140 0 217.5 88t77.5 249v287q0 161 -77.5 249.5t-217.5 88.5z
M672 1800q56 0 94 -35l174 -149q35 -27 35 -72q0 -37 -24.5 -62.5t-61.5 -25.5q-32 0 -64 25l-153 121l-154 -121q-32 -25 -63 -25q-37 0 -61.5 25.5t-24.5 62.5q0 45 34 72l175 149q38 35 94 35z" />
    <glyph glyph-name="Otilde" unicode="&#xd5;" horiz-adv-x="1341" 
d="M672 1376q255 0 400 -146t145 -403v-303q0 -257 -145 -403t-400 -146t-401 146.5t-146 402.5v303q0 256 146 402.5t401 146.5zM672 1157q-141 0 -219 -88.5t-78 -249.5v-287q0 -161 78 -249t219 -88q140 0 217.5 88t77.5 249v287q0 161 -77.5 249.5t-217.5 88.5z
M782 1479q-79 0 -151 69q-38 35 -60 35t-36 -14t-31 -53q-8 -19 -27 -31t-43 -12q-39 0 -62.5 22.5t-23.5 58.5q0 13 4 33q23 88 78.5 137.5t130.5 49.5q79 0 152 -70q38 -35 59 -35q22 0 36.5 14.5t31.5 53.5q8 19 26.5 31t42.5 12q39 0 62.5 -23t23.5 -59q0 -13 -4 -33
q-23 -88 -78.5 -137t-130.5 -49z" />
    <glyph glyph-name="Odieresis" unicode="&#xd6;" horiz-adv-x="1341" 
d="M672 1376q255 0 400 -146t145 -403v-303q0 -257 -145 -403t-400 -146t-401 146.5t-146 402.5v303q0 256 146 402.5t401 146.5zM672 1157q-141 0 -219 -88.5t-78 -249.5v-287q0 -161 78 -249t219 -88q140 0 217.5 88t77.5 249v287q0 161 -77.5 249.5t-217.5 88.5z
M483 1755q55 0 88 -31t33 -84v-28q0 -53 -33 -84t-88 -31q-57 0 -90 31t-33 84v28q0 53 33 84t90 31zM860 1755q57 0 90 -31t33 -84v-28q0 -53 -33 -84t-90 -31q-55 0 -88 31t-33 84v28q0 53 33 84t88 31z" />
    <glyph glyph-name="multiply" unicode="&#xd7;" horiz-adv-x="1161" 
d="M725 614l279 -278q34 -34 34 -78q0 -43 -29.5 -72.5t-72.5 -29.5q-42 0 -76 34l-278 281l-281 -281q-34 -34 -76 -34q-43 0 -72.5 29.5t-29.5 72.5t35 78l278 278l-278 279q-35 35 -35 78t29.5 72.5t72.5 29.5q41 0 76 -35l281 -278l278 278q35 35 76 35q43 0 72.5 -29.5
t29.5 -72.5q0 -44 -34 -78z" />
    <glyph glyph-name="Oslash" unicode="&#xd8;" horiz-adv-x="1341" 
d="M1186 1192l-43 -57q74 -124 74 -308v-303q0 -257 -145 -403t-400 -146q-195 0 -334 93l-25 -33q-36 -47 -88 -47q-40 0 -69 27.5t-29 66.5q0 36 31 78l41 55q-74 132 -74 309v303q0 256 146 402.5t401 146.5q197 0 334 -92l24 33q36 47 88 47q40 0 69.5 -27.5t29.5 -66.5
q0 -36 -31 -78zM375 819v-287q0 -27 4 -73h4l479 637q-74 61 -190 61q-141 0 -219 -88.5t-78 -249.5zM967 532v287q0 26 -4 72h-5l-479 -635q73 -61 193 -61q140 0 217.5 88t77.5 249z" />
    <glyph glyph-name="Ugrave" unicode="&#xd9;" horiz-adv-x="1271" 
d="M1141 1239v-756q0 -245 -130 -376.5t-374 -131.5q-245 0 -375.5 131.5t-130.5 376.5v750q0 61 33 96t92 35t92 -35t33 -96v-741q0 -297 258 -297q262 0 262 297v747q0 59 32 92t89 33q56 0 87.5 -33.5t31.5 -91.5zM373 1702q0 41 28.5 69.5t69.5 28.5q43 0 80 -37
l156 -157q24 -24 24 -64q0 -36 -25 -61t-61 -25q-31 0 -59 21l-170 139q-43 34 -43 86z" />
    <glyph glyph-name="Uacute" unicode="&#xda;" horiz-adv-x="1271" 
d="M1141 1239v-756q0 -245 -130 -376.5t-374 -131.5q-245 0 -375.5 131.5t-130.5 376.5v750q0 61 33 96t92 35t92 -35t33 -96v-741q0 -297 258 -297q262 0 262 297v747q0 59 32 92t89 33q56 0 87.5 -33.5t31.5 -91.5zM897 1702q0 -52 -43 -86l-170 -139q-28 -21 -59 -21
q-36 0 -61 25t-25 61q0 40 24 64l156 157q37 37 80 37q41 0 69.5 -28.5t28.5 -69.5z" />
    <glyph glyph-name="Ucircumflex" unicode="&#xdb;" horiz-adv-x="1271" 
d="M1141 1239v-756q0 -245 -130 -376.5t-374 -131.5q-245 0 -375.5 131.5t-130.5 376.5v750q0 61 33 96t92 35t92 -35t33 -96v-741q0 -297 258 -297q262 0 262 297v747q0 59 32 92t89 33q56 0 87.5 -33.5t31.5 -91.5zM637 1800q56 0 94 -35l174 -149q35 -27 35 -72
q0 -37 -24.5 -62.5t-61.5 -25.5q-31 0 -63 25l-154 121l-154 -121q-32 -25 -63 -25q-37 0 -61.5 25.5t-24.5 62.5q0 45 35 72l174 149q38 35 94 35z" />
    <glyph glyph-name="Udieresis" unicode="&#xdc;" horiz-adv-x="1271" 
d="M1141 1239v-756q0 -245 -130 -376.5t-374 -131.5q-245 0 -375.5 131.5t-130.5 376.5v750q0 61 33 96t92 35t92 -35t33 -96v-741q0 -297 258 -297q262 0 262 297v747q0 59 32 92t89 33q56 0 87.5 -33.5t31.5 -91.5zM449 1755q55 0 87.5 -31t32.5 -84v-28q0 -53 -32.5 -84
t-87.5 -31q-57 0 -90 31t-33 84v28q0 53 33 84t90 31zM825 1755q57 0 90 -31t33 -84v-28q0 -53 -33 -84t-90 -31q-55 0 -87.5 31t-32.5 84v28q0 53 32.5 84t87.5 31z" />
    <glyph glyph-name="Yacute" unicode="&#xdd;" horiz-adv-x="1181" 
d="M715 567v-448q0 -61 -33 -96t-92 -35t-92 35t-33 96v440l-410 604q-22 31 -22 76q0 57 34.5 91t90.5 34q66 0 98 -53l338 -523l340 525q31 51 96 51q54 0 86.5 -31.5t32.5 -85.5q0 -37 -25 -78zM850 1702q0 -52 -43 -86l-170 -139q-28 -21 -59 -21q-36 0 -61 25t-25 61
q0 40 24 64l156 157q37 37 80 37q41 0 69.5 -28.5t28.5 -69.5z" />
    <glyph glyph-name="Thorn" unicode="&#xde;" horiz-adv-x="1239" 
d="M416 1139h297q226 0 342 -108.5t116 -319.5t-116 -319.5t-342 -108.5h-297v-164q0 -61 -33 -96t-92 -35t-92 35t-33 96v1114q0 61 33 96t92 35t92 -35t33 -96v-94zM416 502h272q234 0 234 209t-234 209h-272v-418z" />
    <glyph glyph-name="germandbls" unicode="&#xdf;" horiz-adv-x="1169" 
d="M733 739q0 -48 32.5 -77t119.5 -58q133 -44 188 -114t55 -187q0 -149 -105 -238.5t-280 -89.5t-276 86q-45 38 -45 93q0 50 29 80t79 30q38 0 78 -31q69 -57 162 -57q58 0 94.5 33.5t36.5 87.5q0 43 -30 69t-113 54q-32 11 -49 17.5t-47.5 21.5t-47.5 28.5t-39.5 37
t-34 50.5t-20 65t-8.5 83q0 69 25 124t86 116q42 42 58.5 72.5t16.5 64.5q0 68 -44.5 105.5t-123.5 37.5q-178 0 -178 -188v-949q0 -55 -29.5 -86.5t-82.5 -31.5q-54 0 -83.5 31t-29.5 87v971q0 177 104.5 273t296.5 96q187 0 291.5 -87.5t104.5 -244.5q0 -81 -27.5 -142.5
t-95.5 -123.5q-38 -35 -53 -59.5t-15 -49.5z" />
    <glyph glyph-name="agrave" unicode="&#xe0;" horiz-adv-x="1042" 
d="M504 1057q206 0 324 -120.5t118 -332.5v-174q0 -214 -118 -334.5t-328 -120.5q-194 0 -306 89.5t-112 244.5v10q0 146 92 221.5t272 75.5h275q0 112 -59 175t-162 63q-120 0 -189 -102q-32 -47 -92 -47q-47 0 -78.5 32t-31.5 78q0 33 16 59q114 183 379 183zM498 178
q108 0 165.5 64t57.5 186h-277q-66 0 -101.5 -28t-35.5 -81v-4q0 -65 50 -101t141 -36zM242 1403q0 41 28.5 69.5t69.5 28.5q43 0 80 -37l155 -157q25 -25 25 -64q0 -36 -25 -61t-61 -25q-31 0 -59 21l-170 139q-43 34 -43 86z" />
    <glyph glyph-name="aacute" unicode="&#xe1;" horiz-adv-x="1042" 
d="M504 1057q206 0 324 -120.5t118 -332.5v-174q0 -214 -118 -334.5t-328 -120.5q-194 0 -306 89.5t-112 244.5v10q0 146 92 221.5t272 75.5h275q0 112 -59 175t-162 63q-120 0 -189 -102q-32 -47 -92 -47q-47 0 -78.5 32t-31.5 78q0 33 16 59q114 183 379 183zM498 178
q108 0 165.5 64t57.5 186h-277q-66 0 -101.5 -28t-35.5 -81v-4q0 -65 50 -101t141 -36zM766 1403q0 -52 -43 -86l-170 -139q-28 -21 -59 -21q-36 0 -61 25t-25 61q0 40 24 64l156 157q37 37 80 37q41 0 69.5 -28.5t28.5 -69.5z" />
    <glyph glyph-name="acircumflex" unicode="&#xe2;" horiz-adv-x="1042" 
d="M504 1057q206 0 324 -120.5t118 -332.5v-174q0 -214 -118 -334.5t-328 -120.5q-194 0 -306 89.5t-112 244.5v10q0 146 92 221.5t272 75.5h275q0 112 -59 175t-162 63q-120 0 -189 -102q-32 -47 -92 -47q-47 0 -78.5 32t-31.5 78q0 33 16 59q114 183 379 183zM498 178
q108 0 165.5 64t57.5 186h-277q-66 0 -101.5 -28t-35.5 -81v-4q0 -65 50 -101t141 -36zM506 1501q56 0 94 -35l174 -149q35 -27 35 -72q0 -37 -24.5 -62.5t-61.5 -25.5q-32 0 -64 25l-153 121l-154 -121q-32 -25 -63 -25q-37 0 -61.5 25.5t-24.5 62.5q0 45 35 72l174 149
q38 35 94 35z" />
    <glyph glyph-name="atilde" unicode="&#xe3;" horiz-adv-x="1042" 
d="M504 1057q206 0 324 -120.5t118 -332.5v-174q0 -214 -118 -334.5t-328 -120.5q-194 0 -306 89.5t-112 244.5v10q0 146 92 221.5t272 75.5h275q0 112 -59 175t-162 63q-120 0 -189 -102q-32 -47 -92 -47q-47 0 -78.5 32t-31.5 78q0 33 16 59q114 183 379 183zM498 178
q108 0 165.5 64t57.5 186h-277q-66 0 -101.5 -28t-35.5 -81v-4q0 -65 50 -101t141 -36zM616 1180q-79 0 -151 69q-38 35 -59 35q-22 0 -36.5 -14.5t-31.5 -52.5q-8 -19 -27 -31t-43 -12q-39 0 -62.5 22.5t-23.5 58.5q0 13 4 33q23 88 78.5 137.5t130.5 49.5q79 0 152 -70
q38 -35 59 -35q22 0 36.5 14.5t31.5 53.5q8 19 26.5 31t42.5 12q39 0 62.5 -23t23.5 -59q0 -13 -4 -33q-23 -88 -78.5 -137t-130.5 -49z" />
    <glyph glyph-name="adieresis" unicode="&#xe4;" horiz-adv-x="1042" 
d="M504 1057q206 0 324 -120.5t118 -332.5v-174q0 -214 -118 -334.5t-328 -120.5q-194 0 -306 89.5t-112 244.5v10q0 146 92 221.5t272 75.5h275q0 112 -59 175t-162 63q-120 0 -189 -102q-32 -47 -92 -47q-47 0 -78.5 32t-31.5 78q0 33 16 59q114 183 379 183zM498 178
q108 0 165.5 64t57.5 186h-277q-66 0 -101.5 -28t-35.5 -81v-4q0 -65 50 -101t141 -36zM317 1456q55 0 88 -31t33 -84v-28q0 -53 -33 -84t-88 -31q-57 0 -89.5 31t-32.5 84v28q0 53 32.5 84t89.5 31zM694 1456q57 0 90 -31t33 -84v-28q0 -53 -33 -84t-90 -31q-55 0 -88 31
t-33 84v28q0 53 33 84t88 31z" />
    <glyph glyph-name="aring" unicode="&#xe5;" horiz-adv-x="1042" 
d="M504 1057q206 0 324 -120.5t118 -332.5v-174q0 -214 -118 -334.5t-328 -120.5q-194 0 -306 89.5t-112 244.5v10q0 146 92 221.5t272 75.5h275q0 112 -59 175t-162 63q-120 0 -189 -102q-32 -47 -92 -47q-47 0 -78.5 32t-31.5 78q0 33 16 59q114 183 379 183zM498 178
q108 0 165.5 64t57.5 186h-277q-66 0 -101.5 -28t-35.5 -81v-4q0 -65 50 -101t141 -36zM506 1124q-89 0 -149 60t-60 149t60 149t149 60t149 -60t60 -149t-60 -149t-149 -60zM506 1245q37 0 59.5 24t22.5 64q0 38 -22.5 62t-59.5 24t-59.5 -24t-22.5 -62q0 -40 22.5 -64
t59.5 -24z" />
    <glyph glyph-name="ae" unicode="&#xe6;" horiz-adv-x="1671" 
d="M1171 1057q195 0 306.5 -121t111.5 -332v-61q0 -52 -28.5 -81.5t-79.5 -29.5h-537q0 -123 57 -188.5t164 -65.5q117 0 191 103q32 47 90 47q51 0 80.5 -30t29.5 -81q0 -35 -18 -65q-52 -87 -144 -132t-212 -45q-249 0 -346 181h-5q-102 -181 -346 -181q-187 0 -295 89.5
t-108 244.5v17q0 146 92 220.5t272 74.5h273q0 110 -58.5 171.5t-160.5 61.5q-117 0 -189 -102q-33 -47 -92 -47q-45 0 -77.5 32.5t-32.5 77.5q0 33 16 59q51 88 144 135.5t214 47.5q246 0 346 -180h5q95 180 337 180zM944 621h424q0 109 -57.5 171t-153.5 62
q-99 0 -156 -61.5t-57 -171.5zM498 178q107 0 164 65.5t57 188.5h-275q-66 0 -101.5 -28t-35.5 -80v-9q0 -65 50 -101t141 -36z" />
    <glyph glyph-name="ccedilla" unicode="&#xe7;" horiz-adv-x="976" 
d="M805 336q49 0 78.5 -30.5t29.5 -78.5q0 -31 -14 -59q-47 -89 -136 -138.5t-208 -54.5l-35 -53l2 -2q24 6 45 6q77 0 119.5 -38t42.5 -105q0 -70 -54.5 -111t-152.5 -41q-65 0 -105 11.5t-75 40.5q-25 21 -25 51q0 24 16.5 42.5t43.5 18.5q20 0 33 -8q52 -33 100 -33
q57 0 57 39q0 37 -55 37q-19 0 -40.5 -3t-31.5 -3q-24 0 -38.5 13.5t-14.5 35.5q0 21 12 39l43 70q-163 25 -253.5 142t-90.5 306v174q0 212 116.5 332.5t320.5 120.5q231 0 348 -160q22 -31 22 -70q0 -50 -29.5 -80t-78.5 -30q-59 0 -90 47q-63 90 -172 90
q-101 0 -156 -67.5t-55 -192.5v-156q0 -124 54 -192t152 -68q117 0 183 107q31 51 92 51z" />
    <glyph glyph-name="egrave" unicode="&#xe8;" horiz-adv-x="1048" 
d="M535 1057q203 0 317.5 -120.5t114.5 -332.5v-57q0 -53 -29 -83t-80 -30h-534q0 -124 57 -190t162 -66q120 0 190 103q32 47 90 47q51 0 81 -30t30 -81q0 -33 -21 -65q-117 -177 -370 -177q-209 0 -327 120.5t-118 334.5v174q0 212 116.5 332.5t320.5 120.5zM535 854
q-96 0 -153.5 -61.5t-57.5 -169.5h421q0 108 -57 169.5t-153 61.5zM264 1403q0 41 28.5 69.5t69.5 28.5q43 0 80 -37l156 -157q25 -25 25 -64q0 -36 -25 -61t-61 -25q-32 0 -60 21l-170 139q-43 34 -43 86z" />
    <glyph glyph-name="eacute" unicode="&#xe9;" horiz-adv-x="1048" 
d="M535 1057q203 0 317.5 -120.5t114.5 -332.5v-57q0 -53 -29 -83t-80 -30h-534q0 -124 57 -190t162 -66q120 0 190 103q32 47 90 47q51 0 81 -30t30 -81q0 -33 -21 -65q-117 -177 -370 -177q-209 0 -327 120.5t-118 334.5v174q0 212 116.5 332.5t320.5 120.5zM535 854
q-96 0 -153.5 -61.5t-57.5 -169.5h421q0 108 -57 169.5t-153 61.5zM788 1403q0 -52 -43 -86l-170 -139q-28 -21 -59 -21q-36 0 -61 25t-25 61q0 39 25 64l155 157q37 37 80 37q41 0 69.5 -28.5t28.5 -69.5z" />
    <glyph glyph-name="ecircumflex" unicode="&#xea;" horiz-adv-x="1048" 
d="M535 1057q203 0 317.5 -120.5t114.5 -332.5v-57q0 -53 -29 -83t-80 -30h-534q0 -124 57 -190t162 -66q120 0 190 103q32 47 90 47q51 0 81 -30t30 -81q0 -33 -21 -65q-117 -177 -370 -177q-209 0 -327 120.5t-118 334.5v174q0 212 116.5 332.5t320.5 120.5zM535 854
q-96 0 -153.5 -61.5t-57.5 -169.5h421q0 108 -57 169.5t-153 61.5zM528 1501q57 0 95 -35l174 -149q34 -27 34 -72q0 -37 -24.5 -62.5t-61.5 -25.5q-31 0 -63 25l-154 121l-153 -121q-32 -25 -64 -25q-37 0 -61.5 25.5t-24.5 62.5q0 45 35 72l174 149q38 35 94 35z" />
    <glyph glyph-name="edieresis" unicode="&#xeb;" horiz-adv-x="1048" 
d="M535 1057q203 0 317.5 -120.5t114.5 -332.5v-57q0 -53 -29 -83t-80 -30h-534q0 -124 57 -190t162 -66q120 0 190 103q32 47 90 47q51 0 81 -30t30 -81q0 -33 -21 -65q-117 -177 -370 -177q-209 0 -327 120.5t-118 334.5v174q0 212 116.5 332.5t320.5 120.5zM535 854
q-96 0 -153.5 -61.5t-57.5 -169.5h421q0 108 -57 169.5t-153 61.5zM340 1456q55 0 88 -31t33 -84v-28q0 -53 -33 -84t-88 -31q-57 0 -90 31t-33 84v28q0 53 33 84t90 31zM717 1456q57 0 90 -31t33 -84v-28q0 -53 -33 -84t-90 -31q-55 0 -88 31t-33 84v28q0 53 33 84t88 31z
" />
    <glyph glyph-name="igrave" unicode="&#xec;" horiz-adv-x="479" 
d="M240 1044q54 0 83 -31t29 -87v-817q0 -57 -29 -89t-83 -32t-83.5 32t-29.5 89v817q0 56 29.5 87t83.5 31zM-25 1403q0 41 29 69.5t70 28.5q43 0 80 -37l155 -157q25 -25 25 -64q0 -36 -25 -61t-61 -25q-32 0 -60 21l-170 139q-43 34 -43 86z" />
    <glyph glyph-name="iacute" unicode="&#xed;" horiz-adv-x="479" 
d="M240 1044q54 0 83 -31t29 -87v-817q0 -57 -29 -89t-83 -32t-83.5 32t-29.5 89v817q0 56 29.5 87t83.5 31zM500 1403q0 -52 -43 -86l-170 -139q-28 -21 -60 -21q-36 0 -61 25t-25 61q0 39 25 64l156 157q37 37 79 37q41 0 70 -28.5t29 -69.5z" />
    <glyph glyph-name="icircumflex" unicode="&#xee;" horiz-adv-x="479" 
d="M240 1044q54 0 83 -31t29 -87v-817q0 -57 -29 -89t-83 -32t-83.5 32t-29.5 89v817q0 56 29.5 87t83.5 31zM240 1501q56 0 94 -35l174 -149q35 -27 35 -72q0 -37 -24.5 -62.5t-61.5 -25.5q-32 0 -64 25l-153 121l-154 -121q-32 -25 -63 -25q-37 0 -61.5 25.5t-24.5 62.5
q0 45 34 72l174 149q38 35 95 35z" />
    <glyph glyph-name="idieresis" unicode="&#xef;" horiz-adv-x="479" 
d="M240 1044q54 0 83 -31t29 -87v-817q0 -57 -29 -89t-83 -32t-83.5 32t-29.5 89v817q0 56 29.5 87t83.5 31zM51 1456q55 0 88 -31t33 -84v-28q0 -53 -33 -84t-88 -31q-57 0 -90 31t-33 84v28q0 53 33 84t90 31zM428 1456q57 0 90 -31t33 -84v-28q0 -53 -33 -84t-90 -31
q-55 0 -88 31t-33 84v28q0 53 33 84t88 31z" />
    <glyph glyph-name="eth" unicode="&#xf0;" horiz-adv-x="1089" 
d="M825 1243l-77 -39q115 -118 179 -277.5t64 -344.5v-152q0 -214 -118.5 -334.5t-327.5 -120.5q-211 0 -329 120.5t-118 334.5v127q0 201 109.5 319.5t296.5 118.5q74 0 135 -22l2 2q-53 73 -111 121l-161 -82q-20 -10 -39 -10q-29 0 -45.5 20.5t-16.5 48.5q0 37 41 57
l90 44v2q-28 16 -69 30q-90 29 -90 107q0 49 28 85t78 36q27 0 51 -9q137 -50 244 -129l127 64q20 10 37 10q29 0 45 -20.5t16 -49.5q0 -37 -41 -57zM766 438v109q0 117 -58.5 181.5t-162.5 64.5q-106 0 -163.5 -64.5t-57.5 -181.5v-109q0 -126 57 -193t164 -67t164 67
t57 193z" />
    <glyph glyph-name="ntilde" unicode="&#xf1;" horiz-adv-x="1097" 
d="M549 1057q204 0 320 -118.5t116 -324.5v-505q0 -57 -29.5 -89t-83.5 -32t-83 32t-29 89v495q0 121 -54.5 185.5t-156.5 64.5t-156.5 -64.5t-54.5 -185.5v-495q0 -57 -29.5 -89t-83.5 -32t-83 32t-29 89v505q0 206 116 324.5t320 118.5zM659 1180q-79 0 -151 69
q-38 35 -59 35q-22 0 -36.5 -14.5t-31.5 -52.5q-8 -19 -27 -31t-43 -12q-39 0 -62.5 22.5t-23.5 58.5q0 13 4 33q23 88 78.5 137.5t130.5 49.5q79 0 152 -70q38 -35 59 -35q22 0 36.5 14.5t31.5 53.5q8 19 26.5 31t42.5 12q39 0 62.5 -23t23.5 -59q0 -13 -4 -33
q-23 -88 -78.5 -137t-130.5 -49z" />
    <glyph glyph-name="ograve" unicode="&#xf2;" horiz-adv-x="1089" 
d="M545 1057q209 0 327.5 -120.5t118.5 -332.5v-174q0 -214 -118.5 -334.5t-327.5 -120.5q-211 0 -329 120.5t-118 334.5v174q0 213 118.5 333t328.5 120zM545 854q-107 0 -164 -67t-57 -193v-156q0 -126 57 -193t164 -67t164 67t57 193v156q0 126 -57 193t-164 67z
M281 1403q0 41 28.5 69.5t69.5 28.5q43 0 80 -37l155 -157q25 -25 25 -64q0 -36 -25 -61t-61 -25q-31 0 -59 21l-170 139q-43 34 -43 86z" />
    <glyph glyph-name="oacute" unicode="&#xf3;" horiz-adv-x="1089" 
d="M545 1057q209 0 327.5 -120.5t118.5 -332.5v-174q0 -214 -118.5 -334.5t-327.5 -120.5q-211 0 -329 120.5t-118 334.5v174q0 213 118.5 333t328.5 120zM545 854q-107 0 -164 -67t-57 -193v-156q0 -126 57 -193t164 -67t164 67t57 193v156q0 126 -57 193t-164 67z
M805 1403q0 -52 -43 -86l-170 -139q-28 -21 -60 -21q-36 0 -61 25t-25 61q0 39 25 64l156 157q37 37 80 37q41 0 69.5 -28.5t28.5 -69.5z" />
    <glyph glyph-name="ocircumflex" unicode="&#xf4;" horiz-adv-x="1089" 
d="M545 1057q209 0 327.5 -120.5t118.5 -332.5v-174q0 -214 -118.5 -334.5t-327.5 -120.5q-211 0 -329 120.5t-118 334.5v174q0 213 118.5 333t328.5 120zM545 854q-107 0 -164 -67t-57 -193v-156q0 -126 57 -193t164 -67t164 67t57 193v156q0 126 -57 193t-164 67z
M545 1501q56 0 94 -35l174 -149q35 -27 35 -72q0 -37 -24.5 -62.5t-61.5 -25.5q-32 0 -64 25l-153 121l-154 -121q-32 -25 -63 -25q-37 0 -61.5 25.5t-24.5 62.5q0 45 34 72l175 149q38 35 94 35z" />
    <glyph glyph-name="otilde" unicode="&#xf5;" horiz-adv-x="1089" 
d="M545 1057q209 0 327.5 -120.5t118.5 -332.5v-174q0 -214 -118.5 -334.5t-327.5 -120.5q-211 0 -329 120.5t-118 334.5v174q0 213 118.5 333t328.5 120zM545 854q-107 0 -164 -67t-57 -193v-156q0 -126 57 -193t164 -67t164 67t57 193v156q0 126 -57 193t-164 67z
M655 1180q-79 0 -151 69q-38 35 -60 35t-36 -14t-31 -53q-8 -19 -27 -31t-43 -12q-39 0 -62.5 22.5t-23.5 58.5q0 13 4 33q23 88 78.5 137.5t130.5 49.5q79 0 152 -70q38 -35 59 -35q22 0 36.5 14.5t31.5 53.5q8 19 26.5 31t42.5 12q39 0 62.5 -23t23.5 -59q0 -13 -4 -33
q-23 -88 -78.5 -137t-130.5 -49z" />
    <glyph glyph-name="odieresis" unicode="&#xf6;" horiz-adv-x="1089" 
d="M545 1057q209 0 327.5 -120.5t118.5 -332.5v-174q0 -214 -118.5 -334.5t-327.5 -120.5q-211 0 -329 120.5t-118 334.5v174q0 213 118.5 333t328.5 120zM545 854q-107 0 -164 -67t-57 -193v-156q0 -126 57 -193t164 -67t164 67t57 193v156q0 126 -57 193t-164 67z
M356 1456q55 0 88 -31t33 -84v-28q0 -53 -33 -84t-88 -31q-57 0 -90 31t-33 84v28q0 53 33 84t90 31zM733 1456q57 0 90 -31t33 -84v-28q0 -53 -33 -84t-90 -31q-55 0 -88 31t-33 84v28q0 53 33 84t88 31z" />
    <glyph glyph-name="divide" unicode="&#xf7;" horiz-adv-x="1161" 
d="M582 889q-57 0 -91 31.5t-34 83.5v51q0 51 34 82.5t91 31.5q55 0 89 -31.5t34 -82.5v-51q0 -52 -33.5 -83.5t-89.5 -31.5zM158 717h848q46 0 76 -29t30 -74t-30 -73.5t-76 -28.5h-848q-47 0 -77 28t-30 74t30 74.5t77 28.5zM582 340q56 0 89.5 -31.5t33.5 -83.5v-51
q0 -51 -34 -83t-89 -32q-57 0 -91 32t-34 83v51q0 52 34 83.5t91 31.5z" />
    <glyph glyph-name="oslash" unicode="&#xf8;" horiz-adv-x="1089" 
d="M963 879l-25 -31q53 -103 53 -244v-174q0 -214 -118.5 -334.5t-327.5 -120.5q-156 0 -262 68l-11 -14q-33 -41 -86 -41q-35 0 -61.5 25.5t-26.5 64.5q0 40 29 76l25 30q-54 105 -54 246v174q0 213 118.5 333t328.5 120q153 0 262 -68l10 15q32 40 86 40q35 0 61.5 -25.5
t26.5 -64.5q0 -40 -28 -75zM328 399l342 422q-47 33 -125 33q-107 0 -164 -67t-57 -193v-195h4zM762 631l-342 -420q47 -33 125 -33q107 0 164 67t57 193v193h-4z" />
    <glyph glyph-name="ugrave" unicode="&#xf9;" horiz-adv-x="1097" 
d="M872 1044q54 0 83.5 -31t29.5 -87v-506q0 -207 -116 -326t-320 -119t-320 119t-116 326v506q0 56 29 87t83 31t83.5 -31t29.5 -87v-498q0 -121 54.5 -185.5t156.5 -64.5t156.5 64.5t54.5 185.5v498q0 56 29 87t83 31zM285 1403q0 41 28.5 69.5t69.5 28.5q43 0 80 -37
l155 -157q25 -25 25 -64q0 -36 -25 -61t-61 -25q-31 0 -59 21l-170 139q-43 34 -43 86z" />
    <glyph glyph-name="uacute" unicode="&#xfa;" horiz-adv-x="1097" 
d="M872 1044q54 0 83.5 -31t29.5 -87v-506q0 -207 -116 -326t-320 -119t-320 119t-116 326v506q0 56 29 87t83 31t83.5 -31t29.5 -87v-498q0 -121 54.5 -185.5t156.5 -64.5t156.5 64.5t54.5 185.5v498q0 56 29 87t83 31zM809 1403q0 -52 -43 -86l-170 -139q-28 -21 -59 -21
q-36 0 -61 25t-25 61q0 40 24 64l156 157q37 37 80 37q41 0 69.5 -28.5t28.5 -69.5z" />
    <glyph glyph-name="ucircumflex" unicode="&#xfb;" horiz-adv-x="1097" 
d="M872 1044q54 0 83.5 -31t29.5 -87v-506q0 -207 -116 -326t-320 -119t-320 119t-116 326v506q0 56 29 87t83 31t83.5 -31t29.5 -87v-498q0 -121 54.5 -185.5t156.5 -64.5t156.5 64.5t54.5 185.5v498q0 56 29 87t83 31zM549 1501q56 0 94 -35l174 -149q35 -27 35 -72
q0 -37 -24.5 -62.5t-61.5 -25.5q-32 0 -64 25l-153 121l-154 -121q-32 -25 -63 -25q-37 0 -61.5 25.5t-24.5 62.5q0 45 35 72l174 149q38 35 94 35z" />
    <glyph glyph-name="udieresis" unicode="&#xfc;" horiz-adv-x="1097" 
d="M872 1044q54 0 83.5 -31t29.5 -87v-506q0 -207 -116 -326t-320 -119t-320 119t-116 326v506q0 56 29 87t83 31t83.5 -31t29.5 -87v-498q0 -121 54.5 -185.5t156.5 -64.5t156.5 64.5t54.5 185.5v498q0 56 29 87t83 31zM360 1456q55 0 88 -31t33 -84v-28q0 -53 -33 -84
t-88 -31q-57 0 -89.5 31t-32.5 84v28q0 53 32.5 84t89.5 31zM737 1456q57 0 90 -31t33 -84v-28q0 -53 -33 -84t-90 -31q-55 0 -88 31t-33 84v28q0 53 33 84t88 31z" />
    <glyph glyph-name="yacute" unicode="&#xfd;" horiz-adv-x="1030" 
d="M881 1044q51 0 79.5 -28t28.5 -80q0 -28 -8 -49l-528 -1184q-27 -59 -101 -59q-52 0 -82 30.5t-30 85.5q0 33 16 62l137 270l-342 785q-10 23 -10 49q0 55 30 86.5t81 31.5q80 0 108 -69l254 -608h4l264 616q25 61 99 61zM772 1403q0 -52 -43 -86l-170 -139
q-28 -21 -59 -21q-36 0 -61 25t-25 61q0 40 24 64l156 157q37 37 80 37q41 0 69.5 -28.5t28.5 -69.5z" />
    <glyph glyph-name="thorn" unicode="&#xfe;" horiz-adv-x="1118" 
d="M614 1057q188 0 298 -118.5t110 -320.5v-202q0 -203 -109.5 -322t-298.5 -119q-163 0 -258 103h-4v-314q0 -57 -29.5 -88.5t-82.5 -31.5q-54 0 -83.5 31.5t-29.5 88.5v1549q0 57 29.5 89t83.5 32q53 0 82.5 -32t29.5 -89v-359h4q95 103 258 103zM797 424v184
q0 117 -58.5 181.5t-163.5 64.5q-107 0 -165 -64.5t-58 -181.5v-184q0 -117 58 -181.5t165 -64.5q105 0 163.5 64.5t58.5 181.5z" />
    <glyph glyph-name="ydieresis" unicode="&#xff;" horiz-adv-x="1030" 
d="M881 1044q51 0 79.5 -28t28.5 -80q0 -28 -8 -49l-528 -1184q-27 -59 -101 -59q-52 0 -82 30.5t-30 85.5q0 33 16 62l137 270l-342 785q-10 23 -10 49q0 55 30 86.5t81 31.5q80 0 108 -69l254 -608h4l264 616q25 61 99 61zM324 1456q55 0 87.5 -31t32.5 -84v-28
q0 -53 -32.5 -84t-87.5 -31q-57 0 -90 31t-33 84v28q0 53 33 84t90 31zM700 1456q57 0 90 -31t33 -84v-28q0 -53 -33 -84t-90 -31q-55 0 -87.5 31t-32.5 84v28q0 53 32.5 84t87.5 31z" />
    <glyph glyph-name="Amacron" unicode="&#x100;" horiz-adv-x="1302" 
d="M791 1262l440 -1100q8 -21 8 -49q0 -57 -33.5 -91t-89.5 -34q-90 0 -119 82l-79 219h-537l-84 -223q-12 -36 -42.5 -57t-72.5 -21q-53 0 -86 32t-33 86q0 25 11 54l440 1102q42 102 137 102q98 0 140 -102zM653 1004h-4l-188 -500h377zM451 1718h399q47 0 73.5 -25
t26.5 -69q0 -43 -26.5 -67.5t-73.5 -24.5h-399q-47 0 -74 24.5t-27 67.5q0 44 27 69t74 25z" />
    <glyph glyph-name="amacron" unicode="&#x101;" horiz-adv-x="1042" 
d="M504 1057q206 0 324 -120.5t118 -332.5v-174q0 -214 -118 -334.5t-328 -120.5q-194 0 -306 89.5t-112 244.5v10q0 146 92 221.5t272 75.5h275q0 112 -59 175t-162 63q-120 0 -189 -102q-32 -47 -92 -47q-47 0 -78.5 32t-31.5 78q0 33 16 59q114 183 379 183zM498 178
q108 0 165.5 64t57.5 186h-277q-66 0 -101.5 -28t-35.5 -81v-4q0 -65 50 -101t141 -36zM305 1419h400q47 0 73.5 -25t26.5 -69q0 -43 -26.5 -67.5t-73.5 -24.5h-400q-47 0 -73.5 24.5t-26.5 67.5q0 44 26.5 69t73.5 25z" />
    <glyph glyph-name="Abreve" unicode="&#x102;" horiz-adv-x="1302" 
d="M791 1262l440 -1100q8 -21 8 -49q0 -57 -33.5 -91t-89.5 -34q-90 0 -119 82l-79 219h-537l-84 -223q-12 -36 -42.5 -57t-72.5 -21q-53 0 -86 32t-33 86q0 25 11 54l440 1102q42 102 137 102q98 0 140 -102zM653 1004h-4l-188 -500h377zM651 1460q-115 0 -192.5 53
t-106.5 152q-6 21 -6 45q0 38 24 62t66 24q59 0 80 -57q17 -45 53 -69.5t82 -24.5t82 24.5t53 69.5q21 57 80 57q42 0 66 -24t24 -62q0 -24 -6 -45q-29 -99 -106.5 -152t-192.5 -53z" />
    <glyph glyph-name="abreve" unicode="&#x103;" horiz-adv-x="1042" 
d="M504 1057q206 0 324 -120.5t118 -332.5v-174q0 -214 -118 -334.5t-328 -120.5q-194 0 -306 89.5t-112 244.5v10q0 146 92 221.5t272 75.5h275q0 112 -59 175t-162 63q-120 0 -189 -102q-32 -47 -92 -47q-47 0 -78.5 32t-31.5 78q0 33 16 59q114 183 379 183zM498 178
q108 0 165.5 64t57.5 186h-277q-66 0 -101.5 -28t-35.5 -81v-4q0 -65 50 -101t141 -36zM506 1161q-115 0 -192.5 53t-106.5 152q-6 21 -6 45q0 38 24 62t66 24q59 0 80 -57q17 -45 53 -69.5t82 -24.5t82 24.5t53 69.5q21 57 80 57q42 0 66 -24t24 -62q0 -24 -6 -45
q-29 -99 -106.5 -152t-192.5 -53z" />
    <glyph glyph-name="Aogonek" unicode="&#x104;" horiz-adv-x="1302" 
d="M1153 -156q41 0 63.5 -24t22.5 -64q0 -43 -37 -73q-63 -52 -172 -52q-98 0 -156.5 46t-58.5 130q0 152 184 256l-81 226h-537l-84 -223q-12 -36 -42.5 -57t-72.5 -21q-53 0 -86 32t-33 86q0 25 11 54l440 1102q42 102 137 102q98 0 140 -102l440 -1100q8 -21 8 -49
q0 -44 -21.5 -75.5t-58.5 -43.5q-88 -27 -131 -65t-43 -81q0 -22 14.5 -35.5t34.5 -13.5q29 0 62 23q29 22 57 22zM653 1001h-4l-188 -497h377z" />
    <glyph glyph-name="aogonek" unicode="&#x105;" horiz-adv-x="1042" 
d="M721 20q-63 -27 -95 -73t-32 -90q0 -27 14 -42.5t35 -15.5q29 0 59 23q28 22 60 22q41 0 63.5 -24t22.5 -64t-33 -69q-69 -56 -178 -56q-95 0 -154 49t-59 136q0 83 68 157v2q-189 2 -299.5 91.5t-110.5 242.5v10q0 146 92 221.5t272 75.5h275q0 112 -59 175t-162 63
q-120 0 -189 -102q-32 -47 -92 -47q-47 0 -78.5 32t-31.5 78q0 33 16 59q114 183 379 183q206 0 324 -120.5t118 -332.5v-174q0 -151 -60.5 -258t-164.5 -152zM498 178q108 0 165.5 64t57.5 186h-277q-66 0 -101.5 -28t-35.5 -81v-4q0 -65 50 -101t141 -36z" />
    <glyph glyph-name="Cacute" unicode="&#x106;" horiz-adv-x="1241" 
d="M1157 354q0 -20 -6 -41q-46 -161 -173 -249.5t-319 -88.5q-250 0 -392 146t-142 403v303q0 257 142 403t392 146q186 0 312.5 -83t169.5 -230q4 -20 4 -35q0 -52 -34 -85.5t-87 -33.5q-79 0 -109 68q-81 180 -262 180q-133 0 -205.5 -89t-72.5 -251v-282
q0 -162 72.5 -251t205.5 -89q98 0 166.5 51.5t104.5 146.5q29 80 112 80q54 0 87.5 -32.5t33.5 -86.5zM895 1702q0 -52 -43 -86l-170 -139q-28 -21 -59 -21q-36 0 -61 25t-25 61q0 40 24 64l156 157q37 37 80 37q41 0 69.5 -28.5t28.5 -69.5z" />
    <glyph glyph-name="cacute" unicode="&#x107;" horiz-adv-x="976" 
d="M913 227q0 -31 -14 -59q-49 -93 -145 -143t-224 -50q-203 0 -317.5 120.5t-114.5 334.5v174q0 212 116.5 332.5t320.5 120.5q231 0 348 -160q22 -31 22 -70q0 -50 -29.5 -80t-78.5 -30q-59 0 -90 47q-63 90 -172 90q-101 0 -156 -67.5t-55 -192.5v-156q0 -124 54 -192
t152 -68q117 0 183 107q31 51 92 51q49 0 78.5 -30.5t29.5 -78.5zM770 1403q0 -52 -43 -86l-170 -139q-28 -21 -59 -21q-36 0 -61 25t-25 61q0 40 24 64l156 157q37 37 80 37q41 0 69.5 -28.5t28.5 -69.5z" />
    <glyph glyph-name="Ccircumflex" unicode="&#x108;" horiz-adv-x="1241" 
d="M1157 354q0 -20 -6 -41q-46 -161 -173 -249.5t-319 -88.5q-250 0 -392 146t-142 403v303q0 257 142 403t392 146q186 0 312.5 -83t169.5 -230q4 -20 4 -35q0 -52 -34 -85.5t-87 -33.5q-79 0 -109 68q-81 180 -262 180q-133 0 -205.5 -89t-72.5 -251v-282
q0 -162 72.5 -251t205.5 -89q98 0 166.5 51.5t104.5 146.5q29 80 112 80q54 0 87.5 -32.5t33.5 -86.5zM635 1800q56 0 94 -35l174 -149q35 -27 35 -72q0 -37 -24.5 -62.5t-61.5 -25.5q-32 0 -64 25l-153 121l-154 -121q-32 -25 -63 -25q-37 0 -61.5 25.5t-24.5 62.5
q0 45 35 72l174 149q38 35 94 35z" />
    <glyph glyph-name="ccircumflex" unicode="&#x109;" horiz-adv-x="976" 
d="M913 227q0 -31 -14 -59q-49 -93 -145 -143t-224 -50q-203 0 -317.5 120.5t-114.5 334.5v174q0 212 116.5 332.5t320.5 120.5q231 0 348 -160q22 -31 22 -70q0 -50 -29.5 -80t-78.5 -30q-59 0 -90 47q-63 90 -172 90q-101 0 -156 -67.5t-55 -192.5v-156q0 -124 54 -192
t152 -68q117 0 183 107q31 51 92 51q49 0 78.5 -30.5t29.5 -78.5zM510 1501q56 0 94 -35l174 -149q35 -27 35 -72q0 -37 -24.5 -62.5t-61.5 -25.5q-31 0 -63 25l-154 121l-154 -121q-32 -25 -63 -25q-37 0 -61.5 25.5t-24.5 62.5q0 45 35 72l174 149q38 35 94 35z" />
    <glyph glyph-name="Cdotaccent" unicode="&#x10a;" horiz-adv-x="1241" 
d="M1157 354q0 -20 -6 -41q-46 -161 -173 -249.5t-319 -88.5q-250 0 -392 146t-142 403v303q0 257 142 403t392 146q186 0 312.5 -83t169.5 -230q4 -20 4 -35q0 -52 -34 -85.5t-87 -33.5q-79 0 -109 68q-81 180 -262 180q-133 0 -205.5 -89t-72.5 -251v-282
q0 -162 72.5 -251t205.5 -89q98 0 166.5 51.5t104.5 146.5q29 80 112 80q54 0 87.5 -32.5t33.5 -86.5zM635 1761q59 0 94 -33t35 -88v-30q0 -54 -35 -86.5t-94 -32.5t-94 32.5t-35 86.5v30q0 55 35 88t94 33z" />
    <glyph glyph-name="cdotaccent" unicode="&#x10b;" horiz-adv-x="976" 
d="M913 227q0 -31 -14 -59q-49 -93 -145 -143t-224 -50q-203 0 -317.5 120.5t-114.5 334.5v174q0 212 116.5 332.5t320.5 120.5q231 0 348 -160q22 -31 22 -70q0 -50 -29.5 -80t-78.5 -30q-59 0 -90 47q-63 90 -172 90q-101 0 -156 -67.5t-55 -192.5v-156q0 -124 54 -192
t152 -68q117 0 183 107q31 51 92 51q49 0 78.5 -30.5t29.5 -78.5zM510 1462q59 0 94 -33t35 -88v-30q0 -54 -35 -86.5t-94 -32.5t-94 32.5t-35 86.5v30q0 55 35 88t94 33z" />
    <glyph glyph-name="Ccaron" unicode="&#x10c;" horiz-adv-x="1241" 
d="M1157 354q0 -20 -6 -41q-46 -161 -173 -249.5t-319 -88.5q-250 0 -392 146t-142 403v303q0 257 142 403t392 146q186 0 312.5 -83t169.5 -230q4 -20 4 -35q0 -52 -34 -85.5t-87 -33.5q-79 0 -109 68q-81 180 -262 180q-133 0 -205.5 -89t-72.5 -251v-282
q0 -162 72.5 -251t205.5 -89q98 0 166.5 51.5t104.5 146.5q29 80 112 80q54 0 87.5 -32.5t33.5 -86.5zM635 1456q-56 0 -94 35l-174 149q-35 27 -35 72q0 37 24.5 62.5t61.5 25.5q32 0 63 -24l154 -121l153 121q31 24 64 24q37 0 61.5 -25.5t24.5 -62.5q0 -45 -35 -72
l-174 -149q-38 -35 -94 -35z" />
    <glyph glyph-name="ccaron" unicode="&#x10d;" horiz-adv-x="976" 
d="M913 227q0 -31 -14 -59q-49 -93 -145 -143t-224 -50q-203 0 -317.5 120.5t-114.5 334.5v174q0 212 116.5 332.5t320.5 120.5q231 0 348 -160q22 -31 22 -70q0 -50 -29.5 -80t-78.5 -30q-59 0 -90 47q-63 90 -172 90q-101 0 -156 -67.5t-55 -192.5v-156q0 -124 54 -192
t152 -68q117 0 183 107q31 51 92 51q49 0 78.5 -30.5t29.5 -78.5zM510 1157q-56 0 -94 35l-174 149q-35 27 -35 72q0 37 24.5 62.5t61.5 25.5q32 0 63 -24l154 -121l154 121q31 24 63 24q37 0 61.5 -25.5t24.5 -62.5q0 -45 -35 -72l-174 -149q-38 -35 -94 -35z" />
    <glyph glyph-name="Dcaron" unicode="&#x10e;" horiz-adv-x="1331" 
d="M297 1352h342q269 0 417 -145.5t148 -403.5v-254q0 -258 -148 -403.5t-417 -145.5h-342q-62 0 -96.5 34t-34.5 97v1090q0 60 35 95.5t96 35.5zM954 557v238q0 163 -80.5 250.5t-234.5 87.5h-223v-914h223q154 0 234.5 87.5t80.5 250.5zM623 1456q-57 0 -95 35l-174 149
q-35 27 -35 72q0 37 25 62.5t62 25.5q32 0 63 -24l154 -121l153 121q31 24 64 24q37 0 61.5 -25.5t24.5 -62.5q0 -45 -35 -72l-174 -149q-38 -35 -94 -35z" />
    <glyph glyph-name="dcaron" unicode="&#x10f;" horiz-adv-x="1103" 
d="M879 1434q54 0 83 -32t29 -89v-883q0 -214 -118.5 -334.5t-327.5 -120.5q-211 0 -329 120.5t-118 334.5v188q0 201 109.5 320t296.5 119q164 0 258 -105h4v361q0 57 29.5 89t83.5 32zM766 438v170q0 117 -58.5 181.5t-162.5 64.5q-106 0 -163.5 -64.5t-57.5 -181.5v-170
q0 -126 57 -193t164 -67t164 67t57 193zM1282 1309l-51 -238q-7 -37 -30.5 -56.5t-55.5 -19.5q-41 0 -63.5 23.5t-22.5 62.5q0 7 4 43l29 219q5 41 29.5 66t66.5 25q45 0 71.5 -27t26.5 -64q0 -14 -4 -34z" />
    <glyph glyph-name="Dcroat" unicode="&#x110;" horiz-adv-x="1345" 
d="M311 1352h342q269 0 417.5 -145.5t148.5 -403.5v-254q0 -258 -148.5 -403.5t-417.5 -145.5h-342q-62 0 -96.5 34t-34.5 97v447h-47q-54 0 -84.5 28.5t-30.5 79.5t30.5 80t84.5 29h47v426q0 60 35 95.5t96 35.5zM969 557v238q0 162 -81 250t-235 88h-223v-338h211
q54 0 85.5 -29t31.5 -80t-31.5 -79.5t-85.5 -28.5h-211v-359h223q154 0 235 88t81 250z" />
    <glyph glyph-name="dcroat" unicode="&#x111;" horiz-adv-x="1107" 
d="M991 1284h21q44 0 70 -24t26 -64q0 -41 -26 -64.5t-70 -23.5h-21v-678q0 -214 -118.5 -334.5t-327.5 -120.5q-211 0 -329 120.5t-118 334.5v188q0 201 109.5 320t296.5 119q164 0 258 -105h4v156h-252q-43 0 -69.5 23.5t-26.5 64.5q0 40 26.5 64t69.5 24h252v29
q0 57 29.5 89t83.5 32t83 -32t29 -89v-29zM766 438v170q0 117 -58.5 181.5t-162.5 64.5q-106 0 -163.5 -64.5t-57.5 -181.5v-170q0 -126 57 -193t164 -67t164 67t57 193z" />
    <glyph glyph-name="Emacron" unicode="&#x112;" horiz-adv-x="1179" 
d="M416 219h573q54 0 84.5 -29t30.5 -81q0 -51 -30.5 -80t-84.5 -29h-692q-62 0 -96.5 34t-34.5 97v1090q0 63 34.5 97t96.5 34h692q54 0 84.5 -29t30.5 -80q0 -52 -30.5 -81t-84.5 -29h-573v-340h481q54 0 84.5 -29t30.5 -80t-30.5 -80t-84.5 -29h-481v-356zM436 1718h400
q47 0 73.5 -25t26.5 -69q0 -43 -26.5 -67.5t-73.5 -24.5h-400q-47 0 -73.5 24.5t-26.5 67.5q0 44 26.5 69t73.5 25z" />
    <glyph glyph-name="emacron" unicode="&#x113;" horiz-adv-x="1048" 
d="M535 1057q203 0 317.5 -120.5t114.5 -332.5v-57q0 -53 -29 -83t-80 -30h-534q0 -124 57 -190t162 -66q120 0 190 103q32 47 90 47q51 0 81 -30t30 -81q0 -33 -21 -65q-117 -177 -370 -177q-209 0 -327 120.5t-118 334.5v174q0 212 116.5 332.5t320.5 120.5zM535 854
q-96 0 -153.5 -61.5t-57.5 -169.5h421q0 108 -57 169.5t-153 61.5zM328 1419h399q47 0 73.5 -25t26.5 -69q0 -43 -26.5 -67.5t-73.5 -24.5h-399q-47 0 -74 24.5t-27 67.5q0 44 27 69t74 25z" />
    <glyph glyph-name="Ebreve" unicode="&#x114;" horiz-adv-x="1179" 
d="M416 219h573q54 0 84.5 -29t30.5 -81q0 -51 -30.5 -80t-84.5 -29h-692q-62 0 -96.5 34t-34.5 97v1090q0 63 34.5 97t96.5 34h692q54 0 84.5 -29t30.5 -80q0 -52 -30.5 -81t-84.5 -29h-573v-340h481q54 0 84.5 -29t30.5 -80t-30.5 -80t-84.5 -29h-481v-356zM637 1460
q-115 0 -192.5 53t-106.5 152q-6 21 -6 45q0 38 24 62t66 24q59 0 80 -57q17 -45 53 -69.5t82 -24.5t82 24.5t53 69.5q21 57 80 57q42 0 66 -24t24 -62q0 -24 -6 -45q-29 -99 -106.5 -152t-192.5 -53z" />
    <glyph glyph-name="ebreve" unicode="&#x115;" horiz-adv-x="1048" 
d="M535 1057q203 0 317.5 -120.5t114.5 -332.5v-57q0 -53 -29 -83t-80 -30h-534q0 -124 57 -190t162 -66q120 0 190 103q32 47 90 47q51 0 81 -30t30 -81q0 -33 -21 -65q-117 -177 -370 -177q-209 0 -327 120.5t-118 334.5v174q0 212 116.5 332.5t320.5 120.5zM535 854
q-96 0 -153.5 -61.5t-57.5 -169.5h421q0 108 -57 169.5t-153 61.5zM528 1161q-115 0 -192.5 53t-106.5 152q-6 21 -6 45q0 38 24 62t66 24q59 0 80 -57q17 -45 53 -69.5t82 -24.5q47 0 83 24.5t53 69.5q21 57 79 57q42 0 66.5 -24t24.5 -62q0 -21 -7 -45
q-29 -99 -106.5 -152t-192.5 -53z" />
    <glyph glyph-name="Edotaccent" unicode="&#x116;" horiz-adv-x="1179" 
d="M416 219h573q54 0 84.5 -29t30.5 -81q0 -51 -30.5 -80t-84.5 -29h-692q-62 0 -96.5 34t-34.5 97v1090q0 63 34.5 97t96.5 34h692q54 0 84.5 -29t30.5 -80q0 -52 -30.5 -81t-84.5 -29h-573v-340h481q54 0 84.5 -29t30.5 -80t-30.5 -80t-84.5 -29h-481v-356zM637 1761
q59 0 94 -33t35 -88v-30q0 -54 -35 -86.5t-94 -32.5t-94 32.5t-35 86.5v30q0 55 35 88t94 33z" />
    <glyph glyph-name="edotaccent" unicode="&#x117;" horiz-adv-x="1048" 
d="M535 1057q203 0 317.5 -120.5t114.5 -332.5v-57q0 -53 -29 -83t-80 -30h-534q0 -124 57 -190t162 -66q120 0 190 103q32 47 90 47q51 0 81 -30t30 -81q0 -33 -21 -65q-117 -177 -370 -177q-209 0 -327 120.5t-118 334.5v174q0 212 116.5 332.5t320.5 120.5zM535 854
q-96 0 -153.5 -61.5t-57.5 -169.5h421q0 108 -57 169.5t-153 61.5zM528 1462q59 0 94 -33t35 -88v-30q0 -54 -35 -86.5t-94 -32.5t-94 32.5t-35 86.5v30q0 55 35 88t94 33z" />
    <glyph glyph-name="Eogonek" unicode="&#x118;" horiz-adv-x="1179" 
d="M1026 2q-176 -57 -176 -149q0 -25 14.5 -39.5t34.5 -14.5q33 0 64 25q23 20 53 20q41 0 64.5 -24t23.5 -64q0 -43 -33 -69q-73 -56 -176 -56q-99 0 -157 46t-58 133q0 109 102 188v2h-485q-62 0 -96.5 34t-34.5 97v1090q0 63 34.5 97t96.5 34h692q54 0 84.5 -29t30.5 -80
q0 -52 -30.5 -81t-84.5 -29h-573v-340h481q54 0 84.5 -29t30.5 -80t-30.5 -80t-84.5 -29h-481v-356h573q54 0 84.5 -29t30.5 -81q0 -82 -78 -107z" />
    <glyph glyph-name="eogonek" unicode="&#x119;" horiz-adv-x="1048" 
d="M535 1057q203 0 317.5 -120.5t114.5 -332.5v-57q0 -53 -29 -83t-80 -30h-534q0 -124 57 -190t162 -66q120 0 190 103q32 47 90 47q51 0 81 -30t30 -81q0 -33 -21 -65q-52 -78 -120 -115q-71 -38 -106.5 -85.5t-35.5 -94.5q0 -27 14.5 -42.5t36.5 -15.5q31 0 58 21
q31 24 59 24q41 0 63.5 -24t22.5 -64q0 -46 -33 -69q-75 -56 -178 -56q-95 0 -154 49t-59 136q0 83 68 157v2h-6q-209 0 -327 120.5t-118 334.5v174q0 212 116.5 332.5t320.5 120.5zM324 623h421q0 108 -57 169.5t-153 61.5t-153.5 -61.5t-57.5 -169.5z" />
    <glyph glyph-name="Ecaron" unicode="&#x11a;" horiz-adv-x="1179" 
d="M416 219h573q54 0 84.5 -29t30.5 -81q0 -51 -30.5 -80t-84.5 -29h-692q-62 0 -96.5 34t-34.5 97v1090q0 63 34.5 97t96.5 34h692q54 0 84.5 -29t30.5 -80q0 -52 -30.5 -81t-84.5 -29h-573v-340h481q54 0 84.5 -29t30.5 -80t-30.5 -80t-84.5 -29h-481v-356zM637 1456
q-56 0 -94 35l-174 149q-35 27 -35 72q0 37 24.5 62.5t61.5 25.5q32 0 63 -24l154 -121l154 121q31 24 63 24q37 0 61.5 -25.5t24.5 -62.5q0 -45 -35 -72l-174 -149q-38 -35 -94 -35z" />
    <glyph glyph-name="ecaron" unicode="&#x11b;" horiz-adv-x="1048" 
d="M535 1057q203 0 317.5 -120.5t114.5 -332.5v-57q0 -53 -29 -83t-80 -30h-534q0 -124 57 -190t162 -66q120 0 190 103q32 47 90 47q51 0 81 -30t30 -81q0 -33 -21 -65q-117 -177 -370 -177q-209 0 -327 120.5t-118 334.5v174q0 212 116.5 332.5t320.5 120.5zM535 854
q-96 0 -153.5 -61.5t-57.5 -169.5h421q0 108 -57 169.5t-153 61.5zM528 1157q-56 0 -94 35l-174 149q-35 27 -35 72q0 37 24.5 62.5t61.5 25.5q33 0 64 -24l153 -121l154 121q31 24 63 24q37 0 61.5 -25.5t24.5 -62.5q0 -45 -34 -72l-174 -149q-38 -35 -95 -35z" />
    <glyph glyph-name="Gcircumflex" unicode="&#x11c;" horiz-adv-x="1308" 
d="M768 731h301q61 0 96 -35.5t35 -95.5v-76q0 -257 -142 -403t-394 -146t-395.5 146t-143.5 403v303q0 256 145.5 402.5t399.5 146.5q185 0 312.5 -75.5t174.5 -204.5q8 -19 8 -43q0 -54 -33.5 -87.5t-84.5 -33.5q-78 0 -111 67q-76 158 -266 158q-140 0 -217.5 -89
t-77.5 -251v-285q0 -161 78 -249t221 -88q137 0 210.5 82t76.5 235h-193q-55 0 -86 29t-31 80q0 52 30.5 81t86.5 29zM651 1800q56 0 94 -35l175 -149q34 -27 34 -72q0 -37 -24.5 -62.5t-61.5 -25.5q-31 0 -63 25l-154 121l-153 -121q-32 -25 -64 -25q-37 0 -61.5 25.5
t-24.5 62.5q0 45 35 72l174 149q38 35 94 35z" />
    <glyph glyph-name="gcircumflex" unicode="&#x11d;" horiz-adv-x="1103" 
d="M545 1057q209 0 327.5 -120.5t118.5 -332.5v-522q0 -211 -122 -331t-337 -120q-129 0 -226.5 44t-151.5 126q-23 38 -23 70q0 49 30 80t77 31q58 0 98 -54q69 -94 196 -94q113 0 173.5 66t60.5 192v41h-4q-93 -104 -258 -104q-187 0 -296.5 118.5t-109.5 319.5v137
q0 213 118.5 333t328.5 120zM545 231q104 0 162.5 64.5t58.5 179.5v119q0 126 -57 193t-164 67t-164 -67t-57 -193v-119q0 -116 58 -180t163 -64zM545 1501q56 0 94 -35l174 -149q35 -27 35 -72q0 -37 -24.5 -62.5t-61.5 -25.5q-32 0 -64 25l-153 121l-154 -121
q-32 -25 -63 -25q-37 0 -61.5 25.5t-24.5 62.5q0 45 34 72l175 149q38 35 94 35z" />
    <glyph glyph-name="Gbreve" unicode="&#x11e;" horiz-adv-x="1308" 
d="M768 731h301q61 0 96 -35.5t35 -95.5v-76q0 -257 -142 -403t-394 -146t-395.5 146t-143.5 403v303q0 256 145.5 402.5t399.5 146.5q185 0 312.5 -75.5t174.5 -204.5q8 -19 8 -43q0 -54 -33.5 -87.5t-84.5 -33.5q-78 0 -111 67q-76 158 -266 158q-140 0 -217.5 -89
t-77.5 -251v-285q0 -161 78 -249t221 -88q137 0 210.5 82t76.5 235h-193q-55 0 -86 29t-31 80q0 52 30.5 81t86.5 29zM651 1460q-115 0 -192.5 53t-106.5 152q-6 21 -6 45q0 38 24 62t66 24q59 0 80 -57q17 -45 53 -69.5t82 -24.5t82 24.5t53 69.5q21 57 80 57q42 0 66 -24
t24 -62q0 -24 -6 -45q-29 -99 -106.5 -152t-192.5 -53z" />
    <glyph glyph-name="gbreve" unicode="&#x11f;" horiz-adv-x="1103" 
d="M545 1057q209 0 327.5 -120.5t118.5 -332.5v-522q0 -211 -122 -331t-337 -120q-129 0 -226.5 44t-151.5 126q-23 38 -23 70q0 49 30 80t77 31q58 0 98 -54q69 -94 196 -94q113 0 173.5 66t60.5 192v41h-4q-93 -104 -258 -104q-187 0 -296.5 118.5t-109.5 319.5v137
q0 213 118.5 333t328.5 120zM545 231q104 0 162.5 64.5t58.5 179.5v119q0 126 -57 193t-164 67t-164 -67t-57 -193v-119q0 -116 58 -180t163 -64zM545 1161q-115 0 -192.5 53t-106.5 152q-6 21 -6 45q0 38 24 62t66 24q59 0 80 -57q17 -45 53 -69.5t82 -24.5t82 24.5
t53 69.5q21 57 80 57q42 0 66 -24t24 -62q0 -24 -6 -45q-29 -99 -106.5 -152t-192.5 -53z" />
    <glyph glyph-name="Gdotaccent" unicode="&#x120;" horiz-adv-x="1308" 
d="M768 731h301q61 0 96 -35.5t35 -95.5v-76q0 -257 -142 -403t-394 -146t-395.5 146t-143.5 403v303q0 256 145.5 402.5t399.5 146.5q185 0 312.5 -75.5t174.5 -204.5q8 -19 8 -43q0 -54 -33.5 -87.5t-84.5 -33.5q-78 0 -111 67q-76 158 -266 158q-140 0 -217.5 -89
t-77.5 -251v-285q0 -161 78 -249t221 -88q137 0 210.5 82t76.5 235h-193q-55 0 -86 29t-31 80q0 52 30.5 81t86.5 29zM651 1761q59 0 94 -33t35 -88v-30q0 -54 -35 -86.5t-94 -32.5t-94 32.5t-35 86.5v30q0 55 35 88t94 33z" />
    <glyph glyph-name="gdotaccent" unicode="&#x121;" horiz-adv-x="1103" 
d="M545 1057q209 0 327.5 -120.5t118.5 -332.5v-522q0 -211 -122 -331t-337 -120q-129 0 -226.5 44t-151.5 126q-23 38 -23 70q0 49 30 80t77 31q58 0 98 -54q69 -94 196 -94q113 0 173.5 66t60.5 192v41h-4q-93 -104 -258 -104q-187 0 -296.5 118.5t-109.5 319.5v137
q0 213 118.5 333t328.5 120zM545 231q104 0 162.5 64.5t58.5 179.5v119q0 126 -57 193t-164 67t-164 -67t-57 -193v-119q0 -116 58 -180t163 -64zM545 1462q59 0 94 -33t35 -88v-30q0 -54 -35 -86.5t-94 -32.5t-94 32.5t-35 86.5v30q0 55 35 88t94 33z" />
    <glyph glyph-name="uni0122" unicode="&#x122;" horiz-adv-x="1308" 
d="M768 731h301q61 0 96 -35.5t35 -95.5v-76q0 -257 -142 -403t-394 -146t-395.5 146t-143.5 403v303q0 256 145.5 402.5t399.5 146.5q185 0 312.5 -75.5t174.5 -204.5q8 -19 8 -43q0 -54 -33.5 -87.5t-84.5 -33.5q-78 0 -111 67q-76 158 -266 158q-140 0 -217.5 -89
t-77.5 -251v-285q0 -161 78 -249t221 -88q137 0 210.5 82t76.5 235h-193q-55 0 -86 29t-31 80q0 52 30.5 81t86.5 29zM465 -285l129 160q27 35 74 35q39 0 65.5 -28t26.5 -72q0 -39 -35 -74l-137 -133q-21 -21 -56 -21q-34 0 -58.5 25.5t-24.5 60.5q0 28 16 47z" />
    <glyph glyph-name="uni0123" unicode="&#x123;" horiz-adv-x="1103" 
d="M758 1368l-144 -176q-27 -35 -73 -35q-39 0 -65.5 28t-26.5 72q0 40 34 74l152 150q20 20 55 20q34 0 59 -25.5t25 -60.5q0 -28 -16 -47zM545 1057q209 0 327.5 -120.5t118.5 -332.5v-522q0 -211 -122 -331t-337 -120q-129 0 -226.5 44t-151.5 126q-23 38 -23 70
q0 49 30 80t77 31q58 0 98 -54q69 -94 196 -94q113 0 173.5 66t60.5 192v41h-4q-93 -104 -258 -104q-187 0 -296.5 118.5t-109.5 319.5v137q0 213 118.5 333t328.5 120zM545 231q104 0 162.5 64.5t58.5 179.5v119q0 126 -57 193t-164 67t-164 -67t-57 -193v-119
q0 -116 58 -180t163 -64z" />
    <glyph glyph-name="Hcircumflex" unicode="&#x124;" horiz-adv-x="1384" 
d="M1096 1364q58 0 90.5 -34.5t32.5 -96.5v-1114q0 -62 -32.5 -96.5t-90.5 -34.5q-60 0 -93.5 34.5t-33.5 96.5v459h-553v-459q0 -61 -33 -96t-92 -35t-92 35t-33 96v1114q0 61 33 96t92 35t92 -35t33 -96v-436h553v436q0 62 33.5 96.5t93.5 34.5zM692 1800q56 0 94 -35
l175 -149q34 -27 34 -72q0 -37 -24.5 -62.5t-61.5 -25.5q-31 0 -63 25l-154 121l-153 -121q-32 -25 -64 -25q-37 0 -61.5 25.5t-24.5 62.5q0 45 35 72l174 149q38 35 94 35z" />
    <glyph glyph-name="hcircumflex" unicode="&#x125;" horiz-adv-x="1114" 
d="M612 1057q183 0 286 -116t103 -320v-512q0 -57 -29 -89t-83 -32t-83.5 32t-29.5 89v501q0 118 -54.5 181t-156.5 63t-157.5 -63t-55.5 -181v-501q0 -57 -29 -89t-81 -32q-54 0 -84.5 32t-30.5 89v1204q0 57 30.5 89t84.5 32q52 0 81 -32t29 -89v-357h4q93 101 256 101z
M242 1870q56 0 94 -35l174 -149q35 -27 35 -72q0 -37 -24.5 -62.5t-61.5 -25.5q-33 0 -64 24l-153 121l-154 -121q-31 -24 -63 -24q-37 0 -61.5 25.5t-24.5 62.5q0 45 34 72l174 149q38 35 95 35z" />
    <glyph glyph-name="Hbar" unicode="&#x126;" horiz-adv-x="1400" 
d="M1225 1124h51q46 0 74 -25t28 -69t-28 -69t-74 -25h-51v-817q0 -62 -32.5 -96.5t-90.5 -34.5q-60 0 -93.5 34.5t-33.5 96.5v459h-553v-459q0 -61 -33 -96t-92 -35t-92 35t-33 96v817h-47q-46 0 -74 25t-28 69t28 69t74 25h47v109q0 61 33 96t92 35t92 -35t33 -96v-109
h553v109q0 62 33.5 96.5t93.5 34.5q58 0 90.5 -34.5t32.5 -96.5v-109zM422 936v-139h553v139h-553z" />
    <glyph glyph-name="hbar" unicode="&#x127;" horiz-adv-x="1118" 
d="M616 1057q183 0 286.5 -116t103.5 -320v-512q0 -57 -29.5 -89t-83.5 -32t-83.5 32t-29.5 89v501q0 118 -54.5 181t-156.5 63t-157.5 -63t-55.5 -181v-501q0 -57 -29 -89t-81 -32q-54 0 -84.5 32t-30.5 89v999h-35q-44 0 -70 23.5t-26 64.5q0 40 26 64t70 24h35v29
q0 57 30.5 89t84.5 32q52 0 81 -32t29 -89v-29h213q44 0 70.5 -24t26.5 -64q0 -41 -26 -64.5t-71 -23.5h-213v-152h4q93 101 256 101z" />
    <glyph glyph-name="Itilde" unicode="&#x128;" horiz-adv-x="581" 
d="M291 1364q59 0 92 -35t33 -96v-1114q0 -61 -33 -96t-92 -35t-92 35t-33 96v1114q0 61 33 96t92 35zM401 1479q-79 0 -151 69q-38 35 -60 35t-36 -14t-31 -53q-8 -19 -27 -31t-43 -12q-39 0 -62.5 22.5t-23.5 58.5q0 13 4 33q23 88 78.5 137.5t130.5 49.5q79 0 152 -70
q38 -35 59 -35q22 0 36.5 14.5t31.5 53.5q8 19 26.5 31t42.5 12q39 0 62.5 -23t23.5 -59q0 -13 -4 -33q-23 -88 -78.5 -137t-130.5 -49z" />
    <glyph glyph-name="itilde" unicode="&#x129;" horiz-adv-x="479" 
d="M240 1044q54 0 83 -31t29 -87v-817q0 -57 -29 -89t-83 -32t-83.5 32t-29.5 89v817q0 56 29.5 87t83.5 31zM350 1180q-79 0 -151 69q-38 35 -60 35t-36 -14t-31 -53q-8 -19 -27 -31t-43 -12q-39 0 -62.5 22.5t-23.5 58.5q0 13 4 33q23 88 78.5 137.5t130.5 49.5
q79 0 152 -70q38 -35 59 -35q22 0 36.5 14.5t31.5 53.5q8 19 26.5 31t42.5 12q39 0 62.5 -23t23.5 -59q0 -13 -4 -33q-23 -88 -78.5 -137t-130.5 -49z" />
    <glyph glyph-name="Imacron" unicode="&#x12a;" horiz-adv-x="581" 
d="M291 1364q59 0 92 -35t33 -96v-1114q0 -61 -33 -96t-92 -35t-92 35t-33 96v1114q0 61 33 96t92 35zM90 1718h399q47 0 74 -25t27 -69q0 -43 -27 -67.5t-74 -24.5h-399q-47 0 -73.5 24.5t-26.5 67.5q0 44 26.5 69t73.5 25z" />
    <glyph glyph-name="imacron" unicode="&#x12b;" horiz-adv-x="479" 
d="M240 1044q54 0 83 -31t29 -87v-817q0 -57 -29 -89t-83 -32t-83.5 32t-29.5 89v817q0 56 29.5 87t83.5 31zM39 1419h399q47 0 74 -25t27 -69q0 -43 -27 -67.5t-74 -24.5h-399q-47 0 -73.5 24.5t-26.5 67.5q0 44 26.5 69t73.5 25z" />
    <glyph glyph-name="Ibreve" unicode="&#x12c;" horiz-adv-x="581" 
d="M291 1364q59 0 92 -35t33 -96v-1114q0 -61 -33 -96t-92 -35t-92 35t-33 96v1114q0 61 33 96t92 35zM291 1460q-115 0 -192.5 53t-106.5 152q-6 21 -6 45q0 38 24 62t66 24q59 0 80 -57q17 -45 53 -69.5t82 -24.5t82 24.5t53 69.5q21 57 80 57q42 0 66 -24t24 -62
q0 -24 -6 -45q-29 -99 -106.5 -152t-192.5 -53z" />
    <glyph glyph-name="ibreve" unicode="&#x12d;" horiz-adv-x="479" 
d="M240 1044q54 0 83 -31t29 -87v-817q0 -57 -29 -89t-83 -32t-83.5 32t-29.5 89v817q0 56 29.5 87t83.5 31zM240 1161q-115 0 -192.5 53t-106.5 152q-7 24 -7 45q0 38 24.5 62t66.5 24q58 0 79 -57q17 -45 53 -69.5t83 -24.5q46 0 82 24.5t53 69.5q21 57 80 57q42 0 66 -24
t24 -62q0 -24 -6 -45q-29 -99 -106.5 -152t-192.5 -53z" />
    <glyph glyph-name="Iogonek" unicode="&#x12e;" horiz-adv-x="581" 
d="M387 -156q41 0 63.5 -24t22.5 -64q0 -41 -29 -67q-66 -58 -180 -58q-98 0 -156.5 46t-58.5 133q0 139 137 227q-20 38 -20 82v1114q0 61 33 96t92 35t92 -35t33 -96v-1114q0 -96 -80 -127q-59 -25 -88 -62t-29 -77q0 -25 14.5 -39.5t34.5 -14.5q33 0 64 25q27 20 55 20z
" />
    <glyph glyph-name="iogonek" unicode="&#x12f;" horiz-adv-x="479" 
d="M338 -156q41 0 63.5 -24t22.5 -64q0 -39 -31 -67q-72 -58 -178 -58q-98 0 -156.5 46t-58.5 133q0 140 139 235q-12 24 -12 64v817q0 56 29.5 87t83.5 31t83 -31t29 -87v-817q0 -83 -57 -111q-125 -55 -125 -145q0 -25 15 -39.5t38 -14.5q32 0 60 25q27 20 55 20z
M240 1468q58 0 93.5 -33t35.5 -87v-43q0 -54 -35 -86.5t-94 -32.5t-94 32.5t-35 86.5v43q0 54 35.5 87t93.5 33z" />
    <glyph glyph-name="Idotaccent" unicode="&#x130;" horiz-adv-x="581" 
d="M291 1364q59 0 92 -35t33 -96v-1114q0 -61 -33 -96t-92 -35t-92 35t-33 96v1114q0 61 33 96t92 35zM291 1761q59 0 94 -33t35 -88v-30q0 -54 -35 -86.5t-94 -32.5t-94 32.5t-35 86.5v30q0 55 35 88t94 33z" />
    <glyph glyph-name="dotlessi" unicode="&#x131;" horiz-adv-x="479" 
d="M240 1044q54 0 83 -31t29 -87v-817q0 -57 -29 -89t-83 -32t-83.5 32t-29.5 89v817q0 56 29.5 87t83.5 31z" />
    <glyph glyph-name="IJ" unicode="&#x132;" horiz-adv-x="1693" 
d="M291 1364q59 0 92 -35t33 -96v-1114q0 -61 -33 -96t-92 -35t-92 35t-33 96v1114q0 61 33 96t92 35zM1440 1364q59 0 92 -35t33 -96v-791q0 -223 -128.5 -345t-361.5 -122q-205 0 -327.5 92t-151.5 267q-2 14 -2 31q0 53 32.5 85.5t86.5 32.5q49 0 78.5 -26t37.5 -70
q30 -192 242 -192q118 0 181 66.5t63 189.5v782q0 61 33 96t92 35z" />
    <glyph glyph-name="ij" unicode="&#x133;" horiz-adv-x="1081" 
d="M240 1468q58 0 93.5 -33t35.5 -87v-43q0 -54 -35 -86.5t-94 -32.5t-94 32.5t-35 86.5v43q0 54 35.5 87t93.5 33zM240 1044q54 0 83 -31t29 -87v-817q0 -57 -29 -89t-83 -32t-83.5 32t-29.5 89v817q0 56 29.5 87t83.5 31zM844 1468q58 0 92.5 -33t34.5 -87v-43
q0 -54 -34.5 -86.5t-92.5 -32.5q-59 0 -94 32.5t-35 86.5v43q0 54 35.5 87t93.5 33zM842 1044q54 0 83 -31t29 -87v-994q0 -143 -73 -222t-199 -79q-135 0 -203 62q-35 31 -35 80q0 47 28.5 75.5t74.5 28.5q34 0 61 -20q34 -23 64 -23q26 0 41.5 21.5t15.5 58.5v1012
q0 56 29.5 87t83.5 31z" />
    <glyph glyph-name="Jcircumflex" unicode="&#x134;" horiz-adv-x="1144" 
d="M891 1364q59 0 92 -35t33 -96v-791q0 -223 -128.5 -345t-361.5 -122q-205 0 -327.5 92t-151.5 267q-2 14 -2 31q0 53 32.5 85.5t86.5 32.5q49 0 79 -26t38 -70q30 -192 241 -192q118 0 181 66.5t63 189.5v782q0 61 33 96t92 35zM891 1800q56 0 94 -35l174 -149
q35 -27 35 -72q0 -37 -24.5 -62.5t-61.5 -25.5q-32 0 -64 25l-153 121l-154 -121q-32 -25 -63 -25q-37 0 -61.5 25.5t-24.5 62.5q0 45 35 72l174 149q38 35 94 35z" />
    <glyph glyph-name="jcircumflex" unicode="&#x135;" horiz-adv-x="479" 
d="M240 1044q54 0 83 -31t29 -87v-994q0 -143 -73 -222t-199 -79q-135 0 -203 62q-35 31 -35 80q0 47 28.5 75.5t74.5 28.5q34 0 61 -20q34 -23 64 -23q26 0 41.5 21.5t15.5 58.5v1012q0 56 29.5 87t83.5 31zM240 1501q56 0 94 -35l174 -149q35 -27 35 -72
q0 -37 -24.5 -62.5t-61.5 -25.5q-32 0 -64 25l-153 121l-154 -121q-32 -25 -63 -25q-37 0 -61.5 25.5t-24.5 62.5q0 45 34 72l174 149q38 35 95 35z" />
    <glyph glyph-name="uni0136" unicode="&#x136;" horiz-adv-x="1239" 
d="M631 686l520 -487q35 -30 35 -86q0 -57 -34 -91t-91 -34q-54 0 -94 43l-551 555v-467q0 -61 -33 -96t-92 -35t-92 35t-33 96v1114q0 61 33 96t92 35t92 -35t33 -96v-447l538 537q41 41 93 41q53 0 85.5 -32.5t32.5 -86.5q0 -51 -39 -90zM457 -285l129 160q27 35 73 35
q39 0 66 -28t27 -72q0 -39 -35 -74l-137 -133q-21 -21 -56 -21q-34 0 -59 25.5t-25 60.5q0 27 17 47z" />
    <glyph glyph-name="uni0137" unicode="&#x137;" horiz-adv-x="995" 
d="M543 524l375 -338q38 -30 38 -86q0 -50 -30 -81t-76 -31q-47 0 -90 37l-408 391v-307q0 -57 -29 -89t-81 -32q-54 0 -84.5 32t-30.5 89v1204q0 57 30.5 89t84.5 32q52 0 81 -32t29 -89v-686l393 385q32 32 80 32q50 0 80.5 -30.5t30.5 -79.5q0 -50 -33 -80zM332 -285
l129 160q27 35 74 35q39 0 65.5 -28t26.5 -72q0 -39 -35 -74l-137 -133q-21 -21 -56 -21q-34 0 -59 25.5t-25 60.5q0 27 17 47z" />
    <glyph glyph-name="kgreenlandic" unicode="&#x138;" horiz-adv-x="995" 
d="M352 416v-307q0 -57 -29 -89t-83 -32t-83.5 32t-29.5 89v817q0 56 29.5 87t83.5 31t83 -31t29 -87v-299l393 385q32 32 80 32q50 0 80.5 -30.5t30.5 -79.5q0 -50 -33 -80l-360 -330l375 -338q38 -30 38 -86q0 -50 -30 -81t-76 -31q-47 0 -90 37z" />
    <glyph glyph-name="Lacute" unicode="&#x139;" horiz-adv-x="1097" 
d="M416 219h545q54 0 84 -29t30 -81q0 -51 -30 -80t-84 -29h-664q-62 0 -96.5 34t-34.5 97v1102q0 61 33 96t92 35t92 -35t33 -96v-1014zM551 1702q0 -52 -43 -86l-170 -139q-28 -21 -59 -21q-36 0 -61 25t-25 61q0 40 24 64l156 157q37 37 80 37q41 0 69.5 -28.5
t28.5 -69.5z" />
    <glyph glyph-name="lacute" unicode="&#x13a;" horiz-adv-x="481" 
d="M242 1434q52 0 81 -32t29 -89v-1204q0 -57 -29 -89t-81 -32q-54 0 -84.5 32t-30.5 89v1204q0 57 30.5 89t84.5 32zM502 1772q0 -52 -43 -86l-170 -140q-27 -20 -60 -20q-36 0 -61 25t-25 61q0 38 25 63l156 158q37 37 79 37q41 0 70 -28.5t29 -69.5z" />
    <glyph glyph-name="uni013B" unicode="&#x13b;" horiz-adv-x="1097" 
d="M416 219h545q54 0 84 -29t30 -81q0 -51 -30 -80t-84 -29h-664q-62 0 -96.5 34t-34.5 97v1102q0 61 33 96t92 35t92 -35t33 -96v-1014zM414 -285l129 160q27 35 73 35q39 0 66 -28t27 -72q0 -39 -35 -74l-137 -133q-21 -21 -56 -21q-34 0 -59 25.5t-25 60.5q0 27 17 47z
" />
    <glyph glyph-name="uni013C" unicode="&#x13c;" horiz-adv-x="481" 
d="M242 1434q52 0 81 -32t29 -89v-1204q0 -57 -29 -89t-81 -32q-54 0 -84.5 32t-30.5 89v1204q0 57 30.5 89t84.5 32zM43 -285l129 160q27 35 74 35q39 0 65.5 -28t26.5 -72q0 -39 -35 -74l-137 -133q-21 -21 -55 -21t-59 25.5t-25 60.5q0 28 16 47z" />
    <glyph glyph-name="Lcaron" unicode="&#x13d;" horiz-adv-x="1097" 
d="M416 219h545q54 0 84 -29t30 -81q0 -51 -30 -80t-84 -29h-664q-62 0 -96.5 34t-34.5 97v1102q0 61 33 96t92 35t92 -35t33 -96v-1014zM791 1309l-52 -238q-7 -37 -30.5 -56.5t-55.5 -19.5q-41 0 -63.5 23.5t-22.5 62.5q0 7 4 43l29 219q5 41 29.5 66t66.5 25q45 0 72 -27
t27 -64q0 -14 -4 -34z" />
    <glyph glyph-name="lcaron" unicode="&#x13e;" horiz-adv-x="481" 
d="M242 1434q52 0 81 -32t29 -89v-1204q0 -57 -29 -89t-81 -32q-54 0 -84.5 32t-30.5 89v1204q0 57 30.5 89t84.5 32zM645 1309l-51 -238q-7 -37 -30.5 -56.5t-55.5 -19.5q-41 0 -63.5 23.5t-22.5 62.5q0 7 4 43l29 219q5 41 30 66t66 25q45 0 71.5 -27t26.5 -64
q0 -14 -4 -34z" />
    <glyph glyph-name="Ldot" unicode="&#x13f;" horiz-adv-x="1097" 
d="M840 547q-57 0 -93 36.5t-36 92.5t36 92.5t93 36.5q55 0 91 -36.5t36 -92.5t-36 -92.5t-91 -36.5zM416 219h545q54 0 84 -29t30 -81q0 -51 -30 -80t-84 -29h-664q-62 0 -96.5 34t-34.5 97v1102q0 61 33 96t92 35t92 -35t33 -96v-1014z" />
    <glyph glyph-name="ldot" unicode="&#x140;" horiz-adv-x="624" 
d="M553 547q-55 0 -91 36.5t-36 92.5t36 92.5t91 36.5q57 0 93 -36.5t36 -92.5t-36 -92.5t-93 -36.5zM242 1434q52 0 81 -32t29 -89v-1204q0 -57 -29 -89t-81 -32q-54 0 -84.5 32t-30.5 89v1204q0 57 30.5 89t84.5 32z" />
    <glyph glyph-name="Lslash" unicode="&#x141;" horiz-adv-x="1110" 
d="M428 219h545q54 0 84 -29t30 -81q0 -51 -30 -80t-84 -29h-664q-62 0 -96.5 34t-34.5 97v211q-26 -16 -57 -16q-44 0 -73.5 30.5t-29.5 77.5q0 53 48 86l112 76v637q0 61 33 96t92 35t92 -35t33 -96v-467l272 184q38 25 72 25q44 0 73 -31t29 -78q0 -54 -47 -86l-399 -270
v-291z" />
    <glyph glyph-name="lslash" unicode="&#x142;" horiz-adv-x="532" 
d="M467 1044q41 0 66.5 -27.5t25.5 -68.5q0 -51 -43 -82l-137 -100v-657q0 -57 -29.5 -89t-81.5 -32q-54 0 -84 32t-30 89v491q-24 -18 -60 -18q-41 0 -66.5 27.5t-25.5 68.5q0 51 43 82l109 80v473q0 57 30 89t84 32q52 0 81.5 -32t29.5 -89v-307l24 18q27 20 64 20z" />
    <glyph glyph-name="Nacute" unicode="&#x143;" horiz-adv-x="1353" 
d="M1069 1364q56 0 87.5 -33.5t31.5 -93.5v-1106q0 -68 -35 -105.5t-98 -37.5q-87 0 -142 86l-503 827h-4v-786q0 -60 -31.5 -93.5t-87.5 -33.5q-57 0 -89 33.5t-32 93.5v1106q0 67 36 105t99 38q85 0 137 -84l506 -829h4v786q0 60 32 93.5t89 33.5zM938 1702q0 -52 -43 -86
l-170 -139q-28 -21 -59 -21q-36 0 -61 25t-25 61q0 40 24 64l156 157q37 37 80 37q41 0 69.5 -28.5t28.5 -69.5z" />
    <glyph glyph-name="nacute" unicode="&#x144;" horiz-adv-x="1097" 
d="M549 1057q204 0 320 -118.5t116 -324.5v-505q0 -57 -29.5 -89t-83.5 -32t-83 32t-29 89v495q0 121 -54.5 185.5t-156.5 64.5t-156.5 -64.5t-54.5 -185.5v-495q0 -57 -29.5 -89t-83.5 -32t-83 32t-29 89v505q0 206 116 324.5t320 118.5zM809 1403q0 -52 -43 -86l-170 -139
q-28 -21 -59 -21q-36 0 -61 25t-25 61q0 40 24 64l156 157q37 37 80 37q41 0 69.5 -28.5t28.5 -69.5z" />
    <glyph glyph-name="uni0145" unicode="&#x145;" horiz-adv-x="1353" 
d="M1069 1364q56 0 87.5 -33.5t31.5 -93.5v-1106q0 -68 -35 -105.5t-98 -37.5q-87 0 -142 86l-503 827h-4v-786q0 -60 -31.5 -93.5t-87.5 -33.5q-57 0 -89 33.5t-32 93.5v1106q0 67 36 105t99 38q85 0 137 -84l506 -829h4v786q0 60 32 93.5t89 33.5zM479 -285l129 160
q27 35 74 35q39 0 65.5 -28t26.5 -72q0 -39 -35 -74l-137 -133q-21 -21 -55 -21t-59 25.5t-25 60.5q0 28 16 47z" />
    <glyph glyph-name="uni0146" unicode="&#x146;" horiz-adv-x="1097" 
d="M549 1057q204 0 320 -118.5t116 -324.5v-505q0 -57 -29.5 -89t-83.5 -32t-83 32t-29 89v495q0 121 -54.5 185.5t-156.5 64.5t-156.5 -64.5t-54.5 -185.5v-495q0 -57 -29.5 -89t-83.5 -32t-83 32t-29 89v505q0 206 116 324.5t320 118.5zM350 -285l129 160q27 35 74 35
q39 0 65.5 -28t26.5 -72q0 -39 -35 -74l-137 -133q-21 -21 -55 -21t-59 25.5t-25 60.5q0 28 16 47z" />
    <glyph glyph-name="Ncaron" unicode="&#x147;" horiz-adv-x="1353" 
d="M1069 1364q56 0 87.5 -33.5t31.5 -93.5v-1106q0 -68 -35 -105.5t-98 -37.5q-87 0 -142 86l-503 827h-4v-786q0 -60 -31.5 -93.5t-87.5 -33.5q-57 0 -89 33.5t-32 93.5v1106q0 67 36 105t99 38q85 0 137 -84l506 -829h4v786q0 60 32 93.5t89 33.5zM678 1456q-56 0 -94 35
l-174 149q-35 27 -35 72q0 37 24.5 62.5t61.5 25.5q32 0 63 -24l154 -121l153 121q31 24 64 24q37 0 61.5 -25.5t24.5 -62.5q0 -45 -35 -72l-174 -149q-38 -35 -94 -35z" />
    <glyph glyph-name="ncaron" unicode="&#x148;" horiz-adv-x="1097" 
d="M549 1057q204 0 320 -118.5t116 -324.5v-505q0 -57 -29.5 -89t-83.5 -32t-83 32t-29 89v495q0 121 -54.5 185.5t-156.5 64.5t-156.5 -64.5t-54.5 -185.5v-495q0 -57 -29.5 -89t-83.5 -32t-83 32t-29 89v505q0 206 116 324.5t320 118.5zM549 1157q-56 0 -94 35l-174 149
q-35 27 -35 72q0 37 24.5 62.5t61.5 25.5q32 0 63 -24l154 -121l153 121q31 24 64 24q37 0 61.5 -25.5t24.5 -62.5q0 -45 -35 -72l-174 -149q-38 -35 -94 -35z" />
    <glyph glyph-name="napostrophe" unicode="&#x149;" horiz-adv-x="1097" 
d="M549 1057q204 0 320 -118.5t116 -324.5v-505q0 -57 -29.5 -89t-83.5 -32t-83 32t-29 89v495q0 121 -54.5 185.5t-156.5 64.5t-156.5 -64.5t-54.5 -185.5v-495q0 -57 -29.5 -89t-83.5 -32t-83 32t-29 89v505q0 206 116 324.5t320 118.5zM395 1382q0 -35 -16 -61l-146 -250
q-26 -47 -75 -47q-37 0 -59.5 23.5t-22.5 60.5q0 7 4 31l102 280q28 72 105 72q49 0 78.5 -31t29.5 -78z" />
    <glyph glyph-name="Eng" unicode="&#x14a;" horiz-adv-x="1353" 
d="M1069 1364q56 0 87.5 -33.5t31.5 -93.5v-1305q0 -142 -75 -221.5t-202 -79.5q-143 0 -209 60q-36 31 -36 82t30 80.5t78 29.5q33 0 62 -22q28 -19 53 -19q27 0 43 21t16 57v100l-538 881h-4v-786q0 -60 -31.5 -93.5t-87.5 -33.5q-57 0 -89 33.5t-32 93.5v1106
q0 67 36 105t99 38q85 0 137 -84l506 -829h4v786q0 60 32 93.5t89 33.5z" />
    <glyph glyph-name="eng" unicode="&#x14b;" horiz-adv-x="1097" 
d="M760 -86v690q0 121 -54.5 185.5t-156.5 64.5t-156.5 -64.5t-54.5 -185.5v-495q0 -57 -29.5 -89t-83.5 -32t-83 32t-29 89v505q0 206 116 324.5t320 118.5t320 -118.5t116 -324.5v-682q0 -143 -73 -222t-199 -79q-135 0 -203 62q-35 31 -35 80q0 47 28.5 75.5t74.5 28.5
q34 0 61 -20q35 -23 63 -23q26 0 42 21.5t16 58.5z" />
    <glyph glyph-name="Omacron" unicode="&#x14c;" horiz-adv-x="1341" 
d="M672 1376q255 0 400 -146t145 -403v-303q0 -257 -145 -403t-400 -146t-401 146.5t-146 402.5v303q0 256 146 402.5t401 146.5zM672 1157q-141 0 -219 -88.5t-78 -249.5v-287q0 -161 78 -249t219 -88q140 0 217.5 88t77.5 249v287q0 161 -77.5 249.5t-217.5 88.5z
M471 1718h399q47 0 74 -25t27 -69q0 -43 -27 -67.5t-74 -24.5h-399q-47 0 -73.5 24.5t-26.5 67.5q0 44 26.5 69t73.5 25z" />
    <glyph glyph-name="omacron" unicode="&#x14d;" horiz-adv-x="1089" 
d="M545 1057q209 0 327.5 -120.5t118.5 -332.5v-174q0 -214 -118.5 -334.5t-327.5 -120.5q-211 0 -329 120.5t-118 334.5v174q0 213 118.5 333t328.5 120zM545 854q-107 0 -164 -67t-57 -193v-156q0 -126 57 -193t164 -67t164 67t57 193v156q0 126 -57 193t-164 67z
M344 1419h399q47 0 74 -25t27 -69q0 -43 -27 -67.5t-74 -24.5h-399q-47 0 -73.5 24.5t-26.5 67.5q0 44 26.5 69t73.5 25z" />
    <glyph glyph-name="Obreve" unicode="&#x14e;" horiz-adv-x="1341" 
d="M672 1376q255 0 400 -146t145 -403v-303q0 -257 -145 -403t-400 -146t-401 146.5t-146 402.5v303q0 256 146 402.5t401 146.5zM672 1157q-141 0 -219 -88.5t-78 -249.5v-287q0 -161 78 -249t219 -88q140 0 217.5 88t77.5 249v287q0 161 -77.5 249.5t-217.5 88.5z
M672 1460q-115 0 -192.5 53t-106.5 152q-6 21 -6 45q0 38 24 62t66 24q59 0 80 -57q17 -45 53 -69.5t82 -24.5t82 24.5t53 69.5q21 57 80 57q42 0 66 -24t24 -62q0 -24 -6 -45q-29 -99 -106.5 -152t-192.5 -53z" />
    <glyph glyph-name="obreve" unicode="&#x14f;" horiz-adv-x="1089" 
d="M545 1057q209 0 327.5 -120.5t118.5 -332.5v-174q0 -214 -118.5 -334.5t-327.5 -120.5q-211 0 -329 120.5t-118 334.5v174q0 213 118.5 333t328.5 120zM545 854q-107 0 -164 -67t-57 -193v-156q0 -126 57 -193t164 -67t164 67t57 193v156q0 126 -57 193t-164 67z
M545 1161q-115 0 -192.5 53t-106.5 152q-6 21 -6 45q0 38 24 62t66 24q59 0 80 -57q17 -45 53 -69.5t82 -24.5t82 24.5t53 69.5q21 57 80 57q42 0 66 -24t24 -62q0 -24 -6 -45q-29 -99 -106.5 -152t-192.5 -53z" />
    <glyph glyph-name="Ohungarumlaut" unicode="&#x150;" horiz-adv-x="1341" 
d="M672 1376q255 0 400 -146t145 -403v-303q0 -257 -145 -403t-400 -146t-401 146.5t-146 402.5v303q0 256 146 402.5t401 146.5zM672 1157q-141 0 -219 -88.5t-78 -249.5v-287q0 -161 78 -249t219 -88q140 0 217.5 88t77.5 249v287q0 161 -77.5 249.5t-217.5 88.5z
M639 1800q40 0 66 -27.5t26 -70.5q0 -37 -20 -60l-142 -157q-25 -29 -65 -29q-34 0 -57 24.5t-23 59.5q0 29 14 49l123 170q26 41 78 41zM995 1800q40 0 66 -27.5t26 -70.5q0 -37 -20 -60l-141 -157q-25 -29 -66 -29q-34 0 -57 24.5t-23 59.5q0 28 15 49l123 170
q26 41 77 41z" />
    <glyph glyph-name="ohungarumlaut" unicode="&#x151;" horiz-adv-x="1089" 
d="M545 1057q209 0 327.5 -120.5t118.5 -332.5v-174q0 -214 -118.5 -334.5t-327.5 -120.5q-211 0 -329 120.5t-118 334.5v174q0 213 118.5 333t328.5 120zM545 854q-107 0 -164 -67t-57 -193v-156q0 -126 57 -193t164 -67t164 67t57 193v156q0 126 -57 193t-164 67z
M512 1501q40 0 66 -27.5t26 -70.5q0 -37 -20 -60l-142 -157q-25 -29 -65 -29q-34 0 -57 24.5t-23 59.5q0 29 14 49l123 170q26 41 78 41zM868 1501q40 0 66.5 -27.5t26.5 -70.5q0 -35 -21 -60l-141 -157q-25 -29 -66 -29q-34 0 -57 24.5t-23 59.5q0 28 15 49l123 170
q26 41 77 41z" />
    <glyph glyph-name="OE" unicode="&#x152;" horiz-adv-x="1914" 
d="M1151 219h573q54 0 84.5 -29t30.5 -81q0 -51 -30.5 -80t-84.5 -29h-1032q-269 0 -418 145.5t-149 403.5v254q0 258 149 403.5t418 145.5h1032q54 0 84.5 -29t30.5 -80q0 -52 -30.5 -81t-84.5 -29h-573v-340h481q54 0 84.5 -29t30.5 -80t-30.5 -80t-84.5 -29h-481v-356z
M375 795v-238q0 -163 81 -250.5t236 -87.5h209v914h-209q-155 0 -236 -87.5t-81 -250.5z" />
    <glyph glyph-name="oe" unicode="&#x153;" horiz-adv-x="1716" 
d="M1219 1057q194 0 305.5 -121t111.5 -332v-57q0 -52 -29 -82.5t-79 -30.5h-537q0 -124 57 -190t162 -66q117 0 191 103q32 47 90 47q51 0 81 -30t30 -81q0 -33 -19 -65q-52 -87 -144 -132t-212 -45q-247 0 -348 183h-5q-101 -183 -346 -183q-199 0 -314.5 122t-115.5 333
v174q0 211 115 332t315 121q246 0 346 -183h5q95 183 340 183zM766 438v156q0 126 -57 193t-164 67t-164 -67t-57 -193v-156q0 -126 57 -193t164 -67t164 67t57 193zM991 623h422q0 108 -57.5 169.5t-153.5 61.5t-153.5 -61.5t-57.5 -169.5z" />
    <glyph glyph-name="Racute" unicode="&#x154;" horiz-adv-x="1265" 
d="M909 543l246 -363q21 -30 21 -67q0 -56 -33.5 -90.5t-85.5 -34.5q-72 0 -115 63l-295 461h-231v-393q0 -61 -33 -96t-92 -35t-92 35t-33 96v1102q0 61 34.5 96t94.5 35h399q227 0 344 -106.5t117 -313.5q0 -302 -246 -389zM416 731h256q233 0 233 201t-233 201h-256v-402
zM872 1702q0 -52 -43 -86l-170 -139q-28 -21 -59 -21q-36 0 -61 25t-25 61q0 39 25 64l155 157q37 37 80 37q41 0 69.5 -28.5t28.5 -69.5z" />
    <glyph glyph-name="racute" unicode="&#x155;" horiz-adv-x="847" 
d="M817 866q10 -23 10 -53q0 -46 -28.5 -75t-77.5 -29q-63 0 -94 55q-52 90 -142 90q-70 0 -108.5 -46t-38.5 -132v-567q0 -57 -29.5 -89t-83.5 -32t-83 32t-29 89v571q0 180 98.5 278.5t275.5 98.5q116 0 204 -50.5t126 -140.5zM717 1403q0 -52 -43 -86l-170 -139
q-28 -21 -60 -21q-36 0 -61 25t-25 61q0 39 25 64l156 157q37 37 79 37q41 0 70 -28.5t29 -69.5z" />
    <glyph glyph-name="uni0156" unicode="&#x156;" horiz-adv-x="1265" 
d="M909 543l246 -363q21 -30 21 -67q0 -56 -33.5 -90.5t-85.5 -34.5q-72 0 -115 63l-295 461h-231v-393q0 -61 -33 -96t-92 -35t-92 35t-33 96v1102q0 61 34.5 96t94.5 35h399q227 0 344 -106.5t117 -313.5q0 -302 -246 -389zM416 731h256q233 0 233 201t-233 201h-256v-402
zM461 -285l129 160q27 35 74 35q39 0 65.5 -28t26.5 -72q0 -39 -35 -74l-137 -133q-21 -21 -56 -21q-34 0 -59 25.5t-25 60.5q0 27 17 47z" />
    <glyph glyph-name="uni0157" unicode="&#x157;" horiz-adv-x="847" 
d="M817 866q10 -23 10 -53q0 -46 -28.5 -75t-77.5 -29q-63 0 -94 55q-52 90 -142 90q-70 0 -108.5 -46t-38.5 -132v-567q0 -57 -29.5 -89t-83.5 -32t-83 32t-29 89v571q0 180 98.5 278.5t275.5 98.5q116 0 204 -50.5t126 -140.5zM27 -285l129 160q27 35 73 35q39 0 66 -28
t27 -72q0 -39 -35 -74l-137 -133q-21 -21 -56 -21q-34 0 -59 25.5t-25 60.5q0 27 17 47z" />
    <glyph glyph-name="Rcaron" unicode="&#x158;" horiz-adv-x="1265" 
d="M909 543l246 -363q21 -30 21 -67q0 -56 -33.5 -90.5t-85.5 -34.5q-72 0 -115 63l-295 461h-231v-393q0 -61 -33 -96t-92 -35t-92 35t-33 96v1102q0 61 34.5 96t94.5 35h399q227 0 344 -106.5t117 -313.5q0 -302 -246 -389zM416 731h256q233 0 233 201t-233 201h-256v-402
zM612 1456q-56 0 -94 35l-174 149q-35 27 -35 72q0 37 24.5 62.5t61.5 25.5q33 0 64 -24l153 -121l154 121q31 24 63 24q37 0 61.5 -25.5t24.5 -62.5q0 -45 -34 -72l-174 -149q-38 -35 -95 -35z" />
    <glyph glyph-name="rcaron" unicode="&#x159;" horiz-adv-x="847" 
d="M817 866q10 -23 10 -53q0 -46 -28.5 -75t-77.5 -29q-63 0 -94 55q-52 90 -142 90q-70 0 -108.5 -46t-38.5 -132v-567q0 -57 -29.5 -89t-83.5 -32t-83 32t-29 89v571q0 180 98.5 278.5t275.5 98.5q116 0 204 -50.5t126 -140.5zM457 1157q-57 0 -95 35l-174 149
q-34 27 -34 72q0 37 24.5 62.5t61.5 25.5q32 0 63 -24l154 -121l153 121q31 24 64 24q37 0 61.5 -25.5t24.5 -62.5q0 -45 -35 -72l-174 -149q-38 -35 -94 -35z" />
    <glyph glyph-name="Sacute" unicode="&#x15a;" horiz-adv-x="1173" 
d="M356 971q0 -81 62 -120t223 -52q248 -22 353.5 -117.5t105.5 -296.5q0 -185 -134 -297.5t-354 -112.5q-366 0 -508 236q-20 33 -20 76q0 50 32.5 83t84.5 33q63 0 102 -59q45 -72 126 -110.5t181 -38.5q109 0 175.5 52.5t66.5 139.5q0 89 -65 131t-234 57
q-243 23 -345 116t-102 282q0 183 133 293t353 110q151 0 264.5 -51t179.5 -149q21 -30 21 -70q0 -52 -33 -84.5t-86 -32.5q-55 0 -88 41q-106 127 -270 127q-101 0 -162.5 -50.5t-61.5 -135.5zM846 1702q0 -52 -43 -86l-170 -139q-28 -21 -60 -21q-36 0 -61 25t-25 61
q0 39 25 64l156 157q37 37 80 37q41 0 69.5 -28.5t28.5 -69.5z" />
    <glyph glyph-name="sacute" unicode="&#x15b;" horiz-adv-x="966" 
d="M899 301q0 -152 -111.5 -239t-306.5 -87q-128 0 -231.5 42t-157.5 114q-26 37 -26 74q0 50 29.5 80t78.5 30q46 0 80 -34q57 -57 111.5 -81t126.5 -24q89 0 138.5 33.5t49.5 93.5q0 54 -46.5 79.5t-168.5 31.5q-203 10 -292 86.5t-89 232.5q0 151 110.5 237.5t301.5 86.5
q110 0 200 -35.5t142 -99.5q26 -33 26 -72q0 -51 -29.5 -81t-80.5 -30q-46 0 -86 43q-65 74 -187 74q-85 0 -130.5 -32.5t-45.5 -92.5q0 -55 46.5 -79.5t168.5 -30.5q202 -10 290.5 -86.5t88.5 -233.5zM752 1403q0 -52 -43 -86l-170 -139q-28 -21 -60 -21q-36 0 -61 25
t-25 61q0 39 25 64l155 157q37 37 80 37q41 0 70 -28.5t29 -69.5z" />
    <glyph glyph-name="Scircumflex" unicode="&#x15c;" horiz-adv-x="1173" 
d="M356 971q0 -81 62 -120t223 -52q248 -22 353.5 -117.5t105.5 -296.5q0 -185 -134 -297.5t-354 -112.5q-366 0 -508 236q-20 33 -20 76q0 50 32.5 83t84.5 33q63 0 102 -59q45 -72 126 -110.5t181 -38.5q109 0 175.5 52.5t66.5 139.5q0 89 -65 131t-234 57
q-243 23 -345 116t-102 282q0 183 133 293t353 110q151 0 264.5 -51t179.5 -149q21 -30 21 -70q0 -52 -33 -84.5t-86 -32.5q-55 0 -88 41q-106 127 -270 127q-101 0 -162.5 -50.5t-61.5 -135.5zM586 1800q56 0 94 -35l174 -149q35 -27 35 -72q0 -37 -24.5 -62.5t-61.5 -25.5
q-32 0 -64 25l-153 121l-154 -121q-32 -25 -63 -25q-37 0 -61.5 25.5t-24.5 62.5q0 45 34 72l175 149q38 35 94 35z" />
    <glyph glyph-name="scircumflex" unicode="&#x15d;" horiz-adv-x="966" 
d="M899 301q0 -152 -111.5 -239t-306.5 -87q-128 0 -231.5 42t-157.5 114q-26 37 -26 74q0 50 29.5 80t78.5 30q46 0 80 -34q57 -57 111.5 -81t126.5 -24q89 0 138.5 33.5t49.5 93.5q0 54 -46.5 79.5t-168.5 31.5q-203 10 -292 86.5t-89 232.5q0 151 110.5 237.5t301.5 86.5
q110 0 200 -35.5t142 -99.5q26 -33 26 -72q0 -51 -29.5 -81t-80.5 -30q-46 0 -86 43q-65 74 -187 74q-85 0 -130.5 -32.5t-45.5 -92.5q0 -55 46.5 -79.5t168.5 -30.5q202 -10 290.5 -86.5t88.5 -233.5zM492 1501q56 0 94 -35l174 -149q35 -27 35 -72q0 -37 -24.5 -62.5
t-61.5 -25.5q-32 0 -64 25l-153 121l-154 -121q-32 -25 -64 -25q-37 0 -61.5 25.5t-24.5 62.5q0 45 35 72l174 149q38 35 95 35z" />
    <glyph glyph-name="Scedilla" unicode="&#x15e;" horiz-adv-x="1173" 
d="M104 211q-20 33 -20 76q0 50 32.5 83t84.5 33q63 0 102 -59q45 -72 126 -110.5t181 -38.5q109 0 175.5 52.5t66.5 139.5q0 89 -65 131t-234 57q-243 23 -345 116t-102 282q0 183 133 293t353 110q151 0 264.5 -51t179.5 -149q21 -30 21 -70q0 -52 -33 -84.5t-86 -32.5
q-55 0 -88 41q-106 127 -270 127q-101 0 -162.5 -50.5t-61.5 -135.5q0 -81 62 -120t223 -52q248 -22 353.5 -117.5t105.5 -296.5q0 -182 -130.5 -294.5t-348.5 -115.5l-33 -53l2 -2q24 6 45 6q77 0 119.5 -38t42.5 -105q0 -70 -54.5 -111t-152.5 -41q-65 0 -105 11.5
t-75 40.5q-25 21 -25 51q0 25 16 43t43 18q20 0 33 -8q52 -33 101 -33q57 0 57 39q0 37 -55 37q-19 0 -40.5 -3t-31.5 -3q-24 0 -38.5 13.5t-14.5 35.5q0 21 12 39l43 68q-287 31 -406 231z" />
    <glyph glyph-name="scedilla" unicode="&#x15f;" horiz-adv-x="966" 
d="M92 131q-26 37 -26 74q0 50 29.5 80t78.5 30q46 0 80 -34q57 -57 111.5 -81t126.5 -24q89 0 138.5 33.5t49.5 93.5q0 54 -46.5 79.5t-168.5 31.5q-203 10 -292 86.5t-89 232.5q0 151 110.5 237.5t301.5 86.5q110 0 200 -35.5t142 -99.5q26 -33 26 -72q0 -51 -29.5 -81
t-80.5 -30q-46 0 -86 43q-65 74 -187 74q-85 0 -130.5 -32.5t-45.5 -92.5q0 -55 46.5 -79.5t168.5 -30.5q202 -10 290.5 -86.5t88.5 -233.5q0 -145 -103.5 -232.5t-285.5 -93.5l-35 -53l2 -2q24 6 45 6q77 0 119.5 -38t42.5 -105q0 -70 -54.5 -111t-152.5 -41
q-65 0 -105 11.5t-75 40.5q-25 21 -25 51q0 24 16.5 42.5t43.5 18.5q20 0 33 -8q52 -33 100 -33q57 0 57 39q0 37 -55 37q-19 0 -40.5 -3t-31.5 -3q-24 0 -38.5 13.5t-14.5 35.5q0 21 12 39l43 68q-101 12 -181 51t-124 100z" />
    <glyph glyph-name="Scaron" unicode="&#x160;" horiz-adv-x="1173" 
d="M356 971q0 -81 62 -120t223 -52q248 -22 353.5 -117.5t105.5 -296.5q0 -185 -134 -297.5t-354 -112.5q-366 0 -508 236q-20 33 -20 76q0 50 32.5 83t84.5 33q63 0 102 -59q45 -72 126 -110.5t181 -38.5q109 0 175.5 52.5t66.5 139.5q0 89 -65 131t-234 57
q-243 23 -345 116t-102 282q0 183 133 293t353 110q151 0 264.5 -51t179.5 -149q21 -30 21 -70q0 -52 -33 -84.5t-86 -32.5q-55 0 -88 41q-106 127 -270 127q-101 0 -162.5 -50.5t-61.5 -135.5zM586 1456q-56 0 -94 35l-175 149q-34 27 -34 72q0 37 24.5 62.5t61.5 25.5
q32 0 63 -24l154 -121l153 121q31 24 64 24q37 0 61.5 -25.5t24.5 -62.5q0 -45 -35 -72l-174 -149q-38 -35 -94 -35z" />
    <glyph glyph-name="scaron" unicode="&#x161;" horiz-adv-x="966" 
d="M899 301q0 -152 -111.5 -239t-306.5 -87q-128 0 -231.5 42t-157.5 114q-26 37 -26 74q0 50 29.5 80t78.5 30q46 0 80 -34q57 -57 111.5 -81t126.5 -24q89 0 138.5 33.5t49.5 93.5q0 54 -46.5 79.5t-168.5 31.5q-203 10 -292 86.5t-89 232.5q0 151 110.5 237.5t301.5 86.5
q110 0 200 -35.5t142 -99.5q26 -33 26 -72q0 -51 -29.5 -81t-80.5 -30q-46 0 -86 43q-65 74 -187 74q-85 0 -130.5 -32.5t-45.5 -92.5q0 -55 46.5 -79.5t168.5 -30.5q202 -10 290.5 -86.5t88.5 -233.5zM492 1157q-57 0 -95 35l-174 149q-35 27 -35 72q0 37 24.5 62.5
t61.5 25.5q33 0 64 -24l154 -121l153 121q31 24 64 24q37 0 61.5 -25.5t24.5 -62.5q0 -45 -35 -72l-174 -149q-38 -35 -94 -35z" />
    <glyph glyph-name="uni0162" unicode="&#x162;" horiz-adv-x="1097" 
d="M137 1352h821q55 0 86 -29t31 -80q0 -52 -30.5 -81t-86.5 -29h-284v-1014q0 -102 -84 -127l-45 -70l2 -2q24 6 45 6q77 0 119.5 -38t42.5 -105q0 -70 -54.5 -111t-152.5 -41q-65 0 -105 11.5t-75 40.5q-25 21 -25 51q0 25 16 43t43 18q20 0 33 -8q52 -33 101 -33
q57 0 57 39q0 37 -55 37q-19 0 -40.5 -3t-31.5 -3q-24 0 -38.5 13.5t-14.5 35.5q0 21 12 39l57 92q-57 31 -57 115v1014h-287q-54 0 -84 29t-30 81q0 51 30 80t84 29z" />
    <glyph glyph-name="uni0163" unicode="&#x163;" horiz-adv-x="815" 
d="M686 272q47 0 74.5 -28.5t27.5 -75.5q0 -32 -14 -57q-34 -63 -107.5 -99.5t-170.5 -36.5h-25l-35 -53l2 -2q24 6 45 6q77 0 119.5 -38t42.5 -105q0 -70 -54.5 -111t-152.5 -41q-65 0 -105 11.5t-75 40.5q-25 21 -25 51q0 24 16.5 42.5t43.5 18.5q20 0 33 -8
q52 -33 100 -33q57 0 57 39q0 37 -55 37q-19 0 -40.5 -3t-31.5 -3q-24 0 -38.5 13.5t-14.5 35.5q0 21 12 39l52 82q-191 61 -191 299v543h-63q-48 0 -76.5 26.5t-28.5 71.5t28.5 71.5t76.5 26.5h63v182q0 57 30.5 88t84.5 31q53 0 81.5 -31t28.5 -88v-182h261q49 0 77.5 -26
t28.5 -72t-28.5 -72t-77.5 -26h-261v-543q0 -55 26.5 -85t76.5 -30q32 0 55.5 14.5t48.5 45.5q27 34 78 34z" />
    <glyph glyph-name="Tcaron" unicode="&#x164;" horiz-adv-x="1097" 
d="M137 1352h821q55 0 86 -29t31 -80q0 -52 -30.5 -81t-86.5 -29h-284v-1014q0 -61 -33 -96t-92 -35t-92 35t-33 96v1014h-287q-54 0 -84 29t-30 81q0 51 30 80t84 29zM549 1456q-56 0 -94 35l-174 149q-35 27 -35 72q0 37 24.5 62.5t61.5 25.5q32 0 63 -24l154 -121
l153 121q31 24 64 24q37 0 61.5 -25.5t24.5 -62.5q0 -45 -35 -72l-174 -149q-38 -35 -94 -35z" />
    <glyph glyph-name="tcaron" unicode="&#x165;" horiz-adv-x="815" 
d="M788 168q0 -32 -14 -57q-34 -63 -107.5 -99.5t-170.5 -36.5q-154 0 -237 81.5t-83 236.5v543h-63q-48 0 -76.5 26.5t-28.5 71.5t28.5 71.5t76.5 26.5h63v182q0 57 30.5 88t84.5 31q53 0 81.5 -31t28.5 -88v-182h261q49 0 77.5 -26t28.5 -72t-28.5 -72t-77.5 -26h-261
v-543q0 -55 26.5 -85t76.5 -30q32 0 55.5 14.5t48.5 45.5q27 34 78 34q47 0 74.5 -28.5t27.5 -75.5zM733 1389l-51 -238q-7 -37 -30.5 -56.5t-55.5 -19.5q-41 0 -63.5 23.5t-22.5 62.5q0 7 4 43l29 219q5 41 29.5 65.5t66.5 24.5q45 0 71.5 -26.5t26.5 -63.5q0 -14 -4 -34z
" />
    <glyph glyph-name="Tbar" unicode="&#x166;" horiz-adv-x="1097" 
d="M137 1352h821q55 0 86 -29t31 -80q0 -52 -30.5 -81t-86.5 -29h-284v-326h149q46 0 74.5 -25t28.5 -69t-28.5 -70.5t-74.5 -26.5h-149v-497q0 -61 -33 -96t-92 -35t-92 35t-33 96v497h-150q-46 0 -74 26.5t-28 70.5t28 69t74 25h150v326h-287q-54 0 -84 29t-30 81
q0 51 30 80t84 29z" />
    <glyph glyph-name="tbar" unicode="&#x167;" horiz-adv-x="833" 
d="M698 272q47 0 75 -28.5t28 -75.5q0 -30 -15 -57q-34 -63 -107.5 -99.5t-170.5 -36.5q-154 0 -237 81.5t-83 236.5v188h-45q-47 0 -74.5 25t-27.5 69t27.5 69.5t74.5 25.5h45v166h-63q-48 0 -76.5 26.5t-28.5 71.5t28.5 71.5t76.5 26.5h63v182q0 57 30.5 88t84.5 31
q53 0 82 -31t29 -88v-182h260q49 0 77.5 -26t28.5 -72t-28.5 -72t-77.5 -26h-260v-166h223q47 0 74.5 -25.5t27.5 -69.5t-27.5 -69t-74.5 -25h-223v-188q0 -56 26.5 -85.5t75.5 -29.5q57 0 105 60q27 34 77 34z" />
    <glyph glyph-name="Utilde" unicode="&#x168;" horiz-adv-x="1271" 
d="M1141 1239v-756q0 -245 -130 -376.5t-374 -131.5q-245 0 -375.5 131.5t-130.5 376.5v750q0 61 33 96t92 35t92 -35t33 -96v-741q0 -297 258 -297q262 0 262 297v747q0 59 32 92t89 33q56 0 87.5 -33.5t31.5 -91.5zM748 1479q-80 0 -152 69q-38 35 -59 35
q-22 0 -36.5 -14.5t-31.5 -52.5q-8 -19 -27 -31t-43 -12q-39 0 -62.5 22.5t-23.5 58.5q0 13 4 33q23 88 78.5 137.5t130.5 49.5q79 0 152 -70q38 -35 59 -35q22 0 36.5 14.5t31.5 53.5q8 19 26.5 31t42.5 12q39 0 63 -23t24 -59q0 -8 -5 -33q-23 -88 -78 -137t-130 -49z" />
    <glyph glyph-name="utilde" unicode="&#x169;" horiz-adv-x="1097" 
d="M872 1044q54 0 83.5 -31t29.5 -87v-506q0 -207 -116 -326t-320 -119t-320 119t-116 326v506q0 56 29 87t83 31t83.5 -31t29.5 -87v-498q0 -121 54.5 -185.5t156.5 -64.5t156.5 64.5t54.5 185.5v498q0 56 29 87t83 31zM659 1180q-79 0 -151 69q-38 35 -59 35
q-22 0 -36.5 -14.5t-31.5 -52.5q-8 -19 -27 -31t-43 -12q-39 0 -62.5 22.5t-23.5 58.5q0 13 4 33q23 88 78.5 137.5t130.5 49.5q79 0 152 -70q38 -35 59 -35q22 0 36.5 14.5t31.5 53.5q8 19 26.5 31t42.5 12q39 0 62.5 -23t23.5 -59q0 -13 -4 -33q-23 -88 -78.5 -137
t-130.5 -49z" />
    <glyph glyph-name="Umacron" unicode="&#x16a;" horiz-adv-x="1271" 
d="M1141 1239v-756q0 -245 -130 -376.5t-374 -131.5q-245 0 -375.5 131.5t-130.5 376.5v750q0 61 33 96t92 35t92 -35t33 -96v-741q0 -297 258 -297q262 0 262 297v747q0 59 32 92t89 33q56 0 87.5 -33.5t31.5 -91.5zM436 1718h400q47 0 73.5 -25t26.5 -69
q0 -43 -26.5 -67.5t-73.5 -24.5h-400q-47 0 -73.5 24.5t-26.5 67.5q0 44 26.5 69t73.5 25z" />
    <glyph glyph-name="umacron" unicode="&#x16b;" horiz-adv-x="1097" 
d="M872 1044q54 0 83.5 -31t29.5 -87v-506q0 -207 -116 -326t-320 -119t-320 119t-116 326v506q0 56 29 87t83 31t83.5 -31t29.5 -87v-498q0 -121 54.5 -185.5t156.5 -64.5t156.5 64.5t54.5 185.5v498q0 56 29 87t83 31zM348 1419h400q47 0 73.5 -25t26.5 -69
q0 -43 -26.5 -67.5t-73.5 -24.5h-400q-47 0 -73.5 24.5t-26.5 67.5q0 44 26.5 69t73.5 25z" />
    <glyph glyph-name="Ubreve" unicode="&#x16c;" horiz-adv-x="1271" 
d="M1141 1239v-756q0 -245 -130 -376.5t-374 -131.5q-245 0 -375.5 131.5t-130.5 376.5v750q0 61 33 96t92 35t92 -35t33 -96v-741q0 -297 258 -297q262 0 262 297v747q0 59 32 92t89 33q56 0 87.5 -33.5t31.5 -91.5zM637 1460q-115 0 -192.5 53t-106.5 152q-6 21 -6 45
q0 38 24 62t66 24q59 0 80 -57q17 -45 53 -69.5t82 -24.5t82 24.5t53 69.5q21 57 80 57q42 0 66 -24t24 -62q0 -24 -6 -45q-29 -99 -106.5 -152t-192.5 -53z" />
    <glyph glyph-name="ubreve" unicode="&#x16d;" horiz-adv-x="1097" 
d="M872 1044q54 0 83.5 -31t29.5 -87v-506q0 -207 -116 -326t-320 -119t-320 119t-116 326v506q0 56 29 87t83 31t83.5 -31t29.5 -87v-498q0 -121 54.5 -185.5t156.5 -64.5t156.5 64.5t54.5 185.5v498q0 56 29 87t83 31zM549 1161q-115 0 -192.5 53t-106.5 152q-6 21 -6 45
q0 38 24 62t66 24q59 0 80 -57q17 -45 53 -69.5t82 -24.5t82 24.5t53 69.5q21 57 80 57q42 0 66 -24t24 -62q0 -24 -6 -45q-29 -99 -106.5 -152t-192.5 -53z" />
    <glyph glyph-name="Uring" unicode="&#x16e;" horiz-adv-x="1271" 
d="M1141 1239v-756q0 -245 -130 -376.5t-374 -131.5q-245 0 -375.5 131.5t-130.5 376.5v750q0 61 33 96t92 35t92 -35t33 -96v-741q0 -297 258 -297q262 0 262 297v747q0 59 32 92t89 33q56 0 87.5 -33.5t31.5 -91.5zM637 1423q-89 0 -149 60t-60 149t60 149t149 60t149 -60
t60 -149t-60 -149t-149 -60zM637 1544q37 0 59.5 24t22.5 64q0 38 -22.5 62t-59.5 24t-59.5 -24t-22.5 -62q0 -40 22.5 -64t59.5 -24z" />
    <glyph glyph-name="uring" unicode="&#x16f;" horiz-adv-x="1097" 
d="M872 1044q54 0 83.5 -31t29.5 -87v-506q0 -207 -116 -326t-320 -119t-320 119t-116 326v506q0 56 29 87t83 31t83.5 -31t29.5 -87v-498q0 -121 54.5 -185.5t156.5 -64.5t156.5 64.5t54.5 185.5v498q0 56 29 87t83 31zM549 1124q-89 0 -149 60t-60 149t60 149t149 60
t149 -60t60 -149t-60 -149t-149 -60zM549 1245q37 0 59.5 24t22.5 64q0 38 -22.5 62t-59.5 24t-59.5 -24t-22.5 -62q0 -40 22.5 -64t59.5 -24z" />
    <glyph glyph-name="Uhungarumlaut" unicode="&#x170;" horiz-adv-x="1271" 
d="M1141 1239v-756q0 -245 -130 -376.5t-374 -131.5q-245 0 -375.5 131.5t-130.5 376.5v750q0 61 33 96t92 35t92 -35t33 -96v-741q0 -297 258 -297q262 0 262 297v747q0 59 32 92t89 33q56 0 87.5 -33.5t31.5 -91.5zM604 1800q40 0 66 -27.5t26 -70.5q0 -37 -20 -60
l-141 -157q-25 -29 -66 -29q-34 0 -57 24.5t-23 59.5q0 29 14 49l123 170q26 41 78 41zM961 1800q40 0 66 -27.5t26 -70.5q0 -36 -21 -60l-141 -157q-25 -29 -66 -29q-34 0 -57 24.5t-23 59.5q0 28 15 49l123 170q26 41 78 41z" />
    <glyph glyph-name="uhungarumlaut" unicode="&#x171;" horiz-adv-x="1097" 
d="M872 1044q54 0 83.5 -31t29.5 -87v-506q0 -207 -116 -326t-320 -119t-320 119t-116 326v506q0 56 29 87t83 31t83.5 -31t29.5 -87v-498q0 -121 54.5 -185.5t156.5 -64.5t156.5 64.5t54.5 185.5v498q0 56 29 87t83 31zM516 1501q40 0 66 -27.5t26 -70.5q0 -37 -20 -60
l-142 -157q-25 -29 -65 -29q-34 0 -57 24.5t-23 59.5q0 29 14 49l123 170q26 41 78 41zM872 1501q40 0 66.5 -27.5t26.5 -70.5q0 -35 -21 -60l-141 -157q-25 -29 -66 -29q-34 0 -57 24.5t-23 59.5q0 28 15 49l123 170q26 41 77 41z" />
    <glyph glyph-name="Uogonek" unicode="&#x172;" horiz-adv-x="1271" 
d="M913 35q-73 -37 -107 -84.5t-34 -93.5q0 -27 14.5 -42.5t38.5 -15.5q31 0 58 21q27 24 59 24q38 0 61 -24t23 -64q0 -43 -33 -69q-68 -56 -178 -56q-95 0 -154 49t-59 136q0 83 68 157v2h-33q-245 0 -375.5 131.5t-130.5 376.5v750q0 61 33 96t92 35t92 -35t33 -96v-741
q0 -297 258 -297q262 0 262 297v747q0 59 32 92t89 33q56 0 87.5 -33.5t31.5 -91.5v-756q0 -164 -60.5 -278t-167.5 -170z" />
    <glyph glyph-name="uogonek" unicode="&#x173;" horiz-adv-x="1097" 
d="M791 35q-68 -36 -102 -84.5t-34 -93.5q0 -27 14.5 -42.5t35.5 -15.5q30 0 57 21q31 24 59 24q41 0 64.5 -24t23.5 -64q0 -43 -32 -69q-72 -56 -179 -56q-95 0 -154 49t-59 136q0 82 66 157v2h-2q-204 0 -320 119t-116 326v506q0 56 29 87t83 31t83.5 -31t29.5 -87v-498
q0 -121 54.5 -185.5t156.5 -64.5t156.5 64.5t54.5 185.5v498q0 56 29 87t83 31t83.5 -31t29.5 -87v-506q0 -139 -51 -236.5t-143 -148.5z" />
    <glyph glyph-name="Wcircumflex" unicode="&#x174;" horiz-adv-x="1933" 
d="M1749 1364q54 0 86.5 -32.5t32.5 -86.5q0 -23 -6 -41l-375 -1120q-33 -96 -127 -96q-96 0 -129 96l-262 784h-4l-260 -784q-33 -96 -130 -96q-93 0 -126 96l-375 1104q-8 24 -8 51q0 57 34 91t90 34q90 0 117 -82l273 -852h4l266 842q13 44 46.5 68t76.5 24q42 0 75 -25
t46 -67l270 -842h4l268 854q11 36 40.5 58t72.5 22zM967 1800q56 0 94 -35l174 -149q35 -27 35 -72q0 -37 -24.5 -62.5t-61.5 -25.5q-32 0 -64 25l-153 121l-154 -121q-32 -25 -63 -25q-37 0 -61.5 25.5t-24.5 62.5q0 45 34 72l174 149q38 35 95 35z" />
    <glyph glyph-name="wcircumflex" unicode="&#x175;" horiz-adv-x="1591" 
d="M1434 1044q53 0 83.5 -28t30.5 -82q0 -23 -10 -53l-301 -811q-12 -36 -43.5 -59t-71.5 -23t-72 23t-44 59l-209 567h-4l-209 -567q-12 -36 -43.5 -59t-71.5 -23q-41 0 -73 23t-44 59l-303 817q-6 14 -6 43q0 53 31.5 83.5t85.5 30.5q79 0 100 -67l209 -627h4l223 621
q25 73 105 73q79 0 104 -73l221 -623h4l207 629q23 67 97 67zM795 1501q56 0 94 -35l174 -149q35 -27 35 -72q0 -37 -24.5 -62.5t-61.5 -25.5q-32 0 -64 25l-153 121l-154 -121q-32 -25 -63 -25q-37 0 -61.5 25.5t-24.5 62.5q0 45 34 72l174 149q38 35 95 35z" />
    <glyph glyph-name="Ycircumflex" unicode="&#x176;" horiz-adv-x="1181" 
d="M715 567v-448q0 -61 -33 -96t-92 -35t-92 35t-33 96v440l-410 604q-22 31 -22 76q0 57 34.5 91t90.5 34q66 0 98 -53l338 -523l340 525q31 51 96 51q54 0 86.5 -31.5t32.5 -85.5q0 -37 -25 -78zM590 1800q56 0 94 -35l174 -149q35 -27 35 -72q0 -37 -24.5 -62.5
t-61.5 -25.5q-32 0 -64 25l-153 121l-154 -121q-32 -25 -63 -25q-37 0 -61.5 25.5t-24.5 62.5q0 45 35 72l174 149q38 35 94 35z" />
    <glyph glyph-name="ycircumflex" unicode="&#x177;" horiz-adv-x="1030" 
d="M881 1044q51 0 79.5 -28t28.5 -80q0 -28 -8 -49l-528 -1184q-27 -59 -101 -59q-52 0 -82 30.5t-30 85.5q0 33 16 62l137 270l-342 785q-10 23 -10 49q0 55 30 86.5t81 31.5q80 0 108 -69l254 -608h4l264 616q25 61 99 61zM512 1501q56 0 94 -35l174 -149q35 -27 35 -72
q0 -37 -24.5 -62.5t-61.5 -25.5q-31 0 -63 25l-154 121l-154 -121q-32 -25 -63 -25q-37 0 -61.5 25.5t-24.5 62.5q0 45 35 72l174 149q38 35 94 35z" />
    <glyph glyph-name="Ydieresis" unicode="&#x178;" horiz-adv-x="1181" 
d="M715 567v-448q0 -61 -33 -96t-92 -35t-92 35t-33 96v440l-410 604q-22 31 -22 76q0 57 34.5 91t90.5 34q66 0 98 -53l338 -523l340 525q31 51 96 51q54 0 86.5 -31.5t32.5 -85.5q0 -37 -25 -78zM401 1755q55 0 88 -31t33 -84v-28q0 -53 -33 -84t-88 -31q-57 0 -89.5 31
t-32.5 84v28q0 53 32.5 84t89.5 31zM778 1755q57 0 90 -31t33 -84v-28q0 -53 -33 -84t-90 -31q-55 0 -88 31t-33 84v28q0 53 33 84t88 31z" />
    <glyph glyph-name="Zacute" unicode="&#x179;" horiz-adv-x="1150" 
d="M389 219h567q56 0 86.5 -29t30.5 -81q0 -51 -31 -80t-86 -29h-766q-57 0 -90.5 30.5t-33.5 84.5q0 50 26 90l637 928h-508q-54 0 -84.5 29t-30.5 81q0 51 30.5 80t84.5 29h717q59 0 92 -29.5t33 -83.5q0 -49 -29 -94zM838 1702q0 -52 -43 -86l-170 -139q-28 -21 -60 -21
q-36 0 -61 25t-25 61q0 39 25 64l155 157q37 37 80 37q41 0 70 -28.5t29 -69.5z" />
    <glyph glyph-name="zacute" unicode="&#x17a;" horiz-adv-x="948" 
d="M352 197h445q49 0 76.5 -26.5t27.5 -72.5t-27.5 -72t-76.5 -26h-643q-53 0 -82 27.5t-29 76.5q0 47 31 89l497 643h-383q-49 0 -76.5 26t-27.5 72t27.5 72t76.5 26h584q52 0 80.5 -27t28.5 -73q0 -51 -29 -88zM739 1403q0 -52 -43 -86l-170 -139q-28 -21 -59 -21
q-36 0 -61 25t-25 61q0 39 25 64l155 157q37 37 80 37q41 0 69.5 -28.5t28.5 -69.5z" />
    <glyph glyph-name="Zdotaccent" unicode="&#x17b;" horiz-adv-x="1150" 
d="M389 219h567q56 0 86.5 -29t30.5 -81q0 -51 -31 -80t-86 -29h-766q-57 0 -90.5 30.5t-33.5 84.5q0 50 26 90l637 928h-508q-54 0 -84.5 29t-30.5 81q0 51 30.5 80t84.5 29h717q59 0 92 -29.5t33 -83.5q0 -49 -29 -94zM578 1761q59 0 94 -33t35 -88v-30q0 -54 -35 -86.5
t-94 -32.5t-94 32.5t-35 86.5v30q0 55 35 88t94 33z" />
    <glyph glyph-name="zdotaccent" unicode="&#x17c;" horiz-adv-x="948" 
d="M352 197h445q49 0 76.5 -26.5t27.5 -72.5t-27.5 -72t-76.5 -26h-643q-53 0 -82 27.5t-29 76.5q0 47 31 89l497 643h-383q-49 0 -76.5 26t-27.5 72t27.5 72t76.5 26h584q52 0 80.5 -27t28.5 -73q0 -51 -29 -88zM479 1462q59 0 94 -33t35 -88v-30q0 -54 -35 -86.5
t-94 -32.5t-94 32.5t-35 86.5v30q0 55 35 88t94 33z" />
    <glyph glyph-name="Zcaron" unicode="&#x17d;" horiz-adv-x="1150" 
d="M389 219h567q56 0 86.5 -29t30.5 -81q0 -51 -31 -80t-86 -29h-766q-57 0 -90.5 30.5t-33.5 84.5q0 50 26 90l637 928h-508q-54 0 -84.5 29t-30.5 81q0 51 30.5 80t84.5 29h717q59 0 92 -29.5t33 -83.5q0 -49 -29 -94zM578 1456q-57 0 -95 35l-174 149q-35 27 -35 72
q0 37 24.5 62.5t61.5 25.5q33 0 64 -24l154 -121l153 121q31 24 64 24q37 0 61.5 -25.5t24.5 -62.5q0 -45 -35 -72l-174 -149q-38 -35 -94 -35z" />
    <glyph glyph-name="zcaron" unicode="&#x17e;" horiz-adv-x="948" 
d="M352 197h445q49 0 76.5 -26.5t27.5 -72.5t-27.5 -72t-76.5 -26h-643q-53 0 -82 27.5t-29 76.5q0 47 31 89l497 643h-383q-49 0 -76.5 26t-27.5 72t27.5 72t76.5 26h584q52 0 80.5 -27t28.5 -73q0 -51 -29 -88zM479 1157q-56 0 -94 35l-174 149q-35 27 -35 72
q0 37 24.5 62.5t61.5 25.5q33 0 64 -24l153 -121l154 121q31 24 63 24q37 0 61.5 -25.5t24.5 -62.5q0 -45 -34 -72l-175 -149q-38 -35 -94 -35z" />
    <glyph glyph-name="florin" unicode="&#x192;" horiz-adv-x="1161" 
d="M838 1174q-127 0 -142 -166l-14 -131h252q42 0 68 -26.5t26 -68.5q0 -49 -29 -75.5t-79 -26.5h-258l-66 -631q-15 -146 -88.5 -220.5t-202.5 -74.5q-138 0 -209 68q-30 30 -30 72q0 51 27.5 79.5t74.5 28.5q31 0 61 -20q37 -25 64 -25q63 0 72 84l65 639h-160
q-44 0 -69 25.5t-25 68.5q0 49 28.5 76t78.5 27h168l14 143q38 356 366 356q169 0 259 -84q28 -28 28 -71q0 -54 -28.5 -83.5t-75.5 -29.5q-41 0 -78 29q-43 37 -98 37z" />
    <glyph glyph-name="AEacute" unicode="&#x1fc;" horiz-adv-x="1966" 
d="M1202 219h574q54 0 84 -29t30 -81q0 -51 -30 -80t-84 -29h-693q-62 0 -96.5 34t-34.5 97v158h-524l-180 -254q-33 -47 -101 -47q-53 0 -85.5 33.5t-32.5 87.5q0 45 26 81l789 1088q52 74 135 74h797q54 0 84 -29t30 -80q0 -52 -30 -81t-84 -29h-574v-340h481
q54 0 84.5 -29t30.5 -80t-30.5 -80t-84.5 -29h-481v-356zM952 1036h-4l-368 -532h372v532zM1239 1702q0 -52 -43 -86l-170 -139q-28 -21 -59 -21q-36 0 -61 25t-25 61q0 40 24 64l156 157q37 37 80 37q41 0 69.5 -28.5t28.5 -69.5z" />
    <glyph glyph-name="aeacute" unicode="&#x1fd;" horiz-adv-x="1671" 
d="M1171 1057q195 0 306.5 -121t111.5 -332v-61q0 -52 -28.5 -81.5t-79.5 -29.5h-537q0 -123 57 -188.5t164 -65.5q117 0 191 103q32 47 90 47q51 0 80.5 -30t29.5 -81q0 -35 -18 -65q-52 -87 -144 -132t-212 -45q-249 0 -346 181h-5q-102 -181 -346 -181q-187 0 -295 89.5
t-108 244.5v17q0 146 92 220.5t272 74.5h273q0 110 -58.5 171.5t-160.5 61.5q-117 0 -189 -102q-33 -47 -92 -47q-45 0 -77.5 32.5t-32.5 77.5q0 33 16 59q51 88 144 135.5t214 47.5q246 0 346 -180h5q95 180 337 180zM944 621h424q0 109 -57.5 171t-153.5 62
q-99 0 -156 -61.5t-57 -171.5zM498 178q107 0 164 65.5t57 188.5h-275q-66 0 -101.5 -28t-35.5 -80v-9q0 -65 50 -101t141 -36zM1094 1403q0 -52 -43 -86l-170 -139q-28 -21 -60 -21q-36 0 -61 25t-25 61q0 39 25 64l155 157q37 37 80 37q41 0 70 -28.5t29 -69.5z" />
    <glyph glyph-name="Oslashacute" unicode="&#x1fe;" horiz-adv-x="1341" 
d="M1186 1192l-43 -57q74 -124 74 -308v-303q0 -257 -145 -403t-400 -146q-195 0 -334 93l-25 -33q-36 -47 -88 -47q-40 0 -69 27.5t-29 66.5q0 36 31 78l41 55q-74 132 -74 309v303q0 256 146 402.5t401 146.5q197 0 334 -92l24 33q36 47 88 47q40 0 69.5 -27.5t29.5 -66.5
q0 -36 -31 -78zM375 819v-287q0 -27 4 -73h4l479 637q-74 61 -190 61q-141 0 -219 -88.5t-78 -249.5zM967 532v287q0 26 -4 72h-5l-479 -635q73 -61 193 -61q140 0 217.5 88t77.5 249zM928 1702q0 -52 -43 -86l-170 -139q-28 -21 -60 -21q-36 0 -61 25t-25 61q0 39 25 64
l156 157q37 37 79 37q41 0 70 -28.5t29 -69.5z" />
    <glyph glyph-name="oslashacute" unicode="&#x1ff;" horiz-adv-x="1089" 
d="M963 879l-25 -31q53 -103 53 -244v-174q0 -214 -118.5 -334.5t-327.5 -120.5q-156 0 -262 68l-11 -14q-33 -41 -86 -41q-35 0 -61.5 25.5t-26.5 64.5q0 40 29 76l25 30q-54 105 -54 246v174q0 213 118.5 333t328.5 120q153 0 262 -68l10 15q32 40 86 40q35 0 61.5 -25.5
t26.5 -64.5q0 -40 -28 -75zM328 399l342 422q-47 33 -125 33q-107 0 -164 -67t-57 -193v-195h4zM762 631l-342 -420q47 -33 125 -33q107 0 164 67t57 193v193h-4zM805 1403q0 -52 -43 -86l-170 -139q-28 -21 -60 -21q-36 0 -61 25t-25 61q0 39 25 64l156 157q37 37 80 37
q41 0 69.5 -28.5t28.5 -69.5z" />
    <glyph glyph-name="uni0218" unicode="&#x218;" horiz-adv-x="1173" 
d="M356 971q0 -81 62 -120t223 -52q248 -22 353.5 -117.5t105.5 -296.5q0 -185 -134 -297.5t-354 -112.5q-366 0 -508 236q-20 33 -20 76q0 50 32.5 83t84.5 33q63 0 102 -59q45 -72 126 -110.5t181 -38.5q109 0 175.5 52.5t66.5 139.5q0 89 -65 131t-234 57
q-243 23 -345 116t-102 282q0 183 133 293t353 110q151 0 264.5 -51t179.5 -149q21 -30 21 -70q0 -52 -33 -84.5t-86 -32.5q-55 0 -88 41q-106 127 -270 127q-101 0 -162.5 -50.5t-61.5 -135.5zM395 -285l129 160q27 35 74 35q39 0 65.5 -28t26.5 -72q0 -39 -35 -74
l-137 -133q-21 -21 -55 -21t-59 25.5t-25 60.5q0 28 16 47z" />
    <glyph glyph-name="uni0219" unicode="&#x219;" horiz-adv-x="966" 
d="M899 301q0 -152 -111.5 -239t-306.5 -87q-128 0 -231.5 42t-157.5 114q-26 37 -26 74q0 50 29.5 80t78.5 30q46 0 80 -34q57 -57 111.5 -81t126.5 -24q89 0 138.5 33.5t49.5 93.5q0 54 -46.5 79.5t-168.5 31.5q-203 10 -292 86.5t-89 232.5q0 151 110.5 237.5t301.5 86.5
q110 0 200 -35.5t142 -99.5q26 -33 26 -72q0 -51 -29.5 -81t-80.5 -30q-46 0 -86 43q-65 74 -187 74q-85 0 -130.5 -32.5t-45.5 -92.5q0 -55 46.5 -79.5t168.5 -30.5q202 -10 290.5 -86.5t88.5 -233.5zM283 -285l129 160q27 35 73 35q39 0 66 -28t27 -72q0 -39 -35 -74
l-137 -133q-21 -21 -56 -21q-34 0 -59 25.5t-25 60.5q0 27 17 47z" />
    <glyph glyph-name="uni021A" unicode="&#x21a;" horiz-adv-x="1097" 
d="M137 1352h821q55 0 86 -29t31 -80q0 -52 -30.5 -81t-86.5 -29h-284v-1014q0 -61 -33 -96t-92 -35t-92 35t-33 96v1014h-287q-54 0 -84 29t-30 81q0 51 30 80t84 29zM350 -285l129 160q27 35 74 35q39 0 65.5 -28t26.5 -72q0 -39 -35 -74l-137 -133q-21 -21 -55 -21
t-59 25.5t-25 60.5q0 28 16 47z" />
    <glyph glyph-name="uni021B" unicode="&#x21b;" horiz-adv-x="815" 
d="M788 168q0 -32 -14 -57q-34 -63 -107.5 -99.5t-170.5 -36.5q-154 0 -237 81.5t-83 236.5v543h-63q-48 0 -76.5 26.5t-28.5 71.5t28.5 71.5t76.5 26.5h63v182q0 57 30.5 88t84.5 31q53 0 81.5 -31t28.5 -88v-182h261q49 0 77.5 -26t28.5 -72t-28.5 -72t-77.5 -26h-261
v-543q0 -55 26.5 -85t76.5 -30q32 0 55.5 14.5t48.5 45.5q27 34 78 34q47 0 74.5 -28.5t27.5 -75.5zM244 -285l129 160q27 35 73 35q39 0 66 -28t27 -72q0 -39 -35 -74l-137 -133q-21 -21 -56 -21q-34 0 -59 25.5t-25 60.5q0 27 17 47z" />
    <glyph glyph-name="uni0237" unicode="&#x237;" horiz-adv-x="479" 
d="M240 1044q54 0 83 -31t29 -87v-994q0 -143 -73 -222t-199 -79q-135 0 -203 62q-35 31 -35 80q0 47 28.5 75.5t74.5 28.5q34 0 61 -20q34 -23 64 -23q26 0 41.5 21.5t15.5 58.5v1012q0 56 29.5 87t83.5 31z" />
    <glyph glyph-name="circumflex" unicode="&#x2c6;" horiz-adv-x="983" 
d="M492 1501q56 0 94 -35l174 -149q35 -27 35 -72q0 -37 -24.5 -62.5t-61.5 -25.5q-32 0 -64 25l-153 121l-154 -121q-32 -25 -64 -25q-37 0 -61.5 25.5t-24.5 62.5q0 45 35 72l174 149q38 35 95 35z" />
    <glyph glyph-name="caron" unicode="&#x2c7;" horiz-adv-x="983" 
d="M492 1157q-57 0 -95 35l-174 149q-35 27 -35 72q0 37 24.5 62.5t61.5 25.5q33 0 64 -24l154 -121l153 121q31 24 64 24q37 0 61.5 -25.5t24.5 -62.5q0 -45 -35 -72l-174 -149q-38 -35 -94 -35z" />
    <glyph glyph-name="breve" unicode="&#x2d8;" horiz-adv-x="983" 
d="M492 1161q-115 0 -192.5 53t-106.5 152q-7 24 -7 45q0 38 24 62t66 24q59 0 80 -57q17 -45 53 -69.5t83 -24.5q46 0 82 24.5t53 69.5q21 57 80 57q42 0 66 -24t24 -62q0 -24 -6 -45q-29 -99 -106.5 -152t-192.5 -53z" />
    <glyph glyph-name="dotaccent" unicode="&#x2d9;" horiz-adv-x="983" 
d="M492 1462q59 0 94 -33t35 -88v-30q0 -54 -35 -86.5t-94 -32.5t-94.5 32.5t-35.5 86.5v30q0 55 35.5 88t94.5 33z" />
    <glyph glyph-name="ring" unicode="&#x2da;" horiz-adv-x="983" 
d="M492 1124q-89 0 -149 60t-60 149t60 149t149 60t148.5 -60t59.5 -149t-59.5 -149t-148.5 -60zM492 1245q37 0 59 24t22 64q0 38 -22 62t-59 24t-59.5 -24t-22.5 -62q0 -40 22.5 -64t59.5 -24z" />
    <glyph glyph-name="ogonek" unicode="&#x2db;" horiz-adv-x="983" 
d="M735 -244q0 -47 -37 -73q-72 -52 -172 -52q-98 0 -156.5 47t-58.5 132q0 88 68.5 166.5t206.5 136.5l43 -99q-148 -73 -148 -166q0 -22 14.5 -35.5t34.5 -13.5q30 0 66 27q25 18 51 18q41 0 64.5 -24t23.5 -64z" />
    <glyph glyph-name="tilde" unicode="&#x2dc;" horiz-adv-x="983" 
d="M602 1180q-79 0 -151 69q-38 35 -60 35t-36 -14t-31 -53q-8 -19 -27 -31t-43 -12q-39 0 -62.5 22.5t-23.5 58.5q0 13 4 33q23 88 78.5 137.5t130.5 49.5q78 0 151 -70q38 -35 60 -35q21 0 35 14.5t32 53.5q8 19 27 31t43 12q39 0 62.5 -23t23.5 -59q0 -13 -4 -33
q-23 -88 -78.5 -137t-130.5 -49z" />
    <glyph glyph-name="hungarumlaut" unicode="&#x2dd;" horiz-adv-x="983" 
d="M457 1501q40 0 66 -27.5t26 -70.5q0 -35 -21 -60l-141 -157q-25 -29 -65 -29q-34 0 -57 24.5t-23 59.5q0 29 14 49l123 170q26 41 78 41zM813 1501q40 0 66 -27.5t26 -70.5q0 -37 -20 -60l-142 -157q-25 -29 -65 -29q-34 0 -57 24.5t-23 59.5q0 29 14 49l123 170
q26 41 78 41z" />
    <glyph glyph-name="uni0394" unicode="&#x394;" horiz-adv-x="1288" 
d="M782 1264l430 -1067q15 -41 15 -72q0 -57 -36 -91t-97 -34h-893q-65 0 -102.5 33t-37.5 90q0 33 15 76l430 1065q42 100 137 100q97 0 139 -100zM647 1001h-4l-299 -782h594z" />
    <glyph glyph-name="uni03A9" unicode="&#x3a9;" horiz-adv-x="1337" 
d="M1028 219h98q56 0 86.5 -29t30.5 -81q0 -51 -31 -80t-86 -29h-256q-56 0 -88 30.5t-32 82.5q0 73 55 112q80 55 120 140.5t40 224.5v229q0 161 -78.5 249.5t-218.5 88.5t-217.5 -88.5t-77.5 -249.5v-229q0 -140 39 -225.5t120 -141.5q56 -39 56 -110q0 -52 -32.5 -82.5
t-90.5 -30.5h-254q-55 0 -86 29t-31 80q0 52 30.5 81t86.5 29h98v4q-86 60 -136 166t-50 240v198q0 257 145 403t400 146q256 0 401 -146t145 -403v-198q0 -134 -50 -240t-136 -166v-4z" />
    <glyph glyph-name="uni03BC" unicode="&#x3bc;" horiz-adv-x="1114" 
d="M889 1044q54 0 83 -31t29 -87v-514q0 -204 -103 -320.5t-286 -116.5q-164 0 -256 103h-4v-314q0 -57 -29.5 -88.5t-82.5 -31.5q-54 0 -83.5 31.5t-29.5 88.5v1162q0 56 29.5 87t83.5 31q53 0 82.5 -31.5t29.5 -86.5v-502q0 -120 55 -183t158 -63q102 0 156.5 63t54.5 181
v504q0 56 29.5 87t83.5 31z" />
    <glyph glyph-name="pi" unicode="&#x3c0;" horiz-adv-x="1144" 
d="M133 1032h877q49 0 77.5 -26t28.5 -72t-28.5 -72t-77.5 -26h-31v-727q0 -57 -30 -89t-83 -32t-82.5 32t-29.5 89v727h-363v-727q0 -57 -29.5 -89t-82.5 -32t-83 32t-30 89v727h-33q-48 0 -76 26.5t-28 71.5t28 71.5t76 26.5z" />
    <glyph glyph-name="uni1E02" unicode="&#x1e02;" horiz-adv-x="1286" 
d="M997 702v-4q102 -41 149.5 -121t47.5 -206q0 -193 -107 -282t-339 -89h-451q-62 0 -96.5 34t-34.5 97v1090q0 63 34.5 97t96.5 34h408q232 0 339 -85t107 -272q0 -213 -154 -293zM416 797h264q115 0 170 42.5t55 131.5q0 84 -50.5 123t-158.5 39h-280v-336zM416 219h307
q114 0 166.5 42t52.5 134q0 97 -56 142t-179 45h-291v-363zM623 1761q59 0 94 -33t35 -88v-30q0 -54 -35 -86.5t-94 -32.5t-94 32.5t-35 86.5v30q0 55 35 88t94 33z" />
    <glyph glyph-name="uni1E03" unicode="&#x1e03;" horiz-adv-x="1103" 
d="M600 1057q187 0 296.5 -119t109.5 -320v-188q0 -214 -118 -334.5t-329 -120.5q-209 0 -327.5 120.5t-118.5 334.5v883q0 57 29 89t83 32t83.5 -32t29.5 -89v-361h4q94 105 258 105zM780 438v170q0 117 -57.5 181.5t-163.5 64.5q-104 0 -162.5 -64.5t-58.5 -181.5v-170
q0 -126 57 -193t164 -67t164 67t57 193zM225 1831q59 0 94 -33t35 -88v-31q0 -54 -35 -86t-94 -32t-94 32t-35 86v31q0 55 35 88t94 33z" />
    <glyph glyph-name="uni1E0A" unicode="&#x1e0a;" horiz-adv-x="1331" 
d="M297 1352h342q269 0 417 -145.5t148 -403.5v-254q0 -258 -148 -403.5t-417 -145.5h-342q-62 0 -96.5 34t-34.5 97v1090q0 60 35 95.5t96 35.5zM954 557v238q0 163 -80.5 250.5t-234.5 87.5h-223v-914h223q154 0 234.5 87.5t80.5 250.5zM623 1761q59 0 94 -33t35 -88v-30
q0 -54 -35 -86.5t-94 -32.5t-94 32.5t-35 86.5v30q0 55 35 88t94 33z" />
    <glyph glyph-name="uni1E0B" unicode="&#x1e0b;" horiz-adv-x="1103" 
d="M879 1434q54 0 83 -32t29 -89v-883q0 -214 -118.5 -334.5t-327.5 -120.5q-211 0 -329 120.5t-118 334.5v188q0 201 109.5 320t296.5 119q164 0 258 -105h4v361q0 57 29.5 89t83.5 32zM766 438v170q0 117 -58.5 181.5t-162.5 64.5q-106 0 -163.5 -64.5t-57.5 -181.5v-170
q0 -126 57 -193t164 -67t164 67t57 193zM879 1831q59 0 94 -33t35 -88v-31q0 -54 -35 -86t-94 -32t-94 32t-35 86v31q0 55 35 88t94 33z" />
    <glyph glyph-name="uni1E1E" unicode="&#x1e1e;" horiz-adv-x="1116" 
d="M416 776h465q54 0 84 -29t30 -81q0 -51 -30 -80t-84 -29h-465v-438q0 -61 -33 -96t-92 -35t-92 35t-33 96v1102q0 63 34.5 97t96.5 34h676q54 0 84 -29t30 -80q0 -52 -30 -81t-84 -29h-557v-357zM600 1761q59 0 94 -33t35 -88v-30q0 -54 -35 -86.5t-94 -32.5t-94 32.5
t-35 86.5v30q0 55 35 88t94 33z" />
    <glyph glyph-name="uni1E1F" unicode="&#x1e1f;" horiz-adv-x="757" 
d="M535 1243q-63 0 -97.5 -41t-34.5 -119v-51h259q49 0 77.5 -26t28.5 -72t-28.5 -72t-77.5 -26h-259v-727q0 -57 -29 -89t-83 -32q-53 0 -83 32t-30 89v727h-65q-48 0 -76.5 26.5t-28.5 71.5t28.5 71.5t76.5 26.5h65v53q0 171 91.5 266t262.5 95q157 0 248 -82
q33 -30 33 -76q0 -51 -29.5 -80.5t-76.5 -29.5q-38 0 -74 28q-46 37 -98 37zM434 1831q59 0 94 -33t35 -88v-31q0 -54 -35 -86t-94 -32t-94 32t-35 86v31q0 55 35 88t94 33z" />
    <glyph glyph-name="uni1E40" unicode="&#x1e40;" horiz-adv-x="1683" 
d="M1380 1364q65 0 101.5 -40t36.5 -110v-1095q0 -60 -33.5 -95.5t-91.5 -35.5q-59 0 -92 35t-33 96v715h-4l-297 -555q-47 -86 -125 -86t-125 83l-307 562h-4v-723q0 -60 -31.5 -93.5t-87.5 -33.5q-57 0 -89 33.5t-32 93.5v1104q0 67 37 106t100 39q84 0 133 -90l406 -760
l403 760q47 90 135 90zM842 1761q59 0 94 -33t35 -88v-30q0 -54 -35 -86.5t-94 -32.5t-94 32.5t-35 86.5v30q0 55 35 88t94 33z" />
    <glyph glyph-name="uni1E41" unicode="&#x1e41;" horiz-adv-x="1650" 
d="M1143 1057q187 0 291 -110t104 -308v-530q0 -57 -29.5 -89t-83.5 -32t-83 32t-29 89v514q0 114 -48 172.5t-139 58.5q-92 0 -140 -58.5t-48 -172.5v-514q0 -57 -29.5 -89t-83.5 -32t-83 32t-29 89v514q0 114 -48 172.5t-139 58.5q-92 0 -140 -58.5t-48 -172.5v-514
q0 -57 -29.5 -89t-83.5 -32t-83 32t-29 89v530q0 198 104.5 308t292.5 110q215 0 313 -137h4q47 66 128.5 101.5t187.5 35.5zM825 1462q59 0 94 -33t35 -88v-30q0 -54 -35 -86.5t-94 -32.5t-94 32.5t-35 86.5v30q0 55 35 88t94 33z" />
    <glyph glyph-name="uni1E56" unicode="&#x1e56;" horiz-adv-x="1239" 
d="M297 1352h416q226 0 342 -108t116 -320q0 -211 -116 -318.5t-342 -107.5h-297v-379q0 -61 -33 -96t-92 -35t-92 35t-33 96v1102q0 63 34.5 97t96.5 34zM416 717h272q234 0 234 207q0 209 -234 209h-272v-416zM623 1761q59 0 94 -33t35 -88v-30q0 -54 -35 -86.5t-94 -32.5
t-94 32.5t-35 86.5v30q0 55 35 88t94 33z" />
    <glyph glyph-name="uni1E57" unicode="&#x1e57;" horiz-adv-x="1103" 
d="M559 1057q210 0 328.5 -120t118.5 -333v-188q0 -203 -109.5 -322t-296.5 -119q-164 0 -258 105h-4v-316q0 -57 -29.5 -88.5t-83.5 -31.5t-83 31.5t-29 88.5v840q0 212 118.5 332.5t327.5 120.5zM780 424v170q0 126 -57 193t-164 67t-164 -67t-57 -193v-170
q0 -117 58.5 -181.5t162.5 -64.5q106 0 163.5 64.5t57.5 181.5zM559 1462q59 0 94 -33t35 -88v-30q0 -54 -35 -86.5t-94 -32.5t-94 32.5t-35 86.5v30q0 55 35 88t94 33z" />
    <glyph glyph-name="uni1E60" unicode="&#x1e60;" horiz-adv-x="1173" 
d="M356 971q0 -81 62 -120t223 -52q248 -22 353.5 -117.5t105.5 -296.5q0 -185 -134 -297.5t-354 -112.5q-366 0 -508 236q-20 33 -20 76q0 50 32.5 83t84.5 33q63 0 102 -59q45 -72 126 -110.5t181 -38.5q109 0 175.5 52.5t66.5 139.5q0 89 -65 131t-234 57
q-243 23 -345 116t-102 282q0 183 133 293t353 110q151 0 264.5 -51t179.5 -149q21 -30 21 -70q0 -52 -33 -84.5t-86 -32.5q-55 0 -88 41q-106 127 -270 127q-101 0 -162.5 -50.5t-61.5 -135.5zM586 1761q59 0 94 -33t35 -88v-30q0 -54 -35 -86.5t-94 -32.5t-94 32.5
t-35 86.5v30q0 55 35 88t94 33z" />
    <glyph glyph-name="uni1E61" unicode="&#x1e61;" horiz-adv-x="966" 
d="M899 301q0 -152 -111.5 -239t-306.5 -87q-128 0 -231.5 42t-157.5 114q-26 37 -26 74q0 50 29.5 80t78.5 30q46 0 80 -34q57 -57 111.5 -81t126.5 -24q89 0 138.5 33.5t49.5 93.5q0 54 -46.5 79.5t-168.5 31.5q-203 10 -292 86.5t-89 232.5q0 151 110.5 237.5t301.5 86.5
q110 0 200 -35.5t142 -99.5q26 -33 26 -72q0 -51 -29.5 -81t-80.5 -30q-46 0 -86 43q-65 74 -187 74q-85 0 -130.5 -32.5t-45.5 -92.5q0 -55 46.5 -79.5t168.5 -30.5q202 -10 290.5 -86.5t88.5 -233.5zM492 1462q59 0 94 -33t35 -88v-30q0 -54 -35 -86.5t-94 -32.5
t-94.5 32.5t-35.5 86.5v30q0 55 35.5 88t94.5 33z" />
    <glyph glyph-name="uni1E6A" unicode="&#x1e6a;" horiz-adv-x="1097" 
d="M137 1352h821q55 0 86 -29t31 -80q0 -52 -30.5 -81t-86.5 -29h-284v-1014q0 -61 -33 -96t-92 -35t-92 35t-33 96v1014h-287q-54 0 -84 29t-30 81q0 51 30 80t84 29zM549 1761q59 0 94 -33t35 -88v-30q0 -54 -35 -86.5t-94 -32.5t-94 32.5t-35 86.5v30q0 55 35 88t94 33z
" />
    <glyph glyph-name="uni1E6B" unicode="&#x1e6b;" horiz-adv-x="815" 
d="M788 168q0 -32 -14 -57q-34 -63 -107.5 -99.5t-170.5 -36.5q-154 0 -237 81.5t-83 236.5v543h-63q-48 0 -76.5 26.5t-28.5 71.5t28.5 71.5t76.5 26.5h63v182q0 57 30.5 88t84.5 31q53 0 81.5 -31t28.5 -88v-182h261q49 0 77.5 -26t28.5 -72t-28.5 -72t-77.5 -26h-261
v-543q0 -55 26.5 -85t76.5 -30q32 0 55.5 14.5t48.5 45.5q27 34 78 34q47 0 74.5 -28.5t27.5 -75.5zM291 1751q59 0 94 -33t35 -88v-31q0 -54 -35 -86t-94 -32t-94 32t-35 86v31q0 55 35 88t94 33z" />
    <glyph glyph-name="Wgrave" unicode="&#x1e80;" horiz-adv-x="1933" 
d="M1749 1364q54 0 86.5 -32.5t32.5 -86.5q0 -23 -6 -41l-375 -1120q-33 -96 -127 -96q-96 0 -129 96l-262 784h-4l-260 -784q-33 -96 -130 -96q-93 0 -126 96l-375 1104q-8 24 -8 51q0 57 34 91t90 34q90 0 117 -82l273 -852h4l266 842q13 44 46.5 68t76.5 24q42 0 75 -25
t46 -67l270 -842h4l268 854q11 36 40.5 58t72.5 22zM702 1702q0 41 29 69.5t70 28.5q43 0 80 -37l155 -157q25 -25 25 -64q0 -36 -25 -61t-61 -25q-32 0 -60 21l-170 139q-43 34 -43 86z" />
    <glyph glyph-name="wgrave" unicode="&#x1e81;" horiz-adv-x="1591" 
d="M1434 1044q53 0 83.5 -28t30.5 -82q0 -23 -10 -53l-301 -811q-12 -36 -43.5 -59t-71.5 -23t-72 23t-44 59l-209 567h-4l-209 -567q-12 -36 -43.5 -59t-71.5 -23q-41 0 -73 23t-44 59l-303 817q-6 14 -6 43q0 53 31.5 83.5t85.5 30.5q79 0 100 -67l209 -627h4l223 621
q25 73 105 73q79 0 104 -73l221 -623h4l207 629q23 67 97 67zM530 1403q0 41 29 69.5t70 28.5q43 0 80 -37l155 -157q25 -25 25 -64q0 -36 -25 -61t-61 -25q-32 0 -60 21l-170 139q-43 34 -43 86z" />
    <glyph glyph-name="Wacute" unicode="&#x1e82;" horiz-adv-x="1933" 
d="M1749 1364q54 0 86.5 -32.5t32.5 -86.5q0 -23 -6 -41l-375 -1120q-33 -96 -127 -96q-96 0 -129 96l-262 784h-4l-260 -784q-33 -96 -130 -96q-93 0 -126 96l-375 1104q-8 24 -8 51q0 57 34 91t90 34q90 0 117 -82l273 -852h4l266 842q13 44 46.5 68t76.5 24q42 0 75 -25
t46 -67l270 -842h4l268 854q11 36 40.5 58t72.5 22zM1227 1702q0 -52 -43 -86l-170 -139q-28 -21 -60 -21q-36 0 -61 25t-25 61q0 39 25 64l156 157q37 37 79 37q41 0 70 -28.5t29 -69.5z" />
    <glyph glyph-name="wacute" unicode="&#x1e83;" horiz-adv-x="1591" 
d="M1434 1044q53 0 83.5 -28t30.5 -82q0 -23 -10 -53l-301 -811q-12 -36 -43.5 -59t-71.5 -23t-72 23t-44 59l-209 567h-4l-209 -567q-12 -36 -43.5 -59t-71.5 -23q-41 0 -73 23t-44 59l-303 817q-6 14 -6 43q0 53 31.5 83.5t85.5 30.5q79 0 100 -67l209 -627h4l223 621
q25 73 105 73q79 0 104 -73l221 -623h4l207 629q23 67 97 67zM1055 1403q0 -52 -43 -86l-170 -139q-28 -21 -60 -21q-36 0 -61 25t-25 61q0 39 25 64l156 157q37 37 79 37q41 0 70 -28.5t29 -69.5z" />
    <glyph glyph-name="Wdieresis" unicode="&#x1e84;" horiz-adv-x="1933" 
d="M1749 1364q54 0 86.5 -32.5t32.5 -86.5q0 -23 -6 -41l-375 -1120q-33 -96 -127 -96q-96 0 -129 96l-262 784h-4l-260 -784q-33 -96 -130 -96q-93 0 -126 96l-375 1104q-8 24 -8 51q0 57 34 91t90 34q90 0 117 -82l273 -852h4l266 842q13 44 46.5 68t76.5 24q42 0 75 -25
t46 -67l270 -842h4l268 854q11 36 40.5 58t72.5 22zM778 1755q55 0 88 -31t33 -84v-28q0 -53 -33 -84t-88 -31q-57 0 -90 31t-33 84v28q0 53 33 84t90 31zM1155 1755q57 0 90 -31t33 -84v-28q0 -53 -33 -84t-90 -31q-55 0 -88 31t-33 84v28q0 53 33 84t88 31z" />
    <glyph glyph-name="wdieresis" unicode="&#x1e85;" horiz-adv-x="1591" 
d="M1434 1044q53 0 83.5 -28t30.5 -82q0 -23 -10 -53l-301 -811q-12 -36 -43.5 -59t-71.5 -23t-72 23t-44 59l-209 567h-4l-209 -567q-12 -36 -43.5 -59t-71.5 -23q-41 0 -73 23t-44 59l-303 817q-6 14 -6 43q0 53 31.5 83.5t85.5 30.5q79 0 100 -67l209 -627h4l223 621
q25 73 105 73q79 0 104 -73l221 -623h4l207 629q23 67 97 67zM606 1456q55 0 88 -31t33 -84v-28q0 -53 -33 -84t-88 -31q-57 0 -90 31t-33 84v28q0 53 33 84t90 31zM983 1456q57 0 90 -31t33 -84v-28q0 -53 -33 -84t-90 -31q-55 0 -88 31t-33 84v28q0 53 33 84t88 31z" />
    <glyph glyph-name="Ygrave" unicode="&#x1ef2;" horiz-adv-x="1181" 
d="M715 567v-448q0 -61 -33 -96t-92 -35t-92 35t-33 96v440l-410 604q-22 31 -22 76q0 57 34.5 91t90.5 34q66 0 98 -53l338 -523l340 525q31 51 96 51q54 0 86.5 -31.5t32.5 -85.5q0 -37 -25 -78zM326 1702q0 41 28.5 69.5t69.5 28.5q43 0 80 -37l155 -157q25 -25 25 -64
q0 -36 -25 -61t-61 -25q-31 0 -59 21l-170 139q-43 34 -43 86z" />
    <glyph glyph-name="ygrave" unicode="&#x1ef3;" horiz-adv-x="1030" 
d="M881 1044q51 0 79.5 -28t28.5 -80q0 -28 -8 -49l-528 -1184q-27 -59 -101 -59q-52 0 -82 30.5t-30 85.5q0 33 16 62l137 270l-342 785q-10 23 -10 49q0 55 30 86.5t81 31.5q80 0 108 -69l254 -608h4l264 616q25 61 99 61zM248 1403q0 41 28.5 69.5t69.5 28.5q43 0 80 -37
l156 -157q24 -24 24 -64q0 -36 -25 -61t-61 -25q-31 0 -59 21l-170 139q-43 34 -43 86z" />
    <glyph glyph-name="uni2007" unicode="&#x2007;" horiz-adv-x="1161" 
 />
    <glyph glyph-name="figuredash" unicode="&#x2012;" horiz-adv-x="1161" 
d="M170 774h821q48 0 76.5 -26.5t28.5 -71.5t-28.5 -71.5t-76.5 -26.5h-821q-48 0 -76 26.5t-28 71.5t28 71.5t76 26.5z" />
    <glyph glyph-name="endash" unicode="&#x2013;" horiz-adv-x="983" 
d="M170 657h643q48 0 76.5 -26.5t28.5 -71.5t-28.5 -71.5t-76.5 -26.5h-643q-48 0 -76 26.5t-28 71.5t28 71.5t76 26.5z" />
    <glyph glyph-name="emdash" unicode="&#x2014;" horiz-adv-x="1638" 
d="M170 657h1298q48 0 76.5 -26.5t28.5 -71.5t-28.5 -71.5t-76.5 -26.5h-1298q-48 0 -76 26.5t-28 71.5t28 71.5t76 26.5z" />
    <glyph glyph-name="quoteleft" unicode="&#x2018;" horiz-adv-x="565" 
d="M102 965q0 33 19 67l164 281q30 51 84 51q41 0 66.5 -26t25.5 -66q0 -17 -6 -35l-115 -313q-31 -82 -115 -82q-55 0 -89 35t-34 88z" />
    <glyph glyph-name="quoteright" unicode="&#x2019;" horiz-adv-x="565" 
d="M463 1241q0 -33 -19 -67l-163 -281q-30 -51 -84 -51q-41 0 -67 26t-26 66q0 14 7 35l114 313q31 82 115 82q55 0 89 -35t34 -88z" />
    <glyph glyph-name="quotesinglbase" unicode="&#x201a;" horiz-adv-x="516" 
d="M383 141q0 -35 -18 -67l-164 -281q-30 -51 -84 -51q-41 0 -66.5 26t-25.5 66q0 17 6 35l114 313q31 82 115 82q55 0 89 -35t34 -88z" />
    <glyph glyph-name="quotedblleft" unicode="&#x201c;" horiz-adv-x="952" 
d="M492 965q0 35 18 67l164 281q30 51 84 51q41 0 66.5 -26t25.5 -66q0 -17 -6 -35l-115 -313q-31 -82 -115 -82q-55 0 -88.5 35t-33.5 88zM102 965q0 33 19 67l164 281q30 51 84 51q41 0 66.5 -26t25.5 -66q0 -17 -6 -35l-115 -313q-31 -82 -115 -82q-55 0 -89 35t-34 88z
" />
    <glyph glyph-name="quotedblright" unicode="&#x201d;" horiz-adv-x="952" 
d="M852 1241q0 -35 -18 -67l-164 -281q-30 -51 -84 -51q-41 0 -66.5 26t-25.5 66q0 17 6 35l114 313q31 82 115 82q55 0 89 -35t34 -88zM463 1241q0 -33 -19 -67l-163 -281q-30 -51 -84 -51q-41 0 -67 26t-26 66q0 14 7 35l114 313q31 82 115 82q55 0 89 -35t34 -88z" />
    <glyph glyph-name="quotedblbase" unicode="&#x201e;" horiz-adv-x="905" 
d="M772 141q0 -35 -18 -67l-164 -281q-30 -51 -84 -51q-41 0 -66.5 26t-25.5 66q0 17 6 35l115 313q31 82 114 82q55 0 89 -35t34 -88zM383 141q0 -35 -18 -67l-164 -281q-30 -51 -84 -51q-41 0 -66.5 26t-25.5 66q0 17 6 35l114 313q31 82 115 82q55 0 89 -35t34 -88z" />
    <glyph glyph-name="dagger" unicode="&#x2020;" horiz-adv-x="1028" 
d="M616 1030h246q47 0 74 -25t27 -69t-27 -69t-74 -25h-246v-887q0 -51 -26.5 -80t-75.5 -29t-76.5 29t-27.5 80v887h-246q-45 0 -71.5 25t-26.5 67q0 45 26.5 70.5t71.5 25.5h246v295q0 51 27.5 80t76.5 29t75.5 -29t26.5 -80v-295z" />
    <glyph glyph-name="daggerdbl" unicode="&#x2021;" horiz-adv-x="1028" 
d="M616 438h246q47 0 74 -24.5t27 -67.5q0 -46 -27 -71t-74 -25h-246v-295q0 -51 -26.5 -80t-75.5 -29t-76.5 29t-27.5 80v295h-246q-45 0 -71.5 25t-26.5 69t26.5 69t71.5 25h246v404h-246q-45 0 -71.5 25t-26.5 67q0 45 26.5 70.5t71.5 25.5h246v295q0 51 27.5 80t76.5 29
t75.5 -29t26.5 -80v-295h246q47 0 74 -25t27 -69t-27 -69t-74 -25h-246v-404z" />
    <glyph glyph-name="bullet" unicode="&#x2022;" horiz-adv-x="983" 
d="M492 274q-120 0 -202.5 83t-82.5 202q0 120 82.5 202.5t202.5 82.5t202 -82.5t82 -202.5q0 -119 -82 -202t-202 -83z" />
    <glyph glyph-name="ellipsis" unicode="&#x2026;" horiz-adv-x="1638" 
d="M819 -12q-60 0 -98.5 39t-38.5 98q0 60 38.5 99.5t98.5 39.5t99.5 -39.5t39.5 -99.5q0 -59 -39.5 -98t-99.5 -39zM1358 -12q-60 0 -98.5 39t-38.5 98q0 60 38.5 99.5t98.5 39.5t99.5 -39.5t39.5 -99.5q0 -59 -39.5 -98t-99.5 -39zM279 -12q-60 0 -99 39t-39 98
q0 60 39 99.5t99 39.5t99.5 -39.5t39.5 -99.5q0 -59 -39.5 -98t-99.5 -39z" />
    <glyph glyph-name="perthousand" unicode="&#x2030;" horiz-adv-x="1931" 
d="M1319 254v43q0 132 73 206.5t203 74.5t202.5 -74.5t72.5 -206.5v-43q0 -131 -72.5 -205t-202.5 -74t-203 74t-73 205zM1704 262v29q0 135 -109 135q-57 0 -83.5 -33t-26.5 -102v-29q0 -71 26.5 -103t83.5 -32q56 0 82.5 32t26.5 103zM248 115l665 1208q24 43 70 43
q35 0 58.5 -22.5t23.5 -57.5q0 -24 -14 -49l-668 -1208q-24 -43 -70 -43q-35 0 -58.5 22.5t-23.5 57.5q0 18 17 49zM59 1053v43q0 132 73 206t204 74q130 0 202 -74t72 -206v-43q0 -131 -72 -205t-202 -74t-203.5 74t-73.5 205zM444 1061v29q0 69 -26.5 102t-81.5 33
q-57 0 -84 -33t-27 -102v-29q0 -71 26.5 -103t84.5 -32q56 0 82 32t26 103zM686 254v43q0 132 73.5 206.5t203.5 74.5t202 -74.5t72 -206.5v-43q0 -131 -72 -205t-202 -74t-203.5 74t-73.5 205zM1071 262v29q0 69 -26.5 102t-81.5 33q-57 0 -84 -33t-27 -102v-29
q0 -71 26.5 -103t84.5 -32q56 0 82 32t26 103z" />
    <glyph glyph-name="guilsinglleft" unicode="&#x2039;" horiz-adv-x="649" 
d="M274 516l277 -272q37 -37 37 -78q0 -44 -28.5 -72t-72.5 -28q-41 0 -77 36l-332 330q-37 37 -37 84q0 49 37 86l332 330q35 35 77 35q44 0 72.5 -28.5t28.5 -72.5q0 -41 -37 -78z" />
    <glyph glyph-name="guilsinglright" unicode="&#x203a;" horiz-adv-x="649" 
d="M375 516l-277 272q-37 37 -37 78q0 44 28.5 72.5t72.5 28.5q41 0 78 -37l331 -330q37 -37 37 -84q0 -49 -37 -86l-331 -330q-34 -34 -78 -34t-72.5 28t-28.5 72q0 41 37 78z" />
    <glyph glyph-name="fraction" unicode="&#x2044;" horiz-adv-x="272" 
d="M-266 115l667 1208q24 43 70 43q36 0 59 -20.5t23 -55.5q0 -26 -14 -53l-668 -1208q-24 -43 -70 -43q-36 0 -59 20t-23 55q0 25 15 54z" />
    <glyph glyph-name="zerosuperior" unicode="&#x2070;" 
d="M70 1065v270q0 140 77 218.5t215 78.5t214.5 -78.5t76.5 -218.5v-270q0 -140 -76.5 -218.5t-214.5 -78.5t-215 78.5t-77 218.5zM492 1071v256q0 76 -33.5 116t-96.5 40t-97 -40t-34 -116v-256q0 -75 34 -114t97 -39t96.5 39t33.5 114z" />
    <glyph glyph-name="foursuperior" unicode="&#x2074;" 
d="M592 1112h31q34 0 53.5 -20.5t19.5 -55.5q0 -34 -19.5 -53.5t-53.5 -19.5h-31v-103q0 -40 -22 -63t-60 -23q-37 0 -58.5 23t-21.5 63v103h-293q-40 0 -62 21t-22 60q0 34 21 64l321 459q42 59 105 59q41 0 66.5 -24t25.5 -64v-426zM430 1378h-4l-180 -266h184v266z" />
    <glyph glyph-name="fivesuperior" unicode="&#x2075;" 
d="M393 1335q123 0 192.5 -75t69.5 -207q0 -130 -79.5 -207.5t-213.5 -77.5q-92 0 -162 36t-102 101q-10 20 -10 43q0 35 21.5 57.5t56.5 22.5q44 0 67 -41q40 -69 132 -69q60 0 94.5 35.5t34.5 99.5q0 63 -35 98t-97 35q-64 0 -137 -51q-19 -13 -49 -13q-35 0 -54.5 19.5
t-19.5 56.5v8l19 328q2 38 23.5 61t58.5 23h342q34 0 53.5 -20t19.5 -54q0 -35 -19.5 -55.5t-53.5 -20.5h-275l-8 -172h4q55 39 127 39z" />
    <glyph glyph-name="sixsuperior" unicode="&#x2076;" 
d="M401 1325q122 0 192.5 -74.5t70.5 -203.5q0 -126 -79 -202.5t-212 -76.5q-138 0 -215.5 78.5t-77.5 218.5v266q0 141 79 221t218 80q165 0 241 -98q19 -27 19 -53q0 -35 -21.5 -57.5t-56.5 -22.5q-34 0 -59 29q-44 53 -121 53q-67 0 -102 -40.5t-35 -117.5v-55h4
q61 55 155 55zM373 918q60 0 94.5 34t34.5 95q0 60 -34.5 94.5t-94.5 34.5q-61 0 -96 -34.5t-35 -94.5q0 -62 34 -95.5t97 -33.5z" />
    <glyph glyph-name="sevensuperior" unicode="&#x2077;" 
d="M657 1468l-352 -647q-24 -47 -74 -47q-38 0 -61 22.5t-23 59.5q0 27 15 53l313 559h-342q-33 0 -53.5 21.5t-20.5 56.5q0 32 21 52t53 20h447q43 0 68.5 -23.5t25.5 -64.5q0 -27 -17 -62z" />
    <glyph glyph-name="eightsuperior" unicode="&#x2078;" 
d="M539 1223v-4q131 -56 131 -199q0 -120 -81.5 -186t-226.5 -66q-146 0 -226.5 66t-80.5 186q0 143 131 199v4q-110 49 -110 174q0 112 74.5 173.5t211.5 61.5q136 0 211.5 -61.5t75.5 -173.5q0 -125 -110 -174zM362 1483q-60 0 -92 -26.5t-32 -74.5q0 -46 32.5 -72
t91.5 -26q60 0 92.5 26t32.5 72q0 48 -32.5 74.5t-92.5 26.5zM362 918q70 0 108 28t38 82q0 52 -38.5 80.5t-107.5 28.5q-70 0 -107.5 -28t-37.5 -81q0 -110 145 -110z" />
    <glyph glyph-name="ninesuperior" unicode="&#x2079;" 
d="M352 1632q138 0 215.5 -78.5t77.5 -218.5v-266q0 -141 -79 -221t-218 -80q-166 0 -242 98q-18 25 -18 54q0 35 21.5 57t56.5 22q34 0 59 -28q44 -53 121 -53q67 0 102 40t35 117v55h-4q-61 -55 -155 -55q-122 0 -192.5 75t-70.5 204q0 126 79 202t212 76zM352 1225
q61 0 96 34.5t35 94.5q0 62 -34 95.5t-97 33.5q-60 0 -94.5 -34t-34.5 -95q0 -60 34.5 -94.5t94.5 -34.5z" />
    <glyph glyph-name="zeroinferior" unicode="&#x2080;" 
d="M70 -61v270q0 140 77 218.5t215 78.5t214.5 -78.5t76.5 -218.5v-270q0 -140 -76.5 -218.5t-214.5 -78.5t-215 78.5t-77 218.5zM492 -55v256q0 76 -33.5 115.5t-96.5 39.5t-97 -39.5t-34 -115.5v-256q0 -75 34 -114.5t97 -39.5t96.5 39.5t33.5 114.5z" />
    <glyph glyph-name="oneinferior" unicode="&#x2081;" 
d="M498 -195h104q34 0 54 -20t20 -55q0 -34 -20 -54t-54 -20h-385q-34 0 -54 20t-20 54t20 54.5t54 20.5h119v537h-119q-34 0 -54 21t-20 57q0 34 20 53t54 19h199q37 0 59.5 -23t22.5 -61v-603z" />
    <glyph glyph-name="twoinferior" unicode="&#x2082;" 
d="M254 -195h309q34 0 54 -20t20 -55q0 -34 -20 -54t-54 -20h-387q-38 0 -61 23t-23 61v16q0 138 56 220t190 128q82 29 114.5 62.5t32.5 85.5q0 104 -106 104q-76 0 -127 -75q-24 -35 -66 -35q-35 0 -57.5 22.5t-22.5 57.5q0 22 13 45q37 64 105 99.5t155 35.5
q129 0 198.5 -65.5t69.5 -188.5q0 -105 -50.5 -168t-170.5 -104q-98 -33 -135 -72t-37 -103z" />
    <glyph glyph-name="threeinferior" unicode="&#x2083;" 
d="M526 98v-4q123 -51 123 -194q0 -123 -76.5 -190.5t-214.5 -67.5q-93 0 -163.5 37t-102.5 102q-10 20 -10 45q0 35 22 56.5t56 21.5q42 0 65 -37q48 -76 140 -76q58 0 90 29.5t32 83.5q0 52 -32.5 80t-92.5 28h-59q-34 0 -54 20t-20 54q0 32 20 52t54 20h41q125 0 125 100
q0 47 -27.5 72.5t-79.5 25.5q-72 0 -124 -73q-23 -33 -66 -33q-35 0 -56.5 23t-21.5 59q0 24 12 45q37 60 104 94.5t148 34.5q130 0 201.5 -61.5t71.5 -174.5q0 -122 -105 -172z" />
    <glyph glyph-name="fourinferior" unicode="&#x2084;" 
d="M592 -14h31q34 0 53.5 -20.5t19.5 -55.5q0 -34 -19.5 -54t-53.5 -20h-31v-102q0 -40 -22 -63t-60 -23q-37 0 -58.5 23t-21.5 63v102h-293q-40 0 -62 21t-22 61q0 34 21 64l321 458q42 60 105 60q41 0 66.5 -24t25.5 -64v-426zM430 252h-4l-180 -266h184v266z" />
    <glyph glyph-name="fiveinferior" unicode="&#x2085;" 
d="M393 209q123 0 192.5 -75.5t69.5 -207.5q0 -130 -79.5 -207t-213.5 -77q-92 0 -162 36t-102 101q-10 20 -10 43q0 35 21.5 57.5t56.5 22.5q44 0 67 -41q40 -70 132 -70q60 0 94.5 35.5t34.5 99.5q0 63 -35 98t-97 35q-64 0 -137 -51q-18 -12 -49 -12q-35 0 -54.5 19.5
t-19.5 56.5v8l19 328q2 38 23.5 61t58.5 23h342q34 0 53.5 -20t19.5 -54q0 -35 -19.5 -55.5t-53.5 -20.5h-275l-8 -172h4q55 39 127 39z" />
    <glyph glyph-name="sixinferior" unicode="&#x2086;" 
d="M401 199q122 0 192.5 -75t70.5 -204q0 -126 -79 -202t-212 -76q-138 0 -215.5 78.5t-77.5 218.5v266q0 141 79 221t218 80q165 0 241 -98q19 -27 19 -54q0 -35 -21.5 -57.5t-56.5 -22.5q-34 0 -59 29q-44 53 -121 53q-67 0 -102 -40t-35 -117v-56h4q62 56 155 56z
M373 -209q60 0 94.5 34t34.5 95q0 60 -34.5 94.5t-94.5 34.5q-61 0 -96 -34.5t-35 -94.5q0 -62 34 -95.5t97 -33.5z" />
    <glyph glyph-name="seveninferior" unicode="&#x2087;" 
d="M657 342l-352 -647q-24 -47 -74 -47q-38 0 -61 22.5t-23 59.5q0 27 15 53l313 559h-342q-33 0 -53.5 21.5t-20.5 56.5q0 32 21 52t53 20h447q43 0 68.5 -24t25.5 -65q0 -26 -17 -61z" />
    <glyph glyph-name="eightinferior" unicode="&#x2088;" 
d="M539 96v-4q131 -56 131 -198q0 -120 -81.5 -186t-226.5 -66q-146 0 -226.5 66t-80.5 186q0 142 131 198v4q-110 49 -110 174q0 113 75 174.5t211 61.5q135 0 211 -62t76 -174q0 -125 -110 -174zM362 356q-60 0 -92 -26t-32 -74q0 -46 32.5 -72t91.5 -26q60 0 92.5 26
t32.5 72q0 47 -32.5 73.5t-92.5 26.5zM362 -209q70 0 108 28.5t38 82.5q0 52 -38.5 80t-107.5 28q-70 0 -107.5 -27.5t-37.5 -80.5q0 -54 37 -82.5t108 -28.5z" />
    <glyph glyph-name="nineinferior" unicode="&#x2089;" 
d="M352 506q138 0 215.5 -78.5t77.5 -218.5v-266q0 -141 -79 -221t-218 -80q-166 0 -242 98q-18 25 -18 53q0 35 21.5 57.5t56.5 22.5q34 0 59 -29q44 -53 121 -53q67 0 102 40.5t35 117.5v55h-4q-61 -55 -155 -55q-122 0 -192.5 74.5t-70.5 203.5q0 126 79 202.5t212 76.5z
M352 98q61 0 96 34.5t35 94.5q0 62 -34 95.5t-97 33.5q-60 0 -94.5 -34t-34.5 -95q0 -60 34.5 -94.5t94.5 -34.5z" />
    <glyph glyph-name="Euro" unicode="&#x20ac;" horiz-adv-x="1161" 
d="M954 334q52 0 84.5 -32t32.5 -85q0 -38 -24 -72q-55 -80 -152.5 -125t-226.5 -45q-213 0 -337.5 120t-133.5 335h-29q-42 0 -67 23.5t-25 60.5q0 41 24.5 65.5t67.5 24.5h29v141h-29q-42 0 -67 23.5t-25 60.5q0 41 25 66t67 25h29q7 216 132 336t339 120q129 0 226.5 -45
t152.5 -125q24 -34 24 -71q0 -53 -32.5 -85t-84.5 -32t-96 51q-41 51 -88 72.5t-113 21.5q-100 0 -158.5 -64t-62.5 -179h365q43 0 67.5 -25t24.5 -66q0 -37 -25 -60.5t-67 -23.5h-365v-141h365q43 0 67.5 -24.5t24.5 -65.5q0 -37 -25 -60.5t-67 -23.5h-365
q4 -115 62.5 -178.5t158.5 -63.5q66 0 113 22t88 73q44 51 96 51z" />
    <glyph glyph-name="uni20B9" unicode="&#x20b9;" horiz-adv-x="1161" 
d="M936 1014h63q45 0 72 -27t27 -72q0 -41 -27 -65.5t-72 -24.5h-59q-44 -308 -434 -311v-4l418 -303q53 -37 53 -94q0 -58 -30.5 -91.5t-80.5 -33.5t-94 35l-565 454q-51 38 -51 96q0 50 30 77.5t80 27.5h183q199 0 243 147h-504q-45 0 -72.5 24.5t-27.5 65.5q0 45 27.5 72
t72.5 27h506q-43 147 -245 147h-261q-44 0 -72 25.5t-28 66.5q0 44 28 71.5t72 27.5h811q44 0 71.5 -27.5t27.5 -71.5q0 -41 -27.5 -66.5t-71.5 -25.5h-131v-4q50 -59 68 -143z" />
    <glyph glyph-name="uni2113" unicode="&#x2113;" horiz-adv-x="952" 
d="M770 287q49 0 83 -34.5t34 -82.5q0 -49 -35 -84q-111 -111 -293 -111q-157 0 -251 79.5t-111 224.5q-21 -7 -39 -7q-52 0 -81.5 31t-29.5 84q0 67 59 96q48 22 87 45v461q0 189 86 288t251 99q154 0 242 -91t88 -249q0 -349 -428 -626v-62q0 -160 123 -160q65 0 131 60
q42 39 84 39zM530 1163q-98 0 -98 -164v-309h2q189 168 189 344q0 63 -24 96t-69 33z" />
    <glyph glyph-name="uni2117" unicode="&#x2117;" horiz-adv-x="1540" 
d="M770 1376q147 0 276.5 -54t222.5 -147t147 -222.5t54 -276.5q0 -196 -91.5 -356.5t-252 -252.5t-356.5 -92t-356.5 92t-252 252.5t-91.5 356.5q0 147 54 276.5t147 222.5t222.5 147t276.5 54zM770 125q230 0 382.5 155.5t152.5 395.5t-152.5 395.5t-382.5 155.5
t-382 -155.5t-152 -395.5t152 -395.5t382 -155.5zM627 1034h207q125 0 189 -59t64 -174q0 -118 -64.5 -180t-188.5 -62h-129v-170q0 -40 -22 -62t-60 -22q-39 0 -61.5 22.5t-22.5 61.5v561q0 41 23 62.5t65 21.5zM705 709h108q109 0 109 92q0 38 -29 61t-80 23h-108v-176z
" />
    <glyph glyph-name="trademark" unicode="&#x2122;" horiz-adv-x="1576" 
d="M1376 1364q44 0 70.5 -26t26.5 -72v-545q0 -40 -22 -64t-60 -24q-40 0 -62 23.5t-22 64.5v319h-4l-132 -237q-22 -43 -71 -43q-51 0 -74 45l-135 239h-4v-327q0 -40 -20.5 -62t-57.5 -22t-58.5 22.5t-21.5 61.5v551q0 45 24.5 70.5t67.5 25.5q58 0 90 -55l193 -340
l184 340q28 55 88 55zM88 1352h453q35 0 56 -19t21 -53q0 -35 -20.5 -54.5t-56.5 -19.5h-144v-483q0 -41 -22 -64.5t-60 -23.5q-40 0 -62 23.5t-22 64.5v483h-143q-37 0 -57.5 19.5t-20.5 54.5q0 34 20.5 53t57.5 19z" />
    <glyph glyph-name="uni2126" unicode="&#x2126;" horiz-adv-x="1304" 
d="M1012 219h98q56 0 86.5 -29t30.5 -81q0 -51 -31 -80t-86 -29h-256q-56 0 -88.5 30.5t-32.5 82.5q0 73 55 112q80 55 120 140.5t40 224.5v229q0 161 -78.5 249.5t-218.5 88.5t-217.5 -88.5t-77.5 -249.5v-229q0 -140 39.5 -225.5t120.5 -141.5q55 -38 55 -110
q0 -52 -32 -82.5t-90 -30.5h-254q-55 0 -86 29t-31 80q0 52 30.5 81t86.5 29h98v4q-86 60 -136.5 166t-50.5 240v198q0 257 145 403t400 146q256 0 401.5 -146t145.5 -403v-198q0 -134 -50 -240t-136 -166v-4z" />
    <glyph glyph-name="estimated" unicode="&#x212e;" horiz-adv-x="1638" 
d="M369 225q86 -98 204 -153.5t250 -55.5q138 0 261.5 62.5t213.5 171.5h109q-105 -127 -259 -201t-329 -74q-201 0 -370.5 94t-268 255.5t-98.5 351.5q0 143 58 273t157 223.5t235.5 148.5t286.5 55t286.5 -55t235.5 -148.5t157 -223.5t58 -273v-17h-1196q-8 0 -8 -8v-385
q0 -16 17 -41zM360 696h918q12 0 12 13v385q0 25 -20 45q-89 92 -205 144t-242 52q-130 0 -247 -54.5t-207 -150.5q-17 -26 -17 -45v-376q0 -13 8 -13z" />
    <glyph glyph-name="onethird" unicode="&#x2153;" horiz-adv-x="1720" 
d="M483 115l668 1208q24 43 70 43q36 0 59 -20.5t23 -55.5q0 -24 -15 -53l-667 -1208q-24 -43 -70 -43q-36 0 -59 20t-23 55q0 27 14 54zM1522 442v-4q123 -51 123 -194q0 -123 -76.5 -190.5t-214.5 -67.5q-93 0 -164 37t-103 102q-10 20 -10 45q0 35 22 56.5t56 21.5
q43 0 66 -37q48 -76 139 -76q59 0 91 29.5t32 83.5q0 52 -32.5 80t-92.5 28h-60q-34 0 -53.5 20t-19.5 54q0 32 19.5 52t53.5 20h41q125 0 125 100q0 98 -106 98q-73 0 -125 -73q-23 -33 -66 -33q-35 0 -56 23t-21 59q0 24 12 45q37 60 104 94.5t148 34.5q130 0 201 -61.5
t71 -174.5q0 -123 -104 -172zM498 666h104q34 0 54 -20.5t20 -55.5q0 -34 -20 -54t-54 -20h-385q-34 0 -54 20t-20 54t20 55t54 21h119v536h-119q-34 0 -54 21t-20 57q0 34 20 53t54 19h199q37 0 59.5 -23t22.5 -61v-602z" />
    <glyph glyph-name="twothirds" unicode="&#x2154;" horiz-adv-x="1720" 
d="M459 115l667 1208q24 43 70 43q36 0 59 -20.5t23 -55.5q0 -26 -14 -53l-668 -1208q-24 -43 -70 -43q-36 0 -59 20t-23 55q0 25 15 54zM1522 442v-4q123 -51 123 -194q0 -123 -76.5 -190.5t-214.5 -67.5q-93 0 -164 37t-103 102q-10 20 -10 45q0 35 22 56.5t56 21.5
q43 0 66 -37q48 -76 139 -76q59 0 91 29.5t32 83.5q0 52 -32.5 80t-92.5 28h-60q-34 0 -53.5 20t-19.5 54q0 32 19.5 52t53.5 20h41q125 0 125 100q0 98 -106 98q-73 0 -125 -73q-23 -33 -66 -33q-35 0 -56 23t-21 59q0 24 12 45q37 60 104 94.5t148 34.5q130 0 201 -61.5
t71 -174.5q0 -123 -104 -172zM254 666h309q34 0 54 -20.5t20 -55.5q0 -34 -20 -54t-54 -20h-387q-38 0 -61 23t-23 61v16q0 138 56 220.5t190 128.5q82 29 114.5 62t32.5 85q0 105 -106 105q-76 0 -127 -76q-24 -35 -66 -35q-35 0 -57.5 22.5t-22.5 57.5q0 22 13 45
q37 64 105 99.5t155 35.5q129 0 198.5 -65.5t69.5 -188.5q0 -105 -50.5 -168t-170.5 -104q-98 -33 -135 -71.5t-37 -102.5z" />
    <glyph glyph-name="oneeighth" unicode="&#x215b;" horiz-adv-x="1720" 
d="M479 115l668 1208q24 43 70 43q36 0 58.5 -20.5t22.5 -55.5q0 -26 -14 -53l-668 -1208q-24 -43 -69 -43q-36 0 -59 20t-23 55q0 27 14 54zM1534 440v-4q131 -56 131 -198q0 -120 -81 -186t-226 -66q-146 0 -226.5 66t-80.5 186q0 142 131 198v4q-111 50 -111 174
q0 112 75 174t212 62q135 0 211 -62t76 -174q0 -124 -111 -174zM1358 700q-60 0 -92.5 -26.5t-32.5 -73.5q0 -46 32.5 -72t92.5 -26t92.5 26t32.5 72q0 47 -32.5 73.5t-92.5 26.5zM1358 135q69 0 107 28.5t38 82.5q0 52 -38 80t-107 28q-71 0 -108.5 -28t-37.5 -80
q0 -54 37.5 -82.5t108.5 -28.5zM498 666h104q34 0 54 -20.5t20 -55.5q0 -34 -20 -54t-54 -20h-385q-34 0 -54 20t-20 54t20 55t54 21h119v536h-119q-34 0 -54 21t-20 57q0 34 20 53t54 19h199q37 0 59.5 -23t22.5 -61v-602z" />
    <glyph glyph-name="threeeighths" unicode="&#x215c;" horiz-adv-x="1720" 
d="M459 115l667 1208q24 43 70 43q36 0 59 -20.5t23 -55.5q0 -26 -14 -53l-668 -1208q-24 -43 -70 -43q-36 0 -59 20t-23 55q0 25 15 54zM1534 440v-4q131 -56 131 -198q0 -120 -81 -186t-226 -66q-146 0 -226.5 66t-80.5 186q0 142 131 198v4q-111 50 -111 174
q0 112 75 174t212 62q135 0 211 -62t76 -174q0 -124 -111 -174zM1358 700q-60 0 -92.5 -26.5t-32.5 -73.5q0 -46 32.5 -72t92.5 -26t92.5 26t32.5 72q0 47 -32.5 73.5t-92.5 26.5zM1358 135q69 0 107 28.5t38 82.5q0 52 -38 80t-107 28q-71 0 -108.5 -28t-37.5 -80
q0 -54 37.5 -82.5t108.5 -28.5zM526 958v-4q123 -51 123 -194q0 -123 -76.5 -190.5t-214.5 -67.5q-93 0 -163.5 37t-102.5 102q-10 20 -10 45q0 35 22 56.5t56 21.5q42 0 65 -37q48 -76 140 -76q58 0 90 29.5t32 83.5q0 52 -32.5 80t-92.5 28h-59q-34 0 -54 20t-20 54
q0 32 20 52t54 20h41q125 0 125 100q0 48 -27.5 73.5t-79.5 25.5q-71 0 -124 -74q-23 -33 -66 -33q-35 0 -56.5 23t-21.5 59q0 24 12 45q37 60 104 94.5t148 34.5q130 0 201.5 -61.5t71.5 -174.5q0 -122 -105 -172z" />
    <glyph glyph-name="fiveeighths" unicode="&#x215d;" horiz-adv-x="1720" 
d="M459 115l667 1208q24 43 70 43q36 0 59 -20.5t23 -55.5q0 -26 -14 -53l-668 -1208q-24 -43 -70 -43q-36 0 -59 20t-23 55q0 25 15 54zM1534 440v-4q131 -56 131 -198q0 -120 -81 -186t-226 -66q-146 0 -226.5 66t-80.5 186q0 142 131 198v4q-111 50 -111 174
q0 112 75 174t212 62q135 0 211 -62t76 -174q0 -124 -111 -174zM1358 700q-60 0 -92.5 -26.5t-32.5 -73.5q0 -46 32.5 -72t92.5 -26t92.5 26t32.5 72q0 47 -32.5 73.5t-92.5 26.5zM1358 135q69 0 107 28.5t38 82.5q0 52 -38 80t-107 28q-71 0 -108.5 -28t-37.5 -80
q0 -54 37.5 -82.5t108.5 -28.5zM393 1069q123 0 192.5 -75.5t69.5 -207.5q0 -130 -79.5 -207t-213.5 -77q-92 0 -162 36t-102 101q-10 20 -10 43q0 35 21.5 57.5t56.5 22.5q44 0 67 -41q40 -70 132 -70q60 0 94.5 35.5t34.5 99.5q0 63 -35 98.5t-97 35.5q-63 0 -137 -52
q-18 -12 -49 -12q-35 0 -54.5 19.5t-19.5 56.5v8l19 328q2 38 23.5 61t58.5 23h342q34 0 53.5 -20t19.5 -54q0 -35 -19.5 -55.5t-53.5 -20.5h-275l-8 -172h4q55 39 127 39z" />
    <glyph glyph-name="seveneighths" unicode="&#x215e;" horiz-adv-x="1720" 
d="M377 115l667 1208q24 43 70 43q36 0 59 -20.5t23 -55.5q0 -26 -14 -53l-668 -1208q-24 -43 -70 -43q-36 0 -59 20t-23 55q0 25 15 54zM1534 440v-4q131 -56 131 -198q0 -120 -81 -186t-226 -66q-146 0 -226.5 66t-80.5 186q0 142 131 198v4q-111 50 -111 174
q0 112 75 174t212 62q135 0 211 -62t76 -174q0 -124 -111 -174zM1358 700q-60 0 -92.5 -26.5t-32.5 -73.5q0 -46 32.5 -72t92.5 -26t92.5 26t32.5 72q0 47 -32.5 73.5t-92.5 26.5zM1358 135q69 0 107 28.5t38 82.5q0 52 -38 80t-107 28q-71 0 -108.5 -28t-37.5 -80
q0 -54 37.5 -82.5t108.5 -28.5zM657 1202l-352 -647q-24 -47 -74 -47q-38 0 -61 22.5t-23 59.5q0 27 15 53l313 559h-342q-33 0 -53.5 21.5t-20.5 56.5q0 32 21 52t53 20h447q43 0 68.5 -23.5t25.5 -64.5q0 -27 -17 -62z" />
    <glyph glyph-name="partialdiff" unicode="&#x2202;" horiz-adv-x="1202" 
d="M602 1376q246 0 376 -157.5t130 -452.5q0 -67 -6 -133.5t-22.5 -146.5t-43 -150.5t-71 -138t-101.5 -115.5t-140 -77.5t-183 -29.5q-204 0 -330.5 122.5t-126.5 320.5q0 212 129 343.5t336 131.5t315 -127h4q0 201 -67 299t-205 98q-95 0 -178 -67q-34 -27 -76 -27
q-52 0 -83.5 31t-31.5 82q0 64 60 106q54 39 137 63.5t178 24.5zM543 188q207 0 288 273q-12 98 -81 158.5t-164 60.5q-122 0 -192 -70.5t-70 -187.5q0 -107 59.5 -170.5t159.5 -63.5z" />
    <glyph glyph-name="uni2206" unicode="&#x2206;" horiz-adv-x="1255" 
d="M766 1264l430 -1067q14 -38 14 -72q0 -57 -36 -91t-97 -34h-893q-64 0 -101.5 33t-37.5 90q0 36 14 76l430 1065q42 100 138 100q97 0 139 -100zM631 1001h-4l-299 -782h594z" />
    <glyph glyph-name="product" unicode="&#x220f;" horiz-adv-x="1337" 
d="M254 1352h829q63 0 97 -34t34 -97v-1274q0 -62 -32 -96.5t-90 -34.5q-59 0 -93 35t-34 96v1186h-592v-1186q0 -61 -34 -96t-93 -35q-58 0 -90.5 34.5t-32.5 96.5v1274q0 63 34 97t97 34z" />
    <glyph glyph-name="summation" unicode="&#x2211;" horiz-adv-x="1054" 
d="M387 47h541q53 0 83.5 -29t30.5 -81q0 -51 -30.5 -80t-83.5 -29h-760q-58 0 -91.5 31.5t-33.5 85.5q0 51 37 100l399 545l-399 545q-37 49 -37 100q0 54 33.5 85.5t91.5 31.5h760q53 0 83.5 -29t30.5 -80q0 -52 -30.5 -81t-83.5 -29h-541l318 -445q38 -55 38 -98t-30 -86
z" />
    <glyph glyph-name="minus" unicode="&#x2212;" horiz-adv-x="1161" 
d="M178 717h807q46 0 76.5 -29t30.5 -74t-30.5 -73.5t-76.5 -28.5h-807q-47 0 -76.5 28t-29.5 74t29.5 74.5t76.5 28.5z" />
    <glyph glyph-name="uni2219" unicode="&#x2219;" horiz-adv-x="516" 
d="M258 539q-60 0 -98.5 39t-38.5 98q0 60 38.5 99.5t98.5 39.5t99.5 -39.5t39.5 -99.5q0 -59 -39.5 -98t-99.5 -39z" />
    <glyph glyph-name="radical" unicode="&#x221a;" horiz-adv-x="1054" 
d="M924 1364q51 0 83.5 -28.5t32.5 -75.5q0 -24 -10 -54l-471 -1274q-22 -60 -56 -89t-87 -29q-106 0 -144 118l-186 594q-10 30 -10 60q0 51 36 80.5t89 29.5q38 0 66 -24t40 -66l115 -407h4l391 1085q13 39 42 59.5t65 20.5z" />
    <glyph glyph-name="infinity" unicode="&#x221e;" horiz-adv-x="1316" 
d="M956 926q129 0 210 -90.5t81 -235.5q0 -142 -81.5 -233t-209.5 -91q-97 0 -171.5 41t-139.5 129q-55 -89 -123 -129.5t-162 -40.5q-129 0 -210.5 90.5t-81.5 233.5q0 145 81.5 235.5t210.5 90.5q192 0 312 -174q53 89 121.5 131.5t162.5 42.5zM379 455q116 0 190 116
q-53 99 -95.5 138t-94.5 39q-60 0 -94.5 -39t-34.5 -107q0 -67 35 -107t94 -40zM938 455q59 0 93 39t34 106q0 68 -34.5 108t-94.5 40q-115 0 -188 -121q52 -94 95.5 -133t94.5 -39z" />
    <glyph glyph-name="integral" unicode="&#x222b;" horiz-adv-x="770" 
d="M649 1446q49 0 77 -26t28 -72t-28 -72.5t-77 -26.5q-83 0 -117 -51t-34 -188v-944q0 -229 -92 -332t-285 -103q-49 0 -77 26.5t-28 72.5t28 72t77 26q83 0 117 51.5t34 188.5v944q0 228 92.5 331t284.5 103z" />
    <glyph glyph-name="approxequal" unicode="&#x2248;" horiz-adv-x="1161" 
d="M768 870q74 0 133 84q30 41 84 41q46 0 75.5 -28.5t29.5 -75.5q0 -36 -25 -72q-121 -155 -301 -155q-59 0 -112.5 19.5t-123.5 66.5q-47 32 -74.5 43.5t-58.5 11.5q-40 0 -70.5 -19t-62.5 -65q-30 -41 -84 -41q-46 0 -75 28.5t-29 75.5q0 38 24 72q122 156 301 156
q58 0 110 -18.5t126 -67.5q47 -31 75.5 -43.5t57.5 -12.5zM768 424q74 0 133 84q30 41 84 41q46 0 75.5 -29t29.5 -76q0 -35 -25 -71q-122 -156 -301 -156q-59 0 -112.5 19.5t-123.5 66.5q-47 32 -74.5 43.5t-58.5 11.5q-40 0 -70.5 -19t-62.5 -65q-30 -41 -84 -41
q-46 0 -75 29t-29 76q0 38 24 72q121 155 301 155q58 0 110 -18.5t126 -67.5q46 -31 74.5 -43t58.5 -12z" />
    <glyph glyph-name="notequal" unicode="&#x2260;" horiz-adv-x="1161" 
d="M618 483h351q46 0 76 -28.5t30 -73.5t-30 -73.5t-76 -28.5h-463l-119 -211q-25 -45 -76 -45q-38 0 -64 24.5t-26 61.5q0 19 19 55l63 115h-108q-47 0 -77 28t-30 74t30 74t77 28h223l145 262h-368q-47 0 -77 28.5t-30 74.5t30 74t77 28h483l117 211q25 45 75 45
q38 0 64.5 -24.5t26.5 -61.5q0 -22 -17 -55l-63 -115h88q46 0 76 -28.5t30 -73.5t-30 -74t-76 -29h-203z" />
    <glyph glyph-name="lessequal" unicode="&#x2264;" horiz-adv-x="1161" 
d="M209 205h745q47 0 77 -28.5t30 -74.5t-30 -74t-77 -28h-745q-46 0 -76.5 28.5t-30.5 73.5t30.5 74t76.5 29zM432 739l563 -227q66 -26 66 -88q0 -53 -27 -84t-73 -31q-27 0 -56 13l-712 294q-91 38 -91 123t91 123l712 295q27 12 56 12q46 0 73 -31t27 -83q0 -62 -66 -88
z" />
    <glyph glyph-name="greaterequal" unicode="&#x2265;" horiz-adv-x="1161" 
d="M209 205h745q46 0 76.5 -29t30.5 -74t-30.5 -73.5t-76.5 -28.5h-745q-47 0 -77 28t-30 74t30 74.5t77 28.5zM731 739l-563 228q-66 26 -66 88q0 52 27.5 83t73.5 31q28 0 55 -12l713 -295q90 -38 90 -123t-90 -123l-713 -294q-29 -13 -55 -13q-46 0 -73.5 31.5
t-27.5 83.5q0 62 66 88z" />
    <glyph glyph-name="lozenge" unicode="&#x25ca;" horiz-adv-x="1142" 
d="M573 -25q-74 0 -118 70l-357 549q-26 42 -26 82t26 82l357 549q43 69 118 69q76 0 119 -69l357 -549q26 -42 26 -82t-26 -82l-357 -549q-44 -70 -119 -70zM846 676l-273 434l-272 -434l272 -434z" />
    <glyph glyph-name="uniE069" unicode="&#xe069;" horiz-adv-x="479" 
d="M240 1468q58 0 93.5 -33t35.5 -87v-43q0 -54 -35 -86.5t-94 -32.5t-94 32.5t-35 86.5v43q0 54 35.5 87t93.5 33zM240 1044q54 0 83 -31t29 -87v-817q0 -57 -29 -89t-83 -32t-83.5 32t-29.5 89v817q0 56 29.5 87t83.5 31z" />
    <glyph glyph-name="uniEF01" unicode="&#xef01;" horiz-adv-x="983" 
d="M293 -281l129 160q27 35 74 35q39 0 65.5 -28t26.5 -72q0 -39 -35 -74l-137 -133q-21 -21 -56 -21q-34 0 -59 25.5t-25 60.5q0 27 17 47z" />
    <glyph glyph-name="uniEF02" unicode="&#xef02;" horiz-adv-x="983" 
d="M602 1309l-51 -238q-7 -37 -30.5 -56.5t-55.5 -19.5q-41 0 -63.5 23.5t-22.5 62.5q0 7 4 43l29 219q5 41 29.5 66t66.5 25q45 0 71.5 -27t26.5 -64q0 -14 -4 -34z" />
    <glyph glyph-name="uniF8FF" unicode="&#xf8ff;" horiz-adv-x="2048" 
d="M899 430v107h-2l-35 -160h-47l57 258h56v-135h2l57 135h64l-58 -258h-49l35 160h-2l-45 -107h-33zM287 584l-35 -158q-8 -26 -19.5 -37.5t-31.5 -11.5h-95l58 258h88q37 0 37 -31q0 -8 -2 -20zM600 377h-49l12 53h-35l-14 -53h-49l47 211q9 47 53 47h45q37 0 37 -31
q0 -8 -2 -20zM1167 377h-49l12 53h-34l-15 -53h-49l47 211q9 47 54 47h45q36 0 36 -31q0 -8 -2 -20zM821 584l-22 -107q-8 -35 -27 -41l12 -59h-47l-8 53h-27l-12 -53h-49l57 258h88q37 0 37 -31q0 -8 -2 -20zM1731 584l-25 -109q-9 -45 -49 -45h-45l-13 -53h-49l58 258h88
q37 0 37 -31q0 -8 -2 -20zM477 635l-57 -258h-49l12 53h-37l-12 -53h-49l57 258h49l-37 -166h37l37 166h49zM1440 635h49l-35 -154q-1 -7 0.5 -9.5t7.5 -2.5h15q9 0 12 8l35 158h49l-35 -160q-9 -45 -49 -45l-29 -53h-49l29 53q-37 0 -37 31q0 10 2 20zM1845 496l-8 -39h-53
l-8 -41h67l-10 -39h-115l58 258h116l-10 -39h-65l-23 -100h51zM1374 596l-49 -219h-49l49 219h-39l8 39h125l-8 -39h-37zM205 596l-41 -180h26q10 0 13 10l35 158q2 12 -7 12h-26zM1659 477l22 107q1 7 -0.5 9.5t-7.5 2.5h-24l-29 -127h27q9 0 12 8zM750 477l22 107
q1 7 -0.5 9.5t-7.5 2.5h-25l-28 -127h26q10 0 13 8zM1155 596h-14q-11 0 -13 -10l-26 -117h37l24 115q1 7 -0.5 9.5t-7.5 2.5zM588 596h-15q-9 0 -12 -10l-26 -117h36l25 115q1 7 -0.5 9.5t-7.5 2.5zM2021 682v-61h-12v51h-2l-14 -41h-8l-15 41h-2v-51h-10v61h20l11 -33h2
l10 33h20zM1950 682v-10h-19v-51h-12v51h-16v10h47z" />
    <glyph glyph-name="zero.numr" 
d="M70 799v270q0 140 77 218.5t215 78.5t214.5 -78.5t76.5 -218.5v-270q0 -140 -76.5 -218.5t-214.5 -78.5t-215 78.5t-77 218.5zM492 805v256q0 76 -33.5 116t-96.5 40t-97 -40t-34 -116v-256q0 -75 34 -114.5t97 -39.5t96.5 39.5t33.5 114.5z" />
    <glyph glyph-name="one.numr" 
d="M498 666h104q34 0 54 -20.5t20 -55.5q0 -34 -20 -54t-54 -20h-385q-34 0 -54 20t-20 54t20 55t54 21h119v536h-119q-34 0 -54 21t-20 57q0 34 20 53t54 19h199q37 0 59.5 -23t22.5 -61v-602z" />
    <glyph glyph-name="two.numr" 
d="M254 666h309q34 0 54 -20.5t20 -55.5q0 -34 -20 -54t-54 -20h-387q-38 0 -61 23t-23 61v16q0 138 56 220.5t190 128.5q82 29 114.5 62t32.5 85q0 105 -106 105q-76 0 -127 -76q-24 -35 -66 -35q-35 0 -57.5 22.5t-22.5 57.5q0 22 13 45q37 64 105 99.5t155 35.5
q129 0 198.5 -65.5t69.5 -188.5q0 -105 -50.5 -168t-170.5 -104q-98 -33 -135 -71.5t-37 -102.5z" />
    <glyph glyph-name="three.numr" 
d="M526 958v-4q123 -51 123 -194q0 -123 -76.5 -190.5t-214.5 -67.5q-93 0 -163.5 37t-102.5 102q-10 20 -10 45q0 35 22 56.5t56 21.5q42 0 65 -37q48 -76 140 -76q58 0 90 29.5t32 83.5q0 52 -32.5 80t-92.5 28h-59q-34 0 -54 20t-20 54q0 32 20 52t54 20h41
q125 0 125 100q0 48 -27.5 73.5t-79.5 25.5q-71 0 -124 -74q-23 -33 -66 -33q-35 0 -56.5 23t-21.5 59q0 24 12 45q37 60 104 94.5t148 34.5q130 0 201.5 -61.5t71.5 -174.5q0 -122 -105 -172z" />
    <glyph glyph-name="four.numr" 
d="M592 846h31q34 0 53.5 -20.5t19.5 -55.5q0 -34 -19.5 -54t-53.5 -20h-31v-102q0 -40 -22 -63t-60 -23q-37 0 -58.5 23t-21.5 63v102h-293q-40 0 -62 21t-22 61q0 34 21 64l321 458q42 60 105 60q41 0 66.5 -24t25.5 -64v-426zM430 1112h-4l-180 -266h184v266z" />
    <glyph glyph-name="five.numr" 
d="M393 1069q123 0 192.5 -75.5t69.5 -207.5q0 -130 -79.5 -207t-213.5 -77q-92 0 -162 36t-102 101q-10 20 -10 43q0 35 21.5 57.5t56.5 22.5q44 0 67 -41q40 -70 132 -70q60 0 94.5 35.5t34.5 99.5q0 63 -35 98.5t-97 35.5q-63 0 -137 -52q-18 -12 -49 -12
q-35 0 -54.5 19.5t-19.5 56.5v8l19 328q2 38 23.5 61t58.5 23h342q34 0 53.5 -20t19.5 -54q0 -35 -19.5 -55.5t-53.5 -20.5h-275l-8 -172h4q55 39 127 39z" />
    <glyph glyph-name="six.numr" 
d="M401 1059q122 0 192.5 -75t70.5 -204q0 -126 -79 -202t-212 -76q-138 0 -215.5 78.5t-77.5 218.5v266q0 141 79 221t218 80q165 0 241 -98q19 -27 19 -54q0 -35 -21.5 -57t-56.5 -22t-59 28q-45 54 -121 54q-67 0 -102 -40.5t-35 -117.5v-55h4q61 55 155 55zM373 651
q60 0 94.5 34t34.5 95q0 60 -34.5 94.5t-94.5 34.5q-61 0 -96 -34.5t-35 -94.5q0 -62 34 -95.5t97 -33.5z" />
    <glyph glyph-name="seven.numr" 
d="M657 1202l-352 -647q-24 -47 -74 -47q-38 0 -61 22.5t-23 59.5q0 27 15 53l313 559h-342q-33 0 -53.5 21.5t-20.5 56.5q0 32 21 52t53 20h447q43 0 68.5 -23.5t25.5 -64.5q0 -27 -17 -62z" />
    <glyph glyph-name="eight.numr" 
d="M539 956v-4q131 -56 131 -198q0 -120 -81.5 -186t-226.5 -66q-146 0 -226.5 66t-80.5 186q0 142 131 198v4q-110 49 -110 174q0 113 75 174.5t211 61.5q135 0 211 -62t76 -174q0 -125 -110 -174zM362 1217q-60 0 -92 -26.5t-32 -74.5q0 -46 32.5 -72t91.5 -26
q60 0 92.5 26t32.5 72q0 48 -32.5 74.5t-92.5 26.5zM362 651q70 0 108 28.5t38 82.5q0 52 -38.5 80t-107.5 28q-70 0 -107.5 -27.5t-37.5 -80.5q0 -54 37 -82.5t108 -28.5z" />
    <glyph glyph-name="nine.numr" 
d="M352 1366q138 0 215.5 -78.5t77.5 -218.5v-266q0 -141 -79 -221t-218 -80q-166 0 -242 98q-18 25 -18 53q0 35 21.5 57.5t56.5 22.5q34 0 59 -28q45 -54 121 -54q67 0 102 40.5t35 117.5v55h-4q-61 -55 -155 -55q-122 0 -192.5 74.5t-70.5 203.5q0 126 79 202.5t212 76.5
zM352 958q61 0 96 34.5t35 94.5q0 62 -34 96t-97 34q-60 0 -94.5 -34.5t-34.5 -95.5q0 -60 34.5 -94.5t94.5 -34.5z" />
    <glyph glyph-name="zero.dnom" 
d="M70 283v270q0 140 77 218.5t215 78.5t214.5 -78.5t76.5 -218.5v-270q0 -140 -76.5 -218.5t-214.5 -78.5t-215 78.5t-77 218.5zM492 289v256q0 76 -33.5 115.5t-96.5 39.5t-97 -39.5t-34 -115.5v-256q0 -75 34 -114.5t97 -39.5t96.5 39.5t33.5 114.5z" />
    <glyph glyph-name="one.dnom" 
d="M498 150h104q34 0 54 -20.5t20 -55.5q0 -34 -20 -54t-54 -20h-385q-34 0 -54 20t-20 54t20 55t54 21h119v536h-119q-34 0 -54 21t-20 57q0 34 20 53t54 19h199q37 0 59.5 -23t22.5 -61v-602z" />
    <glyph glyph-name="two.dnom" 
d="M254 150h309q34 0 54 -20.5t20 -55.5q0 -34 -20 -54t-54 -20h-387q-38 0 -61 23t-23 61v16q0 138 56 220.5t190 128.5q82 29 114.5 62t32.5 85q0 104 -106 104q-76 0 -127 -75q-24 -35 -66 -35q-35 0 -57.5 22.5t-22.5 57.5q0 22 13 45q37 64 105 99.5t155 35.5
q129 0 198.5 -65.5t69.5 -188.5q0 -105 -50.5 -168t-170.5 -104q-98 -33 -135 -71.5t-37 -102.5z" />
    <glyph glyph-name="three.dnom" 
d="M526 442v-4q123 -51 123 -194q0 -123 -76.5 -190.5t-214.5 -67.5q-93 0 -163.5 37t-102.5 102q-10 20 -10 45q0 35 22 56.5t56 21.5q42 0 65 -37q48 -76 140 -76q58 0 90 29.5t32 83.5q0 52 -32.5 80t-92.5 28h-59q-34 0 -54 20t-20 54q0 32 20 52t54 20h41
q125 0 125 100q0 47 -27.5 72.5t-79.5 25.5q-72 0 -124 -73q-23 -33 -66 -33q-35 0 -56.5 23t-21.5 59q0 24 12 45q37 60 104 94.5t148 34.5q130 0 201.5 -61.5t71.5 -174.5q0 -122 -105 -172z" />
    <glyph glyph-name="four.dnom" 
d="M592 330h31q34 0 53.5 -20.5t19.5 -55.5q0 -34 -19.5 -54t-53.5 -20h-31v-102q0 -40 -22 -63t-60 -23q-37 0 -58.5 23t-21.5 63v102h-293q-40 0 -62 21t-22 61q0 34 21 64l321 458q42 60 105 60q41 0 66.5 -24t25.5 -64v-426zM430 596h-4l-180 -266h184v266z" />
    <glyph glyph-name="five.dnom" 
d="M393 553q123 0 192.5 -75.5t69.5 -207.5q0 -130 -79.5 -207t-213.5 -77q-92 0 -162 36t-102 101q-10 20 -10 43q0 35 21.5 57.5t56.5 22.5q44 0 67 -41q40 -70 132 -70q60 0 94.5 35.5t34.5 99.5q0 63 -35 98t-97 35q-64 0 -137 -51q-18 -12 -49 -12q-35 0 -54.5 19.5
t-19.5 56.5v8l19 328q2 38 23.5 61t58.5 23h342q34 0 53.5 -20t19.5 -54q0 -35 -19.5 -55.5t-53.5 -20.5h-275l-8 -172h4q55 39 127 39z" />
    <glyph glyph-name="six.dnom" 
d="M401 543q122 0 192.5 -75t70.5 -204q0 -126 -79 -202t-212 -76q-138 0 -215.5 78.5t-77.5 218.5v266q0 141 79 221t218 80q165 0 241 -98q19 -27 19 -54q0 -35 -21.5 -57.5t-56.5 -22.5q-34 0 -59 29q-44 53 -121 53q-67 0 -102 -40t-35 -117v-56h4q62 56 155 56z
M373 135q60 0 94.5 34t34.5 95q0 60 -34.5 94.5t-94.5 34.5q-61 0 -96 -34.5t-35 -94.5q0 -62 34 -95.5t97 -33.5z" />
    <glyph glyph-name="seven.dnom" 
d="M657 686l-352 -647q-24 -47 -74 -47q-38 0 -61 22.5t-23 59.5q0 27 15 53l313 559h-342q-33 0 -53.5 21.5t-20.5 56.5q0 32 21 52t53 20h447q43 0 68.5 -23.5t25.5 -64.5q0 -27 -17 -62z" />
    <glyph glyph-name="eight.dnom" 
d="M539 440v-4q131 -56 131 -198q0 -120 -81.5 -186t-226.5 -66q-146 0 -226.5 66t-80.5 186q0 142 131 198v4q-110 49 -110 174q0 113 75 174.5t211 61.5q135 0 211 -62t76 -174q0 -125 -110 -174zM362 700q-60 0 -92 -26t-32 -74q0 -46 32.5 -72t91.5 -26q60 0 92.5 26
t32.5 72q0 47 -32.5 73.5t-92.5 26.5zM362 135q70 0 108 28.5t38 82.5q0 52 -38.5 80t-107.5 28q-70 0 -107.5 -27.5t-37.5 -80.5q0 -54 37 -82.5t108 -28.5z" />
    <glyph glyph-name="nine.dnom" 
d="M352 850q138 0 215.5 -78.5t77.5 -218.5v-266q0 -141 -79 -221t-218 -80q-166 0 -242 98q-18 25 -18 53q0 35 21.5 57.5t56.5 22.5q34 0 59 -29q44 -53 121 -53q67 0 102 40.5t35 117.5v55h-4q-61 -55 -155 -55q-122 0 -192.5 74.5t-70.5 203.5q0 126 79 202.5t212 76.5z
M352 442q61 0 96 34.5t35 94.5q0 62 -34 95.5t-97 33.5q-60 0 -94.5 -34t-34.5 -95q0 -60 34.5 -94.5t94.5 -34.5z" />
    </font>
</defs>
</svg>
