<?xml version="1.0" standalone="no"?>
<!DOCTYPE svg PUBLIC "-//W3C//DTD SVG 1.1//EN" "http://www.w3.org/Graphics/SVG/1.1/DTD/svg11.dtd" >
<svg xmlns="http://www.w3.org/2000/svg" xmlns:xlink="http://www.w3.org/1999/xlink" version="1.1">
<metadata>
Created by FontForge 20170731 at Tue Mar  1 15:34:41 2022
 By Aleksey,,,
Copyright (c) 2014 by Ryoichi Tsunekawa. All rights reserved.
</metadata>
<defs>
<font id="Pero-ExtraBold" horiz-adv-x="724" >
  <font-face 
    font-family="Pero ExtraBold"
    font-weight="800"
    font-stretch="normal"
    units-per-em="2048"
    panose-1="2 15 8 4 2 2 3 3 3 4"
    ascent="1536"
    descent="-512"
    x-height="1036"
    cap-height="1364"
    bbox="-287 -414 2271 1880"
    underline-thickness="141"
    underline-position="-306"
    unicode-range="U+0020-FB04"
  />
<missing-glyph horiz-adv-x="1228" 
d="M94 0v1352h1049v-1352h-1049zM246 1268l372 -516l373 516h-745zM186 1196v-1040l377 520zM1051 156v1040l-377 -520zM618 600l-372 -516h745z" />
    <glyph glyph-name="ff" unicode="ff" horiz-adv-x="1378" 
d="M1147 1196q-90 0 -90 -121v-39h205q60 0 94.5 -32t34.5 -89t-34.5 -88.5t-94.5 -31.5h-205v-660q0 -69 -36.5 -108t-102.5 -39t-103 39t-37 108v660h-325v-660q0 -69 -37 -108t-103 -39t-102.5 39t-36.5 108v660h-41q-60 0 -94.5 31.5t-34.5 88.5t34.5 89t94.5 32h41
q0 179 105.5 284t289.5 105q188 0 295 -84q94 105 279 105q155 0 241 -70q52 -42 52 -100q0 -63 -36 -100t-93 -37q-43 0 -97 37q-29 20 -63 20zM778 1036v51q-46 99 -172 99q-73 0 -113 -39t-40 -111h325z" />
    <glyph glyph-name="fi" unicode="fi" horiz-adv-x="1175" 
d="M453 1036h465q66 0 102.5 -39t36.5 -108v-754q0 -69 -36.5 -108t-102.5 -39t-103 39t-37 108v660h-325v-660q0 -69 -37 -108t-103 -39t-102.5 39t-36.5 108v660h-41q-60 0 -94.5 31.5t-34.5 88.5t34.5 89t94.5 32h41q0 197 108.5 303.5t307.5 106.5q203 0 303 -80
q51 -38 51 -100q0 -63 -36 -100.5t-93 -37.5q-47 0 -90 29q-54 39 -131 39q-141 0 -141 -160z" />
    <glyph glyph-name="fl" unicode="fl" horiz-adv-x="1175" 
d="M979 1339q78 -60 78 -192v-1012q0 -69 -36.5 -108t-102.5 -39t-103 39t-37 108v1012q-56 59 -153 59q-160 0 -172 -170h122q60 0 95 -32t35 -89t-35 -88.5t-95 -31.5h-122v-660q0 -69 -37 -108t-103 -39t-102.5 39t-36.5 108v660h-41q-60 0 -94.5 31.5t-34.5 88.5
t34.5 89t94.5 32h41q6 201 119.5 305.5t327.5 104.5q220 0 358 -107z" />
    <glyph glyph-name="ffi" unicode="ffi" horiz-adv-x="1759" 
d="M453 1036h305q0 34 4 80q-51 70 -156 70q-73 0 -113 -39t-40 -111zM1640 889v-754q0 -69 -36.5 -108t-102.5 -39t-102.5 39t-36.5 108v660h-326v-660q0 -69 -36.5 -108t-102.5 -39t-102.5 39t-36.5 108v660h-305v-660q0 -69 -37 -108t-103 -39t-102.5 39t-36.5 108v660
h-41q-60 0 -94.5 31.5t-34.5 88.5t34.5 89t94.5 32h41q0 179 105.5 284t289.5 105q188 0 297 -86q107 107 308 107q203 0 303 -80q51 -38 51 -100q0 -63 -36 -100.5t-93 -37.5q-47 0 -90 29q-54 39 -131 39q-142 0 -142 -160h465q66 0 102.5 -39t36.5 -108z" />
    <glyph glyph-name="ffl" unicode="ffl" horiz-adv-x="1759" 
d="M1563 1339q77 -60 77 -192v-1012q0 -69 -36.5 -108t-102.5 -39t-102.5 39t-36.5 108v1012q-56 59 -154 59q-160 0 -172 -170h123q60 0 94.5 -32t34.5 -89t-34.5 -88.5t-94.5 -31.5h-123v-660q0 -69 -36.5 -108t-102.5 -39t-102.5 39t-36.5 108v660h-305v-660
q0 -69 -37 -108t-103 -39t-102.5 39t-36.5 108v660h-41q-60 0 -94.5 31.5t-34.5 88.5t34.5 89t94.5 32h41q0 179 105.5 284t289.5 105q194 0 301 -90q114 111 334 111q221 0 359 -107zM453 1036h305q0 44 6 78q-51 72 -158 72q-73 0 -113 -39t-40 -111z" />
    <glyph glyph-name="f_b" unicode="fb" horiz-adv-x="1777" 
d="M1284 1061q186 0 295 -118t109 -318v-195q0 -214 -120.5 -334.5t-334.5 -120.5t-334.5 120.5t-120.5 334.5v717q-56 59 -153 59q-160 0 -172 -170h122q60 0 95 -32t35 -89t-35 -88.5t-95 -31.5h-122v-660q0 -69 -37 -108t-103 -39t-102.5 39t-36.5 108v660h-41
q-60 0 -94.5 31.5t-34.5 88.5t34.5 89t94.5 32h41q6 201 119.5 305.5t327.5 104.5q220 0 358 -107q78 -60 78 -192v-164h4q87 78 223 78zM1409 440v174q0 94 -45.5 145.5t-130.5 51.5t-130.5 -51.5t-45.5 -145.5v-174q0 -215 176 -215t176 215z" />
    <glyph glyph-name="f_f_b" unicode="ffb" horiz-adv-x="2361" 
d="M453 1036h305q0 44 6 78q-51 72 -158 72q-73 0 -113 -39t-40 -111zM1362 430v717q-56 59 -154 59q-160 0 -172 -170h123q60 0 94.5 -32t34.5 -89t-34.5 -88.5t-94.5 -31.5h-123v-660q0 -69 -36.5 -108t-102.5 -39t-102.5 39t-36.5 108v660h-305v-660q0 -69 -37 -108
t-103 -39t-102.5 39t-36.5 108v660h-41q-60 0 -94.5 31.5t-34.5 88.5t34.5 89t94.5 32h41q0 179 105.5 284t289.5 105q194 0 301 -90q114 111 334 111q221 0 359 -107q77 -60 77 -192v-164h5q87 78 223 78q186 0 294.5 -118t108.5 -318v-195q0 -214 -120 -334.5t-334 -120.5
t-334.5 120.5t-120.5 334.5zM1993 440v174q0 94 -45.5 145.5t-130.5 51.5t-131 -51.5t-46 -145.5v-174q0 -215 177 -215q176 0 176 215z" />
    <glyph glyph-name="f_h" unicode="fh" horiz-adv-x="1771" 
d="M1057 1147v-164h4q87 78 223 78q180 0 281.5 -116t101.5 -320v-490q0 -69 -36.5 -108t-102.5 -39t-102.5 39t-36.5 108v479q0 97 -42 147t-124 50q-166 0 -166 -199v-477q0 -69 -36.5 -108t-102.5 -39t-103 39t-37 108v1012q-56 59 -153 59q-160 0 -172 -170h122
q60 0 95 -32t35 -89t-35 -88.5t-95 -31.5h-122v-660q0 -69 -37 -108t-103 -39t-102.5 39t-36.5 108v660h-41q-60 0 -94.5 31.5t-34.5 88.5t34.5 89t94.5 32h41q6 201 119.5 305.5t327.5 104.5q220 0 358 -107q78 -60 78 -192z" />
    <glyph glyph-name="f_f_h" unicode="ffh" horiz-adv-x="2355" 
d="M453 1036h305q0 44 6 78q-51 72 -158 72q-73 0 -113 -39t-40 -111zM1362 135v1012q-56 59 -154 59q-160 0 -172 -170h123q60 0 94.5 -32t34.5 -89t-34.5 -88.5t-94.5 -31.5h-123v-660q0 -69 -36.5 -108t-102.5 -39t-102.5 39t-36.5 108v660h-305v-660q0 -69 -37 -108
t-103 -39t-102.5 39t-36.5 108v660h-41q-60 0 -94.5 31.5t-34.5 88.5t34.5 89t94.5 32h41q0 179 105.5 284t289.5 105q194 0 301 -90q114 111 334 111q221 0 359 -107q77 -60 77 -192v-164h5q87 78 223 78q180 0 281.5 -116t101.5 -320v-490q0 -69 -37 -108t-103 -39
t-102.5 39t-36.5 108v479q0 97 -42 147t-124 50q-166 0 -166 -199v-477q0 -69 -36.5 -108t-102.5 -39t-102.5 39t-36.5 108z" />
    <glyph glyph-name="f_j" unicode="fj" horiz-adv-x="1175" 
d="M453 1036h465q66 0 102.5 -39t36.5 -108v-938q0 -151 -79.5 -235.5t-213.5 -84.5q-79 0 -126 14t-85 44q-47 37 -47 100q0 60 33.5 94.5t93.5 34.5q34 0 65.5 -18.5t49.5 -18.5q30 0 30 47v867h-325v-660q0 -69 -37 -108t-103 -39t-102.5 39t-36.5 108v660h-41
q-60 0 -94.5 31.5t-34.5 88.5t34.5 89t94.5 32h41q0 197 108.5 303.5t307.5 106.5q203 0 303 -80q51 -38 51 -100q0 -63 -36 -100.5t-93 -37.5q-47 0 -90 29q-54 39 -131 39q-141 0 -141 -160z" />
    <glyph glyph-name="f_f_j" unicode="ffj" horiz-adv-x="1759" 
d="M453 1036h305q0 34 4 80q-51 70 -156 70q-73 0 -113 -39t-40 -111zM1640 889v-938q0 -152 -79 -236t-213 -84q-79 0 -126 14t-85 44q-47 37 -47 100q0 60 33.5 94.5t93.5 34.5q34 0 65 -18.5t49 -18.5q31 0 31 47v867h-326v-660q0 -69 -36.5 -108t-102.5 -39t-102.5 39
t-36.5 108v660h-305v-660q0 -69 -37 -108t-103 -39t-102.5 39t-36.5 108v660h-41q-60 0 -94.5 31.5t-34.5 88.5t34.5 89t94.5 32h41q0 179 105.5 284t289.5 105q188 0 297 -86q107 107 308 107q203 0 303 -80q51 -38 51 -100q0 -63 -36 -100.5t-93 -37.5q-47 0 -90 29
q-54 39 -131 39q-142 0 -142 -160h465q66 0 102.5 -39t36.5 -108z" />
    <glyph glyph-name="f_k" unicode="fk" horiz-adv-x="1675" 
d="M778 1147q-56 59 -153 59q-160 0 -172 -170h122q60 0 95 -32t35 -89t-35 -88.5t-95 -31.5h-122v-660q0 -69 -37 -108t-103 -39t-102.5 39t-36.5 108v660h-41q-60 0 -94.5 31.5t-34.5 88.5t34.5 89t94.5 32h41q6 201 119.5 305.5t327.5 104.5q220 0 358 -107
q78 -60 78 -192v-485l327 344q40 43 101 43t99 -38t38 -100q0 -55 -45 -100l-297 -287l313 -291q49 -46 49 -106q0 -63 -38 -101t-101 -38q-60 0 -104 47l-342 356v-256q0 -69 -36.5 -108t-102.5 -39t-103 39t-37 108v1012z" />
    <glyph glyph-name="f_f_k" unicode="ffk" horiz-adv-x="2258" 
d="M453 1036h305q0 44 6 78q-51 72 -158 72q-73 0 -113 -39t-40 -111zM1362 135v1012q-56 59 -154 59q-160 0 -172 -170h123q60 0 94.5 -32t34.5 -89t-34.5 -88.5t-94.5 -31.5h-123v-660q0 -69 -36.5 -108t-102.5 -39t-102.5 39t-36.5 108v660h-305v-660q0 -69 -37 -108
t-103 -39t-102.5 39t-36.5 108v660h-41q-60 0 -94.5 31.5t-34.5 88.5t34.5 89t94.5 32h41q0 179 105.5 284t289.5 105q194 0 301 -90q114 111 334 111q221 0 359 -107q77 -60 77 -192v-485l328 344q40 43 100 43q62 0 100 -38.5t38 -99.5q0 -55 -45 -100l-297 -287l313 -291
q49 -46 49 -106q0 -63 -38 -101t-101 -38q-61 0 -105 47l-342 356v-256q0 -69 -36.5 -108t-102.5 -39t-102.5 39t-36.5 108z" />
    <glyph glyph-name="f_t" unicode="ft" horiz-adv-x="1427" 
d="M768 1036v101q-60 69 -168 69q-68 0 -107.5 -37.5t-39.5 -103.5v-29h315zM768 301v494h-315v-660q0 -69 -37 -108t-103 -39t-102.5 39t-36.5 108v660h-41q-60 0 -94.5 31.5t-34.5 88.5t34.5 89t94.5 32h41q0 194 108.5 302t307.5 108q294 0 418 -178q39 -55 39 -140v-92
h206q60 0 94.5 -32t34.5 -89t-34.5 -88.5t-94.5 -31.5h-206v-494q0 -76 63 -76q35 0 72 43q39 43 94 43q60 0 93.5 -35.5t33.5 -97.5q0 -37 -21 -72q-36 -61 -110 -96t-172 -35q-162 0 -247 82.5t-85 243.5z" />
    <glyph glyph-name="f_f_t" unicode="fft" horiz-adv-x="2031" 
d="M1880 311q60 0 93.5 -35.5t33.5 -97.5q0 -39 -20 -72q-36 -61 -110.5 -96t-172.5 -35q-162 0 -247 82.5t-85 243.5v494h-315v-660q0 -69 -36.5 -108t-102.5 -39t-103 39t-37 108v660h-325v-660q0 -69 -37 -108t-103 -39t-102.5 39t-36.5 108v660h-41q-60 0 -94.5 31.5
t-34.5 88.5t34.5 89t94.5 32h41q0 179 105.5 284t289.5 105q200 0 310 -96q108 117 315 117q294 0 418 -178q39 -55 39 -140v-92h207q60 0 94.5 -32t34.5 -89t-34.5 -88.5t-94.5 -31.5h-207v-494q0 -76 63 -76q35 0 72 43q39 43 94 43zM778 1036v51q-46 99 -172 99
q-73 0 -113 -39t-40 -111h325zM1372 1036v101q-60 69 -168 69q-68 0 -107.5 -37.5t-39.5 -103.5v-29h315z" />
    <glyph glyph-name=".notdef" horiz-adv-x="1228" 
d="M94 0v1352h1049v-1352h-1049zM246 1268l372 -516l373 516h-745zM186 1196v-1040l377 520zM1051 156v1040l-377 -520zM618 600l-372 -516h745z" />
    <glyph glyph-name=".null" horiz-adv-x="0" 
 />
    <glyph glyph-name="nonmarkingreturn" horiz-adv-x="682" 
 />
    <glyph glyph-name="space" unicode=" " horiz-adv-x="466" 
 />
    <glyph glyph-name="exclam" unicode="!" horiz-adv-x="561" 
d="M147 532l-28 662q0 78 43.5 124t118.5 46t118 -46t43 -124l-28 -662q-3 -67 -37 -104t-96 -37t-96.5 37t-37.5 104zM281 315q71 0 117 -46.5t46 -116.5q0 -71 -46.5 -117.5t-116.5 -46.5q-71 0 -117.5 47t-46.5 117t46.5 116.5t117.5 46.5z" />
    <glyph glyph-name="quotedbl" unicode="&#x22;" horiz-adv-x="915" 
d="M393 1221l-28 -414q-3 -48 -35.5 -80.5t-79.5 -32.5q-49 0 -81.5 32.5t-35.5 80.5l-24 414q0 62 40 102.5t101 40.5q62 0 102.5 -41t40.5 -102zM807 1221l-29 -414q-3 -48 -35 -80.5t-79 -32.5q-49 0 -81.5 32.5t-35.5 80.5l-25 414q0 62 40.5 102.5t101.5 40.5
q62 0 102.5 -41t40.5 -102z" />
    <glyph glyph-name="numbersign" unicode="#" horiz-adv-x="1163" 
d="M467 573h203l22 205h-203zM221 362h-63q-54 0 -84.5 28t-30.5 77q0 51 30.5 78.5t84.5 27.5h86l22 205h-63q-54 0 -84.5 28t-30.5 77q0 51 30.5 78.5t84.5 27.5h86l28 271q4 50 32.5 77t74.5 27q55 0 86 -29t31 -80q0 -16 -2 -32l-27 -234h203l28 271q4 50 32.5 77
t74.5 27q55 0 86 -29t31 -80q0 -16 -2 -32l-27 -234h68q54 0 84 -27.5t30 -78.5q0 -50 -30 -77.5t-84 -27.5h-91l-20 -205h66q54 0 84 -27.5t30 -78.5q0 -50 -30 -77.5t-84 -27.5h-91l-28 -270q-4 -50 -32.5 -77t-74.5 -27q-55 0 -86 28.5t-31 79.5q0 9 3 33l26 233h-203
l-28 -270q-4 -50 -32.5 -77t-74.5 -27q-55 0 -85.5 28.5t-30.5 79.5q0 17 2 33z" />
    <glyph glyph-name="dollar" unicode="$" horiz-adv-x="1163" 
d="M1059 422q0 -150 -91 -254.5t-245 -132.5v-60q0 -66 -35.5 -103.5t-99.5 -37.5q-63 0 -99 37.5t-36 103.5v60q-208 34 -312 170q-32 43 -32 90q0 65 39.5 104t103.5 39q62 0 110 -51q52 -55 108.5 -77.5t143.5 -22.5q68 0 109 37t41 98q0 62 -49.5 91t-179.5 44
q-218 25 -314 114t-96 267q0 149 86 247.5t242 129.5v41q0 66 36 103.5t99 37.5q64 0 99.5 -37.5t35.5 -103.5v-39q168 -26 266 -139q31 -40 31 -86q0 -65 -39.5 -104.5t-103.5 -39.5q-50 0 -107 45q-89 72 -197 72q-70 0 -111.5 -34t-41.5 -93q0 -56 49 -83.5t170 -39.5
q223 -22 321.5 -114t98.5 -279z" />
    <glyph glyph-name="percent" unicode="%" horiz-adv-x="1302" 
d="M244 141l649 1174q28 51 84 51q43 0 71.5 -27.5t28.5 -68.5q0 -26 -18 -60l-649 -1173q-28 -51 -84 -51q-43 0 -72 27.5t-29 68.5q0 23 19 59zM55 1053v43q0 132 74.5 206t206.5 74t206 -74t74 -206v-43q0 -131 -74 -205t-206 -74t-206.5 74t-74.5 205zM424 1059v26
q0 113 -88 113t-88 -113v-26q0 -58 21 -84.5t67 -26.5t67 26.5t21 84.5zM686 254v43q0 132 74.5 206.5t206.5 74.5t206 -74.5t74 -206.5v-43q0 -131 -74 -205t-206 -74t-206.5 74t-74.5 205zM1055 260v27q0 57 -21 84.5t-67 27.5t-67 -27.5t-21 -84.5v-27q0 -58 21 -84
t67 -26t67 26t21 84z" />
    <glyph glyph-name="ampersand" unicode="&#x26;" horiz-adv-x="1230" 
d="M1059 348l112 -108q48 -48 48 -105q0 -66 -38.5 -106.5t-101.5 -40.5q-58 0 -98 37l-84 81q-149 -131 -371 -131q-215 0 -340 105.5t-125 286.5q0 239 222 360q-123 149 -123 293q0 170 101 263t286 93q179 0 275 -86t96 -246q0 -221 -228 -339l144 -138h2q4 14 4 37
q0 67 36 105.5t99 38.5q64 0 99.5 -38t35.5 -106q0 -121 -51 -256zM541 1141q-54 0 -84.5 -30t-30.5 -81q0 -34 21 -70t71 -86q137 63 137 160q0 50 -30 78.5t-84 28.5zM528 225q112 0 183 68l-256 254q-115 -63 -115 -172q0 -69 51 -109.5t137 -40.5z" />
    <glyph glyph-name="quotesingle" unicode="'" horiz-adv-x="501" 
d="M393 1221l-28 -414q-3 -48 -35.5 -80.5t-79.5 -32.5q-49 0 -81.5 32.5t-35.5 80.5l-24 414q0 62 40 102.5t101 40.5q62 0 102.5 -41t40.5 -102z" />
    <glyph glyph-name="parenleft" unicode="(" horiz-adv-x="735" 
d="M113 584q0 228 86.5 421t253.5 330q37 29 79 29q56 0 94 -38t38 -93q0 -50 -33 -88q-114 -125 -166.5 -257.5t-52.5 -303.5t52.5 -303.5t166.5 -257.5q33 -38 33 -89q0 -55 -38 -93t-94 -38q-42 0 -79 29q-167 137 -253.5 330.5t-86.5 421.5z" />
    <glyph glyph-name="parenright" unicode=")" horiz-adv-x="735" 
d="M623 584q0 -228 -86.5 -421.5t-253.5 -330.5q-37 -29 -80 -29q-55 0 -93 37.5t-38 93.5q0 52 32 89q114 125 167 257.5t53 303.5t-53 303.5t-167 257.5q-32 37 -32 88q0 55 38 93t93 38q43 0 80 -29q167 -137 253.5 -330t86.5 -421z" />
    <glyph glyph-name="asterisk" unicode="*" horiz-adv-x="958" 
d="M479 1434q54 0 84.5 -32.5t30.5 -88.5q0 -13 -4 -41l-25 -180l183 86q32 14 67 14q53 0 82 -37t29 -82q0 -47 -24.5 -73t-63.5 -33l-217 -41l151 -162q29 -29 29 -78q0 -48 -34 -81.5t-83 -33.5q-68 0 -98 58l-107 192l-106 -192q-30 -58 -99 -58q-49 0 -82.5 33.5
t-33.5 81.5q0 50 28 78l152 162l-217 41q-39 7 -63.5 33t-24.5 73q0 45 28.5 82t81.5 37q36 0 68 -14l182 -86l-24 180q-4 28 -4 41q0 56 30 88.5t84 32.5z" />
    <glyph glyph-name="plus" unicode="+" horiz-adv-x="1163" 
d="M709 741h280q59 0 95 -35t36 -92t-36 -92t-95 -35h-280v-280q0 -59 -35 -95t-92 -36t-92 36t-35 95v280h-281q-59 0 -95 35t-36 92t36 92t95 35h281v281q0 59 35 95t92 36t92 -36t35 -95v-281z" />
    <glyph glyph-name="comma" unicode="," horiz-adv-x="552" 
d="M422 166q0 -38 -23 -82l-168 -293q-36 -63 -102 -63q-50 0 -83.5 31.5t-33.5 78.5q0 27 8 51l111 322q16 47 52.5 75.5t88.5 28.5q65 0 107.5 -42.5t42.5 -106.5z" />
    <glyph glyph-name="hyphen" unicode="-" horiz-adv-x="696" 
d="M193 700h311q68 0 107.5 -37t39.5 -102t-39.5 -102t-107.5 -37h-311q-69 0 -108.5 36.5t-39.5 102.5t39.5 102.5t108.5 36.5z" />
    <glyph glyph-name="period" unicode="." horiz-adv-x="552" 
d="M276 -12q-70 0 -116.5 46.5t-46.5 117.5q0 70 46.5 116.5t116.5 46.5q71 0 117.5 -46.5t46.5 -116.5t-47 -117t-117 -47z" />
    <glyph glyph-name="slash" unicode="/" horiz-adv-x="737" 
d="M682 1202l-410 -1132q-28 -82 -106 -82q-52 0 -86.5 31.5t-34.5 78.5q0 22 10 52l410 1132q28 82 106 82q52 0 86.5 -32t34.5 -79q0 -21 -10 -51z" />
    <glyph glyph-name="zero" unicode="0" horiz-adv-x="1163" 
d="M94 459v434q0 227 129.5 355t358.5 128t358 -128t129 -355v-434q0 -227 -129 -355.5t-358 -128.5t-358.5 128.5t-129.5 355.5zM774 469v414q0 110 -50 170.5t-142 60.5t-142.5 -60.5t-50.5 -170.5v-414q0 -110 50.5 -170.5t142.5 -60.5t142 60.5t50 170.5z" />
    <glyph glyph-name="one" unicode="1" horiz-adv-x="1163" 
d="M805 262h153q61 0 98.5 -36t37.5 -95t-37.5 -95t-98.5 -36h-620q-61 0 -98 36t-37 95t37 95t98 36h172v828h-174q-61 0 -98 36t-37 95t37 95t98 36h319q67 0 108.5 -41t41.5 -109v-940z" />
    <glyph glyph-name="two" unicode="2" horiz-adv-x="1163" 
d="M424 262h479q61 0 98 -36t37 -95t-37 -95t-98 -36h-627q-67 0 -108 41t-41 109v20q0 228 91.5 360t313.5 209q130 45 179 93t49 126q0 75 -40 115.5t-114 40.5q-108 0 -196 -117q-43 -59 -117 -59q-65 0 -104 39t-39 104q0 45 26 86q66 101 176.5 155t249.5 54
q217 0 335 -109t118 -309q0 -179 -80.5 -280.5t-280.5 -165.5q-145 -46 -203.5 -102.5t-66.5 -147.5z" />
    <glyph glyph-name="three" unicode="3" horiz-adv-x="1163" 
d="M895 717v-4q166 -99 166 -316q0 -198 -129.5 -310t-358.5 -112q-153 0 -271 59t-171 159q-20 42 -20 77q0 65 39.5 104.5t103.5 39.5q75 0 117 -66q32 -53 87.5 -81.5t123.5 -28.5q86 0 133 44t47 126q0 153 -184 153h-93q-62 0 -98.5 36t-36.5 99q0 57 37 92t98 35h64
q90 0 137 37.5t47 110.5q0 143 -153 143q-114 0 -185 -102q-43 -64 -119 -64q-64 0 -103.5 39.5t-39.5 104.5q0 44 29 88q63 94 170.5 145t242.5 51q215 0 334 -101t119 -284t-133 -274z" />
    <glyph glyph-name="four" unicode="4" horiz-adv-x="1163" 
d="M958 537h39q61 0 98.5 -36t37.5 -95t-37.5 -95.5t-98.5 -36.5h-39v-131q0 -72 -39 -113.5t-108 -41.5t-108 41.5t-39 113.5v131h-449q-71 0 -113.5 40t-42.5 104q0 59 39 114l533 754q31 43 68.5 60.5t88.5 17.5q75 0 122.5 -48t47.5 -122v-657zM664 918h-5l-256 -381
h261v381z" />
    <glyph glyph-name="five" unicode="5" horiz-adv-x="1163" 
d="M608 895q214 0 337.5 -122.5t123.5 -334.5q0 -214 -132 -338.5t-359 -124.5q-152 0 -268 58.5t-169 161.5q-20 38 -20 75q0 65 39.5 104.5t103.5 39.5q81 0 123 -72q63 -104 191 -104q92 0 143 52.5t51 147.5q0 92 -51 143.5t-143 51.5q-89 0 -207 -74q-40 -22 -90 -22
q-60 0 -99 38t-39 97q0 22 2 55l29 477q5 68 44 108t106 40h548q61 0 98.5 -35t37.5 -92q0 -63 -37 -99t-99 -36h-434l-14 -230h4q96 35 180 35z" />
    <glyph glyph-name="six" unicode="6" horiz-adv-x="1163" 
d="M639 881q209 0 327.5 -120.5t118.5 -332.5q0 -209 -130.5 -331t-356.5 -122q-229 0 -358 128.5t-129 355.5v434q0 227 131.5 355t363.5 128q133 0 240 -42t166 -117q30 -42 30 -89q0 -64 -39 -103.5t-104 -39.5q-57 0 -104 47q-82 82 -183 82q-100 0 -153 -59.5
t-53 -171.5v-72h4q92 70 229 70zM598 238q91 0 142 50.5t51 139.5t-51 139.5t-142 50.5t-141.5 -50.5t-50.5 -139.5t50.5 -139.5t141.5 -50.5z" />
    <glyph glyph-name="seven" unicode="7" horiz-adv-x="1163" 
d="M1104 1192q0 -49 -25 -98l-575 -1035q-38 -71 -131 -71q-68 0 -108 40t-40 105q0 48 21 88l497 869h-540q-61 0 -98 36t-37 95t37 95t98 36h737q73 0 118.5 -44.5t45.5 -115.5z" />
    <glyph glyph-name="eight" unicode="8" horiz-adv-x="1163" 
d="M911 713v-4q183 -106 183 -322q0 -195 -134 -303.5t-378 -108.5t-378 108.5t-134 303.5q0 216 182 322v4q-150 95 -150 278t126.5 284t353.5 101t353 -101t126 -284t-150 -278zM582 1114q-88 0 -136.5 -37.5t-48.5 -105.5q0 -70 48.5 -109t136.5 -39t136 38.5t48 109.5
q0 68 -48 105.5t-136 37.5zM575 238q106 0 165 44.5t59 125.5q0 73 -59 113t-165 40q-100 0 -155 -40t-55 -113q0 -82 55 -126t155 -44z" />
    <glyph glyph-name="nine" unicode="9" horiz-adv-x="1163" 
d="M565 1376q229 0 358.5 -128t129.5 -355v-434q0 -227 -132 -355.5t-364 -128.5q-133 0 -239.5 42.5t-165.5 117.5q-31 43 -31 88q0 65 39.5 104.5t103.5 39.5q57 0 105 -48q81 -81 182 -81q100 0 153.5 59.5t53.5 171.5v72h-4q-92 -70 -230 -70q-209 0 -327.5 120.5
t-118.5 332.5q0 209 130.5 330.5t356.5 121.5zM565 733q91 0 142 51t51 140t-51 139.5t-142 50.5t-141.5 -50.5t-50.5 -139.5q0 -90 50.5 -140.5t141.5 -50.5z" />
    <glyph glyph-name="colon" unicode=":" horiz-adv-x="552" 
d="M276 -12q-70 0 -116.5 46.5t-46.5 117.5q0 70 46.5 116.5t116.5 46.5q71 0 117.5 -46.5t46.5 -116.5t-47 -117t-117 -47zM276 709q-70 0 -116.5 46.5t-46.5 116.5q0 71 46.5 117.5t116.5 46.5t117 -47t47 -117t-46.5 -116.5t-117.5 -46.5z" />
    <glyph glyph-name="semicolon" unicode=";" horiz-adv-x="552" 
d="M422 166q0 -38 -23 -82l-168 -293q-36 -63 -102 -63q-50 0 -83.5 31.5t-33.5 78.5q0 27 8 51l111 322q16 47 52.5 75.5t88.5 28.5q65 0 107.5 -42.5t42.5 -106.5zM276 709q-70 0 -116.5 46.5t-46.5 116.5q0 71 46.5 117.5t116.5 46.5t117 -47t47 -117t-46.5 -116.5
t-117.5 -46.5z" />
    <glyph glyph-name="less" unicode="&#x3c;" horiz-adv-x="1163" 
d="M94 614q0 99 92 146l686 346q32 16 72 16q56 0 90.5 -40t34.5 -101q0 -71 -78 -109l-534 -258l534 -258q78 -38 78 -108q0 -61 -34.5 -101.5t-90.5 -40.5q-38 0 -72 17l-686 346q-92 47 -92 145z" />
    <glyph glyph-name="equal" unicode="=" horiz-adv-x="1163" 
d="M952 723h-741q-59 0 -95 35t-36 92t36 92t95 35h741q59 0 95 -35t36 -92t-36 -92t-95 -35zM211 506h741q59 0 95 -35t36 -92t-36 -92t-95 -35h-741q-59 0 -95 35t-36 92t36 92t95 35z" />
    <glyph glyph-name="greater" unicode="&#x3e;" horiz-adv-x="1163" 
d="M1069 612q0 -98 -92 -145l-686 -346q-34 -17 -72 -17q-56 0 -90.5 40.5t-34.5 101.5q0 70 78 108l535 258l-535 258q-78 38 -78 109q0 61 34.5 101t90.5 40q40 0 72 -16l686 -346q92 -47 92 -146z" />
    <glyph glyph-name="question" unicode="?" horiz-adv-x="991" 
d="M500 1376q200 0 319 -99.5t119 -266.5q0 -129 -52.5 -206t-178.5 -134q-76 -35 -106 -68t-30 -80q0 -61 -36 -96t-97 -35q-63 0 -98 37.5t-35 103.5v31q0 112 50.5 186.5t166.5 127.5q70 32 95.5 58.5t25.5 63.5q0 54 -38 84.5t-105 30.5q-57 0 -112 -31t-95 -86
q-43 -59 -117 -59q-64 0 -103.5 39t-39.5 104q0 45 24 84q64 101 179.5 156t263.5 55zM438 315q71 0 117.5 -46.5t46.5 -116.5t-47 -117t-117 -47t-117 47t-47 117t46.5 116.5t117.5 46.5z" />
    <glyph glyph-name="at" unicode="@" horiz-adv-x="1544" 
d="M772 1329q320 0 496 -172t176 -485v-258q0 -54 -29.5 -85.5t-81.5 -31.5t-81 31.5t-29 85.5v248q0 223 -117 342.5t-334 119.5t-333.5 -119.5t-116.5 -342.5v-211q0 -223 116.5 -343t333.5 -120q196 0 318 104q32 25 69 25q45 0 78 -33t33 -78q0 -56 -41 -86
q-177 -137 -457 -137q-320 0 -496 172t-176 485v232q0 313 176 485t496 172zM436 401v7q0 114 75 172.5t218 58.5h158q-9 127 -123 127q-66 0 -121 -55q-29 -29 -76 -29q-45 0 -76.5 32.5t-31.5 78.5q0 40 24 71q37 48 111 77.5t170 29.5q163 0 255.5 -92.5t92.5 -255.5
v-134q0 -164 -93 -256t-255 -92q-152 0 -240 69.5t-88 190.5zM760 346q62 0 92 30t35 95h-160q-65 0 -65 -57v-6q0 -62 98 -62z" />
    <glyph glyph-name="A" unicode="A" horiz-adv-x="1310" 
d="M831 1235l414 -1032q10 -23 10 -62q0 -69 -42 -111t-111 -42q-110 0 -148 102l-61 172h-483l-68 -182q-15 -43 -51.5 -67.5t-87.5 -24.5q-66 0 -107 40.5t-41 106.5q0 37 13 66l413 1034q50 129 174 129q123 0 176 -129zM657 926h-4l-145 -402h291z" />
    <glyph glyph-name="B" unicode="B" horiz-adv-x="1290" 
d="M1022 705v-5q92 -43 136 -121.5t44 -201.5q0 -198 -109 -287.5t-350 -89.5h-424q-76 0 -118.5 42.5t-42.5 119.5v1028q0 77 42.5 119.5t118.5 42.5h381q242 0 350.5 -85.5t108.5 -275.5q0 -203 -137 -286zM465 823h203q99 0 144.5 33.5t45.5 104.5q0 63 -40.5 91.5
t-129.5 28.5h-223v-258zM465 270h246q95 0 137.5 33t42.5 105q0 80 -48 116.5t-153 36.5h-225v-291z" />
    <glyph glyph-name="C" unicode="C" horiz-adv-x="1239" 
d="M1163 360q0 -26 -10 -59q-48 -158 -173 -242t-316 -84q-256 0 -400.5 146t-144.5 403v303q0 257 144.5 403t400.5 146q187 0 315 -83.5t166 -229.5q6 -18 6 -37q0 -66 -40.5 -106.5t-106.5 -40.5q-44 0 -79.5 25t-56.5 65q-72 137 -215 137q-108 0 -167.5 -76.5
t-59.5 -214.5v-278q0 -138 59.5 -214.5t167.5 -76.5q77 0 135 40.5t86 114.5q40 105 142 105q70 0 108.5 -39.5t38.5 -106.5z" />
    <glyph glyph-name="D" unicode="D" horiz-adv-x="1337" 
d="M317 1352h326q274 0 425 -145.5t151 -403.5v-254q0 -258 -151 -403.5t-425 -145.5h-326q-75 0 -117 43t-42 119v1028q0 74 42.5 118t116.5 44zM911 559v234q0 139 -68 213.5t-200 74.5h-178v-811h178q132 0 200 75t68 214z" />
    <glyph glyph-name="E" unicode="E" horiz-adv-x="1181" 
d="M465 270h510q67 0 105 -36t38 -99t-38 -99t-105 -36h-656q-76 0 -118.5 42.5t-42.5 119.5v1028q0 77 42.5 119.5t118.5 42.5h656q67 0 105 -36t38 -99t-38 -99.5t-105 -36.5h-510v-262h418q67 0 105 -36t38 -99t-38 -99t-105 -36h-418v-279z" />
    <glyph glyph-name="F" unicode="F" horiz-adv-x="1124" 
d="M465 799h401q67 0 105.5 -36t38.5 -99t-38.5 -99.5t-105.5 -36.5h-401v-378q0 -75 -41 -118.5t-113 -43.5t-112.5 43.5t-40.5 118.5v1040q0 77 42.5 119.5t118.5 42.5h639q67 0 105.5 -36t38.5 -99t-38.5 -99.5t-105.5 -36.5h-493v-282z" />
    <glyph glyph-name="G" unicode="G" horiz-adv-x="1308" 
d="M782 758h265q75 0 118 -43.5t43 -118.5v-72q0 -257 -144.5 -403t-399.5 -146t-400 146t-145 403v303q0 256 147.5 402.5t405.5 146.5q187 0 316 -72t177 -198q9 -24 9 -49q0 -67 -43 -107.5t-105 -40.5q-86 0 -129 74q-70 123 -225 123q-117 0 -181.5 -76t-64.5 -215
v-280q0 -138 65.5 -213.5t186.5 -75.5q107 0 169 66.5t62 174.5h-127q-67 0 -105 36.5t-38 99.5t38 99t105 36z" />
    <glyph glyph-name="H" unicode="H" horiz-adv-x="1392" 
d="M1081 1364q72 0 113 -43.5t41 -118.5v-1052q0 -75 -41 -118.5t-113 -43.5t-112.5 43.5t-40.5 118.5v401h-463v-401q0 -75 -41 -118.5t-113 -43.5t-112.5 43.5t-40.5 118.5v1052q0 75 40.5 118.5t112.5 43.5t113 -43.5t41 -118.5v-381h463v381q0 75 40.5 118.5t112.5 43.5
z" />
    <glyph glyph-name="I" unicode="I" horiz-adv-x="622" 
d="M311 1364q72 0 113 -43.5t41 -118.5v-1052q0 -75 -41 -118.5t-113 -43.5t-112.5 43.5t-40.5 118.5v1052q0 75 40.5 118.5t112.5 43.5z" />
    <glyph glyph-name="J" unicode="J" horiz-adv-x="1148" 
d="M872 1364q72 0 113 -43.5t41 -118.5v-749q0 -227 -131 -352.5t-369 -125.5q-204 0 -327.5 89.5t-157.5 259.5q-4 20 -4 45q0 62 41 103.5t106 41.5q59 0 98 -35.5t50 -93.5q27 -141 190 -141q94 0 145.5 57.5t51.5 161.5v739q0 75 40.5 118.5t112.5 43.5z" />
    <glyph glyph-name="K" unicode="K" horiz-adv-x="1259" 
d="M731 688l438 -440q43 -43 43 -107q0 -69 -42 -111t-111 -42q-67 0 -111 47l-483 518v-403q0 -75 -41 -118.5t-113 -43.5t-112.5 43.5t-40.5 118.5v1052q0 75 40.5 118.5t112.5 43.5t113 -43.5t41 -118.5v-385l467 496q48 51 112 51q66 0 107 -40.5t41 -106.5
q0 -59 -47 -109z" />
    <glyph glyph-name="L" unicode="L" horiz-adv-x="1107" 
d="M465 270h481q67 0 105.5 -36t38.5 -99t-38.5 -99t-105.5 -36h-627q-76 0 -118.5 42.5t-42.5 119.5v1040q0 75 40.5 118.5t112.5 43.5t113 -43.5t41 -118.5v-932z" />
    <glyph glyph-name="M" unicode="M" horiz-adv-x="1691" 
d="M1366 1364q80 0 124 -47t44 -133v-1034q0 -75 -41 -118.5t-113 -43.5t-112.5 43.5t-40.5 118.5v573h-4l-240 -447q-42 -79 -137 -79q-92 0 -137 79l-252 453h-4v-586q0 -73 -39.5 -114t-108.5 -41t-108 41t-39 114v1045q0 84 44 130t122 46q54 0 91.5 -24t67.5 -80
l361 -676l360 678q54 102 162 102z" />
    <glyph glyph-name="N" unicode="N" horiz-adv-x="1361" 
d="M1057 1364q69 0 108 -41.5t39 -114.5v-1040q0 -86 -39 -133t-116 -47q-114 0 -175 102l-417 698h-4v-645q0 -73 -39.5 -114t-108.5 -41t-108 41t-39 114v1041q0 86 39 133t116 47q113 0 170 -98l422 -705h4v647q0 73 39.5 114.5t108.5 41.5z" />
    <glyph glyph-name="O" unicode="O" horiz-adv-x="1347" 
d="M674 1376q259 0 407 -146t148 -403v-303q0 -257 -148 -403t-407 -146t-407 146t-148 403v303q0 257 148 403t407 146zM674 1106q-118 0 -183 -75.5t-65 -213.5v-282q0 -138 65 -213.5t183 -75.5t183 75.5t65 213.5v282q0 138 -65 213.5t-183 75.5z" />
    <glyph glyph-name="P" unicode="P" horiz-adv-x="1243" 
d="M319 1352h388q233 0 353 -111.5t120 -329.5t-119.5 -329t-353.5 -111h-242v-321q0 -75 -41 -118.5t-113 -43.5t-112.5 43.5t-40.5 118.5v1040q0 77 42.5 119.5t118.5 42.5zM465 741h211q194 0 194 170t-194 170h-211v-340z" />
    <glyph glyph-name="Q" unicode="Q" horiz-adv-x="1347" 
d="M1436 -109q0 -42 -27 -81q-52 -72 -146 -115t-221 -43q-179 0 -293.5 86t-148.5 242q-226 20 -353.5 163.5t-127.5 380.5v303q0 257 148 403t407 146t407 -146t148 -403v-303q0 -198 -90.5 -332.5t-257.5 -187.5q39 -102 161 -102q78 0 154 80q44 47 102 47
q62 0 100 -38.5t38 -99.5zM426 817v-282q0 -138 65 -213.5t183 -75.5t183 75.5t65 213.5v282q0 138 -65 213.5t-183 75.5t-183 -75.5t-65 -213.5z" />
    <glyph glyph-name="R" unicode="R" horiz-adv-x="1265" 
d="M952 537l201 -301q31 -50 31 -95q0 -69 -42.5 -111t-111.5 -42q-88 0 -133 75l-252 424h-180v-337q0 -75 -41 -118.5t-113 -43.5t-112.5 43.5t-40.5 118.5v1040q0 75 42 118.5t117 43.5h373q233 0 353 -109t120 -323q0 -283 -211 -383zM465 758h194q195 0 195 162
q0 161 -195 161h-194v-323z" />
    <glyph glyph-name="S" unicode="S" horiz-adv-x="1179" 
d="M1110 399q0 -193 -134.5 -308.5t-359.5 -115.5q-353 0 -507 213q-31 45 -31 95q0 69 39.5 110t105.5 41q70 0 123 -67q95 -121 268 -121q88 0 138.5 41t50.5 112q0 70 -56 104.5t-204 49.5q-242 25 -343.5 119t-101.5 289q0 189 135.5 302t360.5 113q143 0 257.5 -46.5
t184.5 -133.5q29 -36 29 -88q0 -66 -40.5 -106.5t-106.5 -40.5q-61 0 -107 43q-105 102 -233 102q-78 0 -125 -39.5t-47 -105.5t53.5 -98t195.5 -44q246 -22 350.5 -120t104.5 -300z" />
    <glyph glyph-name="T" unicode="T" horiz-adv-x="1114" 
d="M160 1352h792q67 0 105.5 -36t38.5 -99t-38.5 -99.5t-105.5 -36.5h-241v-931q0 -75 -41 -118.5t-113 -43.5t-113 43.5t-41 118.5v931h-243q-66 0 -104 36.5t-38 99.5t38 99t104 36z" />
    <glyph glyph-name="U" unicode="U" horiz-adv-x="1273" 
d="M1004 1364q69 0 108 -41.5t39 -114.5v-714q0 -253 -131.5 -386t-382.5 -133t-382.5 133t-131.5 386v708q0 75 42 118.5t114 43.5q71 0 111 -43t40 -119v-698q0 -132 52 -196t159 -64q109 0 162 64t53 196v704q0 73 39.5 114.5t108.5 41.5z" />
    <glyph glyph-name="V" unicode="V" horiz-adv-x="1243" 
d="M1038 1364q66 0 108 -40.5t42 -106.5q0 -30 -12 -66l-379 -1034q-23 -63 -68.5 -96t-105.5 -33t-105.5 33t-68.5 96l-377 1016q-17 49 -17 77q0 69 42.5 111.5t111.5 42.5q110 0 147 -100l271 -795h4l270 803q29 92 137 92z" />
    <glyph glyph-name="W" unicode="W" horiz-adv-x="1925" 
d="M1720 1364q66 0 107 -40.5t41 -106.5q0 -24 -8 -52l-359 -1056q-43 -121 -158 -121q-117 0 -159 121l-219 651h-4l-220 -651q-43 -121 -157 -121q-118 0 -160 121l-354 1042q-13 43 -13 59q0 70 44 112t118 42q54 0 90.5 -30t50.5 -79l228 -729h4l227 727q15 51 54 81
t96 30t95 -30t54 -81l232 -725h4l223 727q33 109 143 109z" />
    <glyph glyph-name="X" unicode="X" horiz-adv-x="1232" 
d="M803 698l325 -460q35 -51 35 -97q0 -69 -42 -111t-111 -42q-84 0 -125 63l-275 410l-268 -404q-45 -69 -125 -69q-66 0 -106.5 40.5t-40.5 106.5q0 44 22 80l336 469l-309 436q-29 44 -29 90q0 69 42.5 111.5t111.5 42.5q81 0 127 -68l250 -376l251 378q46 66 123 66
q66 0 107 -40.5t41 -106.5q0 -45 -31 -91z" />
    <glyph glyph-name="Y" unicode="Y" horiz-adv-x="1196" 
d="M752 561v-411q0 -75 -41 -118.5t-113 -43.5t-113 43.5t-41 118.5v395l-387 575q-28 42 -28 90q0 69 42 111.5t111 42.5q82 0 125 -66l295 -462l295 462q19 30 52 48t71 18q66 0 106.5 -40.5t40.5 -106.5q0 -43 -28 -87z" />
    <glyph glyph-name="Z" unicode="Z" horiz-adv-x="1155" 
d="M455 270h489q67 0 105 -36t38 -99t-38 -99t-105 -36h-737q-70 0 -111 38t-41 101q0 66 37 121l574 821h-428q-66 0 -104 36.5t-38 99.5t38 99t104 36h686q71 0 112 -38t41 -102q0 -37 -8.5 -65t-34.5 -64z" />
    <glyph glyph-name="bracketleft" unicode="[" horiz-adv-x="735" 
d="M428 61h129q61 0 96 -32.5t35 -89.5t-35 -90t-96 -33h-260q-71 0 -109 38t-38 109v1241q0 71 38.5 109.5t108.5 38.5h260q61 0 96 -33t35 -90t-35 -90t-96 -33h-129v-1045z" />
    <glyph glyph-name="backslash" unicode="\" horiz-adv-x="737" 
d="M465 70l-410 1132q-10 30 -10 51q0 47 34.5 79t86.5 32q78 0 106 -82l410 -1132q10 -30 10 -52q0 -47 -34.5 -78.5t-86.5 -31.5q-78 0 -106 82z" />
    <glyph glyph-name="bracketright" unicode="]" horiz-adv-x="735" 
d="M307 1106h-129q-61 0 -96 33t-35 90t35 90t96 33h260q70 0 109 -39t39 -109v-1241q0 -70 -38.5 -108.5t-109.5 -38.5h-260q-61 0 -96 33t-35 90t35 89.5t96 32.5h129v1045z" />
    <glyph glyph-name="asciicircum" unicode="^" horiz-adv-x="1163" 
d="M582 1376q92 0 143 -82l330 -530q18 -30 18 -72q0 -58 -37.5 -93.5t-97.5 -35.5q-35 0 -67 21t-54 57l-235 399l-236 -399q-22 -36 -54 -57t-67 -21q-60 0 -97.5 35.5t-37.5 93.5q0 40 19 72l329 530q51 82 144 82z" />
    <glyph glyph-name="underscore" unicode="_" horiz-adv-x="983" 
d="M983 -96v-142h-983v142h983z" />
    <glyph glyph-name="grave" unicode="`" horiz-adv-x="983" 
d="M217 1397q0 51 34 85t85 34t88 -37l151 -146q29 -26 29 -73q0 -45 -29 -76t-73 -31q-40 0 -70 23l-174 129q-41 33 -41 92z" />
    <glyph glyph-name="a" unicode="a" horiz-adv-x="1040" 
d="M500 1061q211 0 330.5 -120.5t119.5 -334.5v-176q0 -214 -120 -334.5t-334 -120.5q-195 0 -308.5 90.5t-113.5 245.5v8q0 154 95.5 232t283.5 78h217q0 86 -47 134t-127 48q-91 0 -146 -68q-46 -59 -112 -59q-57 0 -96.5 38t-39.5 93q0 45 29 90q53 74 148.5 115
t220.5 41zM492 225q83 0 130.5 47.5t47.5 130.5h-219q-47 0 -73 -20t-26 -57v-7q0 -44 37 -69t103 -25z" />
    <glyph glyph-name="b" unicode="b" horiz-adv-x="1103" 
d="M610 1061q186 0 295 -118t109 -318v-195q0 -214 -120.5 -334.5t-334.5 -120.5t-334.5 120.5t-120.5 334.5v856q0 69 37 108.5t103 39.5t102.5 -39.5t36.5 -108.5v-303h4q87 78 223 78zM735 440v174q0 94 -45.5 145.5t-130.5 51.5t-130.5 -51.5t-45.5 -145.5v-174
q0 -215 176 -215t176 215z" />
    <glyph glyph-name="c" unicode="c" horiz-adv-x="966" 
d="M915 227q0 -40 -20 -73q-107 -179 -365 -179q-206 0 -323 121t-117 334v176q0 213 119 334t326 121q223 0 342 -143q30 -38 30 -87q0 -62 -36.5 -99.5t-96.5 -37.5q-67 0 -112 58q-47 59 -127 59q-79 0 -122.5 -56t-43.5 -159v-156q0 -103 42 -159t119 -56q85 0 136 74
q44 63 114 63q60 0 97.5 -37t37.5 -98z" />
    <glyph glyph-name="d" unicode="d" horiz-adv-x="1103" 
d="M860 1434q66 0 102.5 -39.5t36.5 -108.5v-856q0 -214 -120 -334.5t-334 -120.5t-334.5 120.5t-120.5 334.5v195q0 200 109 318t295 118q136 0 223 -78h4v303q0 69 36.5 108.5t102.5 39.5zM721 440v174q0 94 -45.5 145.5t-130.5 51.5t-130.5 -51.5t-45.5 -145.5v-174
q0 -215 176 -215t176 215z" />
    <glyph glyph-name="e" unicode="e" horiz-adv-x="1046" 
d="M535 1061q207 0 323.5 -121t116.5 -334v-53q0 -63 -35 -100t-98 -37h-473q0 -91 46.5 -141t129.5 -50q88 0 145 72q45 55 111 55q64 0 100.5 -36t36.5 -97q0 -45 -29 -88q-110 -156 -364 -156q-214 0 -334.5 120.5t-120.5 334.5v176q0 213 119 334t326 121zM535 811
q-73 0 -119.5 -46t-46.5 -124h329q0 78 -45 124t-118 46z" />
    <glyph glyph-name="f" unicode="f" horiz-adv-x="774" 
d="M543 1196q-90 0 -90 -121v-39h204q60 0 94.5 -32t34.5 -89t-34.5 -88.5t-94.5 -31.5h-204v-660q0 -69 -37 -108t-103 -39t-102.5 39t-36.5 108v660h-41q-60 0 -94.5 31.5t-34.5 88.5t34.5 89t94.5 32h41v41q0 175 94 272t271 97q155 0 241 -70q51 -41 51 -100
q0 -63 -36 -100t-93 -37q-42 0 -96 37q-29 20 -63 20z" />
    <glyph glyph-name="g" unicode="g" horiz-adv-x="1103" 
d="M545 1061q214 0 334 -120.5t120 -334.5v-520q0 -214 -124.5 -334.5t-344.5 -120.5q-118 0 -214 37.5t-152 102.5q-41 48 -41 100q0 62 36.5 99.5t96.5 37.5q68 0 109 -51q63 -76 165 -76q94 0 142.5 54.5t48.5 160.5v19h-4q-87 -78 -223 -78q-186 0 -295 118t-109 318
v133q0 214 120.5 334.5t334.5 120.5zM545 287q85 0 130.5 51t45.5 145v113q0 215 -176 215t-176 -215v-113q0 -94 45.5 -145t130.5 -51z" />
    <glyph glyph-name="h" unicode="h" horiz-adv-x="1112" 
d="M625 1061q180 0 281.5 -116t101.5 -320v-490q0 -69 -37 -108t-103 -39t-102.5 39t-36.5 108v479q0 97 -42 147t-124 50q-166 0 -166 -199v-477q0 -69 -36.5 -108t-102.5 -39t-102.5 39t-36.5 108v1151q0 69 36.5 108.5t102.5 39.5t102.5 -39.5t36.5 -108.5v-303h4
q87 78 224 78z" />
    <glyph glyph-name="i" unicode="i" horiz-adv-x="512" 
d="M256 1493q69 0 111.5 -39t42.5 -102v-41q0 -63 -42.5 -102.5t-111.5 -39.5t-111.5 39.5t-42.5 102.5v41q0 63 42.5 102t111.5 39zM256 1049q66 0 102.5 -39.5t36.5 -108.5v-766q0 -69 -36.5 -108t-102.5 -39t-102.5 39t-36.5 108v766q0 69 36.5 108.5t102.5 39.5z" />
    <glyph glyph-name="j" unicode="j" horiz-adv-x="514" 
d="M258 1493q69 0 111.5 -39t42.5 -102v-41q0 -63 -42.5 -102.5t-111.5 -39.5t-111.5 39.5t-42.5 102.5v41q0 63 42.5 102t111.5 39zM256 1049q66 0 102.5 -39.5t36.5 -108.5v-950q0 -151 -79.5 -235.5t-213.5 -84.5q-79 0 -126 14t-85 44q-47 37 -47 100q0 60 33.5 94.5
t93.5 34.5q34 0 65.5 -18.5t49.5 -18.5q31 0 31 47v973q0 69 36.5 108.5t102.5 39.5z" />
    <glyph glyph-name="k" unicode="k" horiz-adv-x="1015" 
d="M621 524l313 -291q49 -46 49 -106q0 -63 -38 -101t-101 -38q-61 0 -105 47l-342 356v-256q0 -69 -36.5 -108t-102.5 -39t-102.5 39t-36.5 108v1151q0 69 36.5 108.5t102.5 39.5t102.5 -39.5t36.5 -108.5v-624l328 344q40 43 100 43q61 0 99.5 -38.5t38.5 -99.5
q0 -55 -45 -100z" />
    <glyph glyph-name="l" unicode="l" horiz-adv-x="516" 
d="M258 1434q66 0 102.5 -39.5t36.5 -108.5v-1151q0 -69 -36.5 -108t-102.5 -39t-102.5 39t-36.5 108v1151q0 69 36.5 108.5t102.5 39.5z" />
    <glyph glyph-name="m" unicode="m" horiz-adv-x="1642" 
d="M1130 1061q192 0 300 -112t108 -312v-502q0 -69 -36.5 -108t-102.5 -39t-102.5 39t-36.5 108v483q0 193 -150 193q-149 0 -149 -193v-483q0 -69 -37 -108t-103 -39t-102.5 39t-36.5 108v483q0 193 -150 193q-149 0 -149 -193v-483q0 -69 -36.5 -108t-102.5 -39t-103 39
t-37 108v502q0 200 108 312t300 112q205 0 307 -121h4q102 121 307 121z" />
    <glyph glyph-name="n" unicode="n" horiz-adv-x="1097" 
d="M549 1061q207 0 325.5 -119t118.5 -326v-481q0 -69 -36.5 -108t-102.5 -39t-102.5 39t-36.5 108v471q0 205 -166 205t-166 -205v-471q0 -69 -36.5 -108t-102.5 -39t-103 39t-37 108v481q0 207 119 326t326 119z" />
    <glyph glyph-name="o" unicode="o" horiz-adv-x="1089" 
d="M545 1061q214 0 334 -120.5t120 -334.5v-176q0 -214 -120 -334.5t-334 -120.5t-334.5 120.5t-120.5 334.5v176q0 214 120.5 334.5t334.5 120.5zM545 811q-176 0 -176 -215v-156q0 -215 176 -215t176 215v156q0 215 -176 215z" />
    <glyph glyph-name="p" unicode="p" horiz-adv-x="1103" 
d="M559 1061q214 0 334.5 -120.5t120.5 -334.5v-194q0 -200 -109 -318.5t-295 -118.5q-136 0 -223 78h-4v-262q0 -69 -36.5 -108t-102.5 -39t-103 39t-37 108v815q0 214 120.5 334.5t334.5 120.5zM735 422v174q0 215 -176 215t-176 -215v-174q0 -94 45.5 -145.5t130.5 -51.5
t130.5 51.5t45.5 145.5z" />
    <glyph glyph-name="q" unicode="q" horiz-adv-x="1103" 
d="M545 1061q214 0 334 -120.5t120 -334.5v-815q0 -69 -36.5 -108t-102.5 -39t-102.5 39t-36.5 108v262h-4q-87 -78 -223 -78q-186 0 -295 118.5t-109 318.5v194q0 214 120.5 334.5t334.5 120.5zM721 422v174q0 215 -176 215t-176 -215v-174q0 -94 45.5 -145.5t130.5 -51.5
t130.5 51.5t45.5 145.5z" />
    <glyph glyph-name="r" unicode="r" horiz-adv-x="851" 
d="M821 877q15 -34 15 -62q0 -63 -33.5 -99t-93.5 -36q-81 0 -119 65q-39 66 -103 66q-50 0 -77 -35.5t-27 -101.5v-539q0 -69 -36.5 -108t-102.5 -39t-103 39t-37 108v545q0 181 101.5 281t283.5 100q117 0 204.5 -48.5t127.5 -135.5z" />
    <glyph glyph-name="s" unicode="s" horiz-adv-x="972" 
d="M911 313q0 -160 -114 -249t-318 -89q-120 0 -224 37t-155 97q-39 46 -39 98q0 62 36.5 99.5t97.5 37.5q59 0 104 -45q78 -78 195 -78q147 0 147 92q0 40 -38 58t-144 24q-205 12 -294 88.5t-89 239.5q0 157 113.5 247.5t310.5 90.5q106 0 195 -30t136 -81q41 -44 41 -96
q0 -61 -36.5 -97t-98.5 -36q-48 0 -94 37q-32 26 -77 41.5t-87 15.5q-133 0 -133 -90q0 -42 40.5 -62t145.5 -26q204 -12 291.5 -87t87.5 -237z" />
    <glyph glyph-name="t" unicode="t" horiz-adv-x="831" 
d="M807 178q0 -37 -21 -72q-36 -61 -110 -96t-172 -35q-162 0 -247 82.5t-85 243.5v494h-39q-60 0 -94.5 31.5t-34.5 88.5t34.5 89t94.5 32h39v166q0 69 36.5 108.5t102.5 39.5t103 -39.5t37 -108.5v-166h206q60 0 94.5 -32t34.5 -89t-34.5 -88.5t-94.5 -31.5h-206v-494
q0 -76 63 -76q35 0 72 43q39 43 94 43q60 0 93.5 -35.5t33.5 -97.5z" />
    <glyph glyph-name="u" unicode="u" horiz-adv-x="1097" 
d="M854 1049q66 0 102.5 -39.5t36.5 -108.5v-481q0 -207 -118.5 -326t-325.5 -119t-326 119t-119 326v481q0 69 37 108.5t103 39.5t102.5 -39.5t36.5 -108.5v-471q0 -205 166 -205t166 205v471q0 69 36.5 108.5t102.5 39.5z" />
    <glyph glyph-name="v" unicode="v" horiz-adv-x="1032" 
d="M864 1049q63 0 99 -35.5t36 -98.5q0 -36 -10 -61l-325 -766q-43 -100 -148 -100q-104 0 -147 100l-326 754q-10 25 -10 63q0 68 39.5 106t103.5 38q95 0 127 -86l217 -580h4l215 582q32 84 125 84z" />
    <glyph glyph-name="w" unicode="w" horiz-adv-x="1581" 
d="M1411 1049q63 0 99 -36t36 -100q0 -35 -8 -59l-287 -768q-18 -45 -55 -71.5t-88 -26.5q-106 0 -143 98l-172 469h-5l-172 -469q-37 -98 -143 -98q-51 0 -88 26.5t-55 71.5l-287 764q-8 24 -8 57q0 65 38.5 103.5t100.5 38.5q101 0 133 -97l168 -526h4l187 528
q32 95 131 95q46 0 79.5 -26t49.5 -69l186 -528h4l168 528q29 95 127 95z" />
    <glyph glyph-name="x" unicode="x" horiz-adv-x="1028" 
d="M702 535l244 -316q29 -42 29 -84q0 -66 -38 -106.5t-101 -40.5q-76 0 -115 57l-209 295l-211 -297q-42 -55 -111 -55q-62 0 -99.5 39.5t-37.5 103.5q0 41 27 80l246 317l-224 289q-28 40 -28 84q0 66 38 107t101 41q76 0 115 -58l188 -266l191 268q40 56 110 56
q61 0 99 -39.5t38 -104.5q0 -47 -26 -80z" />
    <glyph glyph-name="y" unicode="y" horiz-adv-x="1032" 
d="M864 1049q63 0 99 -37.5t36 -106.5q0 -28 -10 -51l-510 -1137q-34 -73 -125 -73q-64 0 -101.5 37t-37.5 102q0 35 16 67l142 263l-328 731q-12 27 -12 63q0 65 38.5 103.5t104.5 38.5q95 0 127 -82l215 -537h4l219 537q32 82 123 82z" />
    <glyph glyph-name="z" unicode="z" horiz-adv-x="954" 
d="M414 242h370q60 0 94.5 -32t34.5 -89t-34.5 -89t-94.5 -32h-610q-65 0 -102 32t-37 93q0 62 35 106l444 564h-309q-60 0 -94.5 31.5t-34.5 88.5t34.5 89t94.5 32h553q65 0 100 -32t35 -93q0 -59 -33 -100z" />
    <glyph glyph-name="braceleft" unicode="{" horiz-adv-x="735" 
d="M563 39h6q55 0 87 -30t32 -81q0 -52 -31.5 -82t-87.5 -30h-77q-148 0 -219.5 71t-71.5 219v295q0 33 -18.5 51.5t-51.5 18.5h-4q-55 0 -87 30t-32 83q0 52 31.5 82t87.5 30h4q33 0 51.5 18.5t18.5 51.5v295q0 148 71.5 219.5t219.5 71.5h77q55 0 87 -30t32 -83
q0 -51 -32 -81t-87 -30h-6q-46 0 -65 -19t-19 -65v-200q0 -114 -36.5 -175t-118.5 -83v-4q82 -22 118.5 -83t36.5 -175v-201q0 -46 19 -65t65 -19z" />
    <glyph glyph-name="bar" unicode="|" horiz-adv-x="491" 
d="M246 1434q47 0 75.5 -30.5t28.5 -78.5v-1573q0 -48 -28.5 -78t-75.5 -30t-76 30t-29 78v1573q0 48 29 78.5t76 30.5z" />
    <glyph glyph-name="braceright" unicode="}" horiz-adv-x="735" 
d="M172 1128h-6q-55 0 -87 30t-32 81q0 53 32 83t87 30h78q148 0 219.5 -71.5t71.5 -219.5v-295q0 -33 18 -51.5t51 -18.5h4q56 0 87.5 -30t31.5 -82q0 -53 -32 -83t-87 -30h-4q-33 0 -51 -18.5t-18 -51.5v-295q0 -148 -71.5 -219t-219.5 -71h-78q-56 0 -87.5 30t-31.5 82
q0 51 32 81t87 30h6q46 0 65 19t19 65v201q0 113 36.5 174.5t119.5 83.5v4q-83 22 -119.5 83.5t-36.5 174.5v200q0 46 -19 65t-65 19z" />
    <glyph glyph-name="asciitilde" unicode="~" horiz-adv-x="1163" 
d="M752 418q-112 0 -240 92q-46 31 -64 39t-42 8q-29 0 -53 -16.5t-52 -57.5q-36 -51 -106 -51q-56 0 -90.5 35t-34.5 92q0 47 26 84q58 81 140 124.5t176 43.5q111 0 239 -92q46 -31 64 -39t43 -8q30 0 52.5 15.5t51.5 57.5q36 52 107 52q56 0 90.5 -35t34.5 -92
q0 -45 -27 -84q-58 -82 -139.5 -125t-175.5 -43z" />
    <glyph glyph-name="uni00A0" unicode="&#xa0;" horiz-adv-x="466" 
 />
    <glyph glyph-name="exclamdown" unicode="&#xa1;" horiz-adv-x="561" 
d="M414 516l28 -661q0 -78 -43 -124t-118 -46t-118.5 46t-43.5 124l28 661q3 67 37.5 104t96.5 37t96 -37t37 -104zM281 733q-71 0 -117.5 46.5t-46.5 117.5t46.5 117.5t117.5 46.5q70 0 116.5 -46.5t46.5 -117.5t-46.5 -117.5t-116.5 -46.5z" />
    <glyph glyph-name="cent" unicode="&#xa2;" horiz-adv-x="1163" 
d="M1026 274q0 -38 -20 -71q-74 -124 -236 -164v-64q0 -66 -35.5 -103.5t-99.5 -37.5q-63 0 -99 37.5t-36 103.5v66q-142 39 -220.5 152.5t-78.5 285.5v176q0 172 78.5 285t220.5 152v47q0 66 36 103.5t99 37.5q64 0 99.5 -37.5t35.5 -103.5v-43q139 -32 217 -129
q31 -40 31 -86q0 -62 -36.5 -100t-96.5 -38q-68 0 -113 58q-47 59 -127 59q-79 0 -122.5 -56t-43.5 -159v-156q0 -102 42.5 -158.5t119.5 -56.5q84 0 135 74q44 64 117 64q60 0 96.5 -38t36.5 -100z" />
    <glyph glyph-name="sterling" unicode="&#xa3;" horiz-adv-x="1163" 
d="M492 262h432q62 0 98.5 -36t36.5 -99q0 -57 -37 -92t-98 -35h-621q-72 0 -114 38t-42 105q0 78 60 127q57 47 84.5 92.5t38.5 108.5h-90q-55 0 -89 32t-34 83q0 57 33.5 90t89.5 33h49q-43 78 -60.5 139t-17.5 131q0 184 120.5 290.5t327.5 106.5q151 0 256.5 -64
t151.5 -182q8 -24 8 -49q0 -65 -39.5 -104t-103.5 -39q-40 0 -74 20.5t-53 55.5q-53 100 -156 100q-67 0 -105 -41t-38 -115q0 -69 43 -174q15 -36 26 -75h236q57 0 91 -33t34 -90q0 -51 -34 -83t-89 -32h-219q-21 -132 -102 -205v-4z" />
    <glyph glyph-name="currency" unicode="&#xa4;" horiz-adv-x="1163" 
d="M436 664q0 -69 40.5 -112.5t103.5 -43.5t103 43.5t40 112.5t-40 112t-103 43t-103.5 -43t-40.5 -112zM969 664q0 -94 -39 -177l88 -86q41 -41 41 -94q0 -51 -35 -86t-86 -35q-53 0 -94 41l-86 86q-83 -39 -178 -39q-96 0 -179 39l-86 -86q-41 -41 -94 -41q-51 0 -86 35
t-35 86q0 53 41 94l88 86q-39 83 -39 177q0 93 39 176l-88 86q-41 41 -41 94q0 51 35 86t86 35q53 0 94 -41l86 -86q83 39 179 39q95 0 178 -39l86 86q41 41 94 41q51 0 86 -35t35 -86q0 -53 -41 -94l-88 -86q39 -83 39 -176z" />
    <glyph glyph-name="yen" unicode="&#xa5;" horiz-adv-x="1163" 
d="M762 702h153q47 0 76 -26.5t29 -69.5q0 -49 -28.5 -76.5t-76.5 -27.5h-186v-78h186q47 0 76 -26.5t29 -69.5q0 -49 -28.5 -77t-76.5 -28h-186v-80q0 -72 -39 -113.5t-108 -41.5t-108.5 41.5t-39.5 113.5v80h-186q-48 0 -76.5 28t-28.5 77q0 43 29 69.5t76 26.5h186v78
h-186q-48 0 -76.5 27.5t-28.5 76.5q0 43 29 69.5t76 26.5h141l-295 426q-28 42 -28 89q0 66 40.5 106.5t106.5 40.5q81 0 123 -68l248 -397l254 401q41 64 118 64q63 0 102.5 -39t39.5 -102q0 -46 -25 -82z" />
    <glyph glyph-name="brokenbar" unicode="&#xa6;" horiz-adv-x="491" 
d="M246 1434q47 0 75.5 -30.5t28.5 -78.5v-577q0 -48 -28.5 -78.5t-75.5 -30.5t-76 30.5t-29 78.5v577q0 48 29 78.5t76 30.5zM246 438q47 0 75.5 -30t28.5 -78v-578q0 -48 -28.5 -78t-75.5 -30t-76 30t-29 78v578q0 48 29 78t76 30z" />
    <glyph glyph-name="section" unicode="&#xa7;" horiz-adv-x="1165" 
d="M913 287v-4q129 -87 129 -273q0 -177 -119 -278t-329 -101q-147 0 -260 40t-176 114q-39 46 -39 98q0 62 36 99.5t97 37.5q62 0 104 -45q98 -98 242 -98q80 0 127 32.5t47 90.5q0 46 -48 72t-171 41q-240 29 -346.5 123t-106.5 268q0 185 148 289v4q-125 86 -125 272
q0 172 119 274.5t321 102.5q261 0 400 -139q30 -30 30 -88q0 -61 -36.5 -97.5t-98.5 -36.5q-54 0 -94 37q-81 78 -201 78q-79 0 -124.5 -32t-45.5 -89q0 -47 48.5 -73t176.5 -43q239 -30 343 -123t104 -265q0 -183 -152 -288zM614 373q84 9 132.5 56.5t48.5 115.5
q0 67 -55.5 102t-202.5 58q-77 -10 -121.5 -56.5t-44.5 -113.5q0 -68 54 -105t189 -57z" />
    <glyph glyph-name="dieresis" unicode="&#xa8;" horiz-adv-x="983" 
d="M297 1479q65 0 104 -37.5t39 -98.5v-24q0 -61 -39 -98t-104 -37q-66 0 -105.5 37t-39.5 98v24q0 62 39.5 99t105.5 37zM686 1479q66 0 105.5 -37t39.5 -99v-24q0 -61 -39.5 -98t-105.5 -37q-65 0 -104 37t-39 98v24q0 61 39 98.5t104 37.5z" />
    <glyph glyph-name="copyright" unicode="&#xa9;" horiz-adv-x="1531" 
d="M766 1376q147 0 276.5 -54t222.5 -147t147 -222.5t54 -276.5q0 -196 -91.5 -356.5t-252 -252.5t-356.5 -92t-356.5 92t-252 252.5t-91.5 356.5q0 147 54 276.5t147 222.5t222.5 147t276.5 54zM766 156q215 0 357.5 146.5t142.5 373.5t-142.5 373.5t-357.5 146.5
t-357.5 -146.5t-142.5 -373.5t142.5 -373.5t357.5 -146.5zM936 594q43 0 69.5 -25.5t26.5 -68.5q0 -20 -6 -35q-31 -75 -96 -119.5t-164 -44.5q-139 0 -218 78.5t-79 216.5v162q0 137 79 215t218 78q97 0 163 -42t91 -108q6 -14 6 -35q0 -41 -27.5 -65.5t-70.5 -24.5
q-53 0 -82 47q-31 47 -86 47q-90 0 -90 -122v-144q0 -123 90 -123q61 0 90 56q28 57 86 57z" />
    <glyph glyph-name="ordfeminine" unicode="&#xaa;" horiz-adv-x="825" 
d="M387 1376q175 0 273 -97t98 -269v-146q0 -171 -98.5 -267.5t-274.5 -96.5q-155 0 -246.5 73.5t-91.5 198.5v8q0 252 309 252h154q0 57 -31.5 89t-91.5 32q-65 0 -102 -47q-37 -43 -95 -43q-49 0 -83.5 36t-34.5 87q0 37 16 61q38 57 114 93t185 36zM383 723
q120 0 127 111h-156q-61 0 -61 -52v-2q0 -27 24.5 -42t65.5 -15z" />
    <glyph glyph-name="guillemotleft" unicode="&#xab;" horiz-adv-x="1185" 
d="M324 518l241 -239q45 -45 45 -95q0 -56 -35 -90.5t-90 -34.5q-49 0 -94 45l-309 310q-49 49 -49 104q0 56 49 105l309 309q45 45 94 45q55 0 90 -34.5t35 -90.5q0 -49 -45 -94zM846 518l241 -239q46 -46 46 -95q0 -56 -34.5 -90.5t-90.5 -34.5q-50 0 -95 45l-309 310
q-49 49 -49 104q0 56 49 105l309 309q45 45 95 45q56 0 90.5 -34.5t34.5 -90.5q0 -48 -46 -94z" />
    <glyph glyph-name="logicalnot" unicode="&#xac;" horiz-adv-x="1163" 
d="M195 844h774q59 0 95 -35t36 -92v-387q0 -59 -35 -95t-92 -36t-92 36t-35 95v260h-651q-59 0 -95.5 35t-36.5 92t36.5 92t95.5 35z" />
    <glyph glyph-name="uni00AD" unicode="&#xad;" horiz-adv-x="696" 
d="M193 700h311q68 0 107.5 -37t39.5 -102t-39.5 -102t-107.5 -37h-311q-69 0 -108.5 36.5t-39.5 102.5t39.5 102.5t108.5 36.5z" />
    <glyph glyph-name="registered" unicode="&#xae;" horiz-adv-x="1531" 
d="M766 1376q147 0 276.5 -54t222.5 -147t147 -222.5t54 -276.5q0 -196 -91.5 -356.5t-252 -252.5t-356.5 -92t-356.5 92t-252 252.5t-91.5 356.5q0 147 54 276.5t147 222.5t222.5 147t276.5 54zM766 156q215 0 357.5 146.5t142.5 373.5t-142.5 373.5t-357.5 146.5
t-357.5 -146.5t-142.5 -373.5t142.5 -373.5t357.5 -146.5zM934 594l102 -129q19 -25 19 -59q0 -45 -28 -73t-73 -28q-52 0 -82 45l-145 215h-31v-153q0 -50 -26.5 -78.5t-73.5 -28.5t-73.5 28.5t-26.5 78.5v516q0 51 27 78.5t77 27.5h182q129 0 195.5 -62t66.5 -179
q0 -150 -110 -199zM844 786q0 66 -82 66h-66v-131h66q82 0 82 65z" />
    <glyph glyph-name="macron" unicode="&#xaf;" horiz-adv-x="983" 
d="M305 1444h375q57 0 90 -30.5t33 -82.5t-33 -82t-90 -30h-375q-57 0 -90 30t-33 82t33 82.5t90 30.5z" />
    <glyph glyph-name="degree" unicode="&#xb0;" horiz-adv-x="706" 
d="M354 774q-130 0 -215.5 86t-85.5 215t85.5 215t215.5 86q129 0 214 -86t85 -215t-85 -215t-214 -86zM354 967q46 0 73.5 29.5t27.5 80.5q0 49 -27.5 79t-73.5 30t-74 -30t-28 -79q0 -51 28 -80.5t74 -29.5z" />
    <glyph glyph-name="plusminus" unicode="&#xb1;" horiz-adv-x="1163" 
d="M709 254h260q59 0 95 -35t36 -92t-36 -92t-95 -35h-774q-59 0 -95.5 35t-36.5 92t36.5 92t95.5 35h260v295h-260q-59 0 -95.5 35t-36.5 92t36.5 92t95.5 35h260v260q0 59 35 95t92 36t92 -36t35 -95v-260h260q59 0 95 -35t36 -92t-36 -92t-95 -35h-260v-295z" />
    <glyph glyph-name="twosuperior" unicode="&#xb2;" 
d="M285 963h266q41 0 65.5 -25t24.5 -66t-24.5 -65.5t-65.5 -24.5h-363q-45 0 -72.5 28.5t-27.5 74.5v6q0 145 55.5 226.5t184.5 127.5q74 27 100.5 54t26.5 71q0 82 -76 82q-57 0 -100 -55q-33 -45 -86 -45q-43 0 -68 26t-25 70q0 27 23 65q38 55 106 87t148 32
q132 0 203 -67.5t71 -194.5q0 -107 -48 -169.5t-165 -100.5q-83 -28 -115.5 -57.5t-37.5 -79.5z" />
    <glyph glyph-name="threesuperior" unicode="&#xb3;" 
d="M537 1225v-4q116 -51 116 -189q0 -126 -78 -195t-219 -69q-91 0 -160.5 34t-105.5 95q-14 22 -14 53q0 44 26.5 71.5t67.5 27.5q55 0 80 -43q36 -58 112 -58q43 0 67 23.5t24 66.5q0 40 -25.5 62t-71.5 22h-49q-41 0 -65.5 24t-24.5 64t24.5 64t65.5 24h31q98 0 98 80
q0 35 -19.5 54.5t-56.5 19.5q-55 0 -100 -57q-28 -39 -76 -39q-43 0 -68.5 26t-25.5 70q0 36 19 61q86 119 247 119q134 0 205.5 -62t71.5 -177q0 -117 -96 -168z" />
    <glyph glyph-name="acute" unicode="&#xb4;" horiz-adv-x="983" 
d="M766 1397q0 -59 -41 -92l-174 -129q-30 -23 -70 -23q-44 0 -73 31t-29 76q0 47 29 73l151 146q37 37 88 37t85 -34t34 -85z" />
    <glyph glyph-name="uni00B5" unicode="&#xb5;" horiz-adv-x="1112" 
d="M868 1049q66 0 103 -39.5t37 -108.5v-489q0 -204 -101.5 -320.5t-281.5 -116.5q-137 0 -224 78h-4v-262q0 -69 -36.5 -108t-102.5 -39t-102.5 39t-36.5 108v1110q0 69 36.5 108.5t102.5 39.5t102.5 -39.5t36.5 -108.5v-477q0 -199 166 -199q82 0 124 50t42 147v479
q0 69 36.5 108.5t102.5 39.5z" />
    <glyph glyph-name="paragraph" unicode="&#xb6;" horiz-adv-x="1234" 
d="M1096 1276v-1497q0 -63 -33.5 -99t-93.5 -36q-61 0 -95 36t-34 99v1407h-148v-1407q0 -63 -33.5 -99t-93.5 -36t-94.5 36t-34.5 99v723q-383 56 -383 456q0 237 130 350t390 113h377q69 0 107.5 -38t38.5 -107z" />
    <glyph glyph-name="periodcentered" unicode="&#xb7;" horiz-adv-x="552" 
d="M276 512q-70 0 -116.5 46.5t-46.5 117.5t46.5 117.5t116.5 46.5t117 -47t47 -117t-47 -117t-117 -47z" />
    <glyph glyph-name="cedilla" unicode="&#xb8;" horiz-adv-x="983" 
d="M545 -68q68 0 108.5 -40t40.5 -107q0 -71 -53.5 -112.5t-144.5 -41.5q-66 0 -106.5 10t-72.5 35q-28 22 -28 58q0 28 18.5 47.5t48.5 19.5q22 0 39 -10q34 -22 86 -22q43 0 43 32q0 15 -13 23t-32 8q-22 0 -40.5 -3t-26.5 -3q-27 0 -42.5 14.5t-15.5 36.5q0 20 11 39
l59 104h123l-53 -94l2 -2q24 8 49 8z" />
    <glyph glyph-name="onesuperior" unicode="&#xb9;" 
d="M510 965h78q41 0 65.5 -25t24.5 -68q0 -41 -24.5 -65.5t-65.5 -24.5h-363q-41 0 -65.5 24.5t-24.5 65.5q0 40 24.5 65.5t65.5 25.5h88v475h-88q-41 0 -65.5 24.5t-24.5 67.5q0 41 24.5 64.5t65.5 23.5h187q44 0 71 -28t27 -74v-551z" />
    <glyph glyph-name="ordmasculine" unicode="&#xba;" horiz-adv-x="872" 
d="M436 1376q173 0 271 -97t98 -269v-146q0 -170 -98 -267t-271 -97t-270.5 96.5t-97.5 267.5v146q0 172 97.5 269t270.5 97zM436 1153q-123 0 -123 -152v-124q0 -154 123 -154t123 154v124q0 152 -123 152z" />
    <glyph glyph-name="guillemotright" unicode="&#xbb;" horiz-adv-x="1185" 
d="M862 518l-241 240q-46 46 -46 94q0 56 34.5 90.5t90.5 34.5q50 0 95 -45l309 -309q49 -49 49 -105q0 -55 -49 -104l-309 -310q-45 -45 -95 -45q-56 0 -90.5 34.5t-34.5 90.5q0 49 46 95zM340 518l-242 240q-45 45 -45 94q0 56 34.5 90.5t90.5 34.5q49 0 94 -45l310 -309
q49 -49 49 -105q0 -55 -49 -104l-310 -310q-45 -45 -94 -45q-56 0 -90.5 34.5t-34.5 90.5q0 50 45 95z" />
    <glyph glyph-name="onequarter" unicode="&#xbc;" horiz-adv-x="1728" 
d="M1272 1366q43 0 71.5 -27.5t28.5 -68.5q0 -26 -18 -60l-649 -1173q-28 -51 -84 -51q-43 0 -72 27.5t-29 68.5q0 23 19 59l649 1174q28 51 84 51zM1602 356h12q41 0 65.5 -24.5t24.5 -65.5t-24.5 -65.5t-65.5 -24.5h-12v-80q0 -47 -26.5 -75.5t-72.5 -28.5q-45 0 -71.5 28
t-26.5 76v80h-246q-49 0 -76.5 26.5t-27.5 69.5q0 40 24 78l299 432q43 62 115 62q50 0 79.5 -34t29.5 -85v-369zM1409 567h-4l-137 -211h141v211zM510 698h78q41 0 65.5 -24.5t24.5 -67.5q0 -41 -24.5 -65.5t-65.5 -24.5h-363q-41 0 -65.5 24.5t-24.5 65.5q0 40 24.5 65
t65.5 25h88v475h-88q-41 0 -65.5 25t-24.5 68q0 41 24.5 64.5t65.5 23.5h187q44 0 71 -28.5t27 -74.5v-551z" />
    <glyph glyph-name="onehalf" unicode="&#xbd;" horiz-adv-x="1728" 
d="M1210 1366q43 0 72 -27.5t29 -68.5q0 -24 -19 -60l-649 -1173q-28 -51 -84 -51q-43 0 -71.5 27.5t-28.5 68.5q0 24 18 59l649 1174q28 51 84 51zM1288 180h266q41 0 66 -24.5t25 -65.5t-25 -65.5t-66 -24.5h-362q-46 0 -73 28t-27 74v7q0 145 55 226.5t184 127.5
q74 27 100.5 54t26.5 71q0 82 -76 82q-56 0 -100 -56q-33 -45 -86 -45q-43 0 -67.5 26.5t-24.5 70.5q0 29 22 65q38 55 106 87t148 32q132 0 203.5 -67.5t71.5 -194.5q0 -108 -48 -170.5t-165 -100.5q-83 -28 -116 -57.5t-38 -79.5zM510 698h78q41 0 65.5 -24.5t24.5 -67.5
q0 -41 -24.5 -65.5t-65.5 -24.5h-363q-41 0 -65.5 24.5t-24.5 65.5q0 40 24.5 65t65.5 25h88v475h-88q-41 0 -65.5 25t-24.5 68q0 41 24.5 64.5t65.5 23.5h187q44 0 71 -28.5t27 -74.5v-551z" />
    <glyph glyph-name="threequarters" unicode="&#xbe;" horiz-adv-x="1728" 
d="M1262 1366q43 0 71.5 -27.5t28.5 -68.5q0 -24 -19 -60l-649 -1173q-28 -51 -84 -51q-43 0 -71.5 27.5t-28.5 68.5q0 24 18 59l650 1174q28 51 84 51zM1602 356h12q41 0 65.5 -24.5t24.5 -65.5t-24.5 -65.5t-65.5 -24.5h-12v-80q0 -47 -26.5 -75.5t-72.5 -28.5
q-45 0 -71.5 28t-26.5 76v80h-246q-49 0 -76.5 26.5t-27.5 69.5q0 40 24 78l299 432q43 62 115 62q50 0 79.5 -34t29.5 -85v-369zM1409 567h-4l-137 -211h141v211zM537 958v-4q116 -51 116 -188q0 -126 -78 -195t-219 -69q-91 0 -160.5 34t-105.5 95q-14 22 -14 53
q0 44 26 71t68 27q55 0 80 -43q35 -57 112 -57q43 0 67 23.5t24 66.5q0 40 -25.5 62t-71.5 22h-49q-41 0 -65.5 24t-24.5 64t24.5 64t65.5 24h31q98 0 98 80q0 35 -19.5 54.5t-56.5 19.5q-55 0 -100 -58q-27 -38 -76 -38q-43 0 -68.5 26t-25.5 70q0 36 19 61q86 119 247 119
q133 0 205 -62t72 -178q0 -117 -96 -168z" />
    <glyph glyph-name="questiondown" unicode="&#xbf;" horiz-adv-x="991" 
d="M492 -328q-200 0 -319.5 100t-119.5 267q0 129 53 206t179 134q76 35 105.5 67.5t29.5 79.5q0 61 36 96t97 35q63 0 98 -37.5t35 -103.5v-31q0 -111 -50.5 -185.5t-166.5 -127.5q-69 -32 -95 -59t-26 -64q0 -54 38 -84.5t106 -30.5q57 0 111.5 31t94.5 86q44 60 117 60
q64 0 103.5 -39.5t39.5 -104.5q0 -45 -24 -84q-65 -101 -179.5 -156t-262.5 -55zM553 733q-71 0 -117.5 46.5t-46.5 117.5t46.5 117.5t117.5 46.5t117.5 -46.5t46.5 -117.5t-46.5 -117.5t-117.5 -46.5z" />
    <glyph glyph-name="Agrave" unicode="&#xc0;" horiz-adv-x="1310" 
d="M831 1235l414 -1032q10 -23 10 -62q0 -69 -42 -111t-111 -42q-110 0 -148 102l-61 172h-483l-68 -182q-15 -43 -51.5 -67.5t-87.5 -24.5q-66 0 -107 40.5t-41 106.5q0 37 13 66l413 1034q50 129 174 129q123 0 176 -129zM657 926h-4l-145 -402h291zM379 1692
q0 51 34 84.5t85 33.5q52 0 88 -36l151 -146q29 -26 29 -74q0 -45 -29 -75.5t-73 -30.5q-42 0 -70 22l-174 129q-41 33 -41 93z" />
    <glyph glyph-name="Aacute" unicode="&#xc1;" horiz-adv-x="1310" 
d="M831 1235l414 -1032q10 -23 10 -62q0 -69 -42 -111t-111 -42q-110 0 -148 102l-61 172h-483l-68 -182q-15 -43 -51.5 -67.5t-87.5 -24.5q-66 0 -107 40.5t-41 106.5q0 37 13 66l413 1034q50 129 174 129q123 0 176 -129zM657 926h-4l-145 -402h291zM928 1692
q0 -60 -41 -93l-174 -129q-28 -22 -70 -22q-44 0 -73 30.5t-29 75.5q0 49 28 74l152 146q36 36 88 36q51 0 85 -33.5t34 -84.5z" />
    <glyph glyph-name="Acircumflex" unicode="&#xc2;" horiz-adv-x="1310" 
d="M831 1235l414 -1032q10 -23 10 -62q0 -69 -42 -111t-111 -42q-110 0 -148 102l-61 172h-483l-68 -182q-15 -43 -51.5 -67.5t-87.5 -24.5q-66 0 -107 40.5t-41 106.5q0 37 13 66l413 1034q50 129 174 129q123 0 176 -129zM657 926h-4l-145 -402h291zM655 1810
q56 0 109 -41l172 -135q37 -29 37 -82q0 -44 -29.5 -74t-73.5 -30q-32 0 -69 25l-146 100l-145 -100q-38 -25 -70 -25q-44 0 -73 30t-29 74q0 53 37 82l172 135q53 41 108 41z" />
    <glyph glyph-name="Atilde" unicode="&#xc3;" horiz-adv-x="1310" 
d="M831 1235l414 -1032q10 -23 10 -62q0 -69 -42 -111t-111 -42q-110 0 -148 102l-61 172h-483l-68 -182q-15 -43 -51.5 -67.5t-87.5 -24.5q-66 0 -107 40.5t-41 106.5q0 37 13 66l413 1034q50 129 174 129q123 0 176 -129zM657 926h-4l-145 -402h291zM764 1464
q-73 0 -152 62q-35 30 -57 30q-31 0 -55 -53q-24 -47 -82 -47q-46 0 -73.5 26.5t-27.5 69.5q0 20 7 41q31 95 88.5 145t134.5 50q72 0 151 -62q35 -30 58 -30q31 0 55 53q24 47 82 47q45 0 72.5 -26.5t27.5 -69.5q0 -23 -6 -41q-31 -94 -88 -144.5t-135 -50.5z" />
    <glyph glyph-name="Adieresis" unicode="&#xc4;" horiz-adv-x="1310" 
d="M831 1235l414 -1032q10 -23 10 -62q0 -69 -42 -111t-111 -42q-110 0 -148 102l-61 172h-483l-68 -182q-15 -43 -51.5 -67.5t-87.5 -24.5q-66 0 -107 40.5t-41 106.5q0 37 13 66l413 1034q50 129 174 129q123 0 176 -129zM657 926h-4l-145 -402h291zM461 1774
q65 0 104 -37.5t39 -98.5v-24q0 -61 -39 -98t-104 -37q-66 0 -106 37t-40 98v24q0 61 40 98.5t106 37.5zM850 1774q66 0 105.5 -37t39.5 -99v-24q0 -61 -39.5 -98t-105.5 -37q-65 0 -104 37t-39 98v24q0 61 39 98.5t104 37.5z" />
    <glyph glyph-name="Aring" unicode="&#xc5;" horiz-adv-x="1310" 
d="M831 1235l414 -1032q10 -23 10 -62q0 -69 -42 -111t-111 -42q-110 0 -148 102l-61 172h-483l-68 -182q-15 -43 -51.5 -67.5t-87.5 -24.5q-66 0 -107 40.5t-41 106.5q0 37 13 66l413 1034q50 129 174 129q123 0 176 -129zM657 926h-4l-145 -402h291zM655 1419
q-94 0 -156.5 62.5t-62.5 156.5t62.5 157t156.5 63t156.5 -63t62.5 -157t-62.5 -156.5t-156.5 -62.5zM655 1554q35 0 56.5 23t21.5 61q0 37 -21.5 59.5t-56.5 22.5t-56 -22.5t-21 -59.5q0 -38 21 -61t56 -23z" />
    <glyph glyph-name="AE" unicode="&#xc6;" horiz-adv-x="1972" 
d="M1255 270h510q67 0 105.5 -36t38.5 -99t-38.5 -99t-105.5 -36h-655q-76 0 -119 43t-43 119v100h-497l-158 -221q-38 -53 -119 -53q-66 0 -106.5 40.5t-40.5 106.5q0 55 26 92l752 1026q41 57 83.5 78t106.5 21h770q67 0 105.5 -36t38.5 -99t-38.5 -99.5t-105.5 -36.5
h-510v-262h418q67 0 105.5 -36t38.5 -99t-38.5 -99t-105.5 -36h-418v-279zM948 975h-4l-307 -451h311v451z" />
    <glyph glyph-name="Ccedilla" unicode="&#xc7;" horiz-adv-x="1239" 
d="M1016 506q70 0 108.5 -39.5t38.5 -106.5q0 -26 -10 -59q-46 -153 -165.5 -237.5t-301.5 -88.5l-29 -49l2 -2q24 8 50 8q68 0 108.5 -40t40.5 -107q0 -70 -54 -112t-145 -42q-66 0 -106 10t-72 35q-28 22 -28 58q0 28 18.5 47.5t48.5 19.5q22 0 39 -10q34 -22 86 -22
q43 0 43 32q0 15 -13 23t-32 8q-22 0 -41 -3t-27 -3q-27 0 -42 14t-15 37q0 21 10 39l37 66q-212 28 -329 170t-117 372v303q0 257 144.5 403t400.5 146q187 0 315 -83.5t166 -229.5q6 -18 6 -37q0 -66 -40.5 -106.5t-106.5 -40.5q-44 0 -79.5 25t-56.5 65q-72 137 -215 137
q-108 0 -167.5 -76.5t-59.5 -214.5v-278q0 -138 59.5 -214.5t167.5 -76.5q77 0 135 40.5t86 114.5q40 105 142 105z" />
    <glyph glyph-name="Egrave" unicode="&#xc8;" horiz-adv-x="1181" 
d="M465 270h510q67 0 105 -36t38 -99t-38 -99t-105 -36h-656q-76 0 -118.5 42.5t-42.5 119.5v1028q0 77 42.5 119.5t118.5 42.5h656q67 0 105 -36t38 -99t-38 -99.5t-105 -36.5h-510v-262h418q67 0 105 -36t38 -99t-38 -99t-105 -36h-418v-279zM356 1692q0 51 34 84.5
t85 33.5q52 0 88 -36l152 -146q28 -25 28 -74q0 -45 -29 -75.5t-73 -30.5q-42 0 -70 22l-174 129q-41 33 -41 93z" />
    <glyph glyph-name="Eacute" unicode="&#xc9;" horiz-adv-x="1181" 
d="M465 270h510q67 0 105 -36t38 -99t-38 -99t-105 -36h-656q-76 0 -118.5 42.5t-42.5 119.5v1028q0 77 42.5 119.5t118.5 42.5h656q67 0 105 -36t38 -99t-38 -99.5t-105 -36.5h-510v-262h418q67 0 105 -36t38 -99t-38 -99t-105 -36h-418v-279zM905 1692q0 -60 -41 -93
l-174 -129q-28 -22 -69 -22q-44 0 -73.5 30.5t-29.5 75.5q0 48 29 74l151 146q36 36 88 36q51 0 85 -33.5t34 -84.5z" />
    <glyph glyph-name="Ecircumflex" unicode="&#xca;" horiz-adv-x="1181" 
d="M465 270h510q67 0 105 -36t38 -99t-38 -99t-105 -36h-656q-76 0 -118.5 42.5t-42.5 119.5v1028q0 77 42.5 119.5t118.5 42.5h656q67 0 105 -36t38 -99t-38 -99.5t-105 -36.5h-510v-262h418q67 0 105 -36t38 -99t-38 -99t-105 -36h-418v-279zM633 1810q55 0 108 -41
l172 -135q37 -29 37 -82q0 -44 -29 -74t-73 -30q-32 0 -70 25l-145 100l-146 -100q-38 -25 -69 -25q-44 0 -73.5 30t-29.5 74q0 53 37 82l172 135q53 41 109 41z" />
    <glyph glyph-name="Edieresis" unicode="&#xcb;" horiz-adv-x="1181" 
d="M465 270h510q67 0 105 -36t38 -99t-38 -99t-105 -36h-656q-76 0 -118.5 42.5t-42.5 119.5v1028q0 77 42.5 119.5t118.5 42.5h656q67 0 105 -36t38 -99t-38 -99.5t-105 -36.5h-510v-262h418q67 0 105 -36t38 -99t-38 -99t-105 -36h-418v-279zM438 1774q65 0 104.5 -37.5
t39.5 -98.5v-24q0 -61 -39.5 -98t-104.5 -37q-66 0 -105.5 37t-39.5 98v24q0 62 39.5 99t105.5 37zM827 1774q66 0 106 -37.5t40 -98.5v-24q0 -61 -40 -98t-106 -37q-65 0 -104 37t-39 98v24q0 61 39 98.5t104 37.5z" />
    <glyph glyph-name="Igrave" unicode="&#xcc;" horiz-adv-x="622" 
d="M311 1364q72 0 113 -43.5t41 -118.5v-1052q0 -75 -41 -118.5t-113 -43.5t-112.5 43.5t-40.5 118.5v1052q0 75 40.5 118.5t112.5 43.5zM35 1692q0 51 34 84.5t85 33.5q52 0 88 -36l151 -146q29 -26 29 -74q0 -45 -29.5 -75.5t-73.5 -30.5q-41 0 -69 22l-174 129
q-41 33 -41 93z" />
    <glyph glyph-name="Iacute" unicode="&#xcd;" horiz-adv-x="622" 
d="M311 1364q72 0 113 -43.5t41 -118.5v-1052q0 -75 -41 -118.5t-113 -43.5t-112.5 43.5t-40.5 118.5v1052q0 75 40.5 118.5t112.5 43.5zM584 1692q0 -60 -41 -93l-174 -129q-28 -22 -70 -22q-44 0 -73 30.5t-29 75.5q0 49 28 74l152 146q36 36 88 36q51 0 85 -33.5
t34 -84.5z" />
    <glyph glyph-name="Icircumflex" unicode="&#xce;" horiz-adv-x="622" 
d="M311 1364q72 0 113 -43.5t41 -118.5v-1052q0 -75 -41 -118.5t-113 -43.5t-112.5 43.5t-40.5 118.5v1052q0 75 40.5 118.5t112.5 43.5zM311 1810q56 0 109 -41l172 -135q37 -29 37 -82q0 -44 -29.5 -74t-73.5 -30q-32 0 -69 25l-146 100l-145 -100q-37 -25 -70 -25
q-44 0 -73 30t-29 74q0 53 37 82l172 135q53 41 108 41z" />
    <glyph glyph-name="Idieresis" unicode="&#xcf;" horiz-adv-x="622" 
d="M311 1364q72 0 113 -43.5t41 -118.5v-1052q0 -75 -41 -118.5t-113 -43.5t-112.5 43.5t-40.5 118.5v1052q0 75 40.5 118.5t112.5 43.5zM117 1774q65 0 104 -37.5t39 -98.5v-24q0 -61 -39 -98t-104 -37q-66 0 -106 37t-40 98v24q0 61 40 98.5t106 37.5zM506 1774
q66 0 105.5 -37t39.5 -99v-24q0 -61 -39.5 -98t-105.5 -37q-65 0 -104.5 37t-39.5 98v24q0 61 39.5 98.5t104.5 37.5z" />
    <glyph glyph-name="Eth" unicode="&#xd0;" horiz-adv-x="1353" 
d="M334 1352h325q274 0 425 -145.5t151 -403.5v-254q0 -258 -151 -403.5t-425 -145.5h-325q-75 0 -117.5 43t-42.5 119v389h-18q-66 0 -104 36t-38 99t38 99t104 36h18v369q0 74 43 118t117 44zM928 559v234q0 139 -68.5 213.5t-200.5 74.5h-178v-260h150q67 0 105 -36
t38 -99t-38 -99t-105 -36h-150v-281h178q132 0 200.5 75t68.5 214z" />
    <glyph glyph-name="Ntilde" unicode="&#xd1;" horiz-adv-x="1361" 
d="M1057 1364q69 0 108 -41.5t39 -114.5v-1040q0 -86 -39 -133t-116 -47q-114 0 -175 102l-417 698h-4v-645q0 -73 -39.5 -114t-108.5 -41t-108 41t-39 114v1041q0 86 39 133t116 47q113 0 170 -98l422 -705h4v647q0 73 39.5 114.5t108.5 41.5zM791 1464q-73 0 -152 62
q-35 30 -57 30q-32 0 -56 -53q-24 -47 -82 -47q-45 0 -72.5 26.5t-27.5 69.5q0 23 6 41q31 95 88.5 145t134.5 50q73 0 152 -62q35 -30 57 -30q32 0 56 53q24 47 82 47q45 0 72.5 -26.5t27.5 -69.5q0 -23 -6 -41q-31 -94 -88 -144.5t-135 -50.5z" />
    <glyph glyph-name="Ograve" unicode="&#xd2;" horiz-adv-x="1347" 
d="M674 1376q259 0 407 -146t148 -403v-303q0 -257 -148 -403t-407 -146t-407 146t-148 403v303q0 257 148 403t407 146zM674 1106q-118 0 -183 -75.5t-65 -213.5v-282q0 -138 65 -213.5t183 -75.5t183 75.5t65 213.5v282q0 138 -65 213.5t-183 75.5zM397 1692q0 51 34 84.5
t85 33.5q52 0 88 -36l152 -146q28 -25 28 -74q0 -45 -29 -75.5t-73 -30.5q-42 0 -70 22l-174 129q-41 33 -41 93z" />
    <glyph glyph-name="Oacute" unicode="&#xd3;" horiz-adv-x="1347" 
d="M674 1376q259 0 407 -146t148 -403v-303q0 -257 -148 -403t-407 -146t-407 146t-148 403v303q0 257 148 403t407 146zM674 1106q-118 0 -183 -75.5t-65 -213.5v-282q0 -138 65 -213.5t183 -75.5t183 75.5t65 213.5v282q0 138 -65 213.5t-183 75.5zM946 1692
q0 -60 -41 -93l-174 -129q-28 -22 -69 -22q-44 0 -73.5 30.5t-29.5 75.5q0 48 29 74l151 146q36 36 88 36q51 0 85 -33.5t34 -84.5z" />
    <glyph glyph-name="Ocircumflex" unicode="&#xd4;" horiz-adv-x="1347" 
d="M674 1376q259 0 407 -146t148 -403v-303q0 -257 -148 -403t-407 -146t-407 146t-148 403v303q0 257 148 403t407 146zM674 1106q-118 0 -183 -75.5t-65 -213.5v-282q0 -138 65 -213.5t183 -75.5t183 75.5t65 213.5v282q0 138 -65 213.5t-183 75.5zM674 1810q55 0 108 -41
l172 -135q37 -29 37 -82q0 -44 -29 -74t-73 -30q-33 0 -70 25l-145 100l-146 -100q-38 -25 -69 -25q-44 0 -73.5 30t-29.5 74q0 53 37 82l172 135q53 41 109 41z" />
    <glyph glyph-name="Otilde" unicode="&#xd5;" horiz-adv-x="1347" 
d="M674 1376q259 0 407 -146t148 -403v-303q0 -257 -148 -403t-407 -146t-407 146t-148 403v303q0 257 148 403t407 146zM674 1106q-118 0 -183 -75.5t-65 -213.5v-282q0 -138 65 -213.5t183 -75.5t183 75.5t65 213.5v282q0 138 -65 213.5t-183 75.5zM782 1464
q-72 0 -151 62q-35 30 -58 30q-31 0 -55 -53q-24 -47 -82 -47q-45 0 -72.5 26.5t-27.5 69.5q0 23 6 41q31 95 88.5 145t134.5 50q73 0 152 -62q35 -30 57 -30q31 0 55 53q24 47 82 47q46 0 73.5 -26.5t27.5 -69.5q0 -23 -6 -41q-31 -94 -88.5 -144.5t-135.5 -50.5z" />
    <glyph glyph-name="Odieresis" unicode="&#xd6;" horiz-adv-x="1347" 
d="M674 1376q259 0 407 -146t148 -403v-303q0 -257 -148 -403t-407 -146t-407 146t-148 403v303q0 257 148 403t407 146zM674 1106q-118 0 -183 -75.5t-65 -213.5v-282q0 -138 65 -213.5t183 -75.5t183 75.5t65 213.5v282q0 138 -65 213.5t-183 75.5zM479 1774
q65 0 104.5 -37.5t39.5 -98.5v-24q0 -61 -39.5 -98t-104.5 -37q-66 0 -105.5 37t-39.5 98v24q0 62 39.5 99t105.5 37zM868 1774q66 0 106 -37.5t40 -98.5v-24q0 -61 -40 -98t-106 -37q-65 0 -104 37t-39 98v24q0 61 39 98.5t104 37.5z" />
    <glyph glyph-name="multiply" unicode="&#xd7;" horiz-adv-x="1163" 
d="M760 614l246 -245q43 -43 43 -95q0 -54 -36.5 -90.5t-90.5 -36.5q-52 0 -95 43l-245 246l-246 -246q-43 -43 -94 -43q-54 0 -90.5 36.5t-36.5 90.5q0 52 43 95l245 245l-245 246q-43 43 -43 94q0 54 36.5 90.5t90.5 36.5q51 0 94 -43l246 -245l245 245q43 43 95 43
q54 0 90.5 -36.5t36.5 -90.5q0 -51 -43 -94z" />
    <glyph glyph-name="Oslash" unicode="&#xd8;" horiz-adv-x="1347" 
d="M1194 1165l-33 -43q68 -124 68 -295v-303q0 -257 -148 -403t-407 -146q-191 0 -324 82l-12 -16q-39 -53 -105 -53q-47 0 -79.5 31.5t-32.5 78.5q0 43 35 88l30 41q-67 128 -67 297v303q0 257 148 403t407 146q189 0 325 -82l13 17q39 53 104 53q47 0 80 -32t33 -79
q0 -43 -35 -88zM674 1106q-118 0 -183 -75.5t-65 -213.5v-272h4l393 518q-58 43 -149 43zM918 803l-392 -514q58 -43 148 -43q118 0 183 75.5t65 213.5v268h-4z" />
    <glyph glyph-name="Ugrave" unicode="&#xd9;" horiz-adv-x="1273" 
d="M1004 1364q69 0 108 -41.5t39 -114.5v-714q0 -253 -131.5 -386t-382.5 -133t-382.5 133t-131.5 386v708q0 75 42 118.5t114 43.5q71 0 111 -43t40 -119v-698q0 -132 52 -196t159 -64q109 0 162 64t53 196v704q0 73 39.5 114.5t108.5 41.5zM360 1692q0 51 34 84.5t85 33.5
q52 0 88 -36l152 -146q29 -26 29 -74q0 -45 -29.5 -75.5t-73.5 -30.5q-42 0 -70 22l-174 129q-41 33 -41 93z" />
    <glyph glyph-name="Uacute" unicode="&#xda;" horiz-adv-x="1273" 
d="M1004 1364q69 0 108 -41.5t39 -114.5v-714q0 -253 -131.5 -386t-382.5 -133t-382.5 133t-131.5 386v708q0 75 42 118.5t114 43.5q71 0 111 -43t40 -119v-698q0 -132 52 -196t159 -64q109 0 162 64t53 196v704q0 73 39.5 114.5t108.5 41.5zM909 1692q0 -60 -41 -93
l-174 -129q-28 -22 -69 -22q-44 0 -73.5 30.5t-29.5 75.5q0 48 29 74l151 146q36 36 89 36q51 0 84.5 -33.5t33.5 -84.5z" />
    <glyph glyph-name="Ucircumflex" unicode="&#xdb;" horiz-adv-x="1273" 
d="M1004 1364q69 0 108 -41.5t39 -114.5v-714q0 -253 -131.5 -386t-382.5 -133t-382.5 133t-131.5 386v708q0 75 42 118.5t114 43.5q71 0 111 -43t40 -119v-698q0 -132 52 -196t159 -64q109 0 162 64t53 196v704q0 73 39.5 114.5t108.5 41.5zM637 1810q55 0 108 -41
l173 -135q36 -28 36 -82q0 -44 -29 -74t-73 -30q-33 0 -70 25l-145 100l-145 -100q-38 -25 -70 -25q-44 0 -73.5 30t-29.5 74q0 53 37 82l172 135q53 41 109 41z" />
    <glyph glyph-name="Udieresis" unicode="&#xdc;" horiz-adv-x="1273" 
d="M1004 1364q69 0 108 -41.5t39 -114.5v-714q0 -253 -131.5 -386t-382.5 -133t-382.5 133t-131.5 386v708q0 75 42 118.5t114 43.5q71 0 111 -43t40 -119v-698q0 -132 52 -196t159 -64q109 0 162 64t53 196v704q0 73 39.5 114.5t108.5 41.5zM442 1774q65 0 104.5 -37.5
t39.5 -98.5v-24q0 -61 -39.5 -98t-104.5 -37q-66 0 -105.5 37t-39.5 98v24q0 62 39.5 99t105.5 37zM831 1774q66 0 106 -37.5t40 -98.5v-24q0 -61 -40 -98t-106 -37q-65 0 -104 37t-39 98v24q0 61 39 98.5t104 37.5z" />
    <glyph glyph-name="Yacute" unicode="&#xdd;" horiz-adv-x="1196" 
d="M752 561v-411q0 -75 -41 -118.5t-113 -43.5t-113 43.5t-41 118.5v395l-387 575q-28 42 -28 90q0 69 42 111.5t111 42.5q82 0 125 -66l295 -462l295 462q19 30 52 48t71 18q66 0 106.5 -40.5t40.5 -106.5q0 -43 -28 -87zM870 1692q0 -60 -41 -93l-174 -129
q-28 -22 -69 -22q-44 0 -73.5 30.5t-29.5 75.5q0 48 29 74l152 146q36 36 88 36q51 0 84.5 -33.5t33.5 -84.5z" />
    <glyph glyph-name="Thorn" unicode="&#xde;" horiz-adv-x="1243" 
d="M465 1147h242q234 0 353.5 -111t119.5 -329t-120 -329.5t-353 -111.5h-242v-116q0 -75 -41 -118.5t-113 -43.5t-112.5 43.5t-40.5 118.5v1052q0 75 40.5 118.5t112.5 43.5t113 -43.5t41 -118.5v-55zM465 537h211q194 0 194 170t-194 170h-211v-340z" />
    <glyph glyph-name="germandbls" unicode="&#xdf;" horiz-adv-x="1171" 
d="M1135 313q0 -154 -107 -246t-287 -92q-148 0 -249 68q-29 20 -47.5 52t-18.5 67q0 62 36 99.5t97 37.5q39 0 80 -25q81 -53 137 -53q37 0 61.5 24.5t24.5 59.5q0 33 -26.5 55t-98.5 43q-137 40 -196.5 115t-59.5 207q0 72 26.5 130.5t86.5 121.5q37 41 49 63t12 45
q0 54 -32.5 82.5t-94.5 28.5q-131 0 -131 -141v-920q0 -69 -36.5 -108t-102.5 -39t-102.5 39t-36.5 108v942q0 177 105 273t300 96q192 0 297 -88.5t105 -251.5q0 -82 -28 -144t-93 -124q-34 -37 -45.5 -57.5t-11.5 -41.5q0 -38 29 -60.5t108 -49.5q133 -44 191.5 -119
t58.5 -197z" />
    <glyph glyph-name="agrave" unicode="&#xe0;" horiz-adv-x="1040" 
d="M500 1061q211 0 330.5 -120.5t119.5 -334.5v-176q0 -214 -120 -334.5t-334 -120.5q-195 0 -308.5 90.5t-113.5 245.5v8q0 154 95.5 232t283.5 78h217q0 86 -47 134t-127 48q-91 0 -146 -68q-46 -59 -112 -59q-57 0 -96.5 38t-39.5 93q0 45 29 90q53 74 148.5 115
t220.5 41zM492 225q83 0 130.5 47.5t47.5 130.5h-219q-47 0 -73 -20t-26 -57v-7q0 -44 37 -69t103 -25zM225 1397q0 51 34 85t85 34t88 -37l152 -146q28 -25 28 -73q0 -45 -29 -76t-73 -31q-40 0 -70 23l-174 129q-41 33 -41 92z" />
    <glyph glyph-name="aacute" unicode="&#xe1;" horiz-adv-x="1040" 
d="M500 1061q211 0 330.5 -120.5t119.5 -334.5v-176q0 -214 -120 -334.5t-334 -120.5q-195 0 -308.5 90.5t-113.5 245.5v8q0 154 95.5 232t283.5 78h217q0 86 -47 134t-127 48q-91 0 -146 -68q-46 -59 -112 -59q-57 0 -96.5 38t-39.5 93q0 45 29 90q53 74 148.5 115
t220.5 41zM492 225q83 0 130.5 47.5t47.5 130.5h-219q-47 0 -73 -20t-26 -57v-7q0 -44 37 -69t103 -25zM774 1397q0 -59 -41 -92l-174 -129q-30 -23 -70 -23q-44 0 -73 31t-29 76q0 47 29 73l151 146q37 37 88 37t85 -34t34 -85z" />
    <glyph glyph-name="acircumflex" unicode="&#xe2;" horiz-adv-x="1040" 
d="M500 1061q211 0 330.5 -120.5t119.5 -334.5v-176q0 -214 -120 -334.5t-334 -120.5q-195 0 -308.5 90.5t-113.5 245.5v8q0 154 95.5 232t283.5 78h217q0 86 -47 134t-127 48q-91 0 -146 -68q-46 -59 -112 -59q-57 0 -96.5 38t-39.5 93q0 45 29 90q53 74 148.5 115
t220.5 41zM492 225q83 0 130.5 47.5t47.5 130.5h-219q-47 0 -73 -20t-26 -57v-7q0 -44 37 -69t103 -25zM502 1516q55 0 108 -41l172 -136q37 -29 37 -82q0 -44 -29 -74t-73 -30q-33 0 -70 25l-145 100l-146 -100q-38 -25 -69 -25q-44 0 -73.5 30t-29.5 74q0 53 37 82
l172 136q53 41 109 41z" />
    <glyph glyph-name="atilde" unicode="&#xe3;" horiz-adv-x="1040" 
d="M500 1061q211 0 330.5 -120.5t119.5 -334.5v-176q0 -214 -120 -334.5t-334 -120.5q-195 0 -308.5 90.5t-113.5 245.5v8q0 154 95.5 232t283.5 78h217q0 86 -47 134t-127 48q-91 0 -146 -68q-46 -59 -112 -59q-57 0 -96.5 38t-39.5 93q0 45 29 90q53 74 148.5 115
t220.5 41zM492 225q83 0 130.5 47.5t47.5 130.5h-219q-47 0 -73 -20t-26 -57v-7q0 -44 37 -69t103 -25zM610 1169q-72 0 -151 62q-36 31 -58 31q-30 0 -55 -54q-24 -47 -82 -47q-45 0 -72.5 26.5t-27.5 69.5q0 23 6 41q31 95 88.5 145t134.5 50q74 0 152 -61q36 -31 57 -31
q31 0 55 53q24 47 82 47q46 0 73.5 -26.5t27.5 -69.5q0 -23 -6 -41q-31 -94 -88.5 -144.5t-135.5 -50.5z" />
    <glyph glyph-name="adieresis" unicode="&#xe4;" horiz-adv-x="1040" 
d="M500 1061q211 0 330.5 -120.5t119.5 -334.5v-176q0 -214 -120 -334.5t-334 -120.5q-195 0 -308.5 90.5t-113.5 245.5v8q0 154 95.5 232t283.5 78h217q0 86 -47 134t-127 48q-91 0 -146 -68q-46 -59 -112 -59q-57 0 -96.5 38t-39.5 93q0 45 29 90q53 74 148.5 115
t220.5 41zM492 225q83 0 130.5 47.5t47.5 130.5h-219q-47 0 -73 -20t-26 -57v-7q0 -44 37 -69t103 -25zM307 1479q65 0 104.5 -37.5t39.5 -98.5v-24q0 -61 -39.5 -98t-104.5 -37q-66 0 -105.5 37t-39.5 98v24q0 62 39.5 99t105.5 37zM696 1479q66 0 106 -37.5t40 -98.5v-24
q0 -61 -40 -98t-106 -37q-65 0 -104 37t-39 98v24q0 61 39 98.5t104 37.5z" />
    <glyph glyph-name="aring" unicode="&#xe5;" horiz-adv-x="1040" 
d="M500 1061q211 0 330.5 -120.5t119.5 -334.5v-176q0 -214 -120 -334.5t-334 -120.5q-195 0 -308.5 90.5t-113.5 245.5v8q0 154 95.5 232t283.5 78h217q0 86 -47 134t-127 48q-91 0 -146 -68q-46 -59 -112 -59q-57 0 -96.5 38t-39.5 93q0 45 29 90q53 74 148.5 115
t220.5 41zM492 225q83 0 130.5 47.5t47.5 130.5h-219q-47 0 -73 -20t-26 -57v-7q0 -44 37 -69t103 -25zM502 1124q-94 0 -156.5 62.5t-62.5 156.5t62.5 157t156.5 63t156.5 -63t62.5 -157t-62.5 -156.5t-156.5 -62.5zM502 1260q35 0 56.5 22.5t21.5 60.5q0 37 -21.5 59.5
t-56.5 22.5t-56.5 -22.5t-21.5 -59.5q0 -38 21.5 -60.5t56.5 -22.5z" />
    <glyph glyph-name="ae" unicode="&#xe6;" horiz-adv-x="1628" 
d="M1137 1061q195 0 307 -122t112 -333v-59q0 -63 -35 -100t-98 -37h-473q0 -86 47 -135.5t129 -49.5q86 0 146 72q48 55 110 55q64 0 101 -35.5t37 -97.5q0 -43 -29 -88q-113 -156 -344 -156q-230 0 -334 156h-4q-104 -156 -334 -156q-186 0 -293.5 90.5t-107.5 245.5v15
q0 309 379 309h219q0 82 -48 129t-128 47q-83 0 -144 -68q-52 -59 -112 -59q-57 0 -97.5 40.5t-40.5 96.5q0 39 29 84q51 73 143 114.5t201 41.5q230 0 334 -156h4q101 156 324 156zM950 635h330q-15 176 -164 176q-75 0 -120.5 -47t-45.5 -129zM492 225q85 0 132.5 49.5
t47.5 135.5h-221q-47 0 -73 -20.5t-26 -57.5v-13q0 -44 37 -69t103 -25z" />
    <glyph glyph-name="ccedilla" unicode="&#xe7;" horiz-adv-x="966" 
d="M780 362q60 0 97.5 -37t37.5 -98q0 -40 -20 -73q-100 -170 -342 -179l-29 -49l2 -2q24 8 49 8q68 0 109 -40t41 -107q0 -70 -54 -112t-145 -42q-66 0 -106 10t-72 35q-29 23 -29 58q0 28 19 47.5t49 19.5q22 0 39 -10q34 -22 86 -22q43 0 43 32q0 15 -13 23t-32 8
q-22 0 -41 -3t-27 -3q-27 0 -42 14t-15 37q0 21 10 39l39 68q-163 26 -253.5 142.5t-90.5 303.5v176q0 213 119 334t326 121q223 0 342 -143q30 -38 30 -87q0 -62 -36.5 -99.5t-96.5 -37.5q-67 0 -112 58q-47 59 -127 59q-79 0 -122.5 -56t-43.5 -159v-156q0 -103 42 -159
t119 -56q85 0 136 74q44 63 114 63z" />
    <glyph glyph-name="egrave" unicode="&#xe8;" horiz-adv-x="1046" 
d="M535 1061q207 0 323.5 -121t116.5 -334v-53q0 -63 -35 -100t-98 -37h-473q0 -91 46.5 -141t129.5 -50q88 0 145 72q45 55 111 55q64 0 100.5 -36t36.5 -97q0 -45 -29 -88q-110 -156 -364 -156q-214 0 -334.5 120.5t-120.5 334.5v176q0 213 119 334t326 121zM535 811
q-73 0 -119.5 -46t-46.5 -124h329q0 78 -45 124t-118 46zM252 1397q0 51 34 85t85 34t88 -37l151 -146q29 -26 29 -73q0 -45 -29 -76t-73 -31q-40 0 -70 23l-174 129q-41 33 -41 92z" />
    <glyph glyph-name="eacute" unicode="&#xe9;" horiz-adv-x="1046" 
d="M535 1061q207 0 323.5 -121t116.5 -334v-53q0 -63 -35 -100t-98 -37h-473q0 -91 46.5 -141t129.5 -50q88 0 145 72q45 55 111 55q64 0 100.5 -36t36.5 -97q0 -45 -29 -88q-110 -156 -364 -156q-214 0 -334.5 120.5t-120.5 334.5v176q0 213 119 334t326 121zM535 811
q-73 0 -119.5 -46t-46.5 -124h329q0 78 -45 124t-118 46zM801 1397q0 -59 -41 -92l-174 -129q-30 -23 -70 -23q-44 0 -73 31t-29 76q0 48 28 73l152 146q37 37 88 37t85 -34t34 -85z" />
    <glyph glyph-name="ecircumflex" unicode="&#xea;" horiz-adv-x="1046" 
d="M535 1061q207 0 323.5 -121t116.5 -334v-53q0 -63 -35 -100t-98 -37h-473q0 -91 46.5 -141t129.5 -50q88 0 145 72q45 55 111 55q64 0 100.5 -36t36.5 -97q0 -45 -29 -88q-110 -156 -364 -156q-214 0 -334.5 120.5t-120.5 334.5v176q0 213 119 334t326 121zM535 811
q-73 0 -119.5 -46t-46.5 -124h329q0 78 -45 124t-118 46zM528 1516q56 0 109 -41l172 -136q37 -29 37 -82q0 -44 -29.5 -74t-73.5 -30q-31 0 -69 25l-146 100l-145 -100q-38 -25 -70 -25q-44 0 -73 30t-29 74q0 53 37 82l172 136q53 41 108 41z" />
    <glyph glyph-name="edieresis" unicode="&#xeb;" horiz-adv-x="1046" 
d="M535 1061q207 0 323.5 -121t116.5 -334v-53q0 -63 -35 -100t-98 -37h-473q0 -91 46.5 -141t129.5 -50q88 0 145 72q45 55 111 55q64 0 100.5 -36t36.5 -97q0 -45 -29 -88q-110 -156 -364 -156q-214 0 -334.5 120.5t-120.5 334.5v176q0 213 119 334t326 121zM535 811
q-73 0 -119.5 -46t-46.5 -124h329q0 78 -45 124t-118 46zM334 1479q65 0 104 -37.5t39 -98.5v-24q0 -61 -39 -98t-104 -37q-66 0 -106 37t-40 98v24q0 61 40 98.5t106 37.5zM723 1479q66 0 105.5 -37t39.5 -99v-24q0 -61 -39.5 -98t-105.5 -37q-65 0 -104 37t-39 98v24
q0 61 39 98.5t104 37.5z" />
    <glyph glyph-name="igrave" unicode="&#xec;" horiz-adv-x="512" 
d="M256 1049q66 0 102.5 -39.5t36.5 -108.5v-766q0 -69 -36.5 -108t-102.5 -39t-102.5 39t-36.5 108v766q0 69 36.5 108.5t102.5 39.5zM-20 1397q0 51 33.5 85t84.5 34t88 -37l152 -146q29 -26 29 -73q0 -45 -29.5 -76t-73.5 -31q-39 0 -69 23l-175 129q-40 32 -40 92z" />
    <glyph glyph-name="iacute" unicode="&#xed;" horiz-adv-x="512" 
d="M256 1049q66 0 102.5 -39.5t36.5 -108.5v-766q0 -69 -36.5 -108t-102.5 -39t-102.5 39t-36.5 108v766q0 69 36.5 108.5t102.5 39.5zM528 1397q0 -59 -41 -92l-174 -129q-30 -23 -69 -23q-44 0 -73.5 31t-29.5 76q0 47 29 73l152 146q37 37 88 37t84.5 -34t33.5 -85z" />
    <glyph glyph-name="icircumflex" unicode="&#xee;" horiz-adv-x="512" 
d="M256 1049q66 0 102.5 -39.5t36.5 -108.5v-766q0 -69 -36.5 -108t-102.5 -39t-102.5 39t-36.5 108v766q0 69 36.5 108.5t102.5 39.5zM256 1516q56 0 109 -41l172 -136q36 -28 36 -82q0 -44 -29 -74t-73 -30q-33 0 -70 25l-145 100l-145 -100q-37 -25 -70 -25q-44 0 -73 30
t-29 74q0 54 36 82l172 136q53 41 109 41z" />
    <glyph glyph-name="idieresis" unicode="&#xef;" horiz-adv-x="512" 
d="M256 1049q66 0 102.5 -39.5t36.5 -108.5v-766q0 -69 -36.5 -108t-102.5 -39t-102.5 39t-36.5 108v766q0 69 36.5 108.5t102.5 39.5zM61 1479q65 0 104.5 -37.5t39.5 -98.5v-24q0 -61 -39.5 -98t-104.5 -37q-66 0 -105.5 37t-39.5 98v24q0 62 39.5 99t105.5 37zM451 1479
q66 0 105.5 -37t39.5 -99v-24q0 -61 -39.5 -98t-105.5 -37q-65 0 -104.5 37t-39.5 98v24q0 61 39.5 98.5t104.5 37.5z" />
    <glyph glyph-name="eth" unicode="&#xf0;" horiz-adv-x="1089" 
d="M829 1243l-71 -35q114 -116 177.5 -273.5t63.5 -344.5v-160q0 -214 -120 -334.5t-334 -120.5t-334.5 120.5t-120.5 334.5v133q0 200 109 318t295 118q44 0 77 -8l2 2q-33 41 -92 86l-149 -71q-18 -9 -33 -9q-26 0 -41.5 19.5t-15.5 44.5q0 34 39 53l69 33v4l-20 6
q-38 10 -70.5 44.5t-32.5 80.5q0 60 35 105t96 45q52 0 140.5 -43t160.5 -95l119 56q19 8 33 8q26 0 41.5 -19.5t15.5 -44.5q0 -34 -39 -53zM721 440v113q0 94 -45.5 145.5t-130.5 51.5t-130.5 -51.5t-45.5 -145.5v-113q0 -215 176 -215t176 215z" />
    <glyph glyph-name="ntilde" unicode="&#xf1;" horiz-adv-x="1097" 
d="M549 1061q207 0 325.5 -119t118.5 -326v-481q0 -69 -36.5 -108t-102.5 -39t-102.5 39t-36.5 108v471q0 205 -166 205t-166 -205v-471q0 -69 -36.5 -108t-102.5 -39t-103 39t-37 108v481q0 207 119 326t326 119zM657 1169q-72 0 -151 62q-36 31 -57 31q-31 0 -56 -54
q-24 -47 -82 -47q-45 0 -72.5 26.5t-27.5 69.5q0 23 6 41q31 95 88.5 145t134.5 50q74 0 152 -61q36 -31 57 -31q32 0 56 53q24 47 81 47q46 0 73.5 -26.5t27.5 -69.5q0 -23 -6 -41q-31 -94 -88.5 -144.5t-135.5 -50.5z" />
    <glyph glyph-name="ograve" unicode="&#xf2;" horiz-adv-x="1089" 
d="M545 1061q214 0 334 -120.5t120 -334.5v-176q0 -214 -120 -334.5t-334 -120.5t-334.5 120.5t-120.5 334.5v176q0 214 120.5 334.5t334.5 120.5zM545 811q-176 0 -176 -215v-156q0 -215 176 -215t176 215v156q0 215 -176 215zM268 1397q0 51 34 85t85 34t88 -37l152 -146
q28 -25 28 -73q0 -45 -29 -76t-73 -31q-40 0 -70 23l-174 129q-41 33 -41 92z" />
    <glyph glyph-name="oacute" unicode="&#xf3;" horiz-adv-x="1089" 
d="M545 1061q214 0 334 -120.5t120 -334.5v-176q0 -214 -120 -334.5t-334 -120.5t-334.5 120.5t-120.5 334.5v176q0 214 120.5 334.5t334.5 120.5zM545 811q-176 0 -176 -215v-156q0 -215 176 -215t176 215v156q0 215 -176 215zM817 1397q0 -59 -41 -92l-174 -129
q-30 -23 -70 -23q-44 0 -73 31t-29 76q0 47 29 73l151 146q37 37 88 37t85 -34t34 -85z" />
    <glyph glyph-name="ocircumflex" unicode="&#xf4;" horiz-adv-x="1089" 
d="M545 1061q214 0 334 -120.5t120 -334.5v-176q0 -214 -120 -334.5t-334 -120.5t-334.5 120.5t-120.5 334.5v176q0 214 120.5 334.5t334.5 120.5zM545 811q-176 0 -176 -215v-156q0 -215 176 -215t176 215v156q0 215 -176 215zM545 1516q55 0 108 -41l172 -136
q37 -29 37 -82q0 -44 -29 -74t-73 -30q-32 0 -70 25l-145 100l-146 -100q-37 -25 -69 -25q-44 0 -73.5 30t-29.5 74q0 53 37 82l172 136q53 41 109 41z" />
    <glyph glyph-name="otilde" unicode="&#xf5;" horiz-adv-x="1089" 
d="M545 1061q214 0 334 -120.5t120 -334.5v-176q0 -214 -120 -334.5t-334 -120.5t-334.5 120.5t-120.5 334.5v176q0 214 120.5 334.5t334.5 120.5zM545 811q-176 0 -176 -215v-156q0 -215 176 -215t176 215v156q0 215 -176 215zM653 1169q-72 0 -151 62q-36 31 -58 31
q-30 0 -55 -54q-24 -47 -82 -47q-45 0 -72.5 26.5t-27.5 69.5q0 23 6 41q31 95 88.5 145t134.5 50q74 0 152 -61q36 -31 57 -31q31 0 55 53q24 47 82 47q46 0 73.5 -26.5t27.5 -69.5q0 -23 -6 -41q-31 -94 -88.5 -144.5t-135.5 -50.5z" />
    <glyph glyph-name="odieresis" unicode="&#xf6;" horiz-adv-x="1089" 
d="M545 1061q214 0 334 -120.5t120 -334.5v-176q0 -214 -120 -334.5t-334 -120.5t-334.5 120.5t-120.5 334.5v176q0 214 120.5 334.5t334.5 120.5zM545 811q-176 0 -176 -215v-156q0 -215 176 -215t176 215v156q0 215 -176 215zM350 1479q65 0 104.5 -37.5t39.5 -98.5v-24
q0 -61 -39.5 -98t-104.5 -37q-66 0 -105.5 37t-39.5 98v24q0 62 39.5 99t105.5 37zM739 1479q66 0 106 -37.5t40 -98.5v-24q0 -61 -40 -98t-106 -37q-65 0 -104 37t-39 98v24q0 61 39 98.5t104 37.5z" />
    <glyph glyph-name="divide" unicode="&#xf7;" horiz-adv-x="1163" 
d="M582 868q-69 0 -111.5 39.5t-42.5 102.5v41q0 63 42.5 102t111.5 39t111 -39t42 -102v-41q0 -63 -42 -102.5t-111 -39.5zM174 741h815q59 0 95 -35t36 -92t-36 -92t-95 -35h-815q-59 0 -95 35t-36 92t36 92t95 35zM582 360q69 0 111 -39t42 -102v-41q0 -63 -42 -102
t-111 -39t-111.5 39t-42.5 102v41q0 63 42.5 102t111.5 39z" />
    <glyph glyph-name="oslash" unicode="&#xf8;" horiz-adv-x="1089" 
d="M963 846l-11 -12q47 -96 47 -228v-176q0 -214 -120 -334.5t-334 -120.5q-143 0 -246 56q-40 -43 -100 -43q-48 0 -78.5 30.5t-30.5 79.5q0 46 37 92l10 13q-47 96 -47 227v176q0 214 120.5 334.5t334.5 120.5q145 0 246 -55q40 43 98 43q48 0 79 -31t31 -80
q0 -47 -36 -92zM618 795v4q-30 12 -73 12q-176 0 -176 -215v-104h4zM717 545l-246 -303v-4q32 -13 74 -13q176 0 176 215v105h-4z" />
    <glyph glyph-name="ugrave" unicode="&#xf9;" horiz-adv-x="1097" 
d="M854 1049q66 0 102.5 -39.5t36.5 -108.5v-481q0 -207 -118.5 -326t-325.5 -119t-326 119t-119 326v481q0 69 37 108.5t103 39.5t102.5 -39.5t36.5 -108.5v-471q0 -205 166 -205t166 205v471q0 69 36.5 108.5t102.5 39.5zM272 1397q0 51 34 85t85 34t88 -37l152 -146
q28 -25 28 -73q0 -45 -29 -76t-73 -31q-40 0 -70 23l-174 129q-41 33 -41 92z" />
    <glyph glyph-name="uacute" unicode="&#xfa;" horiz-adv-x="1097" 
d="M854 1049q66 0 102.5 -39.5t36.5 -108.5v-481q0 -207 -118.5 -326t-325.5 -119t-326 119t-119 326v481q0 69 37 108.5t103 39.5t102.5 -39.5t36.5 -108.5v-471q0 -205 166 -205t166 205v471q0 69 36.5 108.5t102.5 39.5zM821 1397q0 -59 -41 -92l-174 -129
q-30 -23 -69 -23q-44 0 -73.5 31t-29.5 76q0 47 29 73l151 146q37 37 88 37t85 -34t34 -85z" />
    <glyph glyph-name="ucircumflex" unicode="&#xfb;" horiz-adv-x="1097" 
d="M854 1049q66 0 102.5 -39.5t36.5 -108.5v-481q0 -207 -118.5 -326t-325.5 -119t-326 119t-119 326v481q0 69 37 108.5t103 39.5t102.5 -39.5t36.5 -108.5v-471q0 -205 166 -205t166 205v471q0 69 36.5 108.5t102.5 39.5zM549 1516q55 0 108 -41l172 -136q37 -29 37 -82
q0 -44 -29 -74t-73 -30q-32 0 -70 25l-145 100l-146 -100q-38 -25 -69 -25q-44 0 -73.5 30t-29.5 74q0 53 37 82l172 136q53 41 109 41z" />
    <glyph glyph-name="udieresis" unicode="&#xfc;" horiz-adv-x="1097" 
d="M854 1049q66 0 102.5 -39.5t36.5 -108.5v-481q0 -207 -118.5 -326t-325.5 -119t-326 119t-119 326v481q0 69 37 108.5t103 39.5t102.5 -39.5t36.5 -108.5v-471q0 -205 166 -205t166 205v471q0 69 36.5 108.5t102.5 39.5zM354 1479q65 0 104.5 -37.5t39.5 -98.5v-24
q0 -61 -39.5 -98t-104.5 -37q-66 0 -105.5 37t-39.5 98v24q0 62 39.5 99t105.5 37zM743 1479q66 0 106 -37.5t40 -98.5v-24q0 -61 -40 -98t-106 -37q-65 0 -104 37t-39 98v24q0 61 39 98.5t104 37.5z" />
    <glyph glyph-name="yacute" unicode="&#xfd;" horiz-adv-x="1032" 
d="M864 1049q63 0 99 -37.5t36 -106.5q0 -28 -10 -51l-510 -1137q-34 -73 -125 -73q-64 0 -101.5 37t-37.5 102q0 35 16 67l142 263l-328 731q-12 27 -12 63q0 65 38.5 103.5t104.5 38.5q95 0 127 -82l215 -537h4l219 537q32 82 123 82zM784 1397q0 -59 -41 -92l-174 -129
q-30 -23 -69 -23q-44 0 -73.5 31t-29.5 76q0 47 29 73l152 146q37 37 88 37t84.5 -34t33.5 -85z" />
    <glyph glyph-name="thorn" unicode="&#xfe;" horiz-adv-x="1118" 
d="M625 1061q186 0 294.5 -118t108.5 -318v-213q0 -200 -108.5 -318.5t-294.5 -118.5q-137 0 -224 78h-4v-262q0 -69 -36.5 -108t-102.5 -39t-102.5 39t-36.5 108v1495q0 69 36.5 108.5t102.5 39.5t102.5 -39.5t36.5 -108.5v-303h4q87 78 224 78zM750 422v192
q0 94 -46 145.5t-131 51.5t-130.5 -51.5t-45.5 -145.5v-192q0 -94 45.5 -145.5t130.5 -51.5t131 51.5t46 145.5z" />
    <glyph glyph-name="ydieresis" unicode="&#xff;" horiz-adv-x="1032" 
d="M864 1049q63 0 99 -37.5t36 -106.5q0 -28 -10 -51l-510 -1137q-34 -73 -125 -73q-64 0 -101.5 37t-37.5 102q0 35 16 67l142 263l-328 731q-12 27 -12 63q0 65 38.5 103.5t104.5 38.5q95 0 127 -82l215 -537h4l219 537q32 82 123 82zM317 1479q65 0 104.5 -37.5
t39.5 -98.5v-24q0 -61 -39.5 -98t-104.5 -37q-66 0 -105.5 37t-39.5 98v24q0 62 39.5 99t105.5 37zM707 1479q66 0 105.5 -37t39.5 -99v-24q0 -61 -39.5 -98t-105.5 -37q-65 0 -104.5 37t-39.5 98v24q0 61 39.5 98.5t104.5 37.5z" />
    <glyph glyph-name="Amacron" unicode="&#x100;" horiz-adv-x="1310" 
d="M831 1235l414 -1032q10 -23 10 -62q0 -69 -42 -111t-111 -42q-110 0 -148 102l-61 172h-483l-68 -182q-15 -43 -51.5 -67.5t-87.5 -24.5q-66 0 -107 40.5t-41 106.5q0 37 13 66l413 1034q50 129 174 129q123 0 176 -129zM657 926h-4l-145 -402h291zM467 1739h375
q57 0 90 -30.5t33 -82.5t-33 -82.5t-90 -30.5h-375q-57 0 -90 30.5t-33 82.5t33 82.5t90 30.5z" />
    <glyph glyph-name="amacron" unicode="&#x101;" horiz-adv-x="1040" 
d="M500 1061q211 0 330.5 -120.5t119.5 -334.5v-176q0 -214 -120 -334.5t-334 -120.5q-195 0 -308.5 90.5t-113.5 245.5v8q0 154 95.5 232t283.5 78h217q0 86 -47 134t-127 48q-91 0 -146 -68q-46 -59 -112 -59q-57 0 -96.5 38t-39.5 93q0 45 29 90q53 74 148.5 115
t220.5 41zM492 225q83 0 130.5 47.5t47.5 130.5h-219q-47 0 -73 -20t-26 -57v-7q0 -44 37 -69t103 -25zM313 1444h375q57 0 90 -30.5t33 -82.5t-33 -82t-90 -30h-375q-57 0 -90 30t-33 82t33 82.5t90 30.5z" />
    <glyph glyph-name="Abreve" unicode="&#x102;" horiz-adv-x="1310" 
d="M831 1235l414 -1032q10 -23 10 -62q0 -69 -42 -111t-111 -42q-110 0 -148 102l-61 172h-483l-68 -182q-15 -43 -51.5 -67.5t-87.5 -24.5q-66 0 -107 40.5t-41 106.5q0 37 13 66l413 1034q50 129 174 129q123 0 176 -129zM657 926h-4l-145 -402h291zM655 1448
q-123 0 -205 57.5t-110 159.5q-6 24 -6 39q0 48 29.5 77t80.5 29q69 0 93 -61q36 -80 118 -80q83 0 119 80q24 61 92 61q51 0 81 -29t30 -77q0 -15 -6 -39q-28 -102 -110.5 -159.5t-205.5 -57.5z" />
    <glyph glyph-name="abreve" unicode="&#x103;" horiz-adv-x="1040" 
d="M500 1061q211 0 330.5 -120.5t119.5 -334.5v-176q0 -214 -120 -334.5t-334 -120.5q-195 0 -308.5 90.5t-113.5 245.5v8q0 154 95.5 232t283.5 78h217q0 86 -47 134t-127 48q-91 0 -146 -68q-46 -59 -112 -59q-57 0 -96.5 38t-39.5 93q0 45 29 90q53 74 148.5 115
t220.5 41zM492 225q83 0 130.5 47.5t47.5 130.5h-219q-47 0 -73 -20t-26 -57v-7q0 -44 37 -69t103 -25zM502 1153q-123 0 -205.5 57.5t-110.5 159.5q-6 24 -6 39q0 48 30 77.5t81 29.5q67 0 92 -62q36 -80 119 -80t119 80q25 62 92 62q50 0 80 -29.5t30 -77.5q0 -15 -6 -39
q-28 -102 -110 -159.5t-205 -57.5z" />
    <glyph glyph-name="Aogonek" unicode="&#x104;" horiz-adv-x="1310" 
d="M1149 -119q50 0 78 -29t28 -77q0 -59 -45 -90q-79 -54 -198 -54q-97 0 -157 45.5t-60 128.5q0 168 174 252q-1 4 -7 15t-8 18l-61 172h-483l-68 -182q-15 -43 -51.5 -67.5t-87.5 -24.5q-66 0 -107 40.5t-41 106.5q0 37 13 66l413 1034q50 129 174 129q123 0 176 -129
l414 -1032q10 -23 10 -62q0 -54 -26 -93t-72 -52q-156 -49 -156 -121q0 -19 10 -29t25 -10q16 0 47 22.5t66 22.5zM653 928l-145 -404h291l-142 404h-4z" />
    <glyph glyph-name="aogonek" unicode="&#x105;" horiz-adv-x="1040" 
d="M729 25q-57 -29 -87 -71.5t-30 -78.5q0 -19 10 -29t25 -10q18 0 32 11t32.5 22.5t48.5 11.5q50 0 78 -29t28 -77q0 -61 -47 -92q-74 -52 -196 -52q-97 0 -157 45.5t-60 128.5q0 87 69 168v2q-186 5 -293.5 94.5t-107.5 241.5v8q0 154 95.5 232t283.5 78h217q0 86 -47 134
t-127 48q-91 0 -146 -68q-46 -59 -112 -59q-57 0 -96.5 38t-39.5 93q0 45 29 90q53 74 148.5 115t220.5 41q211 0 330.5 -120.5t119.5 -334.5v-176q0 -148 -58 -250.5t-163 -154.5zM492 225q83 0 130.5 47.5t47.5 130.5h-219q-47 0 -73 -20t-26 -57v-7q0 -44 37 -69t103 -25
z" />
    <glyph glyph-name="Cacute" unicode="&#x106;" horiz-adv-x="1239" 
d="M1163 360q0 -26 -10 -59q-48 -158 -173 -242t-316 -84q-256 0 -400.5 146t-144.5 403v303q0 257 144.5 403t400.5 146q187 0 315 -83.5t166 -229.5q6 -18 6 -37q0 -66 -40.5 -106.5t-106.5 -40.5q-44 0 -79.5 25t-56.5 65q-72 137 -215 137q-108 0 -167.5 -76.5
t-59.5 -214.5v-278q0 -138 59.5 -214.5t167.5 -76.5q77 0 135 40.5t86 114.5q40 105 142 105q70 0 108.5 -39.5t38.5 -106.5zM905 1692q0 -60 -41 -93l-174 -129q-28 -22 -69 -22q-44 0 -73.5 30.5t-29.5 75.5q0 48 29 74l151 146q36 36 88 36q51 0 85 -33.5t34 -84.5z" />
    <glyph glyph-name="cacute" unicode="&#x107;" horiz-adv-x="966" 
d="M915 227q0 -40 -20 -73q-107 -179 -365 -179q-206 0 -323 121t-117 334v176q0 213 119 334t326 121q223 0 342 -143q30 -38 30 -87q0 -62 -36.5 -99.5t-96.5 -37.5q-67 0 -112 58q-47 59 -127 59q-79 0 -122.5 -56t-43.5 -159v-156q0 -103 42 -159t119 -56q85 0 136 74
q44 63 114 63q60 0 97.5 -37t37.5 -98zM778 1397q0 -59 -41 -92l-174 -129q-30 -23 -69 -23q-44 0 -73.5 31t-29.5 76q0 47 29 73l151 146q37 37 88 37t85 -34t34 -85z" />
    <glyph glyph-name="Ccircumflex" unicode="&#x108;" horiz-adv-x="1239" 
d="M1163 360q0 -26 -10 -59q-48 -158 -173 -242t-316 -84q-256 0 -400.5 146t-144.5 403v303q0 257 144.5 403t400.5 146q187 0 315 -83.5t166 -229.5q6 -18 6 -37q0 -66 -40.5 -106.5t-106.5 -40.5q-44 0 -79.5 25t-56.5 65q-72 137 -215 137q-108 0 -167.5 -76.5
t-59.5 -214.5v-278q0 -138 59.5 -214.5t167.5 -76.5q77 0 135 40.5t86 114.5q40 105 142 105q70 0 108.5 -39.5t38.5 -106.5zM633 1810q55 0 108 -41l172 -135q37 -29 37 -82q0 -44 -29 -74t-73 -30q-32 0 -70 25l-145 100l-146 -100q-38 -25 -69 -25q-44 0 -73.5 30
t-29.5 74q0 53 37 82l172 135q53 41 109 41z" />
    <glyph glyph-name="ccircumflex" unicode="&#x109;" horiz-adv-x="966" 
d="M915 227q0 -40 -20 -73q-107 -179 -365 -179q-206 0 -323 121t-117 334v176q0 213 119 334t326 121q223 0 342 -143q30 -38 30 -87q0 -62 -36.5 -99.5t-96.5 -37.5q-67 0 -112 58q-47 59 -127 59q-79 0 -122.5 -56t-43.5 -159v-156q0 -103 42 -159t119 -56q85 0 136 74
q44 63 114 63q60 0 97.5 -37t37.5 -98zM506 1516q55 0 108 -41l172 -136q37 -29 37 -82q0 -44 -29 -74t-73 -30q-33 0 -70 25l-145 100l-146 -100q-38 -25 -69 -25q-44 0 -73.5 30t-29.5 74q0 53 37 82l172 136q53 41 109 41z" />
    <glyph glyph-name="Cdotaccent" unicode="&#x10a;" horiz-adv-x="1239" 
d="M1163 360q0 -26 -10 -59q-48 -158 -173 -242t-316 -84q-256 0 -400.5 146t-144.5 403v303q0 257 144.5 403t400.5 146q187 0 315 -83.5t166 -229.5q6 -18 6 -37q0 -66 -40.5 -106.5t-106.5 -40.5q-44 0 -79.5 25t-56.5 65q-72 137 -215 137q-108 0 -167.5 -76.5
t-59.5 -214.5v-278q0 -138 59.5 -214.5t167.5 -76.5q77 0 135 40.5t86 114.5q40 105 142 105q70 0 108.5 -39.5t38.5 -106.5zM633 1782q69 0 111 -39.5t42 -102.5v-28q0 -63 -42 -102.5t-111 -39.5t-111.5 39.5t-42.5 102.5v28q0 63 42.5 102.5t111.5 39.5z" />
    <glyph glyph-name="cdotaccent" unicode="&#x10b;" horiz-adv-x="966" 
d="M915 227q0 -40 -20 -73q-107 -179 -365 -179q-206 0 -323 121t-117 334v176q0 213 119 334t326 121q223 0 342 -143q30 -38 30 -87q0 -62 -36.5 -99.5t-96.5 -37.5q-67 0 -112 58q-47 59 -127 59q-79 0 -122.5 -56t-43.5 -159v-156q0 -103 42 -159t119 -56q85 0 136 74
q44 63 114 63q60 0 97.5 -37t37.5 -98zM506 1487q69 0 111 -39t42 -102v-29q0 -63 -42 -102t-111 -39t-111.5 39t-42.5 102v29q0 63 42.5 102t111.5 39z" />
    <glyph glyph-name="Ccaron" unicode="&#x10c;" horiz-adv-x="1239" 
d="M1163 360q0 -26 -10 -59q-48 -158 -173 -242t-316 -84q-256 0 -400.5 146t-144.5 403v303q0 257 144.5 403t400.5 146q187 0 315 -83.5t166 -229.5q6 -18 6 -37q0 -66 -40.5 -106.5t-106.5 -40.5q-44 0 -79.5 25t-56.5 65q-72 137 -215 137q-108 0 -167.5 -76.5
t-59.5 -214.5v-278q0 -138 59.5 -214.5t167.5 -76.5q77 0 135 40.5t86 114.5q40 105 142 105q70 0 108.5 -39.5t38.5 -106.5zM633 1448q-56 0 -109 41l-172 135q-37 29 -37 82q0 44 29.5 74t73.5 30q33 0 69 -24l146 -100l145 100q36 24 70 24q44 0 73 -30t29 -74
q0 -53 -37 -82l-172 -135q-53 -41 -108 -41z" />
    <glyph glyph-name="ccaron" unicode="&#x10d;" horiz-adv-x="966" 
d="M915 227q0 -40 -20 -73q-107 -179 -365 -179q-206 0 -323 121t-117 334v176q0 213 119 334t326 121q223 0 342 -143q30 -38 30 -87q0 -62 -36.5 -99.5t-96.5 -37.5q-67 0 -112 58q-47 59 -127 59q-79 0 -122.5 -56t-43.5 -159v-156q0 -103 42 -159t119 -56q85 0 136 74
q44 63 114 63q60 0 97.5 -37t37.5 -98zM506 1153q-56 0 -109 41l-172 135q-37 29 -37 82q0 44 29.5 74.5t73.5 30.5q31 0 69 -25l146 -100l145 100q37 25 70 25q44 0 73 -30t29 -75q0 -53 -37 -82l-172 -135q-53 -41 -108 -41z" />
    <glyph glyph-name="Dcaron" unicode="&#x10e;" horiz-adv-x="1337" 
d="M317 1352h326q274 0 425 -145.5t151 -403.5v-254q0 -258 -151 -403.5t-425 -145.5h-326q-75 0 -117 43t-42 119v1028q0 74 42.5 118t116.5 44zM911 559v234q0 139 -68 213.5t-200 74.5h-178v-811h178q132 0 200 75t68 214zM623 1448q-56 0 -109 41l-172 135
q-37 29 -37 82q0 44 29.5 74t73.5 30q33 0 69 -24l146 -100l145 100q36 24 70 24q44 0 73 -30t29 -74q0 -53 -37 -82l-172 -135q-53 -41 -108 -41z" />
    <glyph glyph-name="dcaron" unicode="&#x10f;" horiz-adv-x="1236" 
d="M860 1434q66 0 102.5 -39.5t36.5 -108.5v-856q0 -214 -120 -334.5t-334 -120.5t-334.5 120.5t-120.5 334.5v195q0 200 109 318t295 118q136 0 223 -78h4v303q0 69 36.5 108.5t102.5 39.5zM721 440v174q0 94 -45.5 145.5t-130.5 51.5t-130.5 -51.5t-45.5 -145.5v-174
q0 -215 176 -215t176 215zM1319 1323q0 -17 -4 -37l-58 -233q-9 -37 -37 -58.5t-63 -21.5q-44 0 -73 26.5t-29 69.5q0 21 4 53l26 205q6 51 36.5 79t80.5 28q52 0 84.5 -30.5t32.5 -80.5z" />
    <glyph glyph-name="Dcroat" unicode="&#x110;" horiz-adv-x="1353" 
d="M334 1352h325q274 0 425 -145.5t151 -403.5v-254q0 -258 -151 -403.5t-425 -145.5h-325q-75 0 -117.5 43t-42.5 119v389h-18q-66 0 -104 36t-38 99t38 99t104 36h18v369q0 74 43 118t117 44zM928 559v234q0 139 -68.5 213.5t-200.5 74.5h-178v-260h150q67 0 105 -36
t38 -99t-38 -99t-105 -36h-150v-281h178q132 0 200.5 75t68.5 214z" />
    <glyph glyph-name="dcroat" unicode="&#x111;" horiz-adv-x="1107" 
d="M999 1300h5q52 0 82 -27.5t30 -74.5t-30 -74.5t-82 -27.5h-5v-666q0 -214 -120 -334.5t-334 -120.5t-334.5 120.5t-120.5 334.5v195q0 200 109 318t295 118q136 0 223 -78h4v113h-209q-52 0 -82.5 27.5t-30.5 74.5t30.5 74.5t82.5 27.5h209q5 64 41 99t98 35t98 -35
t41 -99zM721 440v174q0 94 -45.5 145.5t-130.5 51.5t-130.5 -51.5t-45.5 -145.5v-174q0 -215 176 -215t176 215z" />
    <glyph glyph-name="Emacron" unicode="&#x112;" horiz-adv-x="1181" 
d="M465 270h510q67 0 105 -36t38 -99t-38 -99t-105 -36h-656q-76 0 -118.5 42.5t-42.5 119.5v1028q0 77 42.5 119.5t118.5 42.5h656q67 0 105 -36t38 -99t-38 -99.5t-105 -36.5h-510v-262h418q67 0 105 -36t38 -99t-38 -99t-105 -36h-418v-279zM444 1739h375q57 0 90 -30.5
t33 -82.5t-33 -82.5t-90 -30.5h-375q-57 0 -89.5 30t-32.5 83t32.5 83t89.5 30z" />
    <glyph glyph-name="emacron" unicode="&#x113;" horiz-adv-x="1046" 
d="M535 1061q207 0 323.5 -121t116.5 -334v-53q0 -63 -35 -100t-98 -37h-473q0 -91 46.5 -141t129.5 -50q88 0 145 72q45 55 111 55q64 0 100.5 -36t36.5 -97q0 -45 -29 -88q-110 -156 -364 -156q-214 0 -334.5 120.5t-120.5 334.5v176q0 213 119 334t326 121zM535 811
q-73 0 -119.5 -46t-46.5 -124h329q0 78 -45 124t-118 46zM340 1444h375q57 0 90 -30.5t33 -82.5t-33 -82t-90 -30h-375q-57 0 -90 30t-33 82t33 82.5t90 30.5z" />
    <glyph glyph-name="Ebreve" unicode="&#x114;" horiz-adv-x="1181" 
d="M465 270h510q67 0 105 -36t38 -99t-38 -99t-105 -36h-656q-76 0 -118.5 42.5t-42.5 119.5v1028q0 77 42.5 119.5t118.5 42.5h656q67 0 105 -36t38 -99t-38 -99.5t-105 -36.5h-510v-262h418q67 0 105 -36t38 -99t-38 -99t-105 -36h-418v-279zM633 1448q-123 0 -205.5 57.5
t-110.5 159.5q-6 24 -6 39q0 48 30 77t81 29q68 0 92 -61q36 -80 119 -80t119 80q24 61 92 61q51 0 80.5 -29t29.5 -77q0 -15 -6 -39q-28 -102 -110 -159.5t-205 -57.5z" />
    <glyph glyph-name="ebreve" unicode="&#x115;" horiz-adv-x="1046" 
d="M535 1061q207 0 323.5 -121t116.5 -334v-53q0 -63 -35 -100t-98 -37h-473q0 -91 46.5 -141t129.5 -50q88 0 145 72q45 55 111 55q64 0 100.5 -36t36.5 -97q0 -45 -29 -88q-110 -156 -364 -156q-214 0 -334.5 120.5t-120.5 334.5v176q0 213 119 334t326 121zM535 811
q-73 0 -119.5 -46t-46.5 -124h329q0 78 -45 124t-118 46zM528 1153q-123 0 -205 57.5t-110 159.5q-6 24 -6 39q0 48 30 77.5t80 29.5q68 0 93 -62q36 -80 118 -80q83 0 119 80q25 62 92 62q51 0 81 -29.5t30 -77.5q0 -15 -6 -39q-28 -102 -110.5 -159.5t-205.5 -57.5z" />
    <glyph glyph-name="Edotaccent" unicode="&#x116;" horiz-adv-x="1181" 
d="M465 270h510q67 0 105 -36t38 -99t-38 -99t-105 -36h-656q-76 0 -118.5 42.5t-42.5 119.5v1028q0 77 42.5 119.5t118.5 42.5h656q67 0 105 -36t38 -99t-38 -99.5t-105 -36.5h-510v-262h418q67 0 105 -36t38 -99t-38 -99t-105 -36h-418v-279zM633 1782q69 0 111 -39.5
t42 -102.5v-28q0 -63 -42 -102.5t-111 -39.5t-111.5 39.5t-42.5 102.5v28q0 63 42.5 102.5t111.5 39.5z" />
    <glyph glyph-name="edotaccent" unicode="&#x117;" horiz-adv-x="1046" 
d="M535 1061q207 0 323.5 -121t116.5 -334v-53q0 -63 -35 -100t-98 -37h-473q0 -91 46.5 -141t129.5 -50q88 0 145 72q45 55 111 55q64 0 100.5 -36t36.5 -97q0 -45 -29 -88q-110 -156 -364 -156q-214 0 -334.5 120.5t-120.5 334.5v176q0 213 119 334t326 121zM535 811
q-73 0 -119.5 -46t-46.5 -124h329q0 78 -45 124t-118 46zM528 1487q69 0 111.5 -39t42.5 -102v-29q0 -63 -42.5 -102t-111.5 -39t-111 39t-42 102v29q0 63 42 102t111 39z" />
    <glyph glyph-name="Eogonek" unicode="&#x118;" horiz-adv-x="1181" 
d="M1036 10q-172 -56 -172 -135q0 -19 10 -29t25 -10q17 0 47 22.5t66 22.5q50 0 78 -29t28 -77q0 -59 -45 -90q-79 -54 -199 -54q-97 0 -157 45.5t-60 128.5q0 112 113 193v2h-451q-76 0 -118.5 42.5t-42.5 119.5v1028q0 77 42.5 119.5t118.5 42.5h656q67 0 105 -36t38 -99
t-38 -99.5t-105 -36.5h-510v-262h418q67 0 105 -36t38 -99t-38 -99t-105 -36h-418v-279h510q67 0 105 -36t38 -99q0 -97 -82 -125z" />
    <glyph glyph-name="eogonek" unicode="&#x119;" horiz-adv-x="1046" 
d="M535 1061q207 0 323.5 -121t116.5 -334v-53q0 -63 -35 -100t-98 -37h-473q0 -91 46.5 -141t129.5 -50q88 0 145 72q45 55 111 55q64 0 100.5 -36t36.5 -97q0 -45 -29 -88q-46 -65 -133 -111q-49 -26 -75.5 -68t-26.5 -77q0 -19 10 -29t25 -10q18 0 31.5 11t32 22.5
t48.5 11.5q50 0 78.5 -29t28.5 -77q0 -60 -47 -92q-74 -52 -197 -52q-97 0 -157 45.5t-60 128.5q0 86 70 168v2q-209 2 -328 122.5t-119 332.5v176q0 213 119 334t326 121zM369 641h329q0 78 -45 124t-118 46t-119.5 -46t-46.5 -124z" />
    <glyph glyph-name="Ecaron" unicode="&#x11a;" horiz-adv-x="1181" 
d="M465 270h510q67 0 105 -36t38 -99t-38 -99t-105 -36h-656q-76 0 -118.5 42.5t-42.5 119.5v1028q0 77 42.5 119.5t118.5 42.5h656q67 0 105 -36t38 -99t-38 -99.5t-105 -36.5h-510v-262h418q67 0 105 -36t38 -99t-38 -99t-105 -36h-418v-279zM633 1448q-56 0 -109 41
l-172 135q-37 29 -37 82q0 44 29.5 74t73.5 30q33 0 69 -24l146 -100l145 100q36 24 70 24q44 0 73 -30t29 -74q0 -53 -37 -82l-172 -135q-53 -41 -108 -41z" />
    <glyph glyph-name="ecaron" unicode="&#x11b;" horiz-adv-x="1046" 
d="M535 1061q207 0 323.5 -121t116.5 -334v-53q0 -63 -35 -100t-98 -37h-473q0 -91 46.5 -141t129.5 -50q88 0 145 72q45 55 111 55q64 0 100.5 -36t36.5 -97q0 -45 -29 -88q-110 -156 -364 -156q-214 0 -334.5 120.5t-120.5 334.5v176q0 213 119 334t326 121zM535 811
q-73 0 -119.5 -46t-46.5 -124h329q0 78 -45 124t-118 46zM528 1153q-55 0 -108 41l-172 135q-37 29 -37 82q0 45 29 75t73 30q33 0 70 -25l145 -100l146 100q37 25 69 25q44 0 73.5 -30.5t29.5 -74.5q0 -53 -37 -82l-172 -135q-53 -41 -109 -41z" />
    <glyph glyph-name="Gcircumflex" unicode="&#x11c;" horiz-adv-x="1308" 
d="M782 758h265q75 0 118 -43.5t43 -118.5v-72q0 -257 -144.5 -403t-399.5 -146t-400 146t-145 403v303q0 256 147.5 402.5t405.5 146.5q187 0 316 -72t177 -198q9 -24 9 -49q0 -67 -43 -107.5t-105 -40.5q-86 0 -129 74q-70 123 -225 123q-117 0 -181.5 -76t-64.5 -215
v-280q0 -138 65.5 -213.5t186.5 -75.5q107 0 169 66.5t62 174.5h-127q-67 0 -105 36.5t-38 99.5t38 99t105 36zM651 1810q56 0 109 -41l172 -135q37 -29 37 -82q0 -44 -29.5 -74t-73.5 -30q-32 0 -69 25l-146 100l-145 -100q-38 -25 -70 -25q-44 0 -73 30t-29 74q0 53 37 82
l172 135q53 41 108 41z" />
    <glyph glyph-name="gcircumflex" unicode="&#x11d;" horiz-adv-x="1103" 
d="M545 1061q214 0 334 -120.5t120 -334.5v-520q0 -214 -124.5 -334.5t-344.5 -120.5q-118 0 -214 37.5t-152 102.5q-41 48 -41 100q0 62 36.5 99.5t96.5 37.5q68 0 109 -51q63 -76 165 -76q94 0 142.5 54.5t48.5 160.5v19h-4q-87 -78 -223 -78q-186 0 -295 118t-109 318
v133q0 214 120.5 334.5t334.5 120.5zM545 287q85 0 130.5 51t45.5 145v113q0 215 -176 215t-176 -215v-113q0 -94 45.5 -145t130.5 -51zM545 1516q55 0 108 -41l172 -136q37 -29 37 -82q0 -44 -29 -74t-73 -30q-32 0 -70 25l-145 100l-146 -100q-37 -25 -69 -25
q-44 0 -73.5 30t-29.5 74q0 53 37 82l172 136q53 41 109 41z" />
    <glyph glyph-name="Gbreve" unicode="&#x11e;" horiz-adv-x="1308" 
d="M782 758h265q75 0 118 -43.5t43 -118.5v-72q0 -257 -144.5 -403t-399.5 -146t-400 146t-145 403v303q0 256 147.5 402.5t405.5 146.5q187 0 316 -72t177 -198q9 -24 9 -49q0 -67 -43 -107.5t-105 -40.5q-86 0 -129 74q-70 123 -225 123q-117 0 -181.5 -76t-64.5 -215
v-280q0 -138 65.5 -213.5t186.5 -75.5q107 0 169 66.5t62 174.5h-127q-67 0 -105 36.5t-38 99.5t38 99t105 36zM651 1448q-123 0 -205 57.5t-110 159.5q-6 24 -6 39q0 48 29.5 77t80.5 29q68 0 92 -61q36 -80 119 -80t119 80q24 61 92 61q51 0 81 -29t30 -77q0 -15 -6 -39
q-28 -102 -110.5 -159.5t-205.5 -57.5z" />
    <glyph glyph-name="gbreve" unicode="&#x11f;" horiz-adv-x="1103" 
d="M545 1061q214 0 334 -120.5t120 -334.5v-520q0 -214 -124.5 -334.5t-344.5 -120.5q-118 0 -214 37.5t-152 102.5q-41 48 -41 100q0 62 36.5 99.5t96.5 37.5q68 0 109 -51q63 -76 165 -76q94 0 142.5 54.5t48.5 160.5v19h-4q-87 -78 -223 -78q-186 0 -295 118t-109 318
v133q0 214 120.5 334.5t334.5 120.5zM545 287q85 0 130.5 51t45.5 145v113q0 215 -176 215t-176 -215v-113q0 -94 45.5 -145t130.5 -51zM545 1153q-123 0 -205.5 57.5t-110.5 159.5q-6 24 -6 39q0 48 30 77.5t81 29.5q67 0 92 -62q36 -80 119 -80t119 80q25 62 92 62
q50 0 80 -29.5t30 -77.5q0 -15 -6 -39q-28 -102 -110 -159.5t-205 -57.5z" />
    <glyph glyph-name="Gdotaccent" unicode="&#x120;" horiz-adv-x="1308" 
d="M782 758h265q75 0 118 -43.5t43 -118.5v-72q0 -257 -144.5 -403t-399.5 -146t-400 146t-145 403v303q0 256 147.5 402.5t405.5 146.5q187 0 316 -72t177 -198q9 -24 9 -49q0 -67 -43 -107.5t-105 -40.5q-86 0 -129 74q-70 123 -225 123q-117 0 -181.5 -76t-64.5 -215
v-280q0 -138 65.5 -213.5t186.5 -75.5q107 0 169 66.5t62 174.5h-127q-67 0 -105 36.5t-38 99.5t38 99t105 36zM651 1782q69 0 111.5 -39.5t42.5 -102.5v-28q0 -63 -42.5 -102.5t-111.5 -39.5t-111 39.5t-42 102.5v28q0 63 42 102.5t111 39.5z" />
    <glyph glyph-name="gdotaccent" unicode="&#x121;" horiz-adv-x="1103" 
d="M545 1061q214 0 334 -120.5t120 -334.5v-520q0 -214 -124.5 -334.5t-344.5 -120.5q-118 0 -214 37.5t-152 102.5q-41 48 -41 100q0 62 36.5 99.5t96.5 37.5q68 0 109 -51q63 -76 165 -76q94 0 142.5 54.5t48.5 160.5v19h-4q-87 -78 -223 -78q-186 0 -295 118t-109 318
v133q0 214 120.5 334.5t334.5 120.5zM545 287q85 0 130.5 51t45.5 145v113q0 215 -176 215t-176 -215v-113q0 -94 45.5 -145t130.5 -51zM545 1487q69 0 111 -39t42 -102v-29q0 -63 -42 -102t-111 -39t-111.5 39t-42.5 102v29q0 63 42.5 102t111.5 39z" />
    <glyph glyph-name="uni0122" unicode="&#x122;" horiz-adv-x="1308" 
d="M782 758h265q75 0 118 -43.5t43 -118.5v-72q0 -257 -144.5 -403t-399.5 -146t-400 146t-145 403v303q0 256 147.5 402.5t405.5 146.5q187 0 316 -72t177 -198q9 -24 9 -49q0 -67 -43 -107.5t-105 -40.5q-86 0 -129 74q-70 123 -225 123q-117 0 -181.5 -76t-64.5 -215
v-280q0 -138 65.5 -213.5t186.5 -75.5q107 0 169 66.5t62 174.5h-127q-67 0 -105 36.5t-38 99.5t38 99t105 36zM455 -254l120 141q33 41 91 41q48 0 79 -32.5t31 -85.5q0 -51 -41 -86l-141 -117q-27 -21 -62 -21q-40 0 -68 30t-28 73q0 38 19 57z" />
    <glyph glyph-name="uni0123" unicode="&#x123;" horiz-adv-x="1103" 
d="M776 1356l-141 -162q-38 -41 -90 -41q-48 0 -79.5 33t-31.5 86q0 51 41 86l162 137q27 21 61 21q40 0 68.5 -30t28.5 -73q0 -38 -19 -57zM545 1061q214 0 334 -120.5t120 -334.5v-520q0 -214 -124.5 -334.5t-344.5 -120.5q-118 0 -214 37.5t-152 102.5q-41 48 -41 100
q0 62 36.5 99.5t96.5 37.5q68 0 109 -51q63 -76 165 -76q94 0 142.5 54.5t48.5 160.5v19h-4q-87 -78 -223 -78q-186 0 -295 118t-109 318v133q0 214 120.5 334.5t334.5 120.5zM545 287q85 0 130.5 51t45.5 145v113q0 215 -176 215t-176 -215v-113q0 -94 45.5 -145t130.5 -51
z" />
    <glyph glyph-name="Hcircumflex" unicode="&#x124;" horiz-adv-x="1392" 
d="M1081 1364q72 0 113 -43.5t41 -118.5v-1052q0 -75 -41 -118.5t-113 -43.5t-112.5 43.5t-40.5 118.5v401h-463v-401q0 -75 -41 -118.5t-113 -43.5t-112.5 43.5t-40.5 118.5v1052q0 75 40.5 118.5t112.5 43.5t113 -43.5t41 -118.5v-381h463v381q0 75 40.5 118.5t112.5 43.5
zM694 1810q56 0 109 -41l172 -135q37 -29 37 -82q0 -44 -29.5 -74t-73.5 -30q-31 0 -69 25l-146 100l-145 -100q-37 -25 -70 -25q-44 0 -73 30t-29 74q0 53 37 82l172 135q53 41 108 41z" />
    <glyph glyph-name="hcircumflex" unicode="&#x125;" horiz-adv-x="1112" 
d="M625 1061q180 0 281.5 -116t101.5 -320v-490q0 -69 -37 -108t-103 -39t-102.5 39t-36.5 108v479q0 97 -42 147t-124 50q-166 0 -166 -199v-477q0 -69 -36.5 -108t-102.5 -39t-102.5 39t-36.5 108v1151q0 69 36.5 108.5t102.5 39.5t102.5 -39.5t36.5 -108.5v-303h4
q87 78 224 78zM258 1880q56 0 109 -41l172 -135q36 -28 36 -82q0 -44 -29 -74t-73 -30q-34 0 -70 24l-145 100l-145 -100q-36 -24 -70 -24q-44 0 -73 30t-29 74q0 54 36 82l173 135q53 41 108 41z" />
    <glyph glyph-name="Hbar" unicode="&#x126;" horiz-adv-x="1409" 
d="M1241 1153h31q57 0 90 -30.5t33 -82.5t-33 -82t-90 -30h-31v-778q0 -75 -41 -118.5t-113 -43.5t-112.5 43.5t-40.5 118.5v401h-463v-401q0 -75 -41 -118.5t-113 -43.5t-112.5 43.5t-40.5 118.5v778h-27q-57 0 -90 30t-33 82t33 82.5t90 30.5h27v49q0 75 40.5 118.5
t112.5 43.5t113 -43.5t41 -118.5v-49h463v49q0 75 40.5 118.5t112.5 43.5t113 -43.5t41 -118.5v-49zM471 821h463v107h-463v-107z" />
    <glyph glyph-name="hbar" unicode="&#x127;" horiz-adv-x="1116" 
d="M629 1061q180 0 281.5 -116t101.5 -320v-490q0 -69 -37 -108t-103 -39t-102.5 39t-36.5 108v479q0 97 -42 147t-124 50q-166 0 -166 -199v-477q0 -69 -36.5 -108t-102.5 -39t-102.5 39t-36.5 108v961h-19q-52 0 -82 27.5t-30 74.5t30 74.5t82 27.5h19q5 64 41 99t98 35
t98 -35t41 -99h174q52 0 82.5 -27.5t30.5 -74.5t-30.5 -74.5t-82.5 -27.5h-174v-113h5q87 78 223 78z" />
    <glyph glyph-name="Itilde" unicode="&#x128;" horiz-adv-x="622" 
d="M311 1364q72 0 113 -43.5t41 -118.5v-1052q0 -75 -41 -118.5t-113 -43.5t-112.5 43.5t-40.5 118.5v1052q0 75 40.5 118.5t112.5 43.5zM420 1464q-73 0 -152 62q-35 30 -57 30q-31 0 -55 -53q-24 -47 -82 -47q-46 0 -73.5 26.5t-27.5 69.5q0 20 7 41q31 95 88.5 145
t134.5 50q72 0 151 -62q35 -30 58 -30q31 0 55 53q24 47 82 47q45 0 72.5 -26.5t27.5 -69.5q0 -23 -6 -41q-31 -94 -88 -144.5t-135 -50.5z" />
    <glyph glyph-name="itilde" unicode="&#x129;" horiz-adv-x="512" 
d="M256 1049q66 0 102.5 -39.5t36.5 -108.5v-766q0 -69 -36.5 -108t-102.5 -39t-102.5 39t-36.5 108v766q0 69 36.5 108.5t102.5 39.5zM365 1169q-73 0 -152 62q-36 31 -57 31q-31 0 -56 -54q-24 -47 -82 -47q-45 0 -72.5 26.5t-27.5 69.5q0 23 6 41q31 95 88.5 145
t134.5 50q74 0 152 -61q36 -31 57 -31q32 0 56 53q24 47 82 47q45 0 72.5 -26.5t27.5 -69.5q0 -23 -6 -41q-31 -94 -88 -144.5t-135 -50.5z" />
    <glyph glyph-name="Imacron" unicode="&#x12a;" horiz-adv-x="622" 
d="M311 1364q72 0 113 -43.5t41 -118.5v-1052q0 -75 -41 -118.5t-113 -43.5t-112.5 43.5t-40.5 118.5v1052q0 75 40.5 118.5t112.5 43.5zM123 1739h375q57 0 90 -30.5t33 -82.5t-33 -82.5t-90 -30.5h-375q-57 0 -90 30.5t-33 82.5t33 82.5t90 30.5z" />
    <glyph glyph-name="imacron" unicode="&#x12b;" horiz-adv-x="512" 
d="M256 1049q66 0 102.5 -39.5t36.5 -108.5v-766q0 -69 -36.5 -108t-102.5 -39t-102.5 39t-36.5 108v766q0 69 36.5 108.5t102.5 39.5zM68 1444h374q57 0 90 -30.5t33 -82.5t-33 -82t-90 -30h-374q-57 0 -90 30t-33 82t33 82.5t90 30.5z" />
    <glyph glyph-name="Ibreve" unicode="&#x12c;" horiz-adv-x="622" 
d="M311 1364q72 0 113 -43.5t41 -118.5v-1052q0 -75 -41 -118.5t-113 -43.5t-112.5 43.5t-40.5 118.5v1052q0 75 40.5 118.5t112.5 43.5zM311 1448q-123 0 -205 57.5t-110 159.5q-6 24 -6 39q0 48 29.5 77t80.5 29q69 0 93 -61q36 -80 118 -80q83 0 119 80q24 61 92 61
q51 0 81 -29t30 -77q0 -15 -6 -39q-28 -102 -110.5 -159.5t-205.5 -57.5z" />
    <glyph glyph-name="ibreve" unicode="&#x12d;" horiz-adv-x="512" 
d="M256 1049q66 0 102.5 -39.5t36.5 -108.5v-766q0 -69 -36.5 -108t-102.5 -39t-102.5 39t-36.5 108v766q0 69 36.5 108.5t102.5 39.5zM256 1153q-123 0 -205 57.5t-110 159.5q-7 28 -7 39q0 48 30 77.5t81 29.5q67 0 92 -62q36 -80 119 -80t119 80q25 62 92 62
q51 0 81 -29.5t30 -77.5q0 -11 -7 -39q-28 -102 -110 -159.5t-205 -57.5z" />
    <glyph glyph-name="Iogonek" unicode="&#x12e;" horiz-adv-x="622" 
d="M406 -119q50 0 78 -29t28 -77q0 -59 -45 -90q-76 -54 -199 -54q-96 0 -156.5 48.5t-60.5 134.5q0 140 137 229q-30 43 -30 107v1052q0 75 40.5 118.5t112.5 43.5t113 -43.5t41 -118.5v-1052q0 -56 -22.5 -95.5t-63.5 -54.5q-121 -43 -121 -125q0 -39 35 -39q19 0 48 22.5
t65 22.5z" />
    <glyph glyph-name="iogonek" unicode="&#x12f;" horiz-adv-x="512" 
d="M348 -119q50 0 78.5 -29t28.5 -77q0 -62 -45 -90q-82 -54 -199 -54q-96 0 -156.5 48.5t-60.5 134.5q0 141 143 233q-20 38 -20 88v766q0 69 36.5 108.5t102.5 39.5t102.5 -39.5t36.5 -108.5v-766q0 -49 -20.5 -85t-55.5 -50q-118 -44 -118 -125q0 -19 10 -29t25 -10
q18 0 31.5 11t32 22.5t48.5 11.5zM256 1493q69 0 111.5 -39t42.5 -102v-41q0 -63 -42.5 -102.5t-111.5 -39.5t-111.5 39.5t-42.5 102.5v41q0 63 42.5 102t111.5 39z" />
    <glyph glyph-name="Idotaccent" unicode="&#x130;" horiz-adv-x="622" 
d="M311 1364q72 0 113 -43.5t41 -118.5v-1052q0 -75 -41 -118.5t-113 -43.5t-112.5 43.5t-40.5 118.5v1052q0 75 40.5 118.5t112.5 43.5zM311 1782q69 0 111.5 -39.5t42.5 -102.5v-28q0 -63 -42.5 -102.5t-111.5 -39.5t-111 39.5t-42 102.5v28q0 63 42 102.5t111 39.5z" />
    <glyph glyph-name="dotlessi" unicode="&#x131;" horiz-adv-x="512" 
d="M256 1049q66 0 102.5 -39.5t36.5 -108.5v-766q0 -69 -36.5 -108t-102.5 -39t-102.5 39t-36.5 108v766q0 69 36.5 108.5t102.5 39.5z" />
    <glyph glyph-name="IJ" unicode="&#x132;" horiz-adv-x="1738" 
d="M311 1364q72 0 113 -43.5t41 -118.5v-1052q0 -75 -41 -118.5t-113 -43.5t-112.5 43.5t-40.5 118.5v1052q0 75 40.5 118.5t112.5 43.5zM1462 1364q72 0 113 -43.5t41 -118.5v-749q0 -227 -131 -352.5t-369 -125.5q-204 0 -327.5 89.5t-157.5 259.5q-4 20 -4 45
q0 62 41 103.5t106 41.5q59 0 98 -35.5t50 -93.5q27 -141 190 -141q94 0 145.5 57.5t51.5 161.5v739q0 75 40.5 118.5t112.5 43.5z" />
    <glyph glyph-name="ij" unicode="&#x133;" horiz-adv-x="1148" 
d="M256 1493q69 0 111.5 -39t42.5 -102v-41q0 -63 -42.5 -102.5t-111.5 -39.5t-111.5 39.5t-42.5 102.5v41q0 63 42.5 102t111.5 39zM256 1049q66 0 102.5 -39.5t36.5 -108.5v-766q0 -69 -36.5 -108t-102.5 -39t-102.5 39t-36.5 108v766q0 69 36.5 108.5t102.5 39.5z
M893 1493q69 0 111.5 -39t42.5 -102v-41q0 -63 -42.5 -102.5t-111.5 -39.5t-111.5 39.5t-42.5 102.5v41q0 63 42.5 102t111.5 39zM891 1049q66 0 102.5 -39.5t36.5 -108.5v-950q0 -151 -79.5 -235.5t-213.5 -84.5q-79 0 -126 14t-85 44q-47 37 -47 100q0 60 33.5 94.5
t93.5 34.5q34 0 65.5 -18.5t49.5 -18.5q31 0 31 47v973q0 69 36.5 108.5t102.5 39.5z" />
    <glyph glyph-name="Jcircumflex" unicode="&#x134;" horiz-adv-x="1148" 
d="M872 1364q72 0 113 -43.5t41 -118.5v-749q0 -227 -131 -352.5t-369 -125.5q-204 0 -327.5 89.5t-157.5 259.5q-4 20 -4 45q0 62 41 103.5t106 41.5q59 0 98 -35.5t50 -93.5q27 -141 190 -141q94 0 145.5 57.5t51.5 161.5v739q0 75 40.5 118.5t112.5 43.5zM872 1810
q56 0 109 -41l172 -135q37 -29 37 -82q0 -44 -29.5 -74t-73.5 -30q-31 0 -69 25l-146 100l-145 -100q-37 -25 -70 -25q-44 0 -73 30t-29 74q0 53 37 82l172 135q53 41 108 41z" />
    <glyph glyph-name="jcircumflex" unicode="&#x135;" horiz-adv-x="514" 
d="M256 1049q66 0 102.5 -39.5t36.5 -108.5v-950q0 -151 -79.5 -235.5t-213.5 -84.5q-79 0 -126 14t-85 44q-47 37 -47 100q0 60 33.5 94.5t93.5 34.5q34 0 65.5 -18.5t49.5 -18.5q31 0 31 47v973q0 69 36.5 108.5t102.5 39.5zM256 1516q56 0 109 -41l172 -136
q36 -28 36 -82q0 -44 -29 -74t-73 -30q-33 0 -70 25l-145 100l-145 -100q-37 -25 -70 -25q-44 0 -73 30t-29 74q0 54 36 82l172 136q53 41 109 41z" />
    <glyph glyph-name="uni0136" unicode="&#x136;" horiz-adv-x="1259" 
d="M731 688l438 -440q43 -43 43 -107q0 -69 -42 -111t-111 -42q-67 0 -111 47l-483 518v-403q0 -75 -41 -118.5t-113 -43.5t-112.5 43.5t-40.5 118.5v1052q0 75 40.5 118.5t112.5 43.5t113 -43.5t41 -118.5v-385l467 496q48 51 112 51q66 0 107 -40.5t41 -106.5
q0 -59 -47 -109zM455 -254l120 141q33 41 91 41q48 0 79 -32.5t31 -85.5q0 -51 -41 -86l-141 -117q-27 -21 -62 -21q-40 0 -68 30t-28 73q0 38 19 57z" />
    <glyph glyph-name="uni0137" unicode="&#x137;" horiz-adv-x="1015" 
d="M621 524l313 -291q49 -46 49 -106q0 -63 -38 -101t-101 -38q-61 0 -105 47l-342 356v-256q0 -69 -36.5 -108t-102.5 -39t-102.5 39t-36.5 108v1151q0 69 36.5 108.5t102.5 39.5t102.5 -39.5t36.5 -108.5v-624l328 344q40 43 100 43q61 0 99.5 -38.5t38.5 -99.5
q0 -55 -45 -100zM330 -254l121 141q33 41 90 41q48 0 79 -32.5t31 -85.5q0 -51 -41 -86l-141 -117q-27 -21 -61 -21q-40 0 -68.5 30t-28.5 73q0 38 19 57z" />
    <glyph glyph-name="kgreenlandic" unicode="&#x138;" horiz-adv-x="1015" 
d="M621 524l313 -291q49 -46 49 -106q0 -63 -38 -101t-101 -38q-61 0 -105 47l-344 358v-258q0 -69 -36.5 -108t-102.5 -39t-102.5 39t-36.5 108v766q0 69 36.5 108.5t102.5 39.5t102.5 -39.5t36.5 -108.5v-242l330 347q40 43 100 43q61 0 99.5 -38.5t38.5 -99.5
q0 -55 -45 -100z" />
    <glyph glyph-name="Lacute" unicode="&#x139;" horiz-adv-x="1107" 
d="M465 270h481q67 0 105.5 -36t38.5 -99t-38.5 -99t-105.5 -36h-627q-76 0 -118.5 42.5t-42.5 119.5v1040q0 75 40.5 118.5t112.5 43.5t113 -43.5t41 -118.5v-932zM584 1692q0 -60 -41 -93l-174 -129q-28 -22 -70 -22q-44 0 -73 30.5t-29 75.5q0 49 28 74l152 146
q36 36 88 36q51 0 85 -33.5t34 -84.5z" />
    <glyph glyph-name="lacute" unicode="&#x13a;" horiz-adv-x="516" 
d="M258 1434q66 0 102.5 -39.5t36.5 -108.5v-1151q0 -69 -36.5 -108t-102.5 -39t-102.5 39t-36.5 108v1151q0 69 36.5 108.5t102.5 39.5zM530 1761q0 -59 -41 -92l-174 -129q-28 -22 -69 -22q-44 0 -73.5 30.5t-29.5 75.5q0 48 29 74l152 145q37 37 88 37t84.5 -34t33.5 -85
z" />
    <glyph glyph-name="uni013B" unicode="&#x13b;" horiz-adv-x="1107" 
d="M465 270h481q67 0 105.5 -36t38.5 -99t-38.5 -99t-105.5 -36h-627q-76 0 -118.5 42.5t-42.5 119.5v1040q0 75 40.5 118.5t112.5 43.5t113 -43.5t41 -118.5v-932zM403 -254l121 141q33 41 90 41q48 0 79.5 -32.5t31.5 -85.5q0 -51 -41 -86l-141 -117q-27 -21 -62 -21
q-40 0 -68 30t-28 73q0 39 18 57z" />
    <glyph glyph-name="uni013C" unicode="&#x13c;" horiz-adv-x="516" 
d="M258 1434q66 0 102.5 -39.5t36.5 -108.5v-1151q0 -69 -36.5 -108t-102.5 -39t-102.5 39t-36.5 108v1151q0 69 36.5 108.5t102.5 39.5zM49 -254l121 141q33 41 90 41q48 0 79.5 -32.5t31.5 -85.5q0 -51 -41 -86l-142 -117q-27 -21 -61 -21q-40 0 -68 30t-28 73q0 39 18 57
z" />
    <glyph glyph-name="Lcaron" unicode="&#x13d;" horiz-adv-x="1107" 
d="M465 270h481q67 0 105.5 -36t38.5 -99t-38.5 -99t-105.5 -36h-627q-76 0 -118.5 42.5t-42.5 119.5v1040q0 75 40.5 118.5t112.5 43.5t113 -43.5t41 -118.5v-932zM858 1323q0 -17 -4 -37l-57 -233q-9 -37 -37.5 -58.5t-63.5 -21.5q-44 0 -73 26.5t-29 69.5q0 21 4 53
l27 205q6 51 36.5 79t79.5 28q52 0 84.5 -30.5t32.5 -80.5z" />
    <glyph glyph-name="lcaron" unicode="&#x13e;" horiz-adv-x="634" 
d="M258 1434q66 0 102.5 -39.5t36.5 -108.5v-1151q0 -69 -36.5 -108t-102.5 -39t-102.5 39t-36.5 108v1151q0 69 36.5 108.5t102.5 39.5zM717 1323q0 -17 -4 -37l-58 -233q-9 -37 -37 -58.5t-63 -21.5q-44 0 -73 26.5t-29 69.5q0 21 4 53l26 205q6 51 36.5 79t80.5 28
q52 0 84.5 -30.5t32.5 -80.5z" />
    <glyph glyph-name="Ldot" unicode="&#x13f;" horiz-adv-x="1107" 
d="M864 524q-66 0 -108.5 43t-42.5 109t42.5 108.5t108.5 42.5t109 -42.5t43 -108.5t-43 -109t-109 -43zM465 270h481q67 0 105.5 -36t38.5 -99t-38.5 -99t-105.5 -36h-627q-76 0 -118.5 42.5t-42.5 119.5v1040q0 75 40.5 118.5t112.5 43.5t113 -43.5t41 -118.5v-932z" />
    <glyph glyph-name="ldot" unicode="&#x140;" horiz-adv-x="700" 
d="M608 524q-66 0 -108.5 43t-42.5 109t42.5 108.5t108.5 42.5t109 -42.5t43 -108.5t-43 -109t-109 -43zM258 1434q66 0 102.5 -39.5t36.5 -108.5v-1151q0 -69 -36.5 -108t-102.5 -39t-102.5 39t-36.5 108v1151q0 69 36.5 108.5t102.5 39.5z" />
    <glyph glyph-name="Lslash" unicode="&#x141;" horiz-adv-x="1124" 
d="M481 270h482q67 0 105 -36t38 -99t-38 -99t-105 -36h-627q-76 0 -119 43t-43 119v149q-16 -4 -29 -4q-55 0 -93 37t-38 90q0 72 66 119l94 63v586q0 75 41 118.5t113 43.5t112.5 -43.5t40.5 -118.5v-377l219 148q34 24 76 24q55 0 93 -37t38 -90q0 -72 -65 -118
l-361 -244v-238z" />
    <glyph glyph-name="lslash" unicode="&#x142;" horiz-adv-x="569" 
d="M483 1049q51 0 85 -33.5t34 -81.5q0 -65 -55 -107l-123 -92v-600q0 -69 -36.5 -108t-102.5 -39t-103 39t-37 108v404q-20 -4 -30 -4q-51 0 -85 33t-34 81q0 65 55 107l94 69v461q0 69 37 108.5t103 39.5t102.5 -39.5t36.5 -108.5v-254q31 17 59 17z" />
    <glyph glyph-name="Nacute" unicode="&#x143;" horiz-adv-x="1361" 
d="M1057 1364q69 0 108 -41.5t39 -114.5v-1040q0 -86 -39 -133t-116 -47q-114 0 -175 102l-417 698h-4v-645q0 -73 -39.5 -114t-108.5 -41t-108 41t-39 114v1041q0 86 39 133t116 47q113 0 170 -98l422 -705h4v647q0 73 39.5 114.5t108.5 41.5zM954 1692q0 -60 -41 -93
l-174 -129q-28 -22 -69 -22q-44 0 -73.5 30.5t-29.5 75.5q0 48 29 74l152 146q36 36 88 36q51 0 84.5 -33.5t33.5 -84.5z" />
    <glyph glyph-name="nacute" unicode="&#x144;" horiz-adv-x="1097" 
d="M549 1061q207 0 325.5 -119t118.5 -326v-481q0 -69 -36.5 -108t-102.5 -39t-102.5 39t-36.5 108v471q0 205 -166 205t-166 -205v-471q0 -69 -36.5 -108t-102.5 -39t-103 39t-37 108v481q0 207 119 326t326 119zM821 1397q0 -59 -41 -92l-174 -129q-30 -23 -69 -23
q-44 0 -73.5 31t-29.5 76q0 47 29 73l151 146q37 37 88 37t85 -34t34 -85z" />
    <glyph glyph-name="uni0145" unicode="&#x145;" horiz-adv-x="1361" 
d="M1057 1364q69 0 108 -41.5t39 -114.5v-1040q0 -86 -39 -133t-116 -47q-114 0 -175 102l-417 698h-4v-645q0 -73 -39.5 -114t-108.5 -41t-108 41t-39 114v1041q0 86 39 133t116 47q113 0 170 -98l422 -705h4v647q0 73 39.5 114.5t108.5 41.5zM473 -254l121 141
q33 41 90 41q48 0 79.5 -32.5t31.5 -85.5q0 -51 -41 -86l-142 -117q-27 -21 -61 -21q-40 0 -68 30t-28 73q0 39 18 57z" />
    <glyph glyph-name="uni0146" unicode="&#x146;" horiz-adv-x="1097" 
d="M549 1061q207 0 325.5 -119t118.5 -326v-481q0 -69 -36.5 -108t-102.5 -39t-102.5 39t-36.5 108v471q0 205 -166 205t-166 -205v-471q0 -69 -36.5 -108t-102.5 -39t-103 39t-37 108v481q0 207 119 326t326 119zM340 -254l121 141q33 41 90 41q48 0 79.5 -32.5t31.5 -85.5
q0 -51 -41 -86l-142 -117q-27 -21 -61 -21q-40 0 -68 30t-28 73q0 39 18 57z" />
    <glyph glyph-name="Ncaron" unicode="&#x147;" horiz-adv-x="1361" 
d="M1057 1364q69 0 108 -41.5t39 -114.5v-1040q0 -86 -39 -133t-116 -47q-114 0 -175 102l-417 698h-4v-645q0 -73 -39.5 -114t-108.5 -41t-108 41t-39 114v1041q0 86 39 133t116 47q113 0 170 -98l422 -705h4v647q0 73 39.5 114.5t108.5 41.5zM682 1448q-56 0 -109 41
l-172 135q-36 28 -36 82q0 44 29 74t73 30q34 0 70 -24l145 -100l145 100q36 24 70 24q44 0 73 -30t29 -74q0 -54 -36 -82l-172 -135q-53 -41 -109 -41z" />
    <glyph glyph-name="ncaron" unicode="&#x148;" horiz-adv-x="1097" 
d="M549 1061q207 0 325.5 -119t118.5 -326v-481q0 -69 -36.5 -108t-102.5 -39t-102.5 39t-36.5 108v471q0 205 -166 205t-166 -205v-471q0 -69 -36.5 -108t-102.5 -39t-103 39t-37 108v481q0 207 119 326t326 119zM549 1153q-56 0 -109 41l-172 135q-37 29 -37 82
q0 44 29.5 74.5t73.5 30.5q31 0 69 -25l146 -100l145 100q37 25 70 25q44 0 73 -30t29 -75q0 -53 -37 -82l-172 -135q-53 -41 -108 -41z" />
    <glyph glyph-name="napostrophe" unicode="&#x149;" horiz-adv-x="1097" 
d="M549 1061q207 0 325.5 -119t118.5 -326v-481q0 -69 -36.5 -108t-102.5 -39t-102.5 39t-36.5 108v471q0 205 -166 205t-166 -205v-471q0 -69 -36.5 -108t-102.5 -39t-103 39t-37 108v481q0 207 119 326t326 119zM414 1399q0 -37 -21 -72l-143 -252q-32 -55 -90 -55
q-42 0 -71.5 27.5t-29.5 68.5q0 22 9 43l94 279q14 41 46 65.5t77 24.5q55 0 92 -37t37 -92z" />
    <glyph glyph-name="Eng" unicode="&#x14a;" horiz-adv-x="1361" 
d="M1057 1364q69 0 108 -41.5t39 -114.5v-1257q0 -151 -82 -235.5t-217 -84.5q-147 0 -221 58q-47 37 -47 100q0 60 33.5 94.5t93.5 34.5q34 0 66 -18.5t49 -18.5q30 0 30 47v105l-452 755h-4v-645q0 -73 -39.5 -114t-108.5 -41t-108 41t-39 114v1045q0 176 155 176
q113 0 170 -98l422 -705h4v647q0 73 39.5 114.5t108.5 41.5z" />
    <glyph glyph-name="eng" unicode="&#x14b;" horiz-adv-x="1097" 
d="M715 -72v678q0 205 -166 205t-166 -205v-471q0 -69 -36.5 -108t-102.5 -39t-103 39t-37 108v481q0 207 119 326t326 119t325.5 -119t118.5 -326v-665q0 -151 -79.5 -235.5t-213.5 -84.5q-79 0 -126 14t-85 44q-47 37 -47 100q0 60 33.5 94.5t93.5 34.5q34 0 65.5 -18.5
t49.5 -18.5q31 0 31 47z" />
    <glyph glyph-name="Omacron" unicode="&#x14c;" horiz-adv-x="1347" 
d="M674 1376q259 0 407 -146t148 -403v-303q0 -257 -148 -403t-407 -146t-407 146t-148 403v303q0 257 148 403t407 146zM674 1106q-118 0 -183 -75.5t-65 -213.5v-282q0 -138 65 -213.5t183 -75.5t183 75.5t65 213.5v282q0 138 -65 213.5t-183 75.5zM485 1739h375
q57 0 90 -30.5t33 -82.5t-33 -82.5t-90 -30.5h-375q-57 0 -90 30.5t-33 82.5t33 82.5t90 30.5z" />
    <glyph glyph-name="omacron" unicode="&#x14d;" horiz-adv-x="1089" 
d="M545 1061q214 0 334 -120.5t120 -334.5v-176q0 -214 -120 -334.5t-334 -120.5t-334.5 120.5t-120.5 334.5v176q0 214 120.5 334.5t334.5 120.5zM545 811q-176 0 -176 -215v-156q0 -215 176 -215t176 215v156q0 215 -176 215zM356 1444h375q57 0 90 -30.5t33 -82.5
t-33 -82t-90 -30h-375q-57 0 -90 30t-33 82t33 82.5t90 30.5z" />
    <glyph glyph-name="Obreve" unicode="&#x14e;" horiz-adv-x="1347" 
d="M674 1376q259 0 407 -146t148 -403v-303q0 -257 -148 -403t-407 -146t-407 146t-148 403v303q0 257 148 403t407 146zM674 1106q-118 0 -183 -75.5t-65 -213.5v-282q0 -138 65 -213.5t183 -75.5t183 75.5t65 213.5v282q0 138 -65 213.5t-183 75.5zM674 1448
q-123 0 -205.5 57.5t-110.5 159.5q-6 24 -6 39q0 48 30 77t81 29q68 0 92 -61q36 -80 119 -80t119 80q24 61 92 61q51 0 80.5 -29t29.5 -77q0 -15 -6 -39q-28 -102 -110 -159.5t-205 -57.5z" />
    <glyph glyph-name="obreve" unicode="&#x14f;" horiz-adv-x="1089" 
d="M545 1061q214 0 334 -120.5t120 -334.5v-176q0 -214 -120 -334.5t-334 -120.5t-334.5 120.5t-120.5 334.5v176q0 214 120.5 334.5t334.5 120.5zM545 811q-176 0 -176 -215v-156q0 -215 176 -215t176 215v156q0 215 -176 215zM545 1153q-123 0 -205.5 57.5t-110.5 159.5
q-6 24 -6 39q0 48 30 77.5t81 29.5q67 0 92 -62q36 -80 119 -80t119 80q25 62 92 62q50 0 80 -29.5t30 -77.5q0 -15 -6 -39q-28 -102 -110 -159.5t-205 -57.5z" />
    <glyph glyph-name="Ohungarumlaut" unicode="&#x150;" horiz-adv-x="1347" 
d="M674 1376q259 0 407 -146t148 -403v-303q0 -257 -148 -403t-407 -146t-407 146t-148 403v303q0 257 148 403t407 146zM674 1106q-118 0 -183 -75.5t-65 -213.5v-282q0 -138 65 -213.5t183 -75.5t183 75.5t65 213.5v282q0 138 -65 213.5t-183 75.5zM627 1810
q48 0 79 -32.5t31 -85.5q0 -42 -28 -74l-136 -137q-33 -33 -75 -33q-41 0 -70 29.5t-29 72.5q0 34 23 64l113 151q33 45 92 45zM1004 1810q48 0 79 -32.5t31 -85.5q0 -41 -29 -74l-135 -137q-33 -33 -76 -33q-41 0 -69.5 29.5t-28.5 72.5q0 34 23 64l112 151q33 45 93 45z
" />
    <glyph glyph-name="ohungarumlaut" unicode="&#x151;" horiz-adv-x="1089" 
d="M545 1061q214 0 334 -120.5t120 -334.5v-176q0 -214 -120 -334.5t-334 -120.5t-334.5 120.5t-120.5 334.5v176q0 214 120.5 334.5t334.5 120.5zM545 811q-176 0 -176 -215v-156q0 -215 176 -215t176 215v156q0 215 -176 215zM498 1516q48 0 79 -33t31 -86q0 -43 -28 -74
l-136 -137q-33 -33 -75 -33q-41 0 -70 29.5t-29 72.5q0 34 23 64l113 151q34 46 92 46zM874 1516q48 0 79.5 -33t31.5 -86q0 -41 -29 -74l-135 -137q-33 -33 -76 -33q-41 0 -69.5 29.5t-28.5 72.5q0 34 23 64l112 151q34 46 92 46z" />
    <glyph glyph-name="OE" unicode="&#x152;" horiz-adv-x="1880" 
d="M1163 270h510q67 0 105.5 -36t38.5 -99t-38.5 -99t-105.5 -36h-979q-274 0 -424.5 145.5t-150.5 403.5v254q0 258 150.5 403.5t424.5 145.5h979q67 0 105.5 -36t38.5 -99t-38.5 -99.5t-105.5 -36.5h-510v-262h418q67 0 105 -36t38 -99t-38 -99t-105 -36h-418v-279z
M426 793v-234q0 -139 68 -214t200 -75h162v811h-162q-132 0 -200 -74.5t-68 -213.5z" />
    <glyph glyph-name="oe" unicode="&#x153;" horiz-adv-x="1677" 
d="M1186 1061q195 0 307.5 -122t112.5 -333v-53q0 -63 -35 -100t-98 -37h-474q0 -89 47 -140t130 -51q88 0 145 72q48 55 111 55q64 0 100.5 -35.5t36.5 -97.5q0 -43 -29 -88q-110 -156 -344 -156q-231 0 -336 160h-4q-102 -160 -332 -160q-201 0 -317.5 122t-116.5 333v176
q0 211 116.5 333t317.5 122q229 0 332 -158h4q100 158 326 158zM721 440v156q0 215 -176 215t-176 -215v-156q0 -215 176 -215t176 215zM999 641h330q0 78 -45.5 124t-118.5 46t-119.5 -46t-46.5 -124z" />
    <glyph glyph-name="Racute" unicode="&#x154;" horiz-adv-x="1265" 
d="M952 537l201 -301q31 -50 31 -95q0 -69 -42.5 -111t-111.5 -42q-88 0 -133 75l-252 424h-180v-337q0 -75 -41 -118.5t-113 -43.5t-112.5 43.5t-40.5 118.5v1040q0 75 42 118.5t117 43.5h373q233 0 353 -109t120 -323q0 -283 -211 -383zM465 758h194q195 0 195 162
q0 161 -195 161h-194v-323zM887 1692q0 -60 -41 -93l-174 -129q-28 -22 -70 -22q-44 0 -73 30.5t-29 75.5q0 49 28 74l152 146q36 36 88 36q51 0 85 -33.5t34 -84.5z" />
    <glyph glyph-name="racute" unicode="&#x155;" horiz-adv-x="851" 
d="M821 877q15 -34 15 -62q0 -63 -33.5 -99t-93.5 -36q-81 0 -119 65q-39 66 -103 66q-50 0 -77 -35.5t-27 -101.5v-539q0 -69 -36.5 -108t-102.5 -39t-103 39t-37 108v545q0 181 101.5 281t283.5 100q117 0 204.5 -48.5t127.5 -135.5zM731 1397q0 -59 -41 -92l-174 -129
q-30 -23 -70 -23q-44 0 -73 31t-29 76q0 47 29 73l151 146q37 37 88 37t85 -34t34 -85z" />
    <glyph glyph-name="uni0156" unicode="&#x156;" horiz-adv-x="1265" 
d="M952 537l201 -301q31 -50 31 -95q0 -69 -42.5 -111t-111.5 -42q-88 0 -133 75l-252 424h-180v-337q0 -75 -41 -118.5t-113 -43.5t-112.5 43.5t-40.5 118.5v1040q0 75 42 118.5t117 43.5h373q233 0 353 -109t120 -323q0 -283 -211 -383zM465 758h194q195 0 195 162
q0 161 -195 161h-194v-323zM451 -254l120 141q33 41 91 41q48 0 79 -32.5t31 -85.5q0 -51 -41 -86l-141 -117q-27 -21 -62 -21q-40 0 -68 30t-28 73q0 38 19 57z" />
    <glyph glyph-name="uni0157" unicode="&#x157;" horiz-adv-x="851" 
d="M821 877q15 -34 15 -62q0 -63 -33.5 -99t-93.5 -36q-81 0 -119 65q-39 66 -103 66q-50 0 -77 -35.5t-27 -101.5v-539q0 -69 -36.5 -108t-102.5 -39t-103 39t-37 108v545q0 181 101.5 281t283.5 100q117 0 204.5 -48.5t127.5 -135.5zM35 -254l121 141q33 41 90 41
q48 0 79 -32.5t31 -85.5q0 -51 -41 -86l-141 -117q-27 -21 -61 -21q-40 0 -68.5 30t-28.5 73q0 38 19 57z" />
    <glyph glyph-name="Rcaron" unicode="&#x158;" horiz-adv-x="1265" 
d="M952 537l201 -301q31 -50 31 -95q0 -69 -42.5 -111t-111.5 -42q-88 0 -133 75l-252 424h-180v-337q0 -75 -41 -118.5t-113 -43.5t-112.5 43.5t-40.5 118.5v1040q0 75 42 118.5t117 43.5h373q233 0 353 -109t120 -323q0 -283 -211 -383zM465 758h194q195 0 195 162
q0 161 -195 161h-194v-323zM614 1448q-55 0 -108 41l-172 135q-37 29 -37 82q0 44 29 74t73 30q34 0 70 -24l145 -100l146 100q36 24 69 24q44 0 73.5 -30t29.5 -74q0 -53 -37 -82l-172 -135q-53 -41 -109 -41z" />
    <glyph glyph-name="rcaron" unicode="&#x159;" horiz-adv-x="851" 
d="M821 877q15 -34 15 -62q0 -63 -33.5 -99t-93.5 -36q-81 0 -119 65q-39 66 -103 66q-50 0 -77 -35.5t-27 -101.5v-539q0 -69 -36.5 -108t-102.5 -39t-103 39t-37 108v545q0 181 101.5 281t283.5 100q117 0 204.5 -48.5t127.5 -135.5zM459 1153q-56 0 -109 41l-172 135
q-37 29 -37 82q0 44 29.5 74.5t73.5 30.5q32 0 69 -25l146 -100l145 100q37 25 70 25q44 0 73 -30t29 -75q0 -53 -37 -82l-172 -135q-53 -41 -108 -41z" />
    <glyph glyph-name="Sacute" unicode="&#x15a;" horiz-adv-x="1179" 
d="M1110 399q0 -193 -134.5 -308.5t-359.5 -115.5q-353 0 -507 213q-31 45 -31 95q0 69 39.5 110t105.5 41q70 0 123 -67q95 -121 268 -121q88 0 138.5 41t50.5 112q0 70 -56 104.5t-204 49.5q-242 25 -343.5 119t-101.5 289q0 189 135.5 302t360.5 113q143 0 257.5 -46.5
t184.5 -133.5q29 -36 29 -88q0 -66 -40.5 -106.5t-106.5 -40.5q-61 0 -107 43q-105 102 -233 102q-78 0 -125 -39.5t-47 -105.5t53.5 -98t195.5 -44q246 -22 350.5 -120t104.5 -300zM860 1692q0 -60 -41 -93l-174 -129q-28 -22 -70 -22q-44 0 -73 30.5t-29 75.5q0 48 29 74
l151 146q36 36 88 36q51 0 85 -33.5t34 -84.5z" />
    <glyph glyph-name="sacute" unicode="&#x15b;" horiz-adv-x="972" 
d="M911 313q0 -160 -114 -249t-318 -89q-120 0 -224 37t-155 97q-39 46 -39 98q0 62 36.5 99.5t97.5 37.5q59 0 104 -45q78 -78 195 -78q147 0 147 92q0 40 -38 58t-144 24q-205 12 -294 88.5t-89 239.5q0 157 113.5 247.5t310.5 90.5q106 0 195 -30t136 -81q41 -44 41 -96
q0 -61 -36.5 -97t-98.5 -36q-48 0 -94 37q-32 26 -77 41.5t-87 15.5q-133 0 -133 -90q0 -42 40.5 -62t145.5 -26q204 -12 291.5 -87t87.5 -237zM768 1397q0 -59 -41 -92l-174 -129q-30 -23 -70 -23q-44 0 -73 31t-29 76q0 47 29 73l151 146q37 37 88 37t85 -34t34 -85z" />
    <glyph glyph-name="Scircumflex" unicode="&#x15c;" horiz-adv-x="1179" 
d="M1110 399q0 -193 -134.5 -308.5t-359.5 -115.5q-353 0 -507 213q-31 45 -31 95q0 69 39.5 110t105.5 41q70 0 123 -67q95 -121 268 -121q88 0 138.5 41t50.5 112q0 70 -56 104.5t-204 49.5q-242 25 -343.5 119t-101.5 289q0 189 135.5 302t360.5 113q143 0 257.5 -46.5
t184.5 -133.5q29 -36 29 -88q0 -66 -40.5 -106.5t-106.5 -40.5q-61 0 -107 43q-105 102 -233 102q-78 0 -125 -39.5t-47 -105.5t53.5 -98t195.5 -44q246 -22 350.5 -120t104.5 -300zM588 1810q55 0 108 -41l172 -135q37 -29 37 -82q0 -44 -29 -74t-73 -30q-33 0 -70 25
l-145 100l-146 -100q-38 -25 -69 -25q-44 0 -73.5 30t-29.5 74q0 53 37 82l172 135q53 41 109 41z" />
    <glyph glyph-name="scircumflex" unicode="&#x15d;" horiz-adv-x="972" 
d="M911 313q0 -160 -114 -249t-318 -89q-120 0 -224 37t-155 97q-39 46 -39 98q0 62 36.5 99.5t97.5 37.5q59 0 104 -45q78 -78 195 -78q147 0 147 92q0 40 -38 58t-144 24q-205 12 -294 88.5t-89 239.5q0 157 113.5 247.5t310.5 90.5q106 0 195 -30t136 -81q41 -44 41 -96
q0 -61 -36.5 -97t-98.5 -36q-48 0 -94 37q-32 26 -77 41.5t-87 15.5q-133 0 -133 -90q0 -42 40.5 -62t145.5 -26q204 -12 291.5 -87t87.5 -237zM496 1516q55 0 108 -41l172 -136q37 -29 37 -82q0 -44 -29 -74t-73 -30q-33 0 -70 25l-145 100l-146 -100q-38 -25 -69 -25
q-44 0 -73.5 30t-29.5 74q0 53 37 82l172 136q53 41 109 41z" />
    <glyph glyph-name="Scedilla" unicode="&#x15e;" horiz-adv-x="1179" 
d="M109 188q-31 45 -31 95q0 69 39.5 110t105.5 41q70 0 123 -67q95 -121 268 -121q88 0 138.5 41t50.5 112q0 70 -56 104.5t-204 49.5q-242 25 -343.5 119t-101.5 289q0 189 135.5 302t360.5 113q143 0 257.5 -46.5t184.5 -133.5q29 -36 29 -88q0 -66 -40.5 -106.5
t-106.5 -40.5q-61 0 -107 43q-105 102 -233 102q-78 0 -125 -39.5t-47 -105.5t53.5 -98t195.5 -44q246 -22 350.5 -120t104.5 -300q0 -190 -131 -306.5t-354 -117.5l-29 -49l2 -2q24 8 49 8q68 0 109 -40t41 -107q0 -70 -54 -112t-145 -42q-66 0 -106 10t-72 35
q-29 23 -29 58q0 28 19 47.5t49 19.5q22 0 39 -10q34 -22 86 -22q43 0 43 32q0 15 -13 23t-32 8q-22 0 -41 -3t-27 -3q-27 0 -42 14t-15 37q0 21 10 39l37 66q-266 30 -395 206z" />
    <glyph glyph-name="scedilla" unicode="&#x15f;" horiz-adv-x="972" 
d="M100 109q-39 46 -39 98q0 62 36.5 99.5t97.5 37.5q59 0 104 -45q78 -78 195 -78q147 0 147 92q0 40 -38 58t-144 24q-205 12 -294 88.5t-89 239.5q0 157 113.5 247.5t310.5 90.5q106 0 195 -30t136 -81q41 -44 41 -96q0 -61 -36.5 -97t-98.5 -36q-48 0 -94 37
q-32 26 -77 41.5t-87 15.5q-133 0 -133 -90q0 -42 40.5 -62t145.5 -26q204 -12 291.5 -87t87.5 -237q0 -153 -105 -242t-296 -96l-29 -49l2 -2q24 8 49 8q68 0 109 -40t41 -107q0 -70 -54 -112t-145 -42q-66 0 -106 10t-72 35q-29 23 -29 58q0 28 19 47.5t49 19.5
q22 0 39 -10q34 -22 86 -22q43 0 43 32q0 15 -13 23t-32 8q-22 0 -41 -3t-27 -3q-27 0 -42 14t-15 37q0 21 10 39l37 66q-93 11 -170.5 44.5t-118.5 82.5z" />
    <glyph glyph-name="Scaron" unicode="&#x160;" horiz-adv-x="1179" 
d="M1110 399q0 -193 -134.5 -308.5t-359.5 -115.5q-353 0 -507 213q-31 45 -31 95q0 69 39.5 110t105.5 41q70 0 123 -67q95 -121 268 -121q88 0 138.5 41t50.5 112q0 70 -56 104.5t-204 49.5q-242 25 -343.5 119t-101.5 289q0 189 135.5 302t360.5 113q143 0 257.5 -46.5
t184.5 -133.5q29 -36 29 -88q0 -66 -40.5 -106.5t-106.5 -40.5q-61 0 -107 43q-105 102 -233 102q-78 0 -125 -39.5t-47 -105.5t53.5 -98t195.5 -44q246 -22 350.5 -120t104.5 -300zM588 1448q-56 0 -109 41l-172 135q-37 29 -37 82q0 44 29.5 74t73.5 30q33 0 69 -24
l146 -100l145 100q36 24 70 24q44 0 73 -30t29 -74q0 -53 -37 -82l-172 -135q-53 -41 -108 -41z" />
    <glyph glyph-name="scaron" unicode="&#x161;" horiz-adv-x="972" 
d="M911 313q0 -160 -114 -249t-318 -89q-120 0 -224 37t-155 97q-39 46 -39 98q0 62 36.5 99.5t97.5 37.5q59 0 104 -45q78 -78 195 -78q147 0 147 92q0 40 -38 58t-144 24q-205 12 -294 88.5t-89 239.5q0 157 113.5 247.5t310.5 90.5q106 0 195 -30t136 -81q41 -44 41 -96
q0 -61 -36.5 -97t-98.5 -36q-48 0 -94 37q-32 26 -77 41.5t-87 15.5q-133 0 -133 -90q0 -42 40.5 -62t145.5 -26q204 -12 291.5 -87t87.5 -237zM496 1153q-56 0 -109 41l-172 135q-37 29 -37 82q0 44 29.5 74.5t73.5 30.5q31 0 69 -25l146 -100l145 100q37 25 70 25
q44 0 73 -30t29 -75q0 -53 -37 -82l-172 -135q-53 -41 -108 -41z" />
    <glyph glyph-name="uni0162" unicode="&#x162;" horiz-adv-x="1114" 
d="M160 1352h792q67 0 105.5 -36t38.5 -99t-38.5 -99.5t-105.5 -36.5h-241v-931q0 -65 -31 -107t-86 -51l-37 -66l2 -2q24 8 49 8q68 0 109 -40t41 -107q0 -70 -54 -112t-145 -42q-66 0 -106 10t-72 35q-29 23 -29 58q0 28 19 47.5t49 19.5q22 0 39 -10q34 -22 86 -22
q43 0 43 32q0 15 -13 23t-32 8q-22 0 -41 -3t-27 -3q-27 0 -42 14t-15 37q0 21 10 39l51 88q-76 42 -76 146v931h-243q-66 0 -104 36.5t-38 99.5t38 99t104 36z" />
    <glyph glyph-name="uni0163" unicode="&#x163;" horiz-adv-x="831" 
d="M680 311q60 0 93.5 -35.5t33.5 -97.5q0 -37 -21 -72q-36 -61 -110 -96t-172 -35h-29l-29 -49l3 -2q24 8 49 8q68 0 108.5 -40t40.5 -107q0 -71 -53.5 -112.5t-144.5 -41.5q-66 0 -106.5 10t-72.5 35q-28 22 -28 58q0 28 18.5 47.5t48.5 19.5q22 0 39 -10q34 -22 86 -22
q43 0 43 32q0 15 -13 23t-32 8q-22 0 -40.5 -3t-26.5 -3q-27 0 -42.5 14.5t-15.5 36.5q0 21 10 39l45 80q-190 62 -190 305v494h-39q-60 0 -94.5 31.5t-34.5 88.5t34.5 89t94.5 32h39v166q0 69 36.5 108.5t102.5 39.5t103 -39.5t37 -108.5v-166h206q60 0 94.5 -32t34.5 -89
t-34.5 -88.5t-94.5 -31.5h-206v-494q0 -76 63 -76q35 0 72 43q39 43 94 43z" />
    <glyph glyph-name="Tcaron" unicode="&#x164;" horiz-adv-x="1114" 
d="M160 1352h792q67 0 105.5 -36t38.5 -99t-38.5 -99.5t-105.5 -36.5h-241v-931q0 -75 -41 -118.5t-113 -43.5t-113 43.5t-41 118.5v931h-243q-66 0 -104 36.5t-38 99.5t38 99t104 36zM557 1448q-55 0 -108 41l-173 135q-36 28 -36 82q0 44 29 74t73 30q34 0 70 -24
l145 -100l145 100q36 24 70 24q44 0 73 -30t29 -74q0 -54 -36 -82l-172 -135q-53 -41 -109 -41z" />
    <glyph glyph-name="tcaron" unicode="&#x165;" horiz-adv-x="831" 
d="M807 178q0 -37 -21 -72q-36 -61 -110 -96t-172 -35q-162 0 -247 82.5t-85 243.5v494h-39q-60 0 -94.5 31.5t-34.5 88.5t34.5 89t94.5 32h39v166q0 69 36.5 108.5t102.5 39.5t103 -39.5t37 -108.5v-166h206q60 0 94.5 -32t34.5 -89t-34.5 -88.5t-94.5 -31.5h-206v-494
q0 -76 63 -76q35 0 72 43q39 43 94 43q60 0 93.5 -35.5t33.5 -97.5zM786 1425q0 -16 -4 -36l-57 -234q-9 -37 -37 -58.5t-63 -21.5q-44 0 -73.5 26.5t-29.5 69.5q0 22 4 54l27 205q6 51 36.5 78.5t80.5 27.5q52 0 84 -30.5t32 -80.5z" />
    <glyph glyph-name="Tbar" unicode="&#x166;" horiz-adv-x="1126" 
d="M166 1352h792q67 0 105.5 -36t38.5 -99t-38.5 -99.5t-105.5 -36.5h-241v-268h117q57 0 89.5 -30t32.5 -83q0 -52 -32.5 -82t-89.5 -30h-117v-438q0 -75 -41 -118.5t-113 -43.5t-112.5 43.5t-40.5 118.5v438h-117q-57 0 -90 30t-33 82t33 82.5t90 30.5h117v268h-244
q-66 0 -103.5 36.5t-37.5 99.5t37.5 99t103.5 36z" />
    <glyph glyph-name="tbar" unicode="&#x167;" horiz-adv-x="845" 
d="M690 311q60 0 93.5 -35.5t33.5 -97.5q0 -39 -20 -72q-36 -61 -110.5 -96t-172.5 -35q-162 0 -247 82.5t-85 243.5v152h-37q-57 0 -89.5 30t-32.5 82q0 53 32.5 83t89.5 30h37v117h-39q-60 0 -94.5 31.5t-34.5 88.5t34.5 89t94.5 32h39v166q0 69 37 108.5t103 39.5
t102.5 -39.5t36.5 -108.5v-166h207q60 0 94.5 -32t34.5 -89t-34.5 -88.5t-94.5 -31.5h-207v-117h160q57 0 89.5 -30t32.5 -83q0 -52 -32.5 -82t-89.5 -30h-160v-152q0 -76 63 -76q35 0 72 43q39 43 94 43z" />
    <glyph glyph-name="Utilde" unicode="&#x168;" horiz-adv-x="1273" 
d="M1004 1364q69 0 108 -41.5t39 -114.5v-714q0 -253 -131.5 -386t-382.5 -133t-382.5 133t-131.5 386v708q0 75 42 118.5t114 43.5q71 0 111 -43t40 -119v-698q0 -132 52 -196t159 -64q109 0 162 64t53 196v704q0 73 39.5 114.5t108.5 41.5zM745 1464q-72 0 -151 62
q-35 30 -57 30q-32 0 -56 -53q-24 -47 -82 -47q-45 0 -72.5 26.5t-27.5 69.5q0 23 6 41q31 95 88.5 145t134.5 50q73 0 152 -62q35 -30 57 -30q32 0 56 53q24 47 81 47q46 0 73.5 -26.5t27.5 -69.5q0 -23 -6 -41q-31 -94 -88.5 -144.5t-135.5 -50.5z" />
    <glyph glyph-name="utilde" unicode="&#x169;" horiz-adv-x="1097" 
d="M854 1049q66 0 102.5 -39.5t36.5 -108.5v-481q0 -207 -118.5 -326t-325.5 -119t-326 119t-119 326v481q0 69 37 108.5t103 39.5t102.5 -39.5t36.5 -108.5v-471q0 -205 166 -205t166 205v471q0 69 36.5 108.5t102.5 39.5zM657 1169q-72 0 -151 62q-36 31 -57 31
q-31 0 -56 -54q-24 -47 -82 -47q-45 0 -72.5 26.5t-27.5 69.5q0 23 6 41q31 95 88.5 145t134.5 50q74 0 152 -61q36 -31 57 -31q32 0 56 53q24 47 81 47q46 0 73.5 -26.5t27.5 -69.5q0 -23 -6 -41q-31 -94 -88.5 -144.5t-135.5 -50.5z" />
    <glyph glyph-name="Umacron" unicode="&#x16a;" horiz-adv-x="1273" 
d="M1004 1364q69 0 108 -41.5t39 -114.5v-714q0 -253 -131.5 -386t-382.5 -133t-382.5 133t-131.5 386v708q0 75 42 118.5t114 43.5q71 0 111 -43t40 -119v-698q0 -132 52 -196t159 -64q109 0 162 64t53 196v704q0 73 39.5 114.5t108.5 41.5zM449 1739h374q57 0 90 -30.5
t33 -82.5t-33 -82.5t-90 -30.5h-374q-57 0 -90 30.5t-33 82.5t33 82.5t90 30.5z" />
    <glyph glyph-name="umacron" unicode="&#x16b;" horiz-adv-x="1097" 
d="M854 1049q66 0 102.5 -39.5t36.5 -108.5v-481q0 -207 -118.5 -326t-325.5 -119t-326 119t-119 326v481q0 69 37 108.5t103 39.5t102.5 -39.5t36.5 -108.5v-471q0 -205 166 -205t166 205v471q0 69 36.5 108.5t102.5 39.5zM360 1444h375q57 0 90 -30.5t33 -82.5t-33 -82
t-90 -30h-375q-57 0 -89.5 30t-32.5 82q0 53 32.5 83t89.5 30z" />
    <glyph glyph-name="Ubreve" unicode="&#x16c;" horiz-adv-x="1273" 
d="M1004 1364q69 0 108 -41.5t39 -114.5v-714q0 -253 -131.5 -386t-382.5 -133t-382.5 133t-131.5 386v708q0 75 42 118.5t114 43.5q71 0 111 -43t40 -119v-698q0 -132 52 -196t159 -64q109 0 162 64t53 196v704q0 73 39.5 114.5t108.5 41.5zM637 1448q-123 0 -205 57.5
t-110 159.5q-7 28 -7 39q0 48 30 77t81 29q68 0 92 -61q36 -80 119 -80t119 80q24 61 92 61q51 0 80.5 -29t29.5 -77q0 -15 -6 -39q-28 -102 -110 -159.5t-205 -57.5z" />
    <glyph glyph-name="ubreve" unicode="&#x16d;" horiz-adv-x="1097" 
d="M854 1049q66 0 102.5 -39.5t36.5 -108.5v-481q0 -207 -118.5 -326t-325.5 -119t-326 119t-119 326v481q0 69 37 108.5t103 39.5t102.5 -39.5t36.5 -108.5v-471q0 -205 166 -205t166 205v471q0 69 36.5 108.5t102.5 39.5zM549 1153q-123 0 -205.5 57.5t-110.5 159.5
q-6 24 -6 39q0 48 30 77.5t81 29.5q67 0 92 -62q36 -80 119 -80t119 80q25 62 92 62q50 0 80 -29.5t30 -77.5q0 -15 -6 -39q-28 -102 -110 -159.5t-205 -57.5z" />
    <glyph glyph-name="Uring" unicode="&#x16e;" horiz-adv-x="1273" 
d="M1004 1364q69 0 108 -41.5t39 -114.5v-714q0 -253 -131.5 -386t-382.5 -133t-382.5 133t-131.5 386v708q0 75 42 118.5t114 43.5q71 0 111 -43t40 -119v-698q0 -132 52 -196t159 -64q109 0 162 64t53 196v704q0 73 39.5 114.5t108.5 41.5zM637 1419q-94 0 -156.5 62.5
t-62.5 156.5t62.5 157t156.5 63t156.5 -63t62.5 -157t-62.5 -156.5t-156.5 -62.5zM637 1554q35 0 56.5 23t21.5 61q0 37 -21.5 59.5t-56.5 22.5t-56.5 -22.5t-21.5 -59.5q0 -38 21.5 -61t56.5 -23z" />
    <glyph glyph-name="uring" unicode="&#x16f;" horiz-adv-x="1097" 
d="M854 1049q66 0 102.5 -39.5t36.5 -108.5v-481q0 -207 -118.5 -326t-325.5 -119t-326 119t-119 326v481q0 69 37 108.5t103 39.5t102.5 -39.5t36.5 -108.5v-471q0 -205 166 -205t166 205v471q0 69 36.5 108.5t102.5 39.5zM549 1124q-94 0 -156.5 62.5t-62.5 156.5
t62.5 157t156.5 63t156.5 -63t62.5 -157t-62.5 -156.5t-156.5 -62.5zM549 1260q35 0 56.5 22.5t21.5 60.5q0 37 -21.5 59.5t-56.5 22.5t-56.5 -22.5t-21.5 -59.5q0 -38 21.5 -60.5t56.5 -22.5z" />
    <glyph glyph-name="Uhungarumlaut" unicode="&#x170;" horiz-adv-x="1273" 
d="M1004 1364q69 0 108 -41.5t39 -114.5v-714q0 -253 -131.5 -386t-382.5 -133t-382.5 133t-131.5 386v708q0 75 42 118.5t114 43.5q71 0 111 -43t40 -119v-698q0 -132 52 -196t159 -64q109 0 162 64t53 196v704q0 73 39.5 114.5t108.5 41.5zM590 1810q48 0 79 -32.5
t31 -85.5q0 -42 -28 -74l-135 -137q-33 -33 -76 -33q-41 0 -70 29.5t-29 72.5q0 34 23 64l113 151q33 45 92 45zM967 1810q48 0 79 -32.5t31 -85.5q0 -42 -28 -74l-136 -137q-33 -33 -75 -33q-41 0 -70 29.5t-29 72.5q0 34 23 64l112 151q33 45 93 45z" />
    <glyph glyph-name="uhungarumlaut" unicode="&#x171;" horiz-adv-x="1097" 
d="M854 1049q66 0 102.5 -39.5t36.5 -108.5v-481q0 -207 -118.5 -326t-325.5 -119t-326 119t-119 326v481q0 69 37 108.5t103 39.5t102.5 -39.5t36.5 -108.5v-471q0 -205 166 -205t166 205v471q0 69 36.5 108.5t102.5 39.5zM502 1516q48 0 79 -33t31 -86q0 -43 -28 -74
l-135 -137q-33 -33 -76 -33q-41 0 -70 29.5t-29 72.5q0 34 23 64l113 151q34 46 92 46zM879 1516q48 0 79 -33t31 -86q0 -43 -28 -74l-136 -137q-33 -33 -75 -33q-41 0 -70 29.5t-29 72.5q0 34 23 64l112 151q34 46 93 46z" />
    <glyph glyph-name="Uogonek" unicode="&#x172;" horiz-adv-x="1273" 
d="M915 31q-57 -29 -88.5 -73.5t-31.5 -82.5q0 -19 9.5 -29t24.5 -10q18 0 32 11t32.5 22.5t48.5 11.5q50 0 78.5 -29t28.5 -77q0 -59 -48 -92q-74 -52 -196 -52q-97 0 -157 45.5t-60 128.5q0 87 69 168v2h-20q-251 0 -382.5 133t-131.5 386v708q0 75 42 118.5t114 43.5
q71 0 111 -43t40 -119v-698q0 -132 52 -196t159 -64q109 0 162 64t53 196v704q0 73 39.5 114.5t108.5 41.5t108 -41.5t39 -114.5v-714q0 -343 -236 -463z" />
    <glyph glyph-name="uogonek" unicode="&#x173;" horiz-adv-x="1097" 
d="M803 37q-60 -34 -93.5 -79t-33.5 -83q0 -19 10 -29t25 -10q18 0 31.5 11t32 22.5t48.5 11.5q50 0 78.5 -29t28.5 -77q0 -61 -47 -92q-74 -52 -197 -52q-97 0 -157 45.5t-60 128.5q0 86 70 168v2q-203 3 -319 121.5t-116 323.5v481q0 69 37 108.5t103 39.5t102.5 -39.5
t36.5 -108.5v-471q0 -205 166 -205t166 205v471q0 69 36.5 108.5t102.5 39.5t102.5 -39.5t36.5 -108.5v-481q0 -131 -49 -229t-141 -154z" />
    <glyph glyph-name="Wcircumflex" unicode="&#x174;" horiz-adv-x="1925" 
d="M1720 1364q66 0 107 -40.5t41 -106.5q0 -24 -8 -52l-359 -1056q-43 -121 -158 -121q-117 0 -159 121l-219 651h-4l-220 -651q-43 -121 -157 -121q-118 0 -160 121l-354 1042q-13 43 -13 59q0 70 44 112t118 42q54 0 90.5 -30t50.5 -79l228 -729h4l227 727q15 51 54 81
t96 30t95 -30t54 -81l232 -725h4l223 727q33 109 143 109zM963 1810q55 0 108 -41l172 -135q37 -29 37 -82q0 -44 -29 -74t-73 -30q-32 0 -70 25l-145 100l-146 -100q-37 -25 -69 -25q-44 0 -73.5 30t-29.5 74q0 53 37 82l172 135q53 41 109 41z" />
    <glyph glyph-name="wcircumflex" unicode="&#x175;" horiz-adv-x="1581" 
d="M1411 1049q63 0 99 -36t36 -100q0 -35 -8 -59l-287 -768q-18 -45 -55 -71.5t-88 -26.5q-106 0 -143 98l-172 469h-5l-172 -469q-37 -98 -143 -98q-51 0 -88 26.5t-55 71.5l-287 764q-8 24 -8 57q0 65 38.5 103.5t100.5 38.5q101 0 133 -97l168 -526h4l187 528
q32 95 131 95q46 0 79.5 -26t49.5 -69l186 -528h4l168 528q29 95 127 95zM801 1516q55 0 108 -41l172 -136q37 -29 37 -82q0 -44 -29 -74t-73 -30q-32 0 -70 25l-145 100l-146 -100q-37 -25 -69 -25q-44 0 -73.5 30t-29.5 74q0 53 37 82l172 136q53 41 109 41z" />
    <glyph glyph-name="Ycircumflex" unicode="&#x176;" horiz-adv-x="1196" 
d="M752 561v-411q0 -75 -41 -118.5t-113 -43.5t-113 43.5t-41 118.5v395l-387 575q-28 42 -28 90q0 69 42 111.5t111 42.5q82 0 125 -66l295 -462l295 462q19 30 52 48t71 18q66 0 106.5 -40.5t40.5 -106.5q0 -43 -28 -87zM598 1810q56 0 109 -41l172 -135q36 -28 36 -82
q0 -44 -29 -74t-73 -30q-33 0 -70 25l-145 100l-145 -100q-37 -25 -70 -25q-44 0 -73 30t-29 74q0 54 36 82l172 135q53 41 109 41z" />
    <glyph glyph-name="ycircumflex" unicode="&#x177;" horiz-adv-x="1032" 
d="M864 1049q63 0 99 -37.5t36 -106.5q0 -28 -10 -51l-510 -1137q-34 -73 -125 -73q-64 0 -101.5 37t-37.5 102q0 35 16 67l142 263l-328 731q-12 27 -12 63q0 65 38.5 103.5t104.5 38.5q95 0 127 -82l215 -537h4l219 537q32 82 123 82zM512 1516q56 0 109 -41l172 -136
q36 -28 36 -82q0 -44 -29 -74t-73 -30q-33 0 -70 25l-145 100l-145 -100q-38 -25 -70 -25q-44 0 -73 30t-29 74q0 54 36 82l172 136q53 41 109 41z" />
    <glyph glyph-name="Ydieresis" unicode="&#x178;" horiz-adv-x="1196" 
d="M752 561v-411q0 -75 -41 -118.5t-113 -43.5t-113 43.5t-41 118.5v395l-387 575q-28 42 -28 90q0 69 42 111.5t111 42.5q82 0 125 -66l295 -462l295 462q19 30 52 48t71 18q66 0 106.5 -40.5t40.5 -106.5q0 -43 -28 -87zM403 1774q65 0 104.5 -37.5t39.5 -98.5v-24
q0 -61 -39.5 -98t-104.5 -37q-66 0 -105.5 37t-39.5 98v24q0 62 39.5 99t105.5 37zM793 1774q66 0 105.5 -37t39.5 -99v-24q0 -61 -39.5 -98t-105.5 -37q-65 0 -104.5 37t-39.5 98v24q0 61 39.5 98.5t104.5 37.5z" />
    <glyph glyph-name="Zacute" unicode="&#x179;" horiz-adv-x="1155" 
d="M455 270h489q67 0 105 -36t38 -99t-38 -99t-105 -36h-737q-70 0 -111 38t-41 101q0 66 37 121l574 821h-428q-66 0 -104 36.5t-38 99.5t38 99t104 36h686q71 0 112 -38t41 -102q0 -37 -8.5 -65t-34.5 -64zM852 1692q0 -60 -41 -93l-174 -129q-28 -22 -70 -22
q-44 0 -73 30.5t-29 75.5q0 48 29 74l151 146q36 36 88 36q51 0 85 -33.5t34 -84.5z" />
    <glyph glyph-name="zacute" unicode="&#x17a;" horiz-adv-x="954" 
d="M414 242h370q60 0 94.5 -32t34.5 -89t-34.5 -89t-94.5 -32h-610q-65 0 -102 32t-37 93q0 62 35 106l444 564h-309q-60 0 -94.5 31.5t-34.5 88.5t34.5 89t94.5 32h553q65 0 100 -32t35 -93q0 -59 -33 -100zM754 1397q0 -59 -41 -92l-174 -129q-30 -23 -70 -23
q-44 0 -73 31t-29 76q0 48 28 73l152 146q37 37 88 37t85 -34t34 -85z" />
    <glyph glyph-name="Zdotaccent" unicode="&#x17b;" horiz-adv-x="1155" 
d="M455 270h489q67 0 105 -36t38 -99t-38 -99t-105 -36h-737q-70 0 -111 38t-41 101q0 66 37 121l574 821h-428q-66 0 -104 36.5t-38 99.5t38 99t104 36h686q71 0 112 -38t41 -102q0 -37 -8.5 -65t-34.5 -64zM580 1782q69 0 111 -39.5t42 -102.5v-28q0 -63 -42 -102.5
t-111 -39.5t-111.5 39.5t-42.5 102.5v28q0 63 42.5 102.5t111.5 39.5z" />
    <glyph glyph-name="zdotaccent" unicode="&#x17c;" horiz-adv-x="954" 
d="M414 242h370q60 0 94.5 -32t34.5 -89t-34.5 -89t-94.5 -32h-610q-65 0 -102 32t-37 93q0 62 35 106l444 564h-309q-60 0 -94.5 31.5t-34.5 88.5t34.5 89t94.5 32h553q65 0 100 -32t35 -93q0 -59 -33 -100zM481 1487q69 0 111.5 -39t42.5 -102v-29q0 -63 -42.5 -102
t-111.5 -39t-111 39t-42 102v29q0 63 42 102t111 39z" />
    <glyph glyph-name="Zcaron" unicode="&#x17d;" horiz-adv-x="1155" 
d="M455 270h489q67 0 105 -36t38 -99t-38 -99t-105 -36h-737q-70 0 -111 38t-41 101q0 66 37 121l574 821h-428q-66 0 -104 36.5t-38 99.5t38 99t104 36h686q71 0 112 -38t41 -102q0 -37 -8.5 -65t-34.5 -64zM580 1448q-56 0 -109 41l-172 135q-37 29 -37 82q0 44 29.5 74
t73.5 30q33 0 69 -24l146 -100l145 100q36 24 70 24q44 0 73 -30t29 -74q0 -53 -37 -82l-172 -135q-53 -41 -108 -41z" />
    <glyph glyph-name="zcaron" unicode="&#x17e;" horiz-adv-x="954" 
d="M414 242h370q60 0 94.5 -32t34.5 -89t-34.5 -89t-94.5 -32h-610q-65 0 -102 32t-37 93q0 62 35 106l444 564h-309q-60 0 -94.5 31.5t-34.5 88.5t34.5 89t94.5 32h553q65 0 100 -32t35 -93q0 -59 -33 -100zM481 1153q-55 0 -108 41l-172 135q-37 29 -37 82q0 45 29 75
t73 30q32 0 70 -25l145 -100l146 100q37 25 69 25q44 0 73.5 -30.5t29.5 -74.5q0 -53 -37 -82l-172 -135q-53 -41 -109 -41z" />
    <glyph glyph-name="florin" unicode="&#x192;" horiz-adv-x="1163" 
d="M829 1126q-86 0 -98 -127l-12 -114h196q55 -3 86 -34t31 -83q0 -59 -35.5 -92t-97.5 -33h-205l-59 -575q-35 -314 -313 -314q-75 0 -123 12.5t-97 49.5q-41 30 -41 92q0 63 33.5 98t93.5 35q37 0 67 -18.5t50 -18.5q37 0 43 53l60 586h-134q-55 3 -84.5 32.5t-29.5 82.5
q0 61 34.5 94t96.5 33h143l12 129q19 179 114 270.5t261 91.5q180 0 264 -78q37 -32 37 -88q0 -66 -38 -103.5t-95 -37.5q-45 0 -80 27q-42 30 -80 30z" />
    <glyph glyph-name="AEacute" unicode="&#x1fc;" horiz-adv-x="1972" 
d="M1255 270h510q67 0 105.5 -36t38.5 -99t-38.5 -99t-105.5 -36h-655q-76 0 -119 43t-43 119v100h-497l-158 -221q-38 -53 -119 -53q-66 0 -106.5 40.5t-40.5 106.5q0 55 26 92l752 1026q41 57 83.5 78t106.5 21h770q67 0 105.5 -36t38.5 -99t-38.5 -99.5t-105.5 -36.5
h-510v-262h418q67 0 105.5 -36t38.5 -99t-38.5 -99t-105.5 -36h-418v-279zM948 975h-4l-307 -451h311v451zM1247 1692q0 -60 -41 -93l-174 -129q-28 -22 -69 -22q-44 0 -73.5 30.5t-29.5 75.5q0 48 29 74l151 146q36 36 88 36q51 0 85 -33.5t34 -84.5z" />
    <glyph glyph-name="aeacute" unicode="&#x1fd;" horiz-adv-x="1628" 
d="M1137 1061q195 0 307 -122t112 -333v-59q0 -63 -35 -100t-98 -37h-473q0 -86 47 -135.5t129 -49.5q86 0 146 72q48 55 110 55q64 0 101 -35.5t37 -97.5q0 -43 -29 -88q-113 -156 -344 -156q-230 0 -334 156h-4q-104 -156 -334 -156q-186 0 -293.5 90.5t-107.5 245.5v15
q0 309 379 309h219q0 82 -48 129t-128 47q-83 0 -144 -68q-52 -59 -112 -59q-57 0 -97.5 40.5t-40.5 96.5q0 39 29 84q51 73 143 114.5t201 41.5q230 0 334 -156h4q101 156 324 156zM950 635h330q-15 176 -164 176q-75 0 -120.5 -47t-45.5 -129zM492 225q85 0 132.5 49.5
t47.5 135.5h-221q-47 0 -73 -20.5t-26 -57.5v-13q0 -44 37 -69t103 -25zM1083 1397q0 -59 -41 -92l-174 -129q-30 -23 -69 -23q-44 0 -73.5 31t-29.5 76q0 47 29 73l152 146q37 37 88 37t84.5 -34t33.5 -85z" />
    <glyph glyph-name="Oslashacute" unicode="&#x1fe;" horiz-adv-x="1347" 
d="M1194 1165l-33 -43q68 -124 68 -295v-303q0 -257 -148 -403t-407 -146q-191 0 -324 82l-12 -16q-39 -53 -105 -53q-47 0 -79.5 31.5t-32.5 78.5q0 43 35 88l30 41q-67 128 -67 297v303q0 257 148 403t407 146q189 0 325 -82l13 17q39 53 104 53q47 0 80 -32t33 -79
q0 -43 -35 -88zM674 1106q-118 0 -183 -75.5t-65 -213.5v-272h4l393 518q-58 43 -149 43zM918 803l-392 -514q58 -43 148 -43q118 0 183 75.5t65 213.5v268h-4zM944 1692q0 -60 -41 -93l-174 -129q-28 -22 -70 -22q-44 0 -73 30.5t-29 75.5q0 48 29 74l151 146q36 36 88 36
q51 0 85 -33.5t34 -84.5z" />
    <glyph glyph-name="oslashacute" unicode="&#x1ff;" horiz-adv-x="1089" 
d="M963 846l-11 -12q47 -96 47 -228v-176q0 -214 -120 -334.5t-334 -120.5q-143 0 -246 56q-40 -43 -100 -43q-48 0 -78.5 30.5t-30.5 79.5q0 46 37 92l10 13q-47 96 -47 227v176q0 214 120.5 334.5t334.5 120.5q145 0 246 -55q40 43 98 43q48 0 79 -31t31 -80
q0 -47 -36 -92zM618 795v4q-30 12 -73 12q-176 0 -176 -215v-104h4zM717 545l-246 -303v-4q32 -13 74 -13q176 0 176 215v105h-4zM817 1397q0 -59 -41 -92l-174 -129q-30 -23 -70 -23q-44 0 -73 31t-29 76q0 47 29 73l151 146q37 37 88 37t85 -34t34 -85z" />
    <glyph glyph-name="uni0218" unicode="&#x218;" horiz-adv-x="1179" 
d="M1110 399q0 -193 -134.5 -308.5t-359.5 -115.5q-353 0 -507 213q-31 45 -31 95q0 69 39.5 110t105.5 41q70 0 123 -67q95 -121 268 -121q88 0 138.5 41t50.5 112q0 70 -56 104.5t-204 49.5q-242 25 -343.5 119t-101.5 289q0 189 135.5 302t360.5 113q143 0 257.5 -46.5
t184.5 -133.5q29 -36 29 -88q0 -66 -40.5 -106.5t-106.5 -40.5q-61 0 -107 43q-105 102 -233 102q-78 0 -125 -39.5t-47 -105.5t53.5 -98t195.5 -44q246 -22 350.5 -120t104.5 -300zM387 -254l121 141q33 41 90 41q48 0 79.5 -32.5t31.5 -85.5q0 -51 -41 -86l-142 -117
q-27 -21 -61 -21q-40 0 -68 30t-28 73q0 39 18 57z" />
    <glyph glyph-name="uni0219" unicode="&#x219;" horiz-adv-x="972" 
d="M911 313q0 -160 -114 -249t-318 -89q-120 0 -224 37t-155 97q-39 46 -39 98q0 62 36.5 99.5t97.5 37.5q59 0 104 -45q78 -78 195 -78q147 0 147 92q0 40 -38 58t-144 24q-205 12 -294 88.5t-89 239.5q0 157 113.5 247.5t310.5 90.5q106 0 195 -30t136 -81q41 -44 41 -96
q0 -61 -36.5 -97t-98.5 -36q-48 0 -94 37q-32 26 -77 41.5t-87 15.5q-133 0 -133 -90q0 -42 40.5 -62t145.5 -26q204 -12 291.5 -87t87.5 -237zM272 -254l121 141q33 41 90 41q48 0 79.5 -32.5t31.5 -85.5q0 -51 -41 -86l-141 -117q-27 -21 -62 -21q-40 0 -68 30t-28 73
q0 39 18 57z" />
    <glyph glyph-name="uni021A" unicode="&#x21a;" horiz-adv-x="1114" 
d="M160 1352h792q67 0 105.5 -36t38.5 -99t-38.5 -99.5t-105.5 -36.5h-241v-931q0 -75 -41 -118.5t-113 -43.5t-113 43.5t-41 118.5v931h-243q-66 0 -104 36.5t-38 99.5t38 99t104 36zM348 -254l121 141q33 41 90 41q48 0 79.5 -32.5t31.5 -85.5q0 -51 -41 -86l-142 -117
q-27 -21 -61 -21q-40 0 -68 30t-28 73q0 39 18 57z" />
    <glyph glyph-name="uni021B" unicode="&#x21b;" horiz-adv-x="831" 
d="M807 178q0 -37 -21 -72q-36 -61 -110 -96t-172 -35q-162 0 -247 82.5t-85 243.5v494h-39q-60 0 -94.5 31.5t-34.5 88.5t34.5 89t94.5 32h39v166q0 69 36.5 108.5t102.5 39.5t103 -39.5t37 -108.5v-166h206q60 0 94.5 -32t34.5 -89t-34.5 -88.5t-94.5 -31.5h-206v-494
q0 -76 63 -76q35 0 72 43q39 43 94 43q60 0 93.5 -35.5t33.5 -97.5zM238 -254l120 141q33 41 91 41q48 0 79 -32.5t31 -85.5q0 -51 -41 -86l-141 -117q-27 -21 -62 -21q-40 0 -68 30t-28 73q0 38 19 57z" />
    <glyph glyph-name="uni0237" unicode="&#x237;" horiz-adv-x="514" 
d="M256 1049q66 0 102.5 -39.5t36.5 -108.5v-950q0 -151 -79.5 -235.5t-213.5 -84.5q-79 0 -126 14t-85 44q-47 37 -47 100q0 60 33.5 94.5t93.5 34.5q34 0 65.5 -18.5t49.5 -18.5q31 0 31 47v973q0 69 36.5 108.5t102.5 39.5z" />
    <glyph glyph-name="circumflex" unicode="&#x2c6;" horiz-adv-x="983" 
d="M492 1516q55 0 108 -41l172 -136q37 -29 37 -82q0 -44 -29 -74t-73 -30q-33 0 -70 25l-145 100l-146 -100q-38 -25 -70 -25q-44 0 -73 30t-29 74q0 53 37 82l172 136q53 41 109 41z" />
    <glyph glyph-name="caron" unicode="&#x2c7;" horiz-adv-x="983" 
d="M492 1153q-56 0 -109 41l-172 135q-37 29 -37 82q0 45 29 75t73 30q32 0 70 -25l146 -100l145 100q37 25 70 25q44 0 73 -30t29 -75q0 -53 -37 -82l-172 -135q-53 -41 -108 -41z" />
    <glyph glyph-name="breve" unicode="&#x2d8;" horiz-adv-x="983" 
d="M492 1153q-123 0 -205.5 57.5t-110.5 159.5q-6 24 -6 39q0 48 30 77.5t81 29.5q67 0 92 -62q36 -80 119 -80q82 0 118 80q25 62 92 62q51 0 81 -29.5t30 -77.5q0 -15 -6 -39q-28 -102 -110 -159.5t-205 -57.5z" />
    <glyph glyph-name="dotaccent" unicode="&#x2d9;" horiz-adv-x="983" 
d="M492 1487q69 0 111 -39t42 -102v-29q0 -63 -42 -102t-111 -39t-111.5 39t-42.5 102v29q0 63 42.5 102t111.5 39z" />
    <glyph glyph-name="ring" unicode="&#x2da;" horiz-adv-x="983" 
d="M492 1124q-94 0 -157 62.5t-63 156.5t63 157t157 63t156.5 -63t62.5 -157t-62.5 -156.5t-156.5 -62.5zM492 1260q35 0 56 22.5t21 60.5q0 37 -21 59.5t-56 22.5t-56.5 -22.5t-21.5 -59.5q0 -38 21.5 -60.5t56.5 -22.5z" />
    <glyph glyph-name="ogonek" unicode="&#x2db;" horiz-adv-x="983" 
d="M754 -225q0 -59 -45 -90q-74 -54 -199 -54q-97 0 -157 45.5t-60 128.5q0 204 295 304l49 -91q-137 -62 -137 -143q0 -19 10 -29t25 -10q17 0 46 22.5t66 22.5q50 0 78.5 -29t28.5 -77z" />
    <glyph glyph-name="tilde" unicode="&#x2dc;" horiz-adv-x="983" 
d="M600 1169q-72 0 -151 62q-36 31 -58 31q-30 0 -55 -54q-24 -47 -82 -47q-45 0 -72.5 26.5t-27.5 69.5q0 23 6 41q31 95 88.5 145t134.5 50q74 0 152 -61q36 -31 57 -31q31 0 55 53q24 47 82 47q45 0 72.5 -26.5t27.5 -69.5q0 -23 -6 -41q-31 -94 -88 -144.5t-135 -50.5z
" />
    <glyph glyph-name="hungarumlaut" unicode="&#x2dd;" horiz-adv-x="983" 
d="M444 1516q48 0 79.5 -33t31.5 -86q0 -41 -29 -74l-135 -137q-33 -33 -76 -33q-41 0 -69.5 29.5t-28.5 72.5q0 34 23 64l112 151q34 46 92 46zM821 1516q48 0 79.5 -33t31.5 -86q0 -41 -29 -74l-135 -137q-33 -33 -76 -33q-41 0 -69.5 29.5t-28.5 72.5q0 36 22 64l113 151
q34 46 92 46z" />
    <glyph glyph-name="uni0394" unicode="&#x394;" horiz-adv-x="1294" 
d="M813 1243l408 -985q20 -52 20 -94q0 -75 -46.5 -119.5t-121.5 -44.5h-858q-72 0 -117 45t-45 117q0 36 17 78l411 1003q51 121 166 121t166 -121zM649 911h-4l-244 -641h484z" />
    <glyph glyph-name="uni03A9" unicode="&#x3a9;" horiz-adv-x="1343" 
d="M1057 270h55q67 0 105 -36t38 -99t-38 -99t-105 -36h-229q-72 0 -112 33.5t-40 99.5q0 44 17.5 76t48.5 65q65 68 94 136t29 186v221q0 138 -65 213.5t-183 75.5t-183 -75.5t-65 -213.5v-221q0 -118 29 -186t94 -136q31 -33 48 -64.5t17 -76.5q0 -66 -39.5 -99.5
t-111.5 -33.5h-230q-67 0 -105 36t-38 99t38 99t105 36h56v4q-78 61 -124 158t-46 215v180q0 257 148 403t407 146t407 -146t148 -403v-180q0 -118 -46 -215t-124 -158v-4z" />
    <glyph glyph-name="uni03BC" unicode="&#x3bc;" horiz-adv-x="1112" 
d="M868 1049q66 0 103 -39.5t37 -108.5v-489q0 -204 -101.5 -320.5t-281.5 -116.5q-137 0 -224 78h-4v-262q0 -69 -36.5 -108t-102.5 -39t-102.5 39t-36.5 108v1110q0 69 36.5 108.5t102.5 39.5t102.5 -39.5t36.5 -108.5v-477q0 -199 166 -199q82 0 124 50t42 147v479
q0 69 36.5 108.5t102.5 39.5z" />
    <glyph glyph-name="pi" unicode="&#x3c0;" horiz-adv-x="1159" 
d="M154 1036h852q60 0 94.5 -32t34.5 -89t-34.5 -88.5t-94.5 -31.5h-13v-660q0 -69 -36.5 -108t-102.5 -39t-102.5 39t-36.5 108v660h-271v-660q0 -69 -36.5 -108t-102.5 -39t-102.5 39t-36.5 108v660h-12q-60 0 -94.5 31.5t-34.5 88.5t34.5 89t94.5 32z" />
    <glyph glyph-name="uni1E02" unicode="&#x1e02;" horiz-adv-x="1290" 
d="M1022 705v-5q92 -43 136 -121.5t44 -201.5q0 -198 -109 -287.5t-350 -89.5h-424q-76 0 -118.5 42.5t-42.5 119.5v1028q0 77 42.5 119.5t118.5 42.5h381q242 0 350.5 -85.5t108.5 -275.5q0 -203 -137 -286zM465 823h203q99 0 144.5 33.5t45.5 104.5q0 63 -40.5 91.5
t-129.5 28.5h-223v-258zM465 270h246q95 0 137.5 33t42.5 105q0 80 -48 116.5t-153 36.5h-225v-291zM623 1782q69 0 111 -39.5t42 -102.5v-28q0 -63 -42 -102.5t-111 -39.5t-111.5 39.5t-42.5 102.5v28q0 63 42.5 102.5t111.5 39.5z" />
    <glyph glyph-name="uni1E03" unicode="&#x1e03;" horiz-adv-x="1103" 
d="M610 1061q186 0 295 -118t109 -318v-195q0 -214 -120.5 -334.5t-334.5 -120.5t-334.5 120.5t-120.5 334.5v856q0 69 37 108.5t103 39.5t102.5 -39.5t36.5 -108.5v-303h4q87 78 223 78zM735 440v174q0 94 -45.5 145.5t-130.5 51.5t-130.5 -51.5t-45.5 -145.5v-174
q0 -215 176 -215t176 215zM244 1851q69 0 111 -39t42 -102v-29q0 -63 -42 -102t-111 -39t-111.5 39t-42.5 102v29q0 63 42.5 102t111.5 39z" />
    <glyph glyph-name="uni1E0A" unicode="&#x1e0a;" horiz-adv-x="1337" 
d="M317 1352h326q274 0 425 -145.5t151 -403.5v-254q0 -258 -151 -403.5t-425 -145.5h-326q-75 0 -117 43t-42 119v1028q0 74 42.5 118t116.5 44zM911 559v234q0 139 -68 213.5t-200 74.5h-178v-811h178q132 0 200 75t68 214zM623 1782q69 0 111 -39.5t42 -102.5v-28
q0 -63 -42 -102.5t-111 -39.5t-111.5 39.5t-42.5 102.5v28q0 63 42.5 102.5t111.5 39.5z" />
    <glyph glyph-name="uni1E0B" unicode="&#x1e0b;" horiz-adv-x="1103" 
d="M860 1434q66 0 102.5 -39.5t36.5 -108.5v-856q0 -214 -120 -334.5t-334 -120.5t-334.5 120.5t-120.5 334.5v195q0 200 109 318t295 118q136 0 223 -78h4v303q0 69 36.5 108.5t102.5 39.5zM721 440v174q0 94 -45.5 145.5t-130.5 51.5t-130.5 -51.5t-45.5 -145.5v-174
q0 -215 176 -215t176 215zM860 1851q69 0 111.5 -39t42.5 -102v-29q0 -63 -42.5 -102t-111.5 -39t-111 39t-42 102v29q0 63 42 102t111 39z" />
    <glyph glyph-name="uni1E1E" unicode="&#x1e1e;" horiz-adv-x="1124" 
d="M465 799h401q67 0 105.5 -36t38.5 -99t-38.5 -99.5t-105.5 -36.5h-401v-378q0 -75 -41 -118.5t-113 -43.5t-112.5 43.5t-40.5 118.5v1040q0 77 42.5 119.5t118.5 42.5h639q67 0 105.5 -36t38.5 -99t-38.5 -99.5t-105.5 -36.5h-493v-282zM602 1782q69 0 111.5 -39.5
t42.5 -102.5v-28q0 -63 -42.5 -102.5t-111.5 -39.5t-111 39.5t-42 102.5v28q0 63 42 102.5t111 39.5z" />
    <glyph glyph-name="uni1E1F" unicode="&#x1e1f;" horiz-adv-x="774" 
d="M543 1196q-90 0 -90 -121v-39h204q60 0 94.5 -32t34.5 -89t-34.5 -88.5t-94.5 -31.5h-204v-660q0 -69 -37 -108t-103 -39t-102.5 39t-36.5 108v660h-41q-60 0 -94.5 31.5t-34.5 88.5t34.5 89t94.5 32h41v41q0 175 94 272t271 97q155 0 241 -70q51 -41 51 -100
q0 -63 -36 -100t-93 -37q-42 0 -96 37q-29 20 -63 20zM446 1851q69 0 111.5 -39t42.5 -102v-29q0 -63 -42.5 -102t-111.5 -39t-111 39t-42 102v29q0 63 42 102t111 39z" />
    <glyph glyph-name="uni1E40" unicode="&#x1e40;" horiz-adv-x="1691" 
d="M1366 1364q80 0 124 -47t44 -133v-1034q0 -75 -41 -118.5t-113 -43.5t-112.5 43.5t-40.5 118.5v573h-4l-240 -447q-42 -79 -137 -79q-92 0 -137 79l-252 453h-4v-586q0 -73 -39.5 -114t-108.5 -41t-108 41t-39 114v1045q0 84 44 130t122 46q54 0 91.5 -24t67.5 -80
l361 -676l360 678q54 102 162 102zM846 1782q69 0 111 -39.5t42 -102.5v-28q0 -63 -42 -102.5t-111 -39.5t-111.5 39.5t-42.5 102.5v28q0 63 42.5 102.5t111.5 39.5z" />
    <glyph glyph-name="uni1E41" unicode="&#x1e41;" horiz-adv-x="1642" 
d="M1130 1061q192 0 300 -112t108 -312v-502q0 -69 -36.5 -108t-102.5 -39t-102.5 39t-36.5 108v483q0 193 -150 193q-149 0 -149 -193v-483q0 -69 -37 -108t-103 -39t-102.5 39t-36.5 108v483q0 193 -150 193q-149 0 -149 -193v-483q0 -69 -36.5 -108t-102.5 -39t-103 39
t-37 108v502q0 200 108 312t300 112q205 0 307 -121h4q102 121 307 121zM821 1487q69 0 111.5 -39t42.5 -102v-29q0 -63 -42.5 -102t-111.5 -39t-111 39t-42 102v29q0 63 42 102t111 39z" />
    <glyph glyph-name="uni1E56" unicode="&#x1e56;" horiz-adv-x="1243" 
d="M319 1352h388q233 0 353 -111.5t120 -329.5t-119.5 -329t-353.5 -111h-242v-321q0 -75 -41 -118.5t-113 -43.5t-112.5 43.5t-40.5 118.5v1040q0 77 42.5 119.5t118.5 42.5zM465 741h211q194 0 194 170t-194 170h-211v-340zM623 1782q69 0 111 -39.5t42 -102.5v-28
q0 -63 -42 -102.5t-111 -39.5t-111.5 39.5t-42.5 102.5v28q0 63 42.5 102.5t111.5 39.5z" />
    <glyph glyph-name="uni1E57" unicode="&#x1e57;" horiz-adv-x="1103" 
d="M559 1061q214 0 334.5 -120.5t120.5 -334.5v-194q0 -200 -109 -318.5t-295 -118.5q-136 0 -223 78h-4v-262q0 -69 -36.5 -108t-102.5 -39t-103 39t-37 108v815q0 214 120.5 334.5t334.5 120.5zM735 422v174q0 215 -176 215t-176 -215v-174q0 -94 45.5 -145.5t130.5 -51.5
t130.5 51.5t45.5 145.5zM559 1487q69 0 111.5 -39t42.5 -102v-29q0 -63 -42.5 -102t-111.5 -39t-111 39t-42 102v29q0 63 42 102t111 39z" />
    <glyph glyph-name="uni1E60" unicode="&#x1e60;" horiz-adv-x="1179" 
d="M1110 399q0 -193 -134.5 -308.5t-359.5 -115.5q-353 0 -507 213q-31 45 -31 95q0 69 39.5 110t105.5 41q70 0 123 -67q95 -121 268 -121q88 0 138.5 41t50.5 112q0 70 -56 104.5t-204 49.5q-242 25 -343.5 119t-101.5 289q0 189 135.5 302t360.5 113q143 0 257.5 -46.5
t184.5 -133.5q29 -36 29 -88q0 -66 -40.5 -106.5t-106.5 -40.5q-61 0 -107 43q-105 102 -233 102q-78 0 -125 -39.5t-47 -105.5t53.5 -98t195.5 -44q246 -22 350.5 -120t104.5 -300zM588 1782q69 0 111 -39.5t42 -102.5v-28q0 -63 -42 -102.5t-111 -39.5t-111.5 39.5
t-42.5 102.5v28q0 63 42.5 102.5t111.5 39.5z" />
    <glyph glyph-name="uni1E61" unicode="&#x1e61;" horiz-adv-x="972" 
d="M911 313q0 -160 -114 -249t-318 -89q-120 0 -224 37t-155 97q-39 46 -39 98q0 62 36.5 99.5t97.5 37.5q59 0 104 -45q78 -78 195 -78q147 0 147 92q0 40 -38 58t-144 24q-205 12 -294 88.5t-89 239.5q0 157 113.5 247.5t310.5 90.5q106 0 195 -30t136 -81q41 -44 41 -96
q0 -61 -36.5 -97t-98.5 -36q-48 0 -94 37q-32 26 -77 41.5t-87 15.5q-133 0 -133 -90q0 -42 40.5 -62t145.5 -26q204 -12 291.5 -87t87.5 -237zM496 1487q69 0 111 -39t42 -102v-29q0 -63 -42 -102t-111 -39t-111.5 39t-42.5 102v29q0 63 42.5 102t111.5 39z" />
    <glyph glyph-name="uni1E6A" unicode="&#x1e6a;" horiz-adv-x="1114" 
d="M160 1352h792q67 0 105.5 -36t38.5 -99t-38.5 -99.5t-105.5 -36.5h-241v-931q0 -75 -41 -118.5t-113 -43.5t-113 43.5t-41 118.5v931h-243q-66 0 -104 36.5t-38 99.5t38 99t104 36zM557 1782q69 0 111.5 -39.5t42.5 -102.5v-28q0 -63 -42.5 -102.5t-111.5 -39.5
t-111.5 39.5t-42.5 102.5v28q0 63 42.5 102.5t111.5 39.5z" />
    <glyph glyph-name="uni1E6B" unicode="&#x1e6b;" horiz-adv-x="831" 
d="M807 178q0 -37 -21 -72q-36 -61 -110 -96t-172 -35q-162 0 -247 82.5t-85 243.5v494h-39q-60 0 -94.5 31.5t-34.5 88.5t34.5 89t94.5 32h39v166q0 69 36.5 108.5t102.5 39.5t103 -39.5t37 -108.5v-166h206q60 0 94.5 -32t34.5 -89t-34.5 -88.5t-94.5 -31.5h-206v-494
q0 -76 63 -76q35 0 72 43q39 43 94 43q60 0 93.5 -35.5t33.5 -97.5zM311 1788q69 0 111.5 -39t42.5 -102v-29q0 -63 -42.5 -102t-111.5 -39t-111 39t-42 102v29q0 63 42 102t111 39z" />
    <glyph glyph-name="Wgrave" unicode="&#x1e80;" horiz-adv-x="1925" 
d="M1720 1364q66 0 107 -40.5t41 -106.5q0 -24 -8 -52l-359 -1056q-43 -121 -158 -121q-117 0 -159 121l-219 651h-4l-220 -651q-43 -121 -157 -121q-118 0 -160 121l-354 1042q-13 43 -13 59q0 70 44 112t118 42q54 0 90.5 -30t50.5 -79l228 -729h4l227 727q15 51 54 81
t96 30t95 -30t54 -81l232 -725h4l223 727q33 109 143 109zM686 1692q0 51 34 84.5t85 33.5q52 0 88 -36l151 -146q29 -26 29 -74q0 -45 -29 -75.5t-73 -30.5q-42 0 -70 22l-174 129q-41 33 -41 93z" />
    <glyph glyph-name="wgrave" unicode="&#x1e81;" horiz-adv-x="1581" 
d="M1411 1049q63 0 99 -36t36 -100q0 -35 -8 -59l-287 -768q-18 -45 -55 -71.5t-88 -26.5q-106 0 -143 98l-172 469h-5l-172 -469q-37 -98 -143 -98q-51 0 -88 26.5t-55 71.5l-287 764q-8 24 -8 57q0 65 38.5 103.5t100.5 38.5q101 0 133 -97l168 -526h4l187 528
q32 95 131 95q46 0 79.5 -26t49.5 -69l186 -528h4l168 528q29 95 127 95zM524 1397q0 51 34 85t85 34t88 -37l152 -146q28 -25 28 -73q0 -45 -29 -76t-73 -31q-40 0 -70 23l-174 129q-41 33 -41 92z" />
    <glyph glyph-name="Wacute" unicode="&#x1e82;" horiz-adv-x="1925" 
d="M1720 1364q66 0 107 -40.5t41 -106.5q0 -24 -8 -52l-359 -1056q-43 -121 -158 -121q-117 0 -159 121l-219 651h-4l-220 -651q-43 -121 -157 -121q-118 0 -160 121l-354 1042q-13 43 -13 59q0 70 44 112t118 42q54 0 90.5 -30t50.5 -79l228 -729h4l227 727q15 51 54 81
t96 30t95 -30t54 -81l232 -725h4l223 727q33 109 143 109zM1235 1692q0 -60 -41 -93l-174 -129q-28 -22 -70 -22q-44 0 -73 30.5t-29 75.5q0 48 29 74l151 146q36 36 88 36q51 0 85 -33.5t34 -84.5z" />
    <glyph glyph-name="wacute" unicode="&#x1e83;" horiz-adv-x="1581" 
d="M1411 1049q63 0 99 -36t36 -100q0 -35 -8 -59l-287 -768q-18 -45 -55 -71.5t-88 -26.5q-106 0 -143 98l-172 469h-5l-172 -469q-37 -98 -143 -98q-51 0 -88 26.5t-55 71.5l-287 764q-8 24 -8 57q0 65 38.5 103.5t100.5 38.5q101 0 133 -97l168 -526h4l187 528
q32 95 131 95q46 0 79.5 -26t49.5 -69l186 -528h4l168 528q29 95 127 95zM1073 1397q0 -59 -41 -92l-174 -129q-30 -23 -70 -23q-44 0 -73 31t-29 76q0 47 29 73l151 146q37 37 88 37t85 -34t34 -85z" />
    <glyph glyph-name="Wdieresis" unicode="&#x1e84;" horiz-adv-x="1925" 
d="M1720 1364q66 0 107 -40.5t41 -106.5q0 -24 -8 -52l-359 -1056q-43 -121 -158 -121q-117 0 -159 121l-219 651h-4l-220 -651q-43 -121 -157 -121q-118 0 -160 121l-354 1042q-13 43 -13 59q0 70 44 112t118 42q54 0 90.5 -30t50.5 -79l228 -729h4l227 727q15 51 54 81
t96 30t95 -30t54 -81l232 -725h4l223 727q33 109 143 109zM768 1774q65 0 104 -37.5t39 -98.5v-24q0 -61 -39 -98t-104 -37q-66 0 -105.5 37t-39.5 98v24q0 62 39.5 99t105.5 37zM1157 1774q66 0 106 -37.5t40 -98.5v-24q0 -61 -40 -98t-106 -37q-65 0 -104 37t-39 98v24
q0 61 39 98.5t104 37.5z" />
    <glyph glyph-name="wdieresis" unicode="&#x1e85;" horiz-adv-x="1581" 
d="M1411 1049q63 0 99 -36t36 -100q0 -35 -8 -59l-287 -768q-18 -45 -55 -71.5t-88 -26.5q-106 0 -143 98l-172 469h-5l-172 -469q-37 -98 -143 -98q-51 0 -88 26.5t-55 71.5l-287 764q-8 24 -8 57q0 65 38.5 103.5t100.5 38.5q101 0 133 -97l168 -526h4l187 528
q32 95 131 95q46 0 79.5 -26t49.5 -69l186 -528h4l168 528q29 95 127 95zM606 1479q65 0 104.5 -37.5t39.5 -98.5v-24q0 -61 -39.5 -98t-104.5 -37q-66 0 -105.5 37t-39.5 98v24q0 62 39.5 99t105.5 37zM995 1479q66 0 106 -37.5t40 -98.5v-24q0 -61 -40 -98t-106 -37
q-65 0 -104 37t-39 98v24q0 61 39 98.5t104 37.5z" />
    <glyph glyph-name="Ygrave" unicode="&#x1ef2;" horiz-adv-x="1196" 
d="M752 561v-411q0 -75 -41 -118.5t-113 -43.5t-113 43.5t-41 118.5v395l-387 575q-28 42 -28 90q0 69 42 111.5t111 42.5q82 0 125 -66l295 -462l295 462q19 30 52 48t71 18q66 0 106.5 -40.5t40.5 -106.5q0 -43 -28 -87zM322 1692q0 51 33.5 84.5t84.5 33.5q52 0 88 -36
l152 -146q29 -26 29 -74q0 -45 -29.5 -75.5t-73.5 -30.5q-41 0 -69 22l-175 129q-40 32 -40 93z" />
    <glyph glyph-name="ygrave" unicode="&#x1ef3;" horiz-adv-x="1032" 
d="M864 1049q63 0 99 -37.5t36 -106.5q0 -28 -10 -51l-510 -1137q-34 -73 -125 -73q-64 0 -101.5 37t-37.5 102q0 35 16 67l142 263l-328 731q-12 27 -12 63q0 65 38.5 103.5t104.5 38.5q95 0 127 -82l215 -537h4l219 537q32 82 123 82zM236 1397q0 51 33.5 85t84.5 34
t88 -37l152 -146q29 -26 29 -73q0 -45 -29.5 -76t-73.5 -31q-39 0 -69 23l-175 129q-40 32 -40 92z" />
    <glyph glyph-name="uni2007" unicode="&#x2007;" horiz-adv-x="1163" 
 />
    <glyph glyph-name="figuredash" unicode="&#x2012;" horiz-adv-x="1163" 
d="M190 797h783q60 0 94.5 -32t34.5 -89t-34.5 -89t-94.5 -32h-783q-60 0 -94.5 32t-34.5 89t34.5 89t94.5 32z" />
    <glyph glyph-name="endash" unicode="&#x2013;" horiz-adv-x="983" 
d="M190 682h603q60 0 94.5 -32t34.5 -89t-34.5 -89t-94.5 -32h-603q-60 0 -94.5 32t-34.5 89t34.5 89t94.5 32z" />
    <glyph glyph-name="emdash" unicode="&#x2014;" horiz-adv-x="1638" 
d="M190 682h1258q60 0 94.5 -32t34.5 -89t-34.5 -89t-94.5 -32h-1258q-60 0 -94.5 32t-34.5 89t34.5 89t94.5 32z" />
    <glyph glyph-name="quoteleft" unicode="&#x2018;" horiz-adv-x="614" 
d="M102 926q0 38 23 82l168 292q37 64 102 64q50 0 83.5 -32t33.5 -79q0 -27 -8 -51l-111 -321q-16 -48 -52.5 -76.5t-88.5 -28.5q-64 0 -107 43t-43 107z" />
    <glyph glyph-name="quoteright" unicode="&#x2019;" horiz-adv-x="614" 
d="M512 1214q0 -37 -23 -81l-167 -293q-16 -28 -43.5 -46t-59.5 -18q-50 0 -83.5 32t-33.5 79q0 24 9 51l110 322q16 47 52.5 75.5t88.5 28.5q64 0 107 -43t43 -107z" />
    <glyph glyph-name="quotesinglbase" unicode="&#x201a;" horiz-adv-x="552" 
d="M422 166q0 -38 -23 -82l-168 -293q-36 -63 -102 -63q-50 0 -83.5 31.5t-33.5 78.5q0 27 8 51l111 322q16 47 52.5 75.5t88.5 28.5q65 0 107.5 -42.5t42.5 -106.5z" />
    <glyph glyph-name="quotedblleft" unicode="&#x201c;" horiz-adv-x="1036" 
d="M524 926q0 38 23 82l168 292q37 64 102 64q50 0 83.5 -32t33.5 -79q0 -27 -8 -51l-111 -321q-16 -48 -52.5 -76.5t-88.5 -28.5q-64 0 -107 43t-43 107zM102 926q0 38 23 82l168 292q37 64 102 64q50 0 83.5 -32t33.5 -79q0 -27 -8 -51l-111 -321q-16 -48 -52.5 -76.5
t-88.5 -28.5q-64 0 -107 43t-43 107z" />
    <glyph glyph-name="quotedblright" unicode="&#x201d;" horiz-adv-x="1036" 
d="M934 1214q0 -37 -23 -81l-168 -293q-37 -64 -102 -64q-50 0 -83.5 32t-33.5 79q0 27 8 51l111 322q16 47 52.5 75.5t88.5 28.5q64 0 107 -43t43 -107zM512 1214q0 -37 -23 -81l-167 -293q-16 -28 -43.5 -46t-59.5 -18q-50 0 -83.5 32t-33.5 79q0 24 9 51l110 322
q16 47 52.5 75.5t88.5 28.5q64 0 107 -43t43 -107z" />
    <glyph glyph-name="quotedblbase" unicode="&#x201e;" horiz-adv-x="974" 
d="M844 166q0 -38 -23 -82l-168 -293q-36 -63 -102 -63q-50 0 -83.5 31.5t-33.5 78.5q0 27 8 51l111 322q16 47 52.5 75.5t88.5 28.5q65 0 107.5 -42.5t42.5 -106.5zM422 166q0 -38 -23 -82l-168 -293q-36 -63 -102 -63q-50 0 -83.5 31.5t-33.5 78.5q0 27 8 51l111 322
q16 47 52.5 75.5t88.5 28.5q65 0 107.5 -42.5t42.5 -106.5z" />
    <glyph glyph-name="dagger" unicode="&#x2020;" horiz-adv-x="1032" 
d="M643 1047h207q57 0 89 -30.5t32 -84.5q0 -55 -32 -86t-89 -31h-207v-840q0 -63 -33.5 -98t-93.5 -35t-93.5 35t-33.5 98v840h-207q-56 0 -88.5 30.5t-32.5 84.5q0 55 32.5 86t88.5 31h207v253q0 62 33.5 98t93.5 36t93.5 -36t33.5 -98v-253z" />
    <glyph glyph-name="daggerdbl" unicode="&#x2021;" horiz-adv-x="1032" 
d="M643 461h207q57 0 89 -30.5t32 -84.5q0 -55 -32 -86t-89 -31h-207v-254q0 -63 -33.5 -98t-93.5 -35t-93.5 35t-33.5 98v254h-207q-56 0 -88.5 30.5t-32.5 84.5q0 55 32.5 86t88.5 31h207v354h-207q-56 0 -88.5 30.5t-32.5 84.5q0 55 32.5 86t88.5 31h207v253
q0 62 33.5 98t93.5 36t93.5 -36t33.5 -98v-253h207q57 0 89 -30.5t32 -84.5q0 -55 -32 -86t-89 -31h-207v-354z" />
    <glyph glyph-name="bullet" unicode="&#x2022;" horiz-adv-x="983" 
d="M492 260q-126 0 -214 87.5t-88 213.5t88 213.5t214 87.5t213.5 -87.5t87.5 -213.5t-87.5 -213.5t-213.5 -87.5z" />
    <glyph glyph-name="ellipsis" unicode="&#x2026;" horiz-adv-x="1638" 
d="M819 -12q-71 0 -117.5 47t-46.5 117t46.5 116.5t117.5 46.5t117.5 -46.5t46.5 -116.5t-46.5 -117t-117.5 -47zM1368 -12q-70 0 -117 47t-47 117t46.5 116.5t117.5 46.5t117.5 -46.5t46.5 -116.5t-47 -117t-117 -47zM270 -12q-70 0 -117 47t-47 117t46.5 116.5t117.5 46.5
t117.5 -46.5t46.5 -116.5t-47 -117t-117 -47z" />
    <glyph glyph-name="perthousand" unicode="&#x2030;" horiz-adv-x="1937" 
d="M1321 254v43q0 132 74.5 206.5t206.5 74.5t206 -74.5t74 -206.5v-43q0 -131 -74 -205t-206 -74t-206.5 74t-74.5 205zM1690 260v27q0 57 -21 84.5t-67 27.5q-89 0 -89 -112v-27q0 -58 21.5 -84t67.5 -26t67 26t21 84zM244 141l649 1174q28 51 84 51q43 0 71.5 -27.5
t28.5 -68.5q0 -26 -18 -60l-649 -1173q-28 -51 -84 -51q-43 0 -72 27.5t-29 68.5q0 23 19 59zM55 1053v43q0 132 74.5 206t206.5 74t206 -74t74 -206v-43q0 -131 -74 -205t-206 -74t-206.5 74t-74.5 205zM424 1059v26q0 113 -88 113t-88 -113v-26q0 -58 21 -84.5t67 -26.5
t67 26.5t21 84.5zM686 254v43q0 132 74.5 206.5t206.5 74.5t206 -74.5t74 -206.5v-43q0 -131 -74 -205t-206 -74t-206.5 74t-74.5 205zM1055 260v27q0 57 -21 84.5t-67 27.5t-67 -27.5t-21 -84.5v-27q0 -58 21 -84t67 -26t67 26t21 84z" />
    <glyph glyph-name="guilsinglleft" unicode="&#x2039;" horiz-adv-x="663" 
d="M324 518l241 -239q45 -45 45 -95q0 -56 -35 -90.5t-90 -34.5q-49 0 -94 45l-309 310q-49 49 -49 104q0 56 49 105l309 309q45 45 94 45q55 0 90 -34.5t35 -90.5q0 -49 -45 -94z" />
    <glyph glyph-name="guilsinglright" unicode="&#x203a;" horiz-adv-x="663" 
d="M340 518l-242 240q-45 45 -45 94q0 56 34.5 90.5t90.5 34.5q49 0 94 -45l310 -309q49 -49 49 -105q0 -55 -49 -104l-310 -310q-45 -45 -94 -45q-56 0 -90.5 34.5t-34.5 90.5q0 50 45 95z" />
    <glyph glyph-name="fraction" unicode="&#x2044;" horiz-adv-x="278" 
d="M465 1366q43 0 71.5 -27.5t28.5 -68.5q0 -26 -18 -60l-649 -1173q-28 -51 -84 -51q-43 0 -72 27.5t-29 68.5q0 23 19 59l649 1174q28 51 84 51z" />
    <glyph glyph-name="zerosuperior" unicode="&#x2070;" 
d="M66 1065v270q0 140 78.5 218.5t217.5 78.5q140 0 218.5 -79t78.5 -218v-270q0 -139 -78.5 -218t-218.5 -79q-139 0 -217.5 78.5t-78.5 218.5zM463 1071v254q0 123 -101 123q-100 0 -100 -123v-254q0 -123 100 -123q101 0 101 123z" />
    <glyph glyph-name="foursuperior" unicode="&#x2074;" 
d="M598 1139h12q41 0 65.5 -24.5t24.5 -65.5t-24.5 -66t-65.5 -25h-12v-79q0 -48 -26.5 -76.5t-71.5 -28.5t-72 28.5t-27 76.5v79h-245q-49 0 -77 27t-28 70q0 39 25 78l299 432q42 61 114 61q50 0 79.5 -34t29.5 -85v-368zM406 1350h-5l-137 -211h142v211z" />
    <glyph glyph-name="fivesuperior" unicode="&#x2075;" 
d="M401 1339q121 0 189.5 -75t68.5 -209q0 -132 -80 -209.5t-217 -77.5q-91 0 -162 36t-102 97q-12 24 -12 51q0 44 25.5 71.5t68.5 27.5q52 0 82 -50q33 -53 103 -53q46 0 72 28t26 79q0 49 -27 76.5t-74 27.5q-50 0 -97.5 -26.5t-74.5 -26.5q-43 0 -67 24t-27 68v10
l19 310q3 46 29.5 73t70.5 27h317q41 0 66 -24.5t25 -65.5t-25 -65.5t-66 -24.5h-239l-8 -129h4q52 30 112 30z" />
    <glyph glyph-name="sixsuperior" unicode="&#x2076;" 
d="M412 1327q120 0 189 -74.5t69 -203.5q0 -128 -80 -204.5t-215 -76.5q-139 0 -218 79t-79 218v272q0 137 81 216t220 79q167 0 246 -94q20 -27 20 -61q0 -43 -26.5 -70t-69.5 -27q-39 0 -68 29q-43 43 -98 43q-52 0 -80.5 -32t-28.5 -89v-51h5q53 47 133 47zM375 948
q46 0 72 27t26 74q0 46 -26 72t-72 26q-47 0 -74 -26t-27 -72v-5q0 -44 27 -70t74 -26z" />
    <glyph glyph-name="sevensuperior" unicode="&#x2077;" 
d="M676 1513q0 -36 -17 -71l-335 -621q-24 -47 -84 -47q-47 0 -74 27.5t-27 72.5q0 32 13 58l288 506h-299q-40 0 -65 25.5t-25 66.5q0 40 25 64t65 24h424q49 0 80 -29.5t31 -75.5z" />
    <glyph glyph-name="eightsuperior" unicode="&#x2078;" 
d="M549 1225v-4q125 -58 125 -197q0 -121 -82 -188.5t-230 -67.5t-229.5 67t-81.5 189q0 139 125 197v4q-104 49 -104 168q0 114 76 176.5t214 62.5t214.5 -62.5t76.5 -176.5q0 -119 -104 -168zM362 1452q-44 0 -69 -20.5t-25 -57.5q0 -35 25 -55.5t69 -20.5t69.5 20.5
t25.5 55.5q0 37 -25.5 57.5t-69.5 20.5zM362 948q55 0 85 22.5t30 63.5t-30 63.5t-85 22.5t-84.5 -22.5t-29.5 -63.5t29.5 -63.5t84.5 -22.5z" />
    <glyph glyph-name="ninesuperior" unicode="&#x2079;" 
d="M350 1632q140 0 218.5 -79t78.5 -218v-272q0 -137 -81 -216t-220 -79q-167 0 -246 94q-20 27 -20 62q0 43 26.5 69.5t69.5 26.5q39 0 68 -29q43 -43 98 -43q52 0 80.5 32t28.5 89v51h-5q-53 -47 -133 -47q-120 0 -189 75t-69 204q0 128 80 204t215 76zM350 1253
q47 0 74 26.5t27 72.5v4q0 44 -27 70t-74 26q-46 0 -72 -26.5t-26 -73.5q0 -46 26 -72.5t72 -26.5z" />
    <glyph glyph-name="zeroinferior" unicode="&#x2080;" 
d="M66 -61v270q0 140 78.5 218.5t217.5 78.5q140 0 218.5 -79t78.5 -218v-270q0 -139 -78.5 -218t-218.5 -79q-139 0 -217.5 78.5t-78.5 218.5zM463 -55v254q0 123 -101 123q-100 0 -100 -123v-254q0 -123 100 -123q101 0 101 123z" />
    <glyph glyph-name="oneinferior" unicode="&#x2081;" 
d="M510 -162h78q41 0 65.5 -24.5t24.5 -67.5q0 -41 -24.5 -65.5t-65.5 -24.5h-363q-41 0 -65.5 24.5t-24.5 65.5q0 40 24.5 65t65.5 25h88v475h-88q-41 0 -65.5 24.5t-24.5 67.5q0 41 24.5 65t65.5 24h187q44 0 71 -28.5t27 -74.5v-551z" />
    <glyph glyph-name="twoinferior" unicode="&#x2082;" 
d="M285 -164h266q41 0 65.5 -24.5t24.5 -65.5t-24.5 -65.5t-65.5 -24.5h-363q-46 0 -73 28t-27 74v6q0 145 55.5 227t184.5 128q74 27 100.5 54t26.5 71q0 82 -76 82q-56 0 -100 -56q-33 -45 -86 -45q-43 0 -68 26.5t-25 70.5q0 27 23 65q38 55 106 87t148 32
q132 0 203 -67.5t71 -194.5q0 -108 -48 -170.5t-165 -100.5q-83 -28 -115.5 -57.5t-37.5 -79.5z" />
    <glyph glyph-name="threeinferior" unicode="&#x2083;" 
d="M537 98v-4q116 -51 116 -188q0 -126 -78 -195t-219 -69q-91 0 -160.5 34t-105.5 95q-14 22 -14 53q0 44 26 71t68 27q55 0 80 -43q35 -57 112 -57q43 0 67 23.5t24 66.5q0 40 -25.5 62t-71.5 22h-49q-41 0 -65.5 24t-24.5 64t24.5 64t65.5 24h31q98 0 98 80
q0 35 -19.5 54.5t-56.5 19.5q-55 0 -100 -58q-28 -39 -76 -39q-43 0 -68.5 26.5t-25.5 70.5q0 36 19 61q86 119 247 119q133 0 205 -62t72 -178q0 -117 -96 -168z" />
    <glyph glyph-name="fourinferior" unicode="&#x2084;" 
d="M598 12h12q41 0 65.5 -24.5t24.5 -65.5t-24.5 -65.5t-65.5 -24.5h-12v-80q0 -48 -26.5 -76t-71.5 -28q-46 0 -72.5 28.5t-26.5 75.5v80h-245q-49 0 -77 26.5t-28 69.5q0 39 25 78l299 432q43 62 114 62q50 0 79.5 -34t29.5 -85v-369zM406 223h-5l-137 -211h142v211z" />
    <glyph glyph-name="fiveinferior" unicode="&#x2085;" 
d="M401 213q121 0 189.5 -75.5t68.5 -209.5q0 -132 -80 -209t-217 -77q-91 0 -162 36t-102 97q-12 24 -12 51q0 44 25.5 71t68.5 27q52 0 82 -49q33 -53 103 -53q46 0 72 27.5t26 78.5q0 49 -27 77t-74 28q-50 0 -97.5 -26.5t-74.5 -26.5q-43 0 -67 24t-27 68v10l19 309
q3 46 29.5 73.5t70.5 27.5h317q41 0 66 -25t25 -66t-25 -65.5t-66 -24.5h-239l-8 -129h4q53 31 112 31z" />
    <glyph glyph-name="sixinferior" unicode="&#x2086;" 
d="M412 201q120 0 189 -75t69 -204q0 -128 -80 -204t-215 -76q-139 0 -218 79t-79 218v272q0 137 81 216t220 79q167 0 246 -94q20 -27 20 -62q0 -43 -26.5 -69.5t-69.5 -26.5q-39 0 -68 29q-43 43 -98 43q-52 0 -80.5 -32t-28.5 -89v-51h5q53 47 133 47zM375 -178
q46 0 72 26.5t26 73.5q0 46 -26 72t-72 26q-47 0 -74 -26t-27 -72v-4q0 -44 27 -70t74 -26z" />
    <glyph glyph-name="seveninferior" unicode="&#x2087;" 
d="M676 387q0 -37 -17 -72l-335 -620q-24 -47 -84 -47q-47 0 -74 27.5t-27 72.5q0 31 13 57l288 506h-299q-40 0 -65 25.5t-25 66.5q0 40 25 64.5t65 24.5h424q49 0 80 -29.5t31 -75.5z" />
    <glyph glyph-name="eightinferior" unicode="&#x2088;" 
d="M549 98v-4q125 -58 125 -196q0 -121 -82 -188.5t-230 -67.5t-229.5 67t-81.5 189q0 138 125 196v4q-104 49 -104 168q0 114 76 177t214 63t214.5 -63t76.5 -177q0 -119 -104 -168zM362 326q-44 0 -69 -20.5t-25 -57.5q0 -35 25 -55.5t69 -20.5t69.5 20.5t25.5 55.5
q0 37 -25.5 57.5t-69.5 20.5zM362 -178q55 0 85 22.5t30 63.5t-30 63.5t-85 22.5t-84.5 -22.5t-29.5 -63.5t29.5 -63.5t84.5 -22.5z" />
    <glyph glyph-name="nineinferior" unicode="&#x2089;" 
d="M350 506q140 0 218.5 -79t78.5 -218v-272q0 -137 -81 -216t-220 -79q-167 0 -246 94q-20 27 -20 61q0 43 26.5 70t69.5 27q39 0 68 -29q43 -43 98 -43q52 0 80.5 32t28.5 89v51h-5q-53 -47 -133 -47q-120 0 -189 74.5t-69 203.5q0 128 80 204.5t215 76.5zM350 127
q47 0 74 26t27 72v4q0 45 -27 71t-74 26q-46 0 -72 -27t-26 -74q0 -46 26 -72t72 -26z" />
    <glyph glyph-name="Euro" unicode="&#x20ac;" horiz-adv-x="1163" 
d="M938 362q64 0 103.5 -39t39.5 -104q0 -50 -32 -90q-131 -154 -371 -154q-213 0 -340 118.5t-137 330.5h-21q-47 0 -75.5 26.5t-28.5 69.5q0 49 28 77t76 28h21v102h-21q-47 0 -75.5 26.5t-28.5 69.5q0 49 28 77t76 28h21q10 211 137 329.5t340 118.5q124 0 219.5 -41
t151.5 -112q32 -40 32 -90q0 -65 -39.5 -104.5t-103.5 -39.5q-60 0 -109 49q-40 41 -77 58.5t-86 17.5q-74 0 -119 -49t-51 -137h309q48 0 76 -28t28 -77q0 -43 -28.5 -69.5t-75.5 -26.5h-309v-102h309q48 0 76 -28t28 -77q0 -43 -28.5 -69.5t-75.5 -26.5h-309
q6 -88 51 -137t119 -49q50 0 86.5 17t76.5 58q49 49 109 49z" />
    <glyph glyph-name="uni20B9" unicode="&#x20b9;" horiz-adv-x="1163" 
d="M932 1020h53q54 0 87.5 -33t33.5 -88q0 -51 -33.5 -82t-87.5 -31h-45q-50 -262 -362 -292v-5l346 -229q65 -43 65 -119q0 -70 -39 -111.5t-102 -41.5q-58 0 -111 43l-534 418q-56 46 -56 112q0 60 37.5 94.5t98.5 34.5h141q149 0 199 92v4h-420q-56 0 -89.5 31t-33.5 82
q0 55 33.5 88t89.5 33h422v4q-49 94 -201 94h-221q-56 0 -89.5 31t-33.5 82q0 55 33.5 88t89.5 33h782q54 0 87.5 -33t33.5 -88q0 -51 -33.5 -82t-87.5 -31h-98v-4q32 -47 45 -94z" />
    <glyph glyph-name="uni2113" unicode="&#x2113;" horiz-adv-x="991" 
d="M793 340q59 0 100 -42t41 -101q0 -62 -43 -105q-120 -117 -313 -117q-158 0 -257.5 71.5t-127.5 205.5h-19q-64 0 -100.5 37.5t-36.5 99.5q0 37 20.5 69.5t53.5 51.5l69 35v432q0 195 93 297t270 102q165 0 261.5 -95.5t96.5 -258.5q0 -345 -426 -623v-30q0 -131 96 -131
q56 0 119 57q48 45 103 45zM545 1114q-70 0 -70 -123v-237h2q129 129 129 264q0 46 -16 71t-45 25z" />
    <glyph glyph-name="uni2117" unicode="&#x2117;" horiz-adv-x="1531" 
d="M766 1376q147 0 276.5 -54t222.5 -147t147 -222.5t54 -276.5q0 -196 -91.5 -356.5t-252 -252.5t-356.5 -92t-356.5 92t-252 252.5t-91.5 356.5q0 147 54 276.5t147 222.5t222.5 147t276.5 54zM766 156q215 0 357.5 146.5t142.5 373.5t-142.5 373.5t-357.5 146.5
t-357.5 -146.5t-142.5 -373.5t142.5 -373.5t357.5 -146.5zM637 1034h190q127 0 195 -63.5t68 -182.5q0 -120 -67.5 -183.5t-195.5 -63.5h-96v-131q0 -50 -26.5 -77.5t-73.5 -27.5q-46 0 -73.5 28t-27.5 77v520q0 51 28 77.5t79 26.5zM731 711h70q41 0 63.5 20.5t22.5 56.5
q0 70 -86 70h-70v-147z" />
    <glyph glyph-name="trademark" unicode="&#x2122;" horiz-adv-x="1587" 
d="M1374 1364q53 0 84 -31.5t31 -87.5v-506q0 -50 -26.5 -78t-73.5 -28t-74 28t-27 78v240h-4l-90 -162q-13 -23 -35 -38t-49 -15q-57 0 -88 53l-96 170h-4v-252q0 -49 -25.5 -75.5t-71.5 -26.5q-45 0 -70.5 26.5t-25.5 75.5v512q0 55 30 86t83 31q70 0 106 -64l162 -290
l158 290q36 64 106 64zM100 1352h432q43 0 69 -23.5t26 -64.5t-26 -64.5t-69 -23.5h-114v-435q0 -50 -27 -78t-74 -28t-73.5 28t-26.5 78v435h-117q-43 0 -67.5 23.5t-24.5 64.5t24.5 64.5t67.5 23.5z" />
    <glyph glyph-name="uni2126" unicode="&#x2126;" horiz-adv-x="1310" 
d="M1040 270h56q67 0 105 -36t38 -99t-38 -99t-105 -36h-230q-72 0 -111.5 33.5t-39.5 99.5q0 45 17 76.5t48 64.5q65 68 94 136t29 186v221q0 138 -65 213.5t-183 75.5t-182.5 -75.5t-64.5 -213.5v-221q0 -118 28.5 -186t93.5 -136q31 -33 48.5 -65t17.5 -76
q0 -66 -40 -99.5t-112 -33.5h-229q-67 0 -105 36t-38 99t38 99t105 36h55v4q-78 61 -124 158t-46 215v180q0 257 148 403t407 146t407 -146t148 -403v-180q0 -118 -46 -215t-124 -158v-4z" />
    <glyph glyph-name="estimated" unicode="&#x212e;" horiz-adv-x="1638" 
d="M369 225q86 -98 204 -153.5t250 -55.5q138 0 261.5 62.5t213.5 171.5h109q-105 -127 -259 -201t-329 -74q-201 0 -370.5 94t-268 255.5t-98.5 351.5q0 143 58 273t157 223.5t235.5 148.5t286.5 55t286.5 -55t235.5 -148.5t157 -223.5t58 -273v-17h-1196q-8 0 -8 -8v-385
q0 -16 17 -41zM360 696h918q12 0 12 13v385q0 25 -20 45q-89 92 -205 144t-242 52q-130 0 -247 -54.5t-207 -150.5q-17 -26 -17 -45v-376q0 -13 8 -13z" />
    <glyph glyph-name="onethird" unicode="&#x2153;" horiz-adv-x="1728" 
d="M1210 1366q43 0 72 -27.5t29 -68.5q0 -24 -19 -60l-649 -1173q-28 -51 -84 -51q-43 0 -71.5 27.5t-28.5 68.5q0 24 18 59l649 1174q28 51 84 51zM1540 442v-4q117 -51 117 -188q0 -126 -78 -195t-219 -69q-91 0 -160.5 34t-105.5 95q-15 24 -15 53q0 44 26.5 71t68.5 27
q54 0 79 -43q35 -57 113 -57q43 0 66.5 23.5t23.5 66.5q0 40 -25 62t-71 22h-49q-41 0 -65.5 24t-24.5 64t24.5 64t65.5 24h30q99 0 99 80q0 35 -19.5 54.5t-56.5 19.5q-55 0 -100 -58q-28 -39 -76 -39q-43 0 -68.5 26.5t-25.5 70.5q0 37 18 61q86 119 248 119
q133 0 204.5 -62t71.5 -178q0 -117 -96 -168zM510 698h78q41 0 65.5 -24.5t24.5 -67.5q0 -41 -24.5 -65.5t-65.5 -24.5h-363q-41 0 -65.5 24.5t-24.5 65.5q0 40 24.5 65t65.5 25h88v475h-88q-41 0 -65.5 25t-24.5 68q0 41 24.5 64.5t65.5 23.5h187q44 0 71 -28.5t27 -74.5
v-551z" />
    <glyph glyph-name="twothirds" unicode="&#x2154;" horiz-adv-x="1728" 
d="M1190 1366q43 0 71.5 -27.5t28.5 -68.5q0 -26 -18 -60l-649 -1173q-28 -51 -84 -51q-43 0 -72 27.5t-29 68.5q0 23 19 59l649 1174q28 51 84 51zM1540 442v-4q117 -51 117 -188q0 -126 -78 -195t-219 -69q-91 0 -160.5 34t-105.5 95q-15 24 -15 53q0 44 26.5 71t68.5 27
q54 0 79 -43q35 -57 113 -57q43 0 66.5 23.5t23.5 66.5q0 40 -25 62t-71 22h-49q-41 0 -65.5 24t-24.5 64t24.5 64t65.5 24h30q99 0 99 80q0 35 -19.5 54.5t-56.5 19.5q-55 0 -100 -58q-28 -39 -76 -39q-43 0 -68.5 26.5t-25.5 70.5q0 37 18 61q86 119 248 119
q133 0 204.5 -62t71.5 -178q0 -117 -96 -168zM285 696h266q41 0 65.5 -24.5t24.5 -65.5t-24.5 -65.5t-65.5 -24.5h-363q-46 0 -73 28t-27 74v7q0 145 55.5 226.5t184.5 127.5q74 27 100.5 54t26.5 71q0 82 -76 82q-56 0 -100 -56q-33 -45 -86 -45q-43 0 -68 26.5t-25 70.5
q0 27 23 65q38 55 106 87t148 32q132 0 203 -67.5t71 -194.5q0 -107 -48 -169.5t-165 -100.5q-82 -27 -115 -57.5t-38 -80.5z" />
    <glyph glyph-name="oneeighth" unicode="&#x215b;" horiz-adv-x="1728" 
d="M1210 1366q43 0 72 -27.5t29 -68.5q0 -24 -19 -60l-649 -1173q-28 -51 -84 -51q-43 0 -71.5 27.5t-28.5 68.5q0 24 18 59l649 1174q28 51 84 51zM1552 442v-4q125 -58 125 -196q0 -122 -81.5 -189t-229.5 -67t-229.5 67t-81.5 189q0 138 125 196v4q-105 50 -105 168
q0 114 76.5 177t214.5 63t214.5 -63t76.5 -177q0 -118 -105 -168zM1366 670q-44 0 -69 -20.5t-25 -57.5q0 -35 25 -55.5t69 -20.5t69 20.5t25 55.5q0 37 -25 57.5t-69 20.5zM1366 166q55 0 85 22.5t30 63.5t-30 63.5t-85 22.5t-85 -22.5t-30 -63.5t30 -63.5t85 -22.5z
M510 698h78q41 0 65.5 -24.5t24.5 -67.5q0 -41 -24.5 -65.5t-65.5 -24.5h-363q-41 0 -65.5 24.5t-24.5 65.5q0 40 24.5 65t65.5 25h88v475h-88q-41 0 -65.5 25t-24.5 68q0 41 24.5 64.5t65.5 23.5h187q44 0 71 -28.5t27 -74.5v-551z" />
    <glyph glyph-name="threeeighths" unicode="&#x215c;" horiz-adv-x="1728" 
d="M1190 1366q43 0 71.5 -27.5t28.5 -68.5q0 -26 -18 -60l-649 -1173q-28 -51 -84 -51q-43 0 -72 27.5t-29 68.5q0 23 19 59l649 1174q28 51 84 51zM1552 442v-4q125 -58 125 -196q0 -122 -81.5 -189t-229.5 -67t-229.5 67t-81.5 189q0 138 125 196v4q-105 50 -105 168
q0 114 76.5 177t214.5 63t214.5 -63t76.5 -177q0 -118 -105 -168zM1366 670q-44 0 -69 -20.5t-25 -57.5q0 -35 25 -55.5t69 -20.5t69 20.5t25 55.5q0 37 -25 57.5t-69 20.5zM1366 166q55 0 85 22.5t30 63.5t-30 63.5t-85 22.5t-85 -22.5t-30 -63.5t30 -63.5t85 -22.5z
M537 958v-4q116 -51 116 -188q0 -126 -78 -195t-219 -69q-91 0 -160.5 34t-105.5 95q-14 22 -14 53q0 44 26 71t68 27q55 0 80 -43q35 -57 112 -57q43 0 67 23.5t24 66.5q0 40 -25.5 62t-71.5 22h-49q-41 0 -65.5 24t-24.5 64t24.5 64t65.5 24h31q98 0 98 80
q0 35 -19.5 54.5t-56.5 19.5q-55 0 -100 -58q-27 -38 -76 -38q-43 0 -68.5 26t-25.5 70q0 36 19 61q86 119 247 119q133 0 205 -62t72 -178q0 -117 -96 -168z" />
    <glyph glyph-name="fiveeighths" unicode="&#x215d;" horiz-adv-x="1728" 
d="M1190 1366q43 0 71.5 -27.5t28.5 -68.5q0 -26 -18 -60l-649 -1173q-28 -51 -84 -51q-43 0 -72 27.5t-29 68.5q0 23 19 59l649 1174q28 51 84 51zM1552 442v-4q125 -58 125 -196q0 -122 -81.5 -189t-229.5 -67t-229.5 67t-81.5 189q0 138 125 196v4q-105 50 -105 168
q0 114 76.5 177t214.5 63t214.5 -63t76.5 -177q0 -118 -105 -168zM1366 670q-44 0 -69 -20.5t-25 -57.5q0 -35 25 -55.5t69 -20.5t69 20.5t25 55.5q0 37 -25 57.5t-69 20.5zM1366 166q55 0 85 22.5t30 63.5t-30 63.5t-85 22.5t-85 -22.5t-30 -63.5t30 -63.5t85 -22.5z
M401 1073q121 0 189.5 -75.5t68.5 -209.5q0 -132 -80 -209t-217 -77q-91 0 -162 36t-102 97q-12 24 -12 51q0 44 25.5 71t68.5 27q52 0 82 -49q33 -53 103 -53q46 0 72 27.5t26 78.5q0 49 -27 77t-74 28q-50 0 -97.5 -26.5t-74.5 -26.5q-43 0 -67 24t-27 68v10l19 309
q3 46 29.5 73.5t70.5 27.5h317q41 0 66 -24.5t25 -65.5t-25 -66t-66 -25h-239l-8 -129h4q53 31 112 31z" />
    <glyph glyph-name="seveneighths" unicode="&#x215e;" horiz-adv-x="1728" 
d="M1112 1366q43 0 71.5 -27.5t28.5 -68.5q0 -26 -18 -60l-649 -1173q-28 -51 -84 -51q-43 0 -72 27.5t-29 68.5q0 23 19 59l649 1174q28 51 84 51zM1552 442v-4q125 -58 125 -196q0 -122 -81.5 -189t-229.5 -67t-229.5 67t-81.5 189q0 138 125 196v4q-105 50 -105 168
q0 114 76.5 177t214.5 63t214.5 -63t76.5 -177q0 -118 -105 -168zM1366 670q-44 0 -69 -20.5t-25 -57.5q0 -35 25 -55.5t69 -20.5t69 20.5t25 55.5q0 37 -25 57.5t-69 20.5zM1366 166q55 0 85 22.5t30 63.5t-30 63.5t-85 22.5t-85 -22.5t-30 -63.5t30 -63.5t85 -22.5z
M676 1247q0 -36 -17 -71l-335 -621q-24 -47 -84 -47q-47 0 -74 27.5t-27 72.5q0 32 13 58l288 505h-299q-40 0 -65 26t-25 67q0 40 25 64t65 24h424q49 0 80 -29.5t31 -75.5z" />
    <glyph glyph-name="partialdiff" unicode="&#x2202;" horiz-adv-x="1204" 
d="M598 1376q250 0 385 -160t135 -454q0 -65 -6 -131.5t-23 -146t-44 -149.5t-72 -137.5t-103 -115.5t-141.5 -77.5t-183.5 -29.5q-207 0 -336 124t-129 323q0 212 127.5 342.5t331.5 130.5q177 0 280 -100h4q-6 162 -63.5 240.5t-169.5 78.5q-75 0 -150 -59
q-40 -29 -86 -29q-64 0 -102.5 38t-38.5 101q0 81 72 131q121 80 313 80zM547 238q164 0 235 221q-9 83 -63 131.5t-127 48.5q-100 0 -158.5 -57.5t-58.5 -155.5q0 -88 46 -138t126 -50z" />
    <glyph glyph-name="uni2206" unicode="&#x2206;" horiz-adv-x="1261" 
d="M797 1243l407 -985q21 -54 21 -94q0 -75 -46.5 -119.5t-121.5 -44.5h-858q-72 0 -117 45t-45 117q0 38 16 78l412 1003q51 121 166 121t166 -121zM633 911h-4l-244 -641h483z" />
    <glyph glyph-name="product" unicode="&#x220f;" horiz-adv-x="1347" 
d="M276 1352h795q77 0 119.5 -43t42.5 -119v-1213q0 -75 -41 -118t-113 -43t-112.5 43t-40.5 118v1104h-504v-1104q0 -75 -41 -118t-113 -43t-112.5 43t-40.5 118v1213q0 77 42.5 119.5t118.5 42.5z" />
    <glyph glyph-name="summation" unicode="&#x2211;" horiz-adv-x="1062" 
d="M446 590l-376 506q-37 54 -37 110q0 68 40.5 107t112.5 39h727q66 0 104 -36t38 -99t-38 -99.5t-104 -36.5h-454l274 -379q43 -60 43 -112q0 -53 -43 -113l-274 -379h454q66 0 104 -36t38 -99t-38 -99t-104 -36h-727q-72 0 -112.5 38.5t-40.5 106.5q0 57 37 111z" />
    <glyph glyph-name="minus" unicode="&#x2212;" horiz-adv-x="1163" 
d="M195 741h774q59 0 95 -35t36 -92t-36 -92t-95 -35h-774q-59 0 -95.5 35t-36.5 92t36.5 92t95.5 35z" />
    <glyph glyph-name="uni2219" unicode="&#x2219;" horiz-adv-x="552" 
d="M276 512q-70 0 -116.5 46.5t-46.5 117.5t46.5 117.5t116.5 46.5t117 -47t47 -117t-47 -117t-117 -47z" />
    <glyph glyph-name="radical" unicode="&#x221a;" horiz-adv-x="1081" 
d="M930 1364q64 0 104.5 -35.5t40.5 -93.5q0 -31 -12 -66l-447 -1220q-51 -135 -180 -135q-135 0 -178 135l-178 586q-12 40 -12 71q0 59 44 95t109 36q45 0 80.5 -27t48.5 -79l94 -350h5l352 985q35 98 129 98z" />
    <glyph glyph-name="infinity" unicode="&#x221e;" horiz-adv-x="1312" 
d="M948 932q134 0 217.5 -92t83.5 -240t-83.5 -240t-217.5 -92q-185 0 -309 156q-52 -82 -117.5 -119t-156.5 -37q-134 0 -218 92t-84 240t84 240t218 92q185 0 309 -156q52 82 117.5 119t156.5 37zM389 481q99 0 160 82q-51 89 -85.5 122.5t-74.5 33.5q-49 0 -78.5 -32
t-29.5 -85q0 -54 29.5 -87.5t78.5 -33.5zM924 481q49 0 78.5 32t29.5 85q0 54 -29.5 87.5t-78.5 33.5q-99 0 -160 -82q51 -89 85.5 -122.5t74.5 -33.5z" />
    <glyph glyph-name="integral" unicode="&#x222b;" horiz-adv-x="794" 
d="M653 1446q60 0 94.5 -32t34.5 -89t-34.5 -89t-94.5 -32q-67 0 -91.5 -44.5t-24.5 -166.5v-911q0 -233 -97 -342t-299 -109q-60 0 -94.5 32t-34.5 89t34.5 89t94.5 32q67 0 92 44.5t25 166.5v911q0 233 96.5 342t298.5 109z" />
    <glyph glyph-name="approxequal" unicode="&#x2248;" horiz-adv-x="1163" 
d="M752 643q-112 0 -240 92q-46 31 -64 39t-42 8q-29 0 -53 -16t-52 -57q-36 -52 -106 -52q-56 0 -90.5 35t-34.5 92q0 47 26 84q58 81 140 124.5t176 43.5q111 0 239 -92q46 -31 64 -39t43 -8q30 0 52.5 16t51.5 58q36 51 107 51q56 0 90.5 -35t34.5 -92q0 -45 -27 -84
q-58 -82 -139.5 -125t-175.5 -43zM752 193q-112 0 -240 92q-46 31 -64 39t-42 8q-29 0 -53 -16.5t-52 -57.5q-36 -51 -106 -51q-56 0 -90.5 35t-34.5 92q0 47 26 84q58 81 140 124.5t176 43.5q111 0 239 -92q47 -32 65 -40t42 -8q30 0 52.5 16t51.5 58q36 51 107 51
q56 0 90.5 -35t34.5 -92q0 -45 -27 -84q-120 -167 -315 -167z" />
    <glyph glyph-name="notequal" unicode="&#x2260;" horiz-adv-x="1163" 
d="M659 506h293q59 0 95 -35t36 -92t-36 -92t-95 -35h-434l-102 -189q-31 -55 -92 -55q-47 0 -79 30.5t-32 76.5q0 26 20 65l39 72h-61q-59 0 -95 35t-36 92t36 92t95 35h201l118 217h-319q-59 0 -95 35t-36 92t36 92t95 35h461l102 188q32 56 92 56q47 0 79 -30.5t32 -76.5
q0 -24 -21 -65l-38 -72h34q59 0 95 -35t36 -92t-36 -92t-95 -35h-174z" />
    <glyph glyph-name="lessequal" unicode="&#x2264;" horiz-adv-x="1163" 
d="M225 254h713q59 0 95 -35t36 -92t-36 -92t-95 -35h-713q-59 0 -95 35t-36 92t36 92t95 35zM94 754q0 110 109 153l676 262q33 13 65 13q57 0 91 -37t34 -96q0 -42 -24 -74.5t-62 -46.5l-473 -170v-4l473 -170q38 -14 62 -46.5t24 -74.5q0 -59 -34 -96t-91 -37
q-35 0 -65 12l-676 262q-109 43 -109 150z" />
    <glyph glyph-name="greaterequal" unicode="&#x2265;" horiz-adv-x="1163" 
d="M225 254h713q59 0 95 -35t36 -92t-36 -92t-95 -35h-713q-59 0 -95 35t-36 92t36 92t95 35zM1069 754q0 -108 -108 -150l-676 -262q-30 -12 -66 -12q-57 0 -91 37t-34 96q0 42 24 74.5t62 46.5l473 170v4l-473 170q-38 14 -62 46.5t-24 74.5q0 59 34 96t91 37q33 0 66 -13
l676 -262q108 -42 108 -153z" />
    <glyph glyph-name="lozenge" unicode="&#x25ca;" horiz-adv-x="1142" 
d="M571 1049l-229 -373l229 -373l230 373zM1083 676q0 -42 -32 -96l-336 -523q-54 -82 -146 -82q-87 0 -141 82l-336 523q-33 56 -33 96t33 96l336 522q54 82 141 82q92 0 146 -82l336 -522q32 -54 32 -96z" />
    <glyph glyph-name="uniE069" unicode="&#xe069;" horiz-adv-x="512" 
d="M256 1493q69 0 111.5 -39t42.5 -102v-41q0 -63 -42.5 -102.5t-111.5 -39.5t-111.5 39.5t-42.5 102.5v41q0 63 42.5 102t111.5 39zM256 1049q66 0 102.5 -39.5t36.5 -108.5v-766q0 -69 -36.5 -108t-102.5 -39t-102.5 39t-36.5 108v766q0 69 36.5 108.5t102.5 39.5z" />
    <glyph glyph-name="uniEF01" unicode="&#xef01;" horiz-adv-x="983" 
d="M283 -254l120 141q33 41 91 41q48 0 79 -32.5t31 -85.5q0 -51 -41 -86l-141 -117q-27 -21 -62 -21q-40 0 -68 30t-28 73q0 38 19 57z" />
    <glyph glyph-name="uniEF02" unicode="&#xef02;" horiz-adv-x="983" 
d="M625 1323q0 -17 -4 -37l-58 -233q-9 -37 -37 -58.5t-63 -21.5q-44 0 -73.5 26.5t-29.5 69.5q0 13 5 53l26 205q6 51 36.5 79t80.5 28q52 0 84.5 -30.5t32.5 -80.5z" />
    <glyph glyph-name="uniF8FF" unicode="&#xf8ff;" horiz-adv-x="2048" 
d="M899 430v107h-2l-35 -160h-47l57 258h56v-135h2l57 135h64l-58 -258h-49l35 160h-2l-45 -107h-33zM287 584l-35 -158q-8 -26 -19.5 -37.5t-31.5 -11.5h-95l58 258h88q37 0 37 -31q0 -8 -2 -20zM600 377h-49l12 53h-35l-14 -53h-49l47 211q9 47 53 47h45q37 0 37 -31
q0 -8 -2 -20zM1167 377h-49l12 53h-34l-15 -53h-49l47 211q9 47 54 47h45q36 0 36 -31q0 -8 -2 -20zM821 584l-22 -107q-8 -35 -27 -41l12 -59h-47l-8 53h-27l-12 -53h-49l57 258h88q37 0 37 -31q0 -8 -2 -20zM1731 584l-25 -109q-9 -45 -49 -45h-45l-13 -53h-49l58 258h88
q37 0 37 -31q0 -8 -2 -20zM477 635l-57 -258h-49l12 53h-37l-12 -53h-49l57 258h49l-37 -166h37l37 166h49zM1440 635h49l-35 -154q-1 -7 0.5 -9.5t7.5 -2.5h15q9 0 12 8l35 158h49l-35 -160q-9 -45 -49 -45l-29 -53h-49l29 53q-37 0 -37 31q0 10 2 20zM1845 496l-8 -39h-53
l-8 -41h67l-10 -39h-115l58 258h116l-10 -39h-65l-23 -100h51zM1374 596l-49 -219h-49l49 219h-39l8 39h125l-8 -39h-37zM205 596l-41 -180h26q10 0 13 10l35 158q2 12 -7 12h-26zM1659 477l22 107q1 7 -0.5 9.5t-7.5 2.5h-24l-29 -127h27q9 0 12 8zM750 477l22 107
q1 7 -0.5 9.5t-7.5 2.5h-25l-28 -127h26q10 0 13 8zM1155 596h-14q-11 0 -13 -10l-26 -117h37l24 115q1 7 -0.5 9.5t-7.5 2.5zM588 596h-15q-9 0 -12 -10l-26 -117h36l25 115q1 7 -0.5 9.5t-7.5 2.5zM2021 682v-61h-12v51h-2l-14 -41h-8l-15 41h-2v-51h-10v61h20l11 -33h2
l10 33h20zM1950 682v-10h-19v-51h-12v51h-16v10h47z" />
    <glyph glyph-name="zero.numr" 
d="M66 799v270q0 140 78.5 218.5t217.5 78.5q140 0 218.5 -79t78.5 -218v-270q0 -139 -78.5 -218t-218.5 -79q-139 0 -217.5 78.5t-78.5 218.5zM463 805v254q0 123 -101 123q-100 0 -100 -123v-254q0 -123 100 -123q101 0 101 123z" />
    <glyph glyph-name="one.numr" 
d="M510 698h78q41 0 65.5 -24.5t24.5 -67.5q0 -41 -24.5 -65.5t-65.5 -24.5h-363q-41 0 -65.5 24.5t-24.5 65.5q0 40 24.5 65t65.5 25h88v475h-88q-41 0 -65.5 25t-24.5 68q0 41 24.5 64.5t65.5 23.5h187q44 0 71 -28.5t27 -74.5v-551z" />
    <glyph glyph-name="two.numr" 
d="M285 696h266q41 0 65.5 -24.5t24.5 -65.5t-24.5 -65.5t-65.5 -24.5h-363q-46 0 -73 28t-27 74v7q0 145 55.5 226.5t184.5 127.5q74 27 100.5 54t26.5 71q0 82 -76 82q-56 0 -100 -56q-33 -45 -86 -45q-43 0 -68 26.5t-25 70.5q0 27 23 65q38 55 106 87t148 32
q132 0 203 -67.5t71 -194.5q0 -107 -48 -169.5t-165 -100.5q-82 -27 -115 -57.5t-38 -80.5z" />
    <glyph glyph-name="three.numr" 
d="M537 958v-4q116 -51 116 -188q0 -126 -78 -195t-219 -69q-91 0 -160.5 34t-105.5 95q-14 22 -14 53q0 44 26 71t68 27q55 0 80 -43q35 -57 112 -57q43 0 67 23.5t24 66.5q0 40 -25.5 62t-71.5 22h-49q-41 0 -65.5 24t-24.5 64t24.5 64t65.5 24h31q98 0 98 80
q0 35 -19.5 54.5t-56.5 19.5q-55 0 -100 -58q-27 -38 -76 -38q-43 0 -68.5 26t-25.5 70q0 36 19 61q86 119 247 119q133 0 205 -62t72 -178q0 -117 -96 -168z" />
    <glyph glyph-name="four.numr" 
d="M598 872h12q41 0 65.5 -24.5t24.5 -65.5t-24.5 -65.5t-65.5 -24.5h-12v-80q0 -48 -26.5 -76t-71.5 -28q-46 0 -72.5 28.5t-26.5 75.5v80h-245q-49 0 -77 26.5t-28 69.5q0 39 25 78l299 432q43 62 114 62q50 0 79.5 -34t29.5 -85v-369zM406 1083h-5l-137 -211h142v211z
" />
    <glyph glyph-name="five.numr" 
d="M401 1073q121 0 189.5 -75.5t68.5 -209.5q0 -132 -80 -209t-217 -77q-91 0 -162 36t-102 97q-12 24 -12 51q0 44 25.5 71t68.5 27q52 0 82 -49q33 -53 103 -53q46 0 72 27.5t26 78.5q0 49 -27 77t-74 28q-50 0 -97.5 -26.5t-74.5 -26.5q-43 0 -67 24t-27 68v10l19 309
q3 46 29.5 73.5t70.5 27.5h317q41 0 66 -24.5t25 -65.5t-25 -66t-66 -25h-239l-8 -129h4q53 31 112 31z" />
    <glyph glyph-name="six.numr" 
d="M412 1061q120 0 189 -75t69 -204q0 -128 -80 -204t-215 -76q-139 0 -218 79t-79 218v272q0 137 81 216t220 79q167 0 246 -94q20 -27 20 -62q0 -43 -26.5 -69.5t-69.5 -26.5q-39 0 -68 29q-43 43 -98 43q-52 0 -80.5 -32t-28.5 -89v-51h5q53 47 133 47zM375 682
q46 0 72 26.5t26 73.5q0 46 -26 72.5t-72 26.5q-47 0 -74 -26.5t-27 -72.5v-4q0 -44 27 -70t74 -26z" />
    <glyph glyph-name="seven.numr" 
d="M676 1247q0 -36 -17 -71l-335 -621q-24 -47 -84 -47q-47 0 -74 27.5t-27 72.5q0 32 13 58l288 505h-299q-40 0 -65 26t-25 67q0 40 25 64t65 24h424q49 0 80 -29.5t31 -75.5z" />
    <glyph glyph-name="eight.numr" 
d="M549 958v-4q125 -58 125 -196q0 -121 -82 -188.5t-230 -67.5t-229.5 67t-81.5 189q0 138 125 196v4q-104 49 -104 168q0 114 76 177t214 63t214.5 -63t76.5 -177q0 -119 -104 -168zM362 1186q-44 0 -69 -20.5t-25 -57.5q0 -35 25 -55.5t69 -20.5t69.5 20.5t25.5 55.5
q0 37 -25.5 57.5t-69.5 20.5zM362 682q55 0 85 22.5t30 63.5t-30 63.5t-85 22.5t-84.5 -22.5t-29.5 -63.5t29.5 -63.5t84.5 -22.5z" />
    <glyph glyph-name="nine.numr" 
d="M350 1366q140 0 218.5 -79t78.5 -218v-272q0 -137 -81 -216t-220 -79q-167 0 -246 94q-20 27 -20 61q0 43 26.5 70t69.5 27q39 0 68 -29q43 -43 98 -43q52 0 80.5 32t28.5 89v51h-5q-53 -47 -133 -47q-120 0 -189 74.5t-69 203.5q0 128 80 204.5t215 76.5zM350 987
q47 0 74 26t27 72v5q0 44 -27 70t-74 26q-46 0 -72 -27t-26 -74q0 -46 26 -72t72 -26z" />
    <glyph glyph-name="zero.dnom" 
d="M66 283v270q0 140 78.5 218.5t217.5 78.5q140 0 218.5 -79t78.5 -218v-270q0 -139 -78.5 -218t-218.5 -79q-139 0 -217.5 78.5t-78.5 218.5zM463 289v254q0 123 -101 123q-100 0 -100 -123v-254q0 -123 100 -123q101 0 101 123z" />
    <glyph glyph-name="one.dnom" 
d="M510 182h78q41 0 65.5 -24.5t24.5 -67.5q0 -41 -24.5 -65.5t-65.5 -24.5h-363q-41 0 -65.5 24.5t-24.5 65.5q0 40 24.5 65t65.5 25h88v475h-88q-41 0 -65.5 25t-24.5 68q0 41 24.5 64.5t65.5 23.5h187q44 0 71 -28.5t27 -74.5v-551z" />
    <glyph glyph-name="two.dnom" 
d="M285 180h266q41 0 65.5 -24.5t24.5 -65.5t-24.5 -65.5t-65.5 -24.5h-363q-46 0 -73 28t-27 74v7q0 145 55.5 226.5t184.5 127.5q74 27 100.5 54t26.5 71q0 82 -76 82q-56 0 -100 -56q-33 -45 -86 -45q-43 0 -68 26.5t-25 70.5q0 27 23 65q38 55 106 87t148 32
q132 0 203 -67.5t71 -194.5q0 -108 -48 -170.5t-165 -100.5q-83 -28 -115.5 -57.5t-37.5 -79.5z" />
    <glyph glyph-name="three.dnom" 
d="M537 442v-4q116 -51 116 -188q0 -126 -78 -195t-219 -69q-91 0 -160.5 34t-105.5 95q-14 22 -14 53q0 44 26 71t68 27q55 0 80 -43q35 -57 112 -57q43 0 67 23.5t24 66.5q0 40 -25.5 62t-71.5 22h-49q-41 0 -65.5 24t-24.5 64t24.5 64t65.5 24h31q98 0 98 80
q0 35 -19.5 54.5t-56.5 19.5q-55 0 -100 -58q-28 -39 -76 -39q-43 0 -68.5 26.5t-25.5 70.5q0 36 19 61q86 119 247 119q133 0 205 -62t72 -178q0 -117 -96 -168z" />
    <glyph glyph-name="four.dnom" 
d="M598 356h12q41 0 65.5 -24.5t24.5 -65.5t-24.5 -65.5t-65.5 -24.5h-12v-80q0 -48 -26.5 -76t-71.5 -28q-46 0 -72.5 28.5t-26.5 75.5v80h-245q-49 0 -77 26.5t-28 69.5q0 39 25 78l299 432q43 62 114 62q50 0 79.5 -34t29.5 -85v-369zM406 567h-5l-137 -211h142v211z" />
    <glyph glyph-name="five.dnom" 
d="M401 557q121 0 189.5 -75.5t68.5 -209.5q0 -132 -80 -209t-217 -77q-91 0 -162 36t-102 97q-12 24 -12 51q0 44 25.5 71t68.5 27q52 0 82 -49q33 -53 103 -53q46 0 72 27.5t26 78.5q0 49 -27 77t-74 28q-50 0 -97.5 -26.5t-74.5 -26.5q-43 0 -67 24t-27 68v10l19 309
q3 46 29.5 73.5t70.5 27.5h317q41 0 66 -25t25 -66t-25 -65.5t-66 -24.5h-239l-8 -129h4q53 31 112 31z" />
    <glyph glyph-name="six.dnom" 
d="M412 545q120 0 189 -75t69 -204q0 -128 -80 -204t-215 -76q-139 0 -218 79t-79 218v272q0 137 81 216t220 79q167 0 246 -94q20 -27 20 -62q0 -43 -26.5 -69.5t-69.5 -26.5q-39 0 -68 29q-43 43 -98 43q-52 0 -80.5 -32t-28.5 -89v-51h5q53 47 133 47zM375 166
q46 0 72 26.5t26 73.5q0 46 -26 72.5t-72 26.5q-47 0 -74 -26.5t-27 -72.5v-4q0 -44 27 -70t74 -26z" />
    <glyph glyph-name="seven.dnom" 
d="M676 731q0 -37 -17 -72l-335 -620q-24 -47 -84 -47q-47 0 -74 27.5t-27 72.5q0 32 13 58l288 505h-299q-40 0 -65 26t-25 67q0 40 25 64t65 24h424q49 0 80 -29.5t31 -75.5z" />
    <glyph glyph-name="eight.dnom" 
d="M549 442v-4q125 -58 125 -196q0 -121 -82 -188.5t-230 -67.5t-229.5 67t-81.5 189q0 138 125 196v4q-104 49 -104 168q0 114 76 177t214 63t214.5 -63t76.5 -177q0 -119 -104 -168zM362 670q-44 0 -69 -20.5t-25 -57.5q0 -35 25 -55.5t69 -20.5t69.5 20.5t25.5 55.5
q0 37 -25.5 57.5t-69.5 20.5zM362 166q55 0 85 22.5t30 63.5t-30 63.5t-85 22.5t-84.5 -22.5t-29.5 -63.5t29.5 -63.5t84.5 -22.5z" />
    <glyph glyph-name="nine.dnom" 
d="M350 850q140 0 218.5 -79t78.5 -218v-272q0 -137 -81 -216t-220 -79q-167 0 -246 94q-20 27 -20 61q0 43 26.5 70t69.5 27q39 0 68 -29q43 -43 98 -43q52 0 80.5 32t28.5 89v51h-5q-53 -47 -133 -47q-120 0 -189 74.5t-69 203.5q0 128 80 204.5t215 76.5zM350 471
q47 0 74 26t27 72v4q0 45 -27 71t-74 26q-46 0 -72 -27t-26 -74q0 -46 26 -72t72 -26z" />
    </font>
</defs>
</svg>
